M48
; DRILL file {KiCad (5.1.9)-1} date 05/06/21 02:49:53
; FORMAT={-:-/ absolute / inch / decimal}
; #@! TF.CreationDate,2021-05-06T02:49:53-06:00
; #@! TF.GenerationSoftware,Kicad,Pcbnew,(5.1.9)-1
; #@! TF.FileFunction,Plated,1,4,PTH
FMAT,2
INCH
T1C0.0157
T2C0.0197
T3C0.0236
T4C0.0256
T5C0.0472
T6C0.0866
%
G90
G05
T1
X4.335Y-4.24
X4.3541Y-4.194
X4.3541Y-4.2859
X4.385Y-1.965
X4.4Y-4.175
X4.4Y-4.3049
X4.4041Y-1.919
X4.4041Y-2.0109
X4.4459Y-4.194
X4.4459Y-4.2859
X4.45Y-1.9
X4.45Y-2.0299
X4.465Y-4.24
X4.4959Y-1.919
X4.4959Y-2.0109
X4.515Y-1.965
X4.6063Y-2.8642
X4.6102Y-3.0433
X4.8031Y-3.3858
X4.8268Y-2.9882
X4.8268Y-3.3465
X4.8465Y-2.4291
X4.8583Y-2.878
X4.9213Y-3.3858
X4.9252Y-3.2756
X4.9252Y-3.4252
X4.9252Y-3.4921
X4.9252Y-3.5748
X4.9685Y-3.1102
X5.0Y-3.5709
X5.0Y-3.6969
X5.0394Y-3.4291
X5.0433Y-3.0276
X5.0433Y-3.3583
X5.1083Y-3.0709
X5.126Y-3.4252
X5.126Y-3.5709
X5.1772Y-2.9713
X5.1772Y-3.5335
X5.1973Y-3.4442
X5.2323Y-3.0433
X5.2362Y-2.7992
X5.252Y-3.1457
X5.2677Y-2.9016
X5.2756Y-3.4567
X5.2992Y-3.6496
X5.3346Y-2.6575
X5.3543Y-2.5315
X5.3583Y-2.311
X5.3937Y-3.1181
X5.4213Y-3.2047
X5.4213Y-3.2047
X5.4646Y-2.7717
X5.4724Y-2.7264
X5.4843Y-2.6063
X5.4921Y-3.4961
X5.5Y-2.3819
X5.5394Y-2.3819
X5.5472Y-1.9843
X5.5709Y-3.185
X5.5787Y-2.374
X5.6496Y-2.1811
X5.689Y-2.0276
X5.6969Y-2.1693
X5.7756Y-4.2244
X5.7992Y-3.7992
X5.7992Y-3.9213
X5.8583Y-3.5945
X5.8583Y-3.8031
X5.9528Y-4.0984
X5.9941Y-2.7461
X5.9941Y-2.8937
X6.0394Y-3.8346
X6.0394Y-4.1654
X6.0512Y-2.6024
X6.0827Y-3.5866
X6.1024Y-3.374
X6.126Y-3.811
X6.1575Y-3.2835
X6.1693Y-2.3504
X6.2008Y-4.1181
X6.2008Y-4.3307
X6.2047Y-3.8425
X6.2559Y-2.3543
X6.2598Y-2.4764
X6.2598Y-3.8858
X6.2598Y-4.1654
X6.2598Y-4.2874
X6.2913Y-3.4921
X6.3189Y-4.0059
X6.378Y-3.8425
X6.3819Y-4.0551
X6.3976Y-2.685
X6.437Y-3.8937
X6.4528Y-2.685
X6.5079Y-2.685
X6.5236Y-1.9961
X6.5787Y-1.9016
X6.5866Y-2.0669
X6.61Y-1.975
X6.6102Y-3.1339
X6.6291Y-1.9291
X6.6291Y-2.0209
X6.635Y-4.225
X6.6541Y-4.1791
X6.6541Y-4.2709
X6.6575Y-3.1969
X6.675Y-1.91
X6.675Y-2.04
X6.7Y-4.16
X6.7Y-4.29
X6.7209Y-1.9291
X6.7209Y-2.0209
X6.74Y-1.975
X6.7459Y-4.1791
X6.7459Y-4.2709
X6.765Y-4.225
T2
X4.8Y-4.175
X4.8492Y-4.175
X4.8524Y-2.35
X4.8984Y-4.175
X4.9016Y-2.35
X4.9476Y-4.175
X4.9508Y-2.35
X5.0Y-2.35
T5
X6.45Y-2.7872
X6.45Y-2.925
T6
X4.4Y-4.24
X4.45Y-1.965
X6.675Y-1.975
X6.7Y-4.225
T3
G00X6.5138Y-2.2106
M15
G01X6.4862Y-2.2106
M16
G05
G00X6.5138Y-2.5394
M15
G01X6.4862Y-2.5394
M16
G05
T4
G00X6.622Y-2.2874
M15
G01X6.6142Y-2.2874
M16
G05
G00X6.622Y-2.4626
M15
G01X6.6142Y-2.4626
M16
G05
T0
M30
