%TF.GenerationSoftware,KiCad,Pcbnew,(5.1.9)-1*%
%TF.CreationDate,2021-05-06T02:52:02-06:00*%
%TF.ProjectId,stm32 design,73746d33-3220-4646-9573-69676e2e6b69,rev?*%
%TF.SameCoordinates,Original*%
%TF.FileFunction,Copper,L1,Top*%
%TF.FilePolarity,Positive*%
%FSLAX46Y46*%
G04 Gerber Fmt 4.6, Leading zero omitted, Abs format (unit mm)*
G04 Created by KiCad (PCBNEW (5.1.9)-1) date 2021-05-06 02:52:02*
%MOMM*%
%LPD*%
G01*
G04 APERTURE LIST*
%TA.AperFunction,ComponentPad*%
%ADD10O,1.250000X1.050000*%
%TD*%
%TA.AperFunction,SMDPad,CuDef*%
%ADD11R,1.350000X0.400000*%
%TD*%
%TA.AperFunction,ComponentPad*%
%ADD12O,1.900000X1.000000*%
%TD*%
%TA.AperFunction,SMDPad,CuDef*%
%ADD13R,1.900000X2.900000*%
%TD*%
%TA.AperFunction,SMDPad,CuDef*%
%ADD14R,1.900000X0.875000*%
%TD*%
%TA.AperFunction,SMDPad,CuDef*%
%ADD15R,0.900000X1.200000*%
%TD*%
%TA.AperFunction,SMDPad,CuDef*%
%ADD16R,1.200000X0.900000*%
%TD*%
%TA.AperFunction,ComponentPad*%
%ADD17C,0.700000*%
%TD*%
%TA.AperFunction,ComponentPad*%
%ADD18C,4.400000*%
%TD*%
%TA.AperFunction,ComponentPad*%
%ADD19R,2.400000X2.400000*%
%TD*%
%TA.AperFunction,ComponentPad*%
%ADD20C,2.400000*%
%TD*%
%TA.AperFunction,SMDPad,CuDef*%
%ADD21R,0.500000X1.850000*%
%TD*%
%TA.AperFunction,ComponentPad*%
%ADD22O,0.800000X1.300000*%
%TD*%
%TA.AperFunction,SMDPad,CuDef*%
%ADD23R,2.500000X1.900000*%
%TD*%
%TA.AperFunction,SMDPad,CuDef*%
%ADD24R,0.800000X0.900000*%
%TD*%
%TA.AperFunction,SMDPad,CuDef*%
%ADD25R,1.500000X0.700000*%
%TD*%
%TA.AperFunction,SMDPad,CuDef*%
%ADD26R,0.800000X1.000000*%
%TD*%
%TA.AperFunction,SMDPad,CuDef*%
%ADD27R,1.060000X0.650000*%
%TD*%
%TA.AperFunction,SMDPad,CuDef*%
%ADD28R,1.400000X1.200000*%
%TD*%
%TA.AperFunction,ViaPad*%
%ADD29C,0.800000*%
%TD*%
%TA.AperFunction,Conductor*%
%ADD30C,0.300000*%
%TD*%
%TA.AperFunction,Conductor*%
%ADD31C,0.750000*%
%TD*%
%TA.AperFunction,Conductor*%
%ADD32C,0.500000*%
%TD*%
%TA.AperFunction,Conductor*%
%ADD33C,1.000000*%
%TD*%
%TA.AperFunction,Conductor*%
%ADD34C,0.261112*%
%TD*%
G04 APERTURE END LIST*
D10*
%TO.P,J2,6*%
%TO.N,Net-(J2-Pad6)*%
X168100000Y-58100000D03*
D11*
%TO.P,J2,5*%
%TO.N,GND*%
X167775000Y-59025000D03*
%TO.P,J2,4*%
%TO.N,Net-(J2-Pad4)*%
X167775000Y-59675000D03*
%TO.P,J2,3*%
%TO.N,USB_CONN_D+*%
X167775000Y-60325000D03*
%TO.P,J2,1*%
%TO.N,+5V*%
X167775000Y-61625000D03*
D10*
%TO.P,J2,6*%
%TO.N,Net-(J2-Pad6)*%
X168100000Y-62550000D03*
D12*
X165100000Y-56150000D03*
X165100000Y-64500000D03*
D11*
%TO.P,J2,2*%
%TO.N,USB_CONN_D-*%
X167775000Y-60975000D03*
D13*
%TO.P,J2,6*%
%TO.N,Net-(J2-Pad6)*%
X165100000Y-60325000D03*
D14*
X165100000Y-64062500D03*
X165100000Y-56587500D03*
%TD*%
%TO.P,C1,2*%
%TO.N,GND*%
%TA.AperFunction,SMDPad,CuDef*%
G36*
G01*
X130530000Y-81450000D02*
X130530000Y-81110000D01*
G75*
G02*
X130670000Y-80970000I140000J0D01*
G01*
X130950000Y-80970000D01*
G75*
G02*
X131090000Y-81110000I0J-140000D01*
G01*
X131090000Y-81450000D01*
G75*
G02*
X130950000Y-81590000I-140000J0D01*
G01*
X130670000Y-81590000D01*
G75*
G02*
X130530000Y-81450000I0J140000D01*
G01*
G37*
%TD.AperFunction*%
%TO.P,C1,1*%
%TO.N,HSE_IN*%
%TA.AperFunction,SMDPad,CuDef*%
G36*
G01*
X129570000Y-81450000D02*
X129570000Y-81110000D01*
G75*
G02*
X129710000Y-80970000I140000J0D01*
G01*
X129990000Y-80970000D01*
G75*
G02*
X130130000Y-81110000I0J-140000D01*
G01*
X130130000Y-81450000D01*
G75*
G02*
X129990000Y-81590000I-140000J0D01*
G01*
X129710000Y-81590000D01*
G75*
G02*
X129570000Y-81450000I0J140000D01*
G01*
G37*
%TD.AperFunction*%
%TD*%
%TO.P,C2,2*%
%TO.N,GND*%
%TA.AperFunction,SMDPad,CuDef*%
G36*
G01*
X127250000Y-88575000D02*
X126750000Y-88575000D01*
G75*
G02*
X126525000Y-88350000I0J225000D01*
G01*
X126525000Y-87900000D01*
G75*
G02*
X126750000Y-87675000I225000J0D01*
G01*
X127250000Y-87675000D01*
G75*
G02*
X127475000Y-87900000I0J-225000D01*
G01*
X127475000Y-88350000D01*
G75*
G02*
X127250000Y-88575000I-225000J0D01*
G01*
G37*
%TD.AperFunction*%
%TO.P,C2,1*%
%TO.N,+3.3VA*%
%TA.AperFunction,SMDPad,CuDef*%
G36*
G01*
X127250000Y-90125000D02*
X126750000Y-90125000D01*
G75*
G02*
X126525000Y-89900000I0J225000D01*
G01*
X126525000Y-89450000D01*
G75*
G02*
X126750000Y-89225000I225000J0D01*
G01*
X127250000Y-89225000D01*
G75*
G02*
X127475000Y-89450000I0J-225000D01*
G01*
X127475000Y-89900000D01*
G75*
G02*
X127250000Y-90125000I-225000J0D01*
G01*
G37*
%TD.AperFunction*%
%TD*%
%TO.P,C3,1*%
%TO.N,Net-(C3-Pad1)*%
%TA.AperFunction,SMDPad,CuDef*%
G36*
G01*
X124585000Y-81110000D02*
X124585000Y-81450000D01*
G75*
G02*
X124445000Y-81590000I-140000J0D01*
G01*
X124165000Y-81590000D01*
G75*
G02*
X124025000Y-81450000I0J140000D01*
G01*
X124025000Y-81110000D01*
G75*
G02*
X124165000Y-80970000I140000J0D01*
G01*
X124445000Y-80970000D01*
G75*
G02*
X124585000Y-81110000I0J-140000D01*
G01*
G37*
%TD.AperFunction*%
%TO.P,C3,2*%
%TO.N,GND*%
%TA.AperFunction,SMDPad,CuDef*%
G36*
G01*
X123625000Y-81110000D02*
X123625000Y-81450000D01*
G75*
G02*
X123485000Y-81590000I-140000J0D01*
G01*
X123205000Y-81590000D01*
G75*
G02*
X123065000Y-81450000I0J140000D01*
G01*
X123065000Y-81110000D01*
G75*
G02*
X123205000Y-80970000I140000J0D01*
G01*
X123485000Y-80970000D01*
G75*
G02*
X123625000Y-81110000I0J-140000D01*
G01*
G37*
%TD.AperFunction*%
%TD*%
%TO.P,C4,2*%
%TO.N,GND*%
%TA.AperFunction,SMDPad,CuDef*%
G36*
G01*
X124025000Y-85260000D02*
X124025000Y-84920000D01*
G75*
G02*
X124165000Y-84780000I140000J0D01*
G01*
X124445000Y-84780000D01*
G75*
G02*
X124585000Y-84920000I0J-140000D01*
G01*
X124585000Y-85260000D01*
G75*
G02*
X124445000Y-85400000I-140000J0D01*
G01*
X124165000Y-85400000D01*
G75*
G02*
X124025000Y-85260000I0J140000D01*
G01*
G37*
%TD.AperFunction*%
%TO.P,C4,1*%
%TO.N,+3.3VA*%
%TA.AperFunction,SMDPad,CuDef*%
G36*
G01*
X123065000Y-85260000D02*
X123065000Y-84920000D01*
G75*
G02*
X123205000Y-84780000I140000J0D01*
G01*
X123485000Y-84780000D01*
G75*
G02*
X123625000Y-84920000I0J-140000D01*
G01*
X123625000Y-85260000D01*
G75*
G02*
X123485000Y-85400000I-140000J0D01*
G01*
X123205000Y-85400000D01*
G75*
G02*
X123065000Y-85260000I0J140000D01*
G01*
G37*
%TD.AperFunction*%
%TD*%
%TO.P,C5,1*%
%TO.N,+3.3VA*%
%TA.AperFunction,SMDPad,CuDef*%
G36*
G01*
X124585000Y-83015000D02*
X124585000Y-83355000D01*
G75*
G02*
X124445000Y-83495000I-140000J0D01*
G01*
X124165000Y-83495000D01*
G75*
G02*
X124025000Y-83355000I0J140000D01*
G01*
X124025000Y-83015000D01*
G75*
G02*
X124165000Y-82875000I140000J0D01*
G01*
X124445000Y-82875000D01*
G75*
G02*
X124585000Y-83015000I0J-140000D01*
G01*
G37*
%TD.AperFunction*%
%TO.P,C5,2*%
%TO.N,GND*%
%TA.AperFunction,SMDPad,CuDef*%
G36*
G01*
X123625000Y-83015000D02*
X123625000Y-83355000D01*
G75*
G02*
X123485000Y-83495000I-140000J0D01*
G01*
X123205000Y-83495000D01*
G75*
G02*
X123065000Y-83355000I0J140000D01*
G01*
X123065000Y-83015000D01*
G75*
G02*
X123205000Y-82875000I140000J0D01*
G01*
X123485000Y-82875000D01*
G75*
G02*
X123625000Y-83015000I0J-140000D01*
G01*
G37*
%TD.AperFunction*%
%TD*%
%TO.P,C6,2*%
%TO.N,GND*%
%TA.AperFunction,SMDPad,CuDef*%
G36*
G01*
X123625000Y-90635000D02*
X123625000Y-90975000D01*
G75*
G02*
X123485000Y-91115000I-140000J0D01*
G01*
X123205000Y-91115000D01*
G75*
G02*
X123065000Y-90975000I0J140000D01*
G01*
X123065000Y-90635000D01*
G75*
G02*
X123205000Y-90495000I140000J0D01*
G01*
X123485000Y-90495000D01*
G75*
G02*
X123625000Y-90635000I0J-140000D01*
G01*
G37*
%TD.AperFunction*%
%TO.P,C6,1*%
%TO.N,+3.3VA*%
%TA.AperFunction,SMDPad,CuDef*%
G36*
G01*
X124585000Y-90635000D02*
X124585000Y-90975000D01*
G75*
G02*
X124445000Y-91115000I-140000J0D01*
G01*
X124165000Y-91115000D01*
G75*
G02*
X124025000Y-90975000I0J140000D01*
G01*
X124025000Y-90635000D01*
G75*
G02*
X124165000Y-90495000I140000J0D01*
G01*
X124445000Y-90495000D01*
G75*
G02*
X124585000Y-90635000I0J-140000D01*
G01*
G37*
%TD.AperFunction*%
%TD*%
%TO.P,C7,1*%
%TO.N,Net-(C7-Pad1)*%
%TA.AperFunction,SMDPad,CuDef*%
G36*
G01*
X142625000Y-87675000D02*
X143125000Y-87675000D01*
G75*
G02*
X143350000Y-87900000I0J-225000D01*
G01*
X143350000Y-88350000D01*
G75*
G02*
X143125000Y-88575000I-225000J0D01*
G01*
X142625000Y-88575000D01*
G75*
G02*
X142400000Y-88350000I0J225000D01*
G01*
X142400000Y-87900000D01*
G75*
G02*
X142625000Y-87675000I225000J0D01*
G01*
G37*
%TD.AperFunction*%
%TO.P,C7,2*%
%TO.N,Net-(C7-Pad2)*%
%TA.AperFunction,SMDPad,CuDef*%
G36*
G01*
X142625000Y-89225000D02*
X143125000Y-89225000D01*
G75*
G02*
X143350000Y-89450000I0J-225000D01*
G01*
X143350000Y-89900000D01*
G75*
G02*
X143125000Y-90125000I-225000J0D01*
G01*
X142625000Y-90125000D01*
G75*
G02*
X142400000Y-89900000I0J225000D01*
G01*
X142400000Y-89450000D01*
G75*
G02*
X142625000Y-89225000I225000J0D01*
G01*
G37*
%TD.AperFunction*%
%TD*%
%TO.P,C8,2*%
%TO.N,Net-(C7-Pad2)*%
%TA.AperFunction,SMDPad,CuDef*%
G36*
G01*
X145800000Y-89225000D02*
X146300000Y-89225000D01*
G75*
G02*
X146525000Y-89450000I0J-225000D01*
G01*
X146525000Y-89900000D01*
G75*
G02*
X146300000Y-90125000I-225000J0D01*
G01*
X145800000Y-90125000D01*
G75*
G02*
X145575000Y-89900000I0J225000D01*
G01*
X145575000Y-89450000D01*
G75*
G02*
X145800000Y-89225000I225000J0D01*
G01*
G37*
%TD.AperFunction*%
%TO.P,C8,1*%
%TO.N,Net-(C8-Pad1)*%
%TA.AperFunction,SMDPad,CuDef*%
G36*
G01*
X145800000Y-87675000D02*
X146300000Y-87675000D01*
G75*
G02*
X146525000Y-87900000I0J-225000D01*
G01*
X146525000Y-88350000D01*
G75*
G02*
X146300000Y-88575000I-225000J0D01*
G01*
X145800000Y-88575000D01*
G75*
G02*
X145575000Y-88350000I0J225000D01*
G01*
X145575000Y-87900000D01*
G75*
G02*
X145800000Y-87675000I225000J0D01*
G01*
G37*
%TD.AperFunction*%
%TD*%
%TO.P,C9,1*%
%TO.N,+3.3VA*%
%TA.AperFunction,SMDPad,CuDef*%
G36*
G01*
X124585000Y-86825000D02*
X124585000Y-87165000D01*
G75*
G02*
X124445000Y-87305000I-140000J0D01*
G01*
X124165000Y-87305000D01*
G75*
G02*
X124025000Y-87165000I0J140000D01*
G01*
X124025000Y-86825000D01*
G75*
G02*
X124165000Y-86685000I140000J0D01*
G01*
X124445000Y-86685000D01*
G75*
G02*
X124585000Y-86825000I0J-140000D01*
G01*
G37*
%TD.AperFunction*%
%TO.P,C9,2*%
%TO.N,GND*%
%TA.AperFunction,SMDPad,CuDef*%
G36*
G01*
X123625000Y-86825000D02*
X123625000Y-87165000D01*
G75*
G02*
X123485000Y-87305000I-140000J0D01*
G01*
X123205000Y-87305000D01*
G75*
G02*
X123065000Y-87165000I0J140000D01*
G01*
X123065000Y-86825000D01*
G75*
G02*
X123205000Y-86685000I140000J0D01*
G01*
X123485000Y-86685000D01*
G75*
G02*
X123625000Y-86825000I0J-140000D01*
G01*
G37*
%TD.AperFunction*%
%TD*%
%TO.P,C10,2*%
%TO.N,GND*%
%TA.AperFunction,SMDPad,CuDef*%
G36*
G01*
X123625000Y-88730000D02*
X123625000Y-89070000D01*
G75*
G02*
X123485000Y-89210000I-140000J0D01*
G01*
X123205000Y-89210000D01*
G75*
G02*
X123065000Y-89070000I0J140000D01*
G01*
X123065000Y-88730000D01*
G75*
G02*
X123205000Y-88590000I140000J0D01*
G01*
X123485000Y-88590000D01*
G75*
G02*
X123625000Y-88730000I0J-140000D01*
G01*
G37*
%TD.AperFunction*%
%TO.P,C10,1*%
%TO.N,+3.3VA*%
%TA.AperFunction,SMDPad,CuDef*%
G36*
G01*
X124585000Y-88730000D02*
X124585000Y-89070000D01*
G75*
G02*
X124445000Y-89210000I-140000J0D01*
G01*
X124165000Y-89210000D01*
G75*
G02*
X124025000Y-89070000I0J140000D01*
G01*
X124025000Y-88730000D01*
G75*
G02*
X124165000Y-88590000I140000J0D01*
G01*
X124445000Y-88590000D01*
G75*
G02*
X124585000Y-88730000I0J-140000D01*
G01*
G37*
%TD.AperFunction*%
%TD*%
%TO.P,C11,1*%
%TO.N,+3.3VA*%
%TA.AperFunction,SMDPad,CuDef*%
G36*
G01*
X133180000Y-88140000D02*
X133520000Y-88140000D01*
G75*
G02*
X133660000Y-88280000I0J-140000D01*
G01*
X133660000Y-88560000D01*
G75*
G02*
X133520000Y-88700000I-140000J0D01*
G01*
X133180000Y-88700000D01*
G75*
G02*
X133040000Y-88560000I0J140000D01*
G01*
X133040000Y-88280000D01*
G75*
G02*
X133180000Y-88140000I140000J0D01*
G01*
G37*
%TD.AperFunction*%
%TO.P,C11,2*%
%TO.N,GND*%
%TA.AperFunction,SMDPad,CuDef*%
G36*
G01*
X133180000Y-89100000D02*
X133520000Y-89100000D01*
G75*
G02*
X133660000Y-89240000I0J-140000D01*
G01*
X133660000Y-89520000D01*
G75*
G02*
X133520000Y-89660000I-140000J0D01*
G01*
X133180000Y-89660000D01*
G75*
G02*
X133040000Y-89520000I0J140000D01*
G01*
X133040000Y-89240000D01*
G75*
G02*
X133180000Y-89100000I140000J0D01*
G01*
G37*
%TD.AperFunction*%
%TD*%
%TO.P,C12,1*%
%TO.N,+3.3VA*%
%TA.AperFunction,SMDPad,CuDef*%
G36*
G01*
X130425000Y-90125000D02*
X129925000Y-90125000D01*
G75*
G02*
X129700000Y-89900000I0J225000D01*
G01*
X129700000Y-89450000D01*
G75*
G02*
X129925000Y-89225000I225000J0D01*
G01*
X130425000Y-89225000D01*
G75*
G02*
X130650000Y-89450000I0J-225000D01*
G01*
X130650000Y-89900000D01*
G75*
G02*
X130425000Y-90125000I-225000J0D01*
G01*
G37*
%TD.AperFunction*%
%TO.P,C12,2*%
%TO.N,GND*%
%TA.AperFunction,SMDPad,CuDef*%
G36*
G01*
X130425000Y-88575000D02*
X129925000Y-88575000D01*
G75*
G02*
X129700000Y-88350000I0J225000D01*
G01*
X129700000Y-87900000D01*
G75*
G02*
X129925000Y-87675000I225000J0D01*
G01*
X130425000Y-87675000D01*
G75*
G02*
X130650000Y-87900000I0J-225000D01*
G01*
X130650000Y-88350000D01*
G75*
G02*
X130425000Y-88575000I-225000J0D01*
G01*
G37*
%TD.AperFunction*%
%TD*%
%TO.P,C13,2*%
%TO.N,GND*%
%TA.AperFunction,SMDPad,CuDef*%
G36*
G01*
X167270000Y-81930001D02*
X167270000Y-80629999D01*
G75*
G02*
X167519999Y-80380000I249999J0D01*
G01*
X168170001Y-80380000D01*
G75*
G02*
X168420000Y-80629999I0J-249999D01*
G01*
X168420000Y-81930001D01*
G75*
G02*
X168170001Y-82180000I-249999J0D01*
G01*
X167519999Y-82180000D01*
G75*
G02*
X167270000Y-81930001I0J249999D01*
G01*
G37*
%TD.AperFunction*%
%TO.P,C13,1*%
%TO.N,BUCK_IN*%
%TA.AperFunction,SMDPad,CuDef*%
G36*
G01*
X164320000Y-81930001D02*
X164320000Y-80629999D01*
G75*
G02*
X164569999Y-80380000I249999J0D01*
G01*
X165220001Y-80380000D01*
G75*
G02*
X165470000Y-80629999I0J-249999D01*
G01*
X165470000Y-81930001D01*
G75*
G02*
X165220001Y-82180000I-249999J0D01*
G01*
X164569999Y-82180000D01*
G75*
G02*
X164320000Y-81930001I0J249999D01*
G01*
G37*
%TD.AperFunction*%
%TD*%
%TO.P,C14,1*%
%TO.N,BUCK_SW*%
%TA.AperFunction,SMDPad,CuDef*%
G36*
G01*
X153180000Y-100314999D02*
X153180000Y-101615001D01*
G75*
G02*
X152930001Y-101865000I-249999J0D01*
G01*
X152279999Y-101865000D01*
G75*
G02*
X152030000Y-101615001I0J249999D01*
G01*
X152030000Y-100314999D01*
G75*
G02*
X152279999Y-100065000I249999J0D01*
G01*
X152930001Y-100065000D01*
G75*
G02*
X153180000Y-100314999I0J-249999D01*
G01*
G37*
%TD.AperFunction*%
%TO.P,C14,2*%
%TO.N,BUCK_BST*%
%TA.AperFunction,SMDPad,CuDef*%
G36*
G01*
X150230000Y-100314999D02*
X150230000Y-101615001D01*
G75*
G02*
X149980001Y-101865000I-249999J0D01*
G01*
X149329999Y-101865000D01*
G75*
G02*
X149080000Y-101615001I0J249999D01*
G01*
X149080000Y-100314999D01*
G75*
G02*
X149329999Y-100065000I249999J0D01*
G01*
X149980001Y-100065000D01*
G75*
G02*
X150230000Y-100314999I0J-249999D01*
G01*
G37*
%TD.AperFunction*%
%TD*%
%TO.P,C15,1*%
%TO.N,+3.3VA*%
%TA.AperFunction,SMDPad,CuDef*%
G36*
G01*
X156829999Y-105265000D02*
X158130001Y-105265000D01*
G75*
G02*
X158380000Y-105514999I0J-249999D01*
G01*
X158380000Y-106165001D01*
G75*
G02*
X158130001Y-106415000I-249999J0D01*
G01*
X156829999Y-106415000D01*
G75*
G02*
X156580000Y-106165001I0J249999D01*
G01*
X156580000Y-105514999D01*
G75*
G02*
X156829999Y-105265000I249999J0D01*
G01*
G37*
%TD.AperFunction*%
%TO.P,C15,2*%
%TO.N,GND*%
%TA.AperFunction,SMDPad,CuDef*%
G36*
G01*
X156829999Y-108215000D02*
X158130001Y-108215000D01*
G75*
G02*
X158380000Y-108464999I0J-249999D01*
G01*
X158380000Y-109115001D01*
G75*
G02*
X158130001Y-109365000I-249999J0D01*
G01*
X156829999Y-109365000D01*
G75*
G02*
X156580000Y-109115001I0J249999D01*
G01*
X156580000Y-108464999D01*
G75*
G02*
X156829999Y-108215000I249999J0D01*
G01*
G37*
%TD.AperFunction*%
%TD*%
%TO.P,C16,2*%
%TO.N,GND*%
%TA.AperFunction,SMDPad,CuDef*%
G36*
G01*
X162575001Y-99430000D02*
X161274999Y-99430000D01*
G75*
G02*
X161025000Y-99180001I0J249999D01*
G01*
X161025000Y-98529999D01*
G75*
G02*
X161274999Y-98280000I249999J0D01*
G01*
X162575001Y-98280000D01*
G75*
G02*
X162825000Y-98529999I0J-249999D01*
G01*
X162825000Y-99180001D01*
G75*
G02*
X162575001Y-99430000I-249999J0D01*
G01*
G37*
%TD.AperFunction*%
%TO.P,C16,1*%
%TO.N,+3.3VA*%
%TA.AperFunction,SMDPad,CuDef*%
G36*
G01*
X162575001Y-102380000D02*
X161274999Y-102380000D01*
G75*
G02*
X161025000Y-102130001I0J249999D01*
G01*
X161025000Y-101479999D01*
G75*
G02*
X161274999Y-101230000I249999J0D01*
G01*
X162575001Y-101230000D01*
G75*
G02*
X162825000Y-101479999I0J-249999D01*
G01*
X162825000Y-102130001D01*
G75*
G02*
X162575001Y-102380000I-249999J0D01*
G01*
G37*
%TD.AperFunction*%
%TD*%
%TO.P,D1,2*%
%TO.N,LED_STATUS*%
%TA.AperFunction,SMDPad,CuDef*%
G36*
G01*
X130431250Y-84105000D02*
X129918750Y-84105000D01*
G75*
G02*
X129700000Y-83886250I0J218750D01*
G01*
X129700000Y-83448750D01*
G75*
G02*
X129918750Y-83230000I218750J0D01*
G01*
X130431250Y-83230000D01*
G75*
G02*
X130650000Y-83448750I0J-218750D01*
G01*
X130650000Y-83886250D01*
G75*
G02*
X130431250Y-84105000I-218750J0D01*
G01*
G37*
%TD.AperFunction*%
%TO.P,D1,1*%
%TO.N,Net-(D1-Pad1)*%
%TA.AperFunction,SMDPad,CuDef*%
G36*
G01*
X130431250Y-85680000D02*
X129918750Y-85680000D01*
G75*
G02*
X129700000Y-85461250I0J218750D01*
G01*
X129700000Y-85023750D01*
G75*
G02*
X129918750Y-84805000I218750J0D01*
G01*
X130431250Y-84805000D01*
G75*
G02*
X130650000Y-85023750I0J-218750D01*
G01*
X130650000Y-85461250D01*
G75*
G02*
X130431250Y-85680000I-218750J0D01*
G01*
G37*
%TD.AperFunction*%
%TD*%
D15*
%TO.P,D2,1*%
%TO.N,Net-(D2-Pad1)*%
X160400000Y-85725000D03*
%TO.P,D2,2*%
%TO.N,+5V*%
X157100000Y-85725000D03*
%TD*%
D16*
%TO.P,D3,2*%
%TO.N,GND*%
X157480000Y-98680000D03*
%TO.P,D3,1*%
%TO.N,BUCK_SW*%
X157480000Y-101980000D03*
%TD*%
%TO.P,D4,1*%
%TO.N,GND*%
%TA.AperFunction,SMDPad,CuDef*%
G36*
G01*
X126562500Y-92966250D02*
X126562500Y-92453750D01*
G75*
G02*
X126781250Y-92235000I218750J0D01*
G01*
X127218750Y-92235000D01*
G75*
G02*
X127437500Y-92453750I0J-218750D01*
G01*
X127437500Y-92966250D01*
G75*
G02*
X127218750Y-93185000I-218750J0D01*
G01*
X126781250Y-93185000D01*
G75*
G02*
X126562500Y-92966250I0J218750D01*
G01*
G37*
%TD.AperFunction*%
%TO.P,D4,2*%
%TO.N,Net-(D4-Pad2)*%
%TA.AperFunction,SMDPad,CuDef*%
G36*
G01*
X128137500Y-92966250D02*
X128137500Y-92453750D01*
G75*
G02*
X128356250Y-92235000I218750J0D01*
G01*
X128793750Y-92235000D01*
G75*
G02*
X129012500Y-92453750I0J-218750D01*
G01*
X129012500Y-92966250D01*
G75*
G02*
X128793750Y-93185000I-218750J0D01*
G01*
X128356250Y-93185000D01*
G75*
G02*
X128137500Y-92966250I0J218750D01*
G01*
G37*
%TD.AperFunction*%
%TD*%
%TO.P,F1,1*%
%TO.N,Net-(F1-Pad1)*%
%TA.AperFunction,SMDPad,CuDef*%
G36*
G01*
X164345000Y-86350000D02*
X164345000Y-85100000D01*
G75*
G02*
X164595000Y-84850000I250000J0D01*
G01*
X165345000Y-84850000D01*
G75*
G02*
X165595000Y-85100000I0J-250000D01*
G01*
X165595000Y-86350000D01*
G75*
G02*
X165345000Y-86600000I-250000J0D01*
G01*
X164595000Y-86600000D01*
G75*
G02*
X164345000Y-86350000I0J250000D01*
G01*
G37*
%TD.AperFunction*%
%TO.P,F1,2*%
%TO.N,+12V*%
%TA.AperFunction,SMDPad,CuDef*%
G36*
G01*
X167145000Y-86350000D02*
X167145000Y-85100000D01*
G75*
G02*
X167395000Y-84850000I250000J0D01*
G01*
X168145000Y-84850000D01*
G75*
G02*
X168395000Y-85100000I0J-250000D01*
G01*
X168395000Y-86350000D01*
G75*
G02*
X168145000Y-86600000I-250000J0D01*
G01*
X167395000Y-86600000D01*
G75*
G02*
X167145000Y-86350000I0J250000D01*
G01*
G37*
%TD.AperFunction*%
%TD*%
%TO.P,FB1,1*%
%TO.N,Net-(D2-Pad1)*%
%TA.AperFunction,SMDPad,CuDef*%
G36*
G01*
X160250000Y-80898750D02*
X160250000Y-81661250D01*
G75*
G02*
X160031250Y-81880000I-218750J0D01*
G01*
X159593750Y-81880000D01*
G75*
G02*
X159375000Y-81661250I0J218750D01*
G01*
X159375000Y-80898750D01*
G75*
G02*
X159593750Y-80680000I218750J0D01*
G01*
X160031250Y-80680000D01*
G75*
G02*
X160250000Y-80898750I0J-218750D01*
G01*
G37*
%TD.AperFunction*%
%TO.P,FB1,2*%
%TO.N,BUCK_IN*%
%TA.AperFunction,SMDPad,CuDef*%
G36*
G01*
X158125000Y-80898750D02*
X158125000Y-81661250D01*
G75*
G02*
X157906250Y-81880000I-218750J0D01*
G01*
X157468750Y-81880000D01*
G75*
G02*
X157250000Y-81661250I0J218750D01*
G01*
X157250000Y-80898750D01*
G75*
G02*
X157468750Y-80680000I218750J0D01*
G01*
X157906250Y-80680000D01*
G75*
G02*
X158125000Y-80898750I0J-218750D01*
G01*
G37*
%TD.AperFunction*%
%TD*%
D17*
%TO.P,H1,1*%
%TO.N,GND*%
X112926726Y-106528274D03*
X111760000Y-106045000D03*
X110593274Y-106528274D03*
X110110000Y-107695000D03*
X110593274Y-108861726D03*
X111760000Y-109345000D03*
X112926726Y-108861726D03*
X113410000Y-107695000D03*
D18*
X111760000Y-107695000D03*
%TD*%
%TO.P,H2,1*%
%TO.N,GND*%
X169545000Y-50165000D03*
D17*
X171195000Y-50165000D03*
X170711726Y-51331726D03*
X169545000Y-51815000D03*
X168378274Y-51331726D03*
X167895000Y-50165000D03*
X168378274Y-48998274D03*
X169545000Y-48515000D03*
X170711726Y-48998274D03*
%TD*%
%TO.P,H3,1*%
%TO.N,GND*%
X114196726Y-48743274D03*
X113030000Y-48260000D03*
X111863274Y-48743274D03*
X111380000Y-49910000D03*
X111863274Y-51076726D03*
X113030000Y-51560000D03*
X114196726Y-51076726D03*
X114680000Y-49910000D03*
D18*
X113030000Y-49910000D03*
%TD*%
%TO.P,H4,1*%
%TO.N,GND*%
X170180000Y-107315000D03*
D17*
X171830000Y-107315000D03*
X171346726Y-108481726D03*
X170180000Y-108965000D03*
X169013274Y-108481726D03*
X168530000Y-107315000D03*
X169013274Y-106148274D03*
X170180000Y-105665000D03*
X171346726Y-106148274D03*
%TD*%
D19*
%TO.P,J1,1*%
%TO.N,+12V*%
X163830000Y-74295000D03*
D20*
%TO.P,J1,2*%
%TO.N,GND*%
X163830000Y-70795000D03*
%TD*%
D21*
%TO.P,J3,1*%
%TO.N,+3.3VA*%
X141700000Y-58675000D03*
%TO.P,J3,2*%
%TO.N,SWDIO*%
X141700000Y-55625000D03*
%TO.P,J3,3*%
%TO.N,GND*%
X140700000Y-58675000D03*
%TO.P,J3,4*%
%TO.N,SWCLK*%
X140700000Y-55625000D03*
%TO.P,J3,5*%
%TO.N,GND*%
X139700000Y-58675000D03*
%TO.P,J3,6*%
%TO.N,SWO*%
X139700000Y-55625000D03*
%TO.P,J3,7*%
%TO.N,Net-(J3-Pad7)*%
X138700000Y-58675000D03*
%TO.P,J3,8*%
%TO.N,Net-(J3-Pad8)*%
X138700000Y-55625000D03*
%TO.P,J3,9*%
%TO.N,GND*%
X137700000Y-58675000D03*
%TO.P,J3,10*%
%TO.N,NRST*%
X137700000Y-55625000D03*
%TD*%
%TO.P,J4,1*%
%TO.N,+3.3VA*%
%TA.AperFunction,ComponentPad*%
G36*
G01*
X127400000Y-59240000D02*
X127400000Y-60140000D01*
G75*
G02*
X127200000Y-60340000I-200000J0D01*
G01*
X126800000Y-60340000D01*
G75*
G02*
X126600000Y-60140000I0J200000D01*
G01*
X126600000Y-59240000D01*
G75*
G02*
X126800000Y-59040000I200000J0D01*
G01*
X127200000Y-59040000D01*
G75*
G02*
X127400000Y-59240000I0J-200000D01*
G01*
G37*
%TD.AperFunction*%
D22*
%TO.P,J4,2*%
%TO.N,I2C1_SCL*%
X125750000Y-59690000D03*
%TO.P,J4,3*%
%TO.N,I2C1_SDA*%
X124500000Y-59690000D03*
%TO.P,J4,4*%
%TO.N,GND*%
X123250000Y-59690000D03*
%TD*%
%TO.P,J5,4*%
%TO.N,GND*%
X125670000Y-106045000D03*
%TO.P,J5,3*%
%TO.N,USART3_RX*%
X124420000Y-106045000D03*
%TO.P,J5,2*%
%TO.N,USART3_TX*%
X123170000Y-106045000D03*
%TO.P,J5,1*%
%TO.N,+3.3VA*%
%TA.AperFunction,ComponentPad*%
G36*
G01*
X121520000Y-106495000D02*
X121520000Y-105595000D01*
G75*
G02*
X121720000Y-105395000I200000J0D01*
G01*
X122120000Y-105395000D01*
G75*
G02*
X122320000Y-105595000I0J-200000D01*
G01*
X122320000Y-106495000D01*
G75*
G02*
X122120000Y-106695000I-200000J0D01*
G01*
X121720000Y-106695000D01*
G75*
G02*
X121520000Y-106495000I0J200000D01*
G01*
G37*
%TD.AperFunction*%
%TD*%
%TO.P,L1,1*%
%TO.N,+3.3VA*%
%TA.AperFunction,SMDPad,CuDef*%
G36*
G01*
X133177500Y-84945000D02*
X133522500Y-84945000D01*
G75*
G02*
X133670000Y-85092500I0J-147500D01*
G01*
X133670000Y-85387500D01*
G75*
G02*
X133522500Y-85535000I-147500J0D01*
G01*
X133177500Y-85535000D01*
G75*
G02*
X133030000Y-85387500I0J147500D01*
G01*
X133030000Y-85092500D01*
G75*
G02*
X133177500Y-84945000I147500J0D01*
G01*
G37*
%TD.AperFunction*%
%TO.P,L1,2*%
%TA.AperFunction,SMDPad,CuDef*%
G36*
G01*
X133177500Y-85915000D02*
X133522500Y-85915000D01*
G75*
G02*
X133670000Y-86062500I0J-147500D01*
G01*
X133670000Y-86357500D01*
G75*
G02*
X133522500Y-86505000I-147500J0D01*
G01*
X133177500Y-86505000D01*
G75*
G02*
X133030000Y-86357500I0J147500D01*
G01*
X133030000Y-86062500D01*
G75*
G02*
X133177500Y-85915000I147500J0D01*
G01*
G37*
%TD.AperFunction*%
%TD*%
D23*
%TO.P,L2,1*%
%TO.N,BUCK_SW*%
X151130000Y-110000000D03*
%TO.P,L2,2*%
%TO.N,+3.3VA*%
X151130000Y-105900000D03*
%TD*%
D24*
%TO.P,Q1,1*%
%TO.N,GND*%
X159700000Y-89805000D03*
%TO.P,Q1,2*%
%TO.N,Net-(D2-Pad1)*%
X157800000Y-89805000D03*
%TO.P,Q1,3*%
%TO.N,Net-(F1-Pad1)*%
X158750000Y-91805000D03*
%TD*%
%TO.P,R1,2*%
%TO.N,Net-(D1-Pad1)*%
%TA.AperFunction,SMDPad,CuDef*%
G36*
G01*
X127275000Y-84030000D02*
X126725000Y-84030000D01*
G75*
G02*
X126525000Y-83830000I0J200000D01*
G01*
X126525000Y-83430000D01*
G75*
G02*
X126725000Y-83230000I200000J0D01*
G01*
X127275000Y-83230000D01*
G75*
G02*
X127475000Y-83430000I0J-200000D01*
G01*
X127475000Y-83830000D01*
G75*
G02*
X127275000Y-84030000I-200000J0D01*
G01*
G37*
%TD.AperFunction*%
%TO.P,R1,1*%
%TO.N,GND*%
%TA.AperFunction,SMDPad,CuDef*%
G36*
G01*
X127275000Y-85680000D02*
X126725000Y-85680000D01*
G75*
G02*
X126525000Y-85480000I0J200000D01*
G01*
X126525000Y-85080000D01*
G75*
G02*
X126725000Y-84880000I200000J0D01*
G01*
X127275000Y-84880000D01*
G75*
G02*
X127475000Y-85080000I0J-200000D01*
G01*
X127475000Y-85480000D01*
G75*
G02*
X127275000Y-85680000I-200000J0D01*
G01*
G37*
%TD.AperFunction*%
%TD*%
%TO.P,R2,2*%
%TO.N,+3.3VA*%
%TA.AperFunction,SMDPad,CuDef*%
G36*
G01*
X127240000Y-63685000D02*
X127240000Y-63315000D01*
G75*
G02*
X127375000Y-63180000I135000J0D01*
G01*
X127645000Y-63180000D01*
G75*
G02*
X127780000Y-63315000I0J-135000D01*
G01*
X127780000Y-63685000D01*
G75*
G02*
X127645000Y-63820000I-135000J0D01*
G01*
X127375000Y-63820000D01*
G75*
G02*
X127240000Y-63685000I0J135000D01*
G01*
G37*
%TD.AperFunction*%
%TO.P,R2,1*%
%TO.N,I2C1_SDA*%
%TA.AperFunction,SMDPad,CuDef*%
G36*
G01*
X126220000Y-63685000D02*
X126220000Y-63315000D01*
G75*
G02*
X126355000Y-63180000I135000J0D01*
G01*
X126625000Y-63180000D01*
G75*
G02*
X126760000Y-63315000I0J-135000D01*
G01*
X126760000Y-63685000D01*
G75*
G02*
X126625000Y-63820000I-135000J0D01*
G01*
X126355000Y-63820000D01*
G75*
G02*
X126220000Y-63685000I0J135000D01*
G01*
G37*
%TD.AperFunction*%
%TD*%
%TO.P,R3,2*%
%TO.N,BOOTO*%
%TA.AperFunction,SMDPad,CuDef*%
G36*
G01*
X119740000Y-72815000D02*
X120290000Y-72815000D01*
G75*
G02*
X120490000Y-73015000I0J-200000D01*
G01*
X120490000Y-73415000D01*
G75*
G02*
X120290000Y-73615000I-200000J0D01*
G01*
X119740000Y-73615000D01*
G75*
G02*
X119540000Y-73415000I0J200000D01*
G01*
X119540000Y-73015000D01*
G75*
G02*
X119740000Y-72815000I200000J0D01*
G01*
G37*
%TD.AperFunction*%
%TO.P,R3,1*%
%TO.N,Net-(R3-Pad1)*%
%TA.AperFunction,SMDPad,CuDef*%
G36*
G01*
X119740000Y-71165000D02*
X120290000Y-71165000D01*
G75*
G02*
X120490000Y-71365000I0J-200000D01*
G01*
X120490000Y-71765000D01*
G75*
G02*
X120290000Y-71965000I-200000J0D01*
G01*
X119740000Y-71965000D01*
G75*
G02*
X119540000Y-71765000I0J200000D01*
G01*
X119540000Y-71365000D01*
G75*
G02*
X119740000Y-71165000I200000J0D01*
G01*
G37*
%TD.AperFunction*%
%TD*%
%TO.P,R4,1*%
%TO.N,Net-(C3-Pad1)*%
%TA.AperFunction,SMDPad,CuDef*%
G36*
G01*
X126220000Y-81465000D02*
X126220000Y-81095000D01*
G75*
G02*
X126355000Y-80960000I135000J0D01*
G01*
X126625000Y-80960000D01*
G75*
G02*
X126760000Y-81095000I0J-135000D01*
G01*
X126760000Y-81465000D01*
G75*
G02*
X126625000Y-81600000I-135000J0D01*
G01*
X126355000Y-81600000D01*
G75*
G02*
X126220000Y-81465000I0J135000D01*
G01*
G37*
%TD.AperFunction*%
%TO.P,R4,2*%
%TO.N,HSE_OUT*%
%TA.AperFunction,SMDPad,CuDef*%
G36*
G01*
X127240000Y-81465000D02*
X127240000Y-81095000D01*
G75*
G02*
X127375000Y-80960000I135000J0D01*
G01*
X127645000Y-80960000D01*
G75*
G02*
X127780000Y-81095000I0J-135000D01*
G01*
X127780000Y-81465000D01*
G75*
G02*
X127645000Y-81600000I-135000J0D01*
G01*
X127375000Y-81600000D01*
G75*
G02*
X127240000Y-81465000I0J135000D01*
G01*
G37*
%TD.AperFunction*%
%TD*%
%TO.P,R5,1*%
%TO.N,I2C1_SCL*%
%TA.AperFunction,SMDPad,CuDef*%
G36*
G01*
X123680000Y-63685000D02*
X123680000Y-63315000D01*
G75*
G02*
X123815000Y-63180000I135000J0D01*
G01*
X124085000Y-63180000D01*
G75*
G02*
X124220000Y-63315000I0J-135000D01*
G01*
X124220000Y-63685000D01*
G75*
G02*
X124085000Y-63820000I-135000J0D01*
G01*
X123815000Y-63820000D01*
G75*
G02*
X123680000Y-63685000I0J135000D01*
G01*
G37*
%TD.AperFunction*%
%TO.P,R5,2*%
%TO.N,+3.3VA*%
%TA.AperFunction,SMDPad,CuDef*%
G36*
G01*
X124700000Y-63685000D02*
X124700000Y-63315000D01*
G75*
G02*
X124835000Y-63180000I135000J0D01*
G01*
X125105000Y-63180000D01*
G75*
G02*
X125240000Y-63315000I0J-135000D01*
G01*
X125240000Y-63685000D01*
G75*
G02*
X125105000Y-63820000I-135000J0D01*
G01*
X124835000Y-63820000D01*
G75*
G02*
X124700000Y-63685000I0J135000D01*
G01*
G37*
%TD.AperFunction*%
%TD*%
%TO.P,R6,1*%
%TO.N,BUCK_IN*%
%TA.AperFunction,SMDPad,CuDef*%
G36*
G01*
X153310000Y-92030000D02*
X152760000Y-92030000D01*
G75*
G02*
X152560000Y-91830000I0J200000D01*
G01*
X152560000Y-91430000D01*
G75*
G02*
X152760000Y-91230000I200000J0D01*
G01*
X153310000Y-91230000D01*
G75*
G02*
X153510000Y-91430000I0J-200000D01*
G01*
X153510000Y-91830000D01*
G75*
G02*
X153310000Y-92030000I-200000J0D01*
G01*
G37*
%TD.AperFunction*%
%TO.P,R6,2*%
%TO.N,BUCK_EN*%
%TA.AperFunction,SMDPad,CuDef*%
G36*
G01*
X153310000Y-90380000D02*
X152760000Y-90380000D01*
G75*
G02*
X152560000Y-90180000I0J200000D01*
G01*
X152560000Y-89780000D01*
G75*
G02*
X152760000Y-89580000I200000J0D01*
G01*
X153310000Y-89580000D01*
G75*
G02*
X153510000Y-89780000I0J-200000D01*
G01*
X153510000Y-90180000D01*
G75*
G02*
X153310000Y-90380000I-200000J0D01*
G01*
G37*
%TD.AperFunction*%
%TD*%
%TO.P,R7,2*%
%TO.N,GND*%
%TA.AperFunction,SMDPad,CuDef*%
G36*
G01*
X149275000Y-89625000D02*
X149275000Y-90175000D01*
G75*
G02*
X149075000Y-90375000I-200000J0D01*
G01*
X148675000Y-90375000D01*
G75*
G02*
X148475000Y-90175000I0J200000D01*
G01*
X148475000Y-89625000D01*
G75*
G02*
X148675000Y-89425000I200000J0D01*
G01*
X149075000Y-89425000D01*
G75*
G02*
X149275000Y-89625000I0J-200000D01*
G01*
G37*
%TD.AperFunction*%
%TO.P,R7,1*%
%TO.N,BUCK_EN*%
%TA.AperFunction,SMDPad,CuDef*%
G36*
G01*
X150925000Y-89625000D02*
X150925000Y-90175000D01*
G75*
G02*
X150725000Y-90375000I-200000J0D01*
G01*
X150325000Y-90375000D01*
G75*
G02*
X150125000Y-90175000I0J200000D01*
G01*
X150125000Y-89625000D01*
G75*
G02*
X150325000Y-89425000I200000J0D01*
G01*
X150725000Y-89425000D01*
G75*
G02*
X150925000Y-89625000I0J-200000D01*
G01*
G37*
%TD.AperFunction*%
%TD*%
%TO.P,R8,1*%
%TO.N,+3.3VA*%
%TA.AperFunction,SMDPad,CuDef*%
G36*
G01*
X146005000Y-100690000D02*
X146005000Y-101240000D01*
G75*
G02*
X145805000Y-101440000I-200000J0D01*
G01*
X145405000Y-101440000D01*
G75*
G02*
X145205000Y-101240000I0J200000D01*
G01*
X145205000Y-100690000D01*
G75*
G02*
X145405000Y-100490000I200000J0D01*
G01*
X145805000Y-100490000D01*
G75*
G02*
X146005000Y-100690000I0J-200000D01*
G01*
G37*
%TD.AperFunction*%
%TO.P,R8,2*%
%TO.N,BUCK_FB*%
%TA.AperFunction,SMDPad,CuDef*%
G36*
G01*
X144355000Y-100690000D02*
X144355000Y-101240000D01*
G75*
G02*
X144155000Y-101440000I-200000J0D01*
G01*
X143755000Y-101440000D01*
G75*
G02*
X143555000Y-101240000I0J200000D01*
G01*
X143555000Y-100690000D01*
G75*
G02*
X143755000Y-100490000I200000J0D01*
G01*
X144155000Y-100490000D01*
G75*
G02*
X144355000Y-100690000I0J-200000D01*
G01*
G37*
%TD.AperFunction*%
%TD*%
%TO.P,R9,2*%
%TO.N,Net-(R10-Pad1)*%
%TA.AperFunction,SMDPad,CuDef*%
G36*
G01*
X145205000Y-104415000D02*
X145205000Y-103865000D01*
G75*
G02*
X145405000Y-103665000I200000J0D01*
G01*
X145805000Y-103665000D01*
G75*
G02*
X146005000Y-103865000I0J-200000D01*
G01*
X146005000Y-104415000D01*
G75*
G02*
X145805000Y-104615000I-200000J0D01*
G01*
X145405000Y-104615000D01*
G75*
G02*
X145205000Y-104415000I0J200000D01*
G01*
G37*
%TD.AperFunction*%
%TO.P,R9,1*%
%TO.N,BUCK_FB*%
%TA.AperFunction,SMDPad,CuDef*%
G36*
G01*
X143555000Y-104415000D02*
X143555000Y-103865000D01*
G75*
G02*
X143755000Y-103665000I200000J0D01*
G01*
X144155000Y-103665000D01*
G75*
G02*
X144355000Y-103865000I0J-200000D01*
G01*
X144355000Y-104415000D01*
G75*
G02*
X144155000Y-104615000I-200000J0D01*
G01*
X143755000Y-104615000D01*
G75*
G02*
X143555000Y-104415000I0J200000D01*
G01*
G37*
%TD.AperFunction*%
%TD*%
%TO.P,R10,1*%
%TO.N,Net-(R10-Pad1)*%
%TA.AperFunction,SMDPad,CuDef*%
G36*
G01*
X143555000Y-107590000D02*
X143555000Y-107040000D01*
G75*
G02*
X143755000Y-106840000I200000J0D01*
G01*
X144155000Y-106840000D01*
G75*
G02*
X144355000Y-107040000I0J-200000D01*
G01*
X144355000Y-107590000D01*
G75*
G02*
X144155000Y-107790000I-200000J0D01*
G01*
X143755000Y-107790000D01*
G75*
G02*
X143555000Y-107590000I0J200000D01*
G01*
G37*
%TD.AperFunction*%
%TO.P,R10,2*%
%TO.N,GND*%
%TA.AperFunction,SMDPad,CuDef*%
G36*
G01*
X145205000Y-107590000D02*
X145205000Y-107040000D01*
G75*
G02*
X145405000Y-106840000I200000J0D01*
G01*
X145805000Y-106840000D01*
G75*
G02*
X146005000Y-107040000I0J-200000D01*
G01*
X146005000Y-107590000D01*
G75*
G02*
X145805000Y-107790000I-200000J0D01*
G01*
X145405000Y-107790000D01*
G75*
G02*
X145205000Y-107590000I0J200000D01*
G01*
G37*
%TD.AperFunction*%
%TD*%
%TO.P,R11,1*%
%TO.N,+3.3VA*%
%TA.AperFunction,SMDPad,CuDef*%
G36*
G01*
X133940000Y-92435000D02*
X133940000Y-92985000D01*
G75*
G02*
X133740000Y-93185000I-200000J0D01*
G01*
X133340000Y-93185000D01*
G75*
G02*
X133140000Y-92985000I0J200000D01*
G01*
X133140000Y-92435000D01*
G75*
G02*
X133340000Y-92235000I200000J0D01*
G01*
X133740000Y-92235000D01*
G75*
G02*
X133940000Y-92435000I0J-200000D01*
G01*
G37*
%TD.AperFunction*%
%TO.P,R11,2*%
%TO.N,Net-(D4-Pad2)*%
%TA.AperFunction,SMDPad,CuDef*%
G36*
G01*
X132290000Y-92435000D02*
X132290000Y-92985000D01*
G75*
G02*
X132090000Y-93185000I-200000J0D01*
G01*
X131690000Y-93185000D01*
G75*
G02*
X131490000Y-92985000I0J200000D01*
G01*
X131490000Y-92435000D01*
G75*
G02*
X131690000Y-92235000I200000J0D01*
G01*
X132090000Y-92235000D01*
G75*
G02*
X132290000Y-92435000I0J-200000D01*
G01*
G37*
%TD.AperFunction*%
%TD*%
D25*
%TO.P,SW1,1*%
%TO.N,+3V3*%
X115730000Y-72680000D03*
%TO.P,SW1,2*%
%TO.N,Net-(R3-Pad1)*%
X115730000Y-75680000D03*
%TO.P,SW1,3*%
%TO.N,GND*%
X115730000Y-77180000D03*
D26*
%TO.P,SW1,*%
%TO.N,*%
X112870000Y-71280000D03*
X112870000Y-78580000D03*
X115080000Y-78580000D03*
X115080000Y-71280000D03*
%TD*%
%TO.P,U1,1*%
%TO.N,+3.3VA*%
%TA.AperFunction,SMDPad,CuDef*%
G36*
G01*
X134520000Y-73795000D02*
X134520000Y-73645000D01*
G75*
G02*
X134595000Y-73570000I75000J0D01*
G01*
X135995000Y-73570000D01*
G75*
G02*
X136070000Y-73645000I0J-75000D01*
G01*
X136070000Y-73795000D01*
G75*
G02*
X135995000Y-73870000I-75000J0D01*
G01*
X134595000Y-73870000D01*
G75*
G02*
X134520000Y-73795000I0J75000D01*
G01*
G37*
%TD.AperFunction*%
%TO.P,U1,2*%
%TO.N,Net-(U1-Pad2)*%
%TA.AperFunction,SMDPad,CuDef*%
G36*
G01*
X134520000Y-74295000D02*
X134520000Y-74145000D01*
G75*
G02*
X134595000Y-74070000I75000J0D01*
G01*
X135995000Y-74070000D01*
G75*
G02*
X136070000Y-74145000I0J-75000D01*
G01*
X136070000Y-74295000D01*
G75*
G02*
X135995000Y-74370000I-75000J0D01*
G01*
X134595000Y-74370000D01*
G75*
G02*
X134520000Y-74295000I0J75000D01*
G01*
G37*
%TD.AperFunction*%
%TO.P,U1,3*%
%TO.N,Net-(U1-Pad3)*%
%TA.AperFunction,SMDPad,CuDef*%
G36*
G01*
X134520000Y-74795000D02*
X134520000Y-74645000D01*
G75*
G02*
X134595000Y-74570000I75000J0D01*
G01*
X135995000Y-74570000D01*
G75*
G02*
X136070000Y-74645000I0J-75000D01*
G01*
X136070000Y-74795000D01*
G75*
G02*
X135995000Y-74870000I-75000J0D01*
G01*
X134595000Y-74870000D01*
G75*
G02*
X134520000Y-74795000I0J75000D01*
G01*
G37*
%TD.AperFunction*%
%TO.P,U1,4*%
%TO.N,Net-(U1-Pad4)*%
%TA.AperFunction,SMDPad,CuDef*%
G36*
G01*
X134520000Y-75295000D02*
X134520000Y-75145000D01*
G75*
G02*
X134595000Y-75070000I75000J0D01*
G01*
X135995000Y-75070000D01*
G75*
G02*
X136070000Y-75145000I0J-75000D01*
G01*
X136070000Y-75295000D01*
G75*
G02*
X135995000Y-75370000I-75000J0D01*
G01*
X134595000Y-75370000D01*
G75*
G02*
X134520000Y-75295000I0J75000D01*
G01*
G37*
%TD.AperFunction*%
%TO.P,U1,5*%
%TO.N,HSE_IN*%
%TA.AperFunction,SMDPad,CuDef*%
G36*
G01*
X134520000Y-75795000D02*
X134520000Y-75645000D01*
G75*
G02*
X134595000Y-75570000I75000J0D01*
G01*
X135995000Y-75570000D01*
G75*
G02*
X136070000Y-75645000I0J-75000D01*
G01*
X136070000Y-75795000D01*
G75*
G02*
X135995000Y-75870000I-75000J0D01*
G01*
X134595000Y-75870000D01*
G75*
G02*
X134520000Y-75795000I0J75000D01*
G01*
G37*
%TD.AperFunction*%
%TO.P,U1,6*%
%TO.N,HSE_OUT*%
%TA.AperFunction,SMDPad,CuDef*%
G36*
G01*
X134520000Y-76295000D02*
X134520000Y-76145000D01*
G75*
G02*
X134595000Y-76070000I75000J0D01*
G01*
X135995000Y-76070000D01*
G75*
G02*
X136070000Y-76145000I0J-75000D01*
G01*
X136070000Y-76295000D01*
G75*
G02*
X135995000Y-76370000I-75000J0D01*
G01*
X134595000Y-76370000D01*
G75*
G02*
X134520000Y-76295000I0J75000D01*
G01*
G37*
%TD.AperFunction*%
%TO.P,U1,7*%
%TO.N,NRST*%
%TA.AperFunction,SMDPad,CuDef*%
G36*
G01*
X134520000Y-76795000D02*
X134520000Y-76645000D01*
G75*
G02*
X134595000Y-76570000I75000J0D01*
G01*
X135995000Y-76570000D01*
G75*
G02*
X136070000Y-76645000I0J-75000D01*
G01*
X136070000Y-76795000D01*
G75*
G02*
X135995000Y-76870000I-75000J0D01*
G01*
X134595000Y-76870000D01*
G75*
G02*
X134520000Y-76795000I0J75000D01*
G01*
G37*
%TD.AperFunction*%
%TO.P,U1,8*%
%TO.N,Net-(U1-Pad8)*%
%TA.AperFunction,SMDPad,CuDef*%
G36*
G01*
X134520000Y-77295000D02*
X134520000Y-77145000D01*
G75*
G02*
X134595000Y-77070000I75000J0D01*
G01*
X135995000Y-77070000D01*
G75*
G02*
X136070000Y-77145000I0J-75000D01*
G01*
X136070000Y-77295000D01*
G75*
G02*
X135995000Y-77370000I-75000J0D01*
G01*
X134595000Y-77370000D01*
G75*
G02*
X134520000Y-77295000I0J75000D01*
G01*
G37*
%TD.AperFunction*%
%TO.P,U1,9*%
%TO.N,Net-(U1-Pad9)*%
%TA.AperFunction,SMDPad,CuDef*%
G36*
G01*
X134520000Y-77795000D02*
X134520000Y-77645000D01*
G75*
G02*
X134595000Y-77570000I75000J0D01*
G01*
X135995000Y-77570000D01*
G75*
G02*
X136070000Y-77645000I0J-75000D01*
G01*
X136070000Y-77795000D01*
G75*
G02*
X135995000Y-77870000I-75000J0D01*
G01*
X134595000Y-77870000D01*
G75*
G02*
X134520000Y-77795000I0J75000D01*
G01*
G37*
%TD.AperFunction*%
%TO.P,U1,10*%
%TO.N,Net-(U1-Pad10)*%
%TA.AperFunction,SMDPad,CuDef*%
G36*
G01*
X134520000Y-78295000D02*
X134520000Y-78145000D01*
G75*
G02*
X134595000Y-78070000I75000J0D01*
G01*
X135995000Y-78070000D01*
G75*
G02*
X136070000Y-78145000I0J-75000D01*
G01*
X136070000Y-78295000D01*
G75*
G02*
X135995000Y-78370000I-75000J0D01*
G01*
X134595000Y-78370000D01*
G75*
G02*
X134520000Y-78295000I0J75000D01*
G01*
G37*
%TD.AperFunction*%
%TO.P,U1,11*%
%TO.N,Net-(U1-Pad11)*%
%TA.AperFunction,SMDPad,CuDef*%
G36*
G01*
X134520000Y-78795000D02*
X134520000Y-78645000D01*
G75*
G02*
X134595000Y-78570000I75000J0D01*
G01*
X135995000Y-78570000D01*
G75*
G02*
X136070000Y-78645000I0J-75000D01*
G01*
X136070000Y-78795000D01*
G75*
G02*
X135995000Y-78870000I-75000J0D01*
G01*
X134595000Y-78870000D01*
G75*
G02*
X134520000Y-78795000I0J75000D01*
G01*
G37*
%TD.AperFunction*%
%TO.P,U1,12*%
%TO.N,GND*%
%TA.AperFunction,SMDPad,CuDef*%
G36*
G01*
X134520000Y-79295000D02*
X134520000Y-79145000D01*
G75*
G02*
X134595000Y-79070000I75000J0D01*
G01*
X135995000Y-79070000D01*
G75*
G02*
X136070000Y-79145000I0J-75000D01*
G01*
X136070000Y-79295000D01*
G75*
G02*
X135995000Y-79370000I-75000J0D01*
G01*
X134595000Y-79370000D01*
G75*
G02*
X134520000Y-79295000I0J75000D01*
G01*
G37*
%TD.AperFunction*%
%TO.P,U1,13*%
%TO.N,+3.3VA*%
%TA.AperFunction,SMDPad,CuDef*%
G36*
G01*
X134520000Y-79795000D02*
X134520000Y-79645000D01*
G75*
G02*
X134595000Y-79570000I75000J0D01*
G01*
X135995000Y-79570000D01*
G75*
G02*
X136070000Y-79645000I0J-75000D01*
G01*
X136070000Y-79795000D01*
G75*
G02*
X135995000Y-79870000I-75000J0D01*
G01*
X134595000Y-79870000D01*
G75*
G02*
X134520000Y-79795000I0J75000D01*
G01*
G37*
%TD.AperFunction*%
%TO.P,U1,14*%
%TO.N,Net-(U1-Pad14)*%
%TA.AperFunction,SMDPad,CuDef*%
G36*
G01*
X134520000Y-80295000D02*
X134520000Y-80145000D01*
G75*
G02*
X134595000Y-80070000I75000J0D01*
G01*
X135995000Y-80070000D01*
G75*
G02*
X136070000Y-80145000I0J-75000D01*
G01*
X136070000Y-80295000D01*
G75*
G02*
X135995000Y-80370000I-75000J0D01*
G01*
X134595000Y-80370000D01*
G75*
G02*
X134520000Y-80295000I0J75000D01*
G01*
G37*
%TD.AperFunction*%
%TO.P,U1,15*%
%TO.N,Net-(U1-Pad15)*%
%TA.AperFunction,SMDPad,CuDef*%
G36*
G01*
X134520000Y-80795000D02*
X134520000Y-80645000D01*
G75*
G02*
X134595000Y-80570000I75000J0D01*
G01*
X135995000Y-80570000D01*
G75*
G02*
X136070000Y-80645000I0J-75000D01*
G01*
X136070000Y-80795000D01*
G75*
G02*
X135995000Y-80870000I-75000J0D01*
G01*
X134595000Y-80870000D01*
G75*
G02*
X134520000Y-80795000I0J75000D01*
G01*
G37*
%TD.AperFunction*%
%TO.P,U1,16*%
%TO.N,LED_STATUS*%
%TA.AperFunction,SMDPad,CuDef*%
G36*
G01*
X134520000Y-81295000D02*
X134520000Y-81145000D01*
G75*
G02*
X134595000Y-81070000I75000J0D01*
G01*
X135995000Y-81070000D01*
G75*
G02*
X136070000Y-81145000I0J-75000D01*
G01*
X136070000Y-81295000D01*
G75*
G02*
X135995000Y-81370000I-75000J0D01*
G01*
X134595000Y-81370000D01*
G75*
G02*
X134520000Y-81295000I0J75000D01*
G01*
G37*
%TD.AperFunction*%
%TO.P,U1,17*%
%TO.N,Net-(U1-Pad17)*%
%TA.AperFunction,SMDPad,CuDef*%
G36*
G01*
X137070000Y-83845000D02*
X137070000Y-82445000D01*
G75*
G02*
X137145000Y-82370000I75000J0D01*
G01*
X137295000Y-82370000D01*
G75*
G02*
X137370000Y-82445000I0J-75000D01*
G01*
X137370000Y-83845000D01*
G75*
G02*
X137295000Y-83920000I-75000J0D01*
G01*
X137145000Y-83920000D01*
G75*
G02*
X137070000Y-83845000I0J75000D01*
G01*
G37*
%TD.AperFunction*%
%TO.P,U1,18*%
%TO.N,GND*%
%TA.AperFunction,SMDPad,CuDef*%
G36*
G01*
X137570000Y-83845000D02*
X137570000Y-82445000D01*
G75*
G02*
X137645000Y-82370000I75000J0D01*
G01*
X137795000Y-82370000D01*
G75*
G02*
X137870000Y-82445000I0J-75000D01*
G01*
X137870000Y-83845000D01*
G75*
G02*
X137795000Y-83920000I-75000J0D01*
G01*
X137645000Y-83920000D01*
G75*
G02*
X137570000Y-83845000I0J75000D01*
G01*
G37*
%TD.AperFunction*%
%TO.P,U1,19*%
%TO.N,+3.3VA*%
%TA.AperFunction,SMDPad,CuDef*%
G36*
G01*
X138070000Y-83845000D02*
X138070000Y-82445000D01*
G75*
G02*
X138145000Y-82370000I75000J0D01*
G01*
X138295000Y-82370000D01*
G75*
G02*
X138370000Y-82445000I0J-75000D01*
G01*
X138370000Y-83845000D01*
G75*
G02*
X138295000Y-83920000I-75000J0D01*
G01*
X138145000Y-83920000D01*
G75*
G02*
X138070000Y-83845000I0J75000D01*
G01*
G37*
%TD.AperFunction*%
%TO.P,U1,20*%
%TO.N,Net-(U1-Pad20)*%
%TA.AperFunction,SMDPad,CuDef*%
G36*
G01*
X138570000Y-83845000D02*
X138570000Y-82445000D01*
G75*
G02*
X138645000Y-82370000I75000J0D01*
G01*
X138795000Y-82370000D01*
G75*
G02*
X138870000Y-82445000I0J-75000D01*
G01*
X138870000Y-83845000D01*
G75*
G02*
X138795000Y-83920000I-75000J0D01*
G01*
X138645000Y-83920000D01*
G75*
G02*
X138570000Y-83845000I0J75000D01*
G01*
G37*
%TD.AperFunction*%
%TO.P,U1,21*%
%TO.N,Net-(U1-Pad21)*%
%TA.AperFunction,SMDPad,CuDef*%
G36*
G01*
X139070000Y-83845000D02*
X139070000Y-82445000D01*
G75*
G02*
X139145000Y-82370000I75000J0D01*
G01*
X139295000Y-82370000D01*
G75*
G02*
X139370000Y-82445000I0J-75000D01*
G01*
X139370000Y-83845000D01*
G75*
G02*
X139295000Y-83920000I-75000J0D01*
G01*
X139145000Y-83920000D01*
G75*
G02*
X139070000Y-83845000I0J75000D01*
G01*
G37*
%TD.AperFunction*%
%TO.P,U1,22*%
%TO.N,Net-(U1-Pad22)*%
%TA.AperFunction,SMDPad,CuDef*%
G36*
G01*
X139570000Y-83845000D02*
X139570000Y-82445000D01*
G75*
G02*
X139645000Y-82370000I75000J0D01*
G01*
X139795000Y-82370000D01*
G75*
G02*
X139870000Y-82445000I0J-75000D01*
G01*
X139870000Y-83845000D01*
G75*
G02*
X139795000Y-83920000I-75000J0D01*
G01*
X139645000Y-83920000D01*
G75*
G02*
X139570000Y-83845000I0J75000D01*
G01*
G37*
%TD.AperFunction*%
%TO.P,U1,23*%
%TO.N,Net-(U1-Pad23)*%
%TA.AperFunction,SMDPad,CuDef*%
G36*
G01*
X140070000Y-83845000D02*
X140070000Y-82445000D01*
G75*
G02*
X140145000Y-82370000I75000J0D01*
G01*
X140295000Y-82370000D01*
G75*
G02*
X140370000Y-82445000I0J-75000D01*
G01*
X140370000Y-83845000D01*
G75*
G02*
X140295000Y-83920000I-75000J0D01*
G01*
X140145000Y-83920000D01*
G75*
G02*
X140070000Y-83845000I0J75000D01*
G01*
G37*
%TD.AperFunction*%
%TO.P,U1,24*%
%TO.N,Net-(U1-Pad24)*%
%TA.AperFunction,SMDPad,CuDef*%
G36*
G01*
X140570000Y-83845000D02*
X140570000Y-82445000D01*
G75*
G02*
X140645000Y-82370000I75000J0D01*
G01*
X140795000Y-82370000D01*
G75*
G02*
X140870000Y-82445000I0J-75000D01*
G01*
X140870000Y-83845000D01*
G75*
G02*
X140795000Y-83920000I-75000J0D01*
G01*
X140645000Y-83920000D01*
G75*
G02*
X140570000Y-83845000I0J75000D01*
G01*
G37*
%TD.AperFunction*%
%TO.P,U1,25*%
%TO.N,Net-(U1-Pad25)*%
%TA.AperFunction,SMDPad,CuDef*%
G36*
G01*
X141070000Y-83845000D02*
X141070000Y-82445000D01*
G75*
G02*
X141145000Y-82370000I75000J0D01*
G01*
X141295000Y-82370000D01*
G75*
G02*
X141370000Y-82445000I0J-75000D01*
G01*
X141370000Y-83845000D01*
G75*
G02*
X141295000Y-83920000I-75000J0D01*
G01*
X141145000Y-83920000D01*
G75*
G02*
X141070000Y-83845000I0J75000D01*
G01*
G37*
%TD.AperFunction*%
%TO.P,U1,26*%
%TO.N,Net-(U1-Pad26)*%
%TA.AperFunction,SMDPad,CuDef*%
G36*
G01*
X141570000Y-83845000D02*
X141570000Y-82445000D01*
G75*
G02*
X141645000Y-82370000I75000J0D01*
G01*
X141795000Y-82370000D01*
G75*
G02*
X141870000Y-82445000I0J-75000D01*
G01*
X141870000Y-83845000D01*
G75*
G02*
X141795000Y-83920000I-75000J0D01*
G01*
X141645000Y-83920000D01*
G75*
G02*
X141570000Y-83845000I0J75000D01*
G01*
G37*
%TD.AperFunction*%
%TO.P,U1,27*%
%TO.N,Net-(U1-Pad27)*%
%TA.AperFunction,SMDPad,CuDef*%
G36*
G01*
X142070000Y-83845000D02*
X142070000Y-82445000D01*
G75*
G02*
X142145000Y-82370000I75000J0D01*
G01*
X142295000Y-82370000D01*
G75*
G02*
X142370000Y-82445000I0J-75000D01*
G01*
X142370000Y-83845000D01*
G75*
G02*
X142295000Y-83920000I-75000J0D01*
G01*
X142145000Y-83920000D01*
G75*
G02*
X142070000Y-83845000I0J75000D01*
G01*
G37*
%TD.AperFunction*%
%TO.P,U1,28*%
%TO.N,Net-(U1-Pad28)*%
%TA.AperFunction,SMDPad,CuDef*%
G36*
G01*
X142570000Y-83845000D02*
X142570000Y-82445000D01*
G75*
G02*
X142645000Y-82370000I75000J0D01*
G01*
X142795000Y-82370000D01*
G75*
G02*
X142870000Y-82445000I0J-75000D01*
G01*
X142870000Y-83845000D01*
G75*
G02*
X142795000Y-83920000I-75000J0D01*
G01*
X142645000Y-83920000D01*
G75*
G02*
X142570000Y-83845000I0J75000D01*
G01*
G37*
%TD.AperFunction*%
%TO.P,U1,29*%
%TO.N,USART3_TX*%
%TA.AperFunction,SMDPad,CuDef*%
G36*
G01*
X143070000Y-83845000D02*
X143070000Y-82445000D01*
G75*
G02*
X143145000Y-82370000I75000J0D01*
G01*
X143295000Y-82370000D01*
G75*
G02*
X143370000Y-82445000I0J-75000D01*
G01*
X143370000Y-83845000D01*
G75*
G02*
X143295000Y-83920000I-75000J0D01*
G01*
X143145000Y-83920000D01*
G75*
G02*
X143070000Y-83845000I0J75000D01*
G01*
G37*
%TD.AperFunction*%
%TO.P,U1,30*%
%TO.N,USART3_RX*%
%TA.AperFunction,SMDPad,CuDef*%
G36*
G01*
X143570000Y-83845000D02*
X143570000Y-82445000D01*
G75*
G02*
X143645000Y-82370000I75000J0D01*
G01*
X143795000Y-82370000D01*
G75*
G02*
X143870000Y-82445000I0J-75000D01*
G01*
X143870000Y-83845000D01*
G75*
G02*
X143795000Y-83920000I-75000J0D01*
G01*
X143645000Y-83920000D01*
G75*
G02*
X143570000Y-83845000I0J75000D01*
G01*
G37*
%TD.AperFunction*%
%TO.P,U1,31*%
%TO.N,Net-(C7-Pad1)*%
%TA.AperFunction,SMDPad,CuDef*%
G36*
G01*
X144070000Y-83845000D02*
X144070000Y-82445000D01*
G75*
G02*
X144145000Y-82370000I75000J0D01*
G01*
X144295000Y-82370000D01*
G75*
G02*
X144370000Y-82445000I0J-75000D01*
G01*
X144370000Y-83845000D01*
G75*
G02*
X144295000Y-83920000I-75000J0D01*
G01*
X144145000Y-83920000D01*
G75*
G02*
X144070000Y-83845000I0J75000D01*
G01*
G37*
%TD.AperFunction*%
%TO.P,U1,32*%
%TO.N,+3.3VA*%
%TA.AperFunction,SMDPad,CuDef*%
G36*
G01*
X144570000Y-83845000D02*
X144570000Y-82445000D01*
G75*
G02*
X144645000Y-82370000I75000J0D01*
G01*
X144795000Y-82370000D01*
G75*
G02*
X144870000Y-82445000I0J-75000D01*
G01*
X144870000Y-83845000D01*
G75*
G02*
X144795000Y-83920000I-75000J0D01*
G01*
X144645000Y-83920000D01*
G75*
G02*
X144570000Y-83845000I0J75000D01*
G01*
G37*
%TD.AperFunction*%
%TO.P,U1,33*%
%TO.N,Net-(U1-Pad33)*%
%TA.AperFunction,SMDPad,CuDef*%
G36*
G01*
X145870000Y-81295000D02*
X145870000Y-81145000D01*
G75*
G02*
X145945000Y-81070000I75000J0D01*
G01*
X147345000Y-81070000D01*
G75*
G02*
X147420000Y-81145000I0J-75000D01*
G01*
X147420000Y-81295000D01*
G75*
G02*
X147345000Y-81370000I-75000J0D01*
G01*
X145945000Y-81370000D01*
G75*
G02*
X145870000Y-81295000I0J75000D01*
G01*
G37*
%TD.AperFunction*%
%TO.P,U1,34*%
%TO.N,Net-(U1-Pad34)*%
%TA.AperFunction,SMDPad,CuDef*%
G36*
G01*
X145870000Y-80795000D02*
X145870000Y-80645000D01*
G75*
G02*
X145945000Y-80570000I75000J0D01*
G01*
X147345000Y-80570000D01*
G75*
G02*
X147420000Y-80645000I0J-75000D01*
G01*
X147420000Y-80795000D01*
G75*
G02*
X147345000Y-80870000I-75000J0D01*
G01*
X145945000Y-80870000D01*
G75*
G02*
X145870000Y-80795000I0J75000D01*
G01*
G37*
%TD.AperFunction*%
%TO.P,U1,35*%
%TO.N,Net-(U1-Pad35)*%
%TA.AperFunction,SMDPad,CuDef*%
G36*
G01*
X145870000Y-80295000D02*
X145870000Y-80145000D01*
G75*
G02*
X145945000Y-80070000I75000J0D01*
G01*
X147345000Y-80070000D01*
G75*
G02*
X147420000Y-80145000I0J-75000D01*
G01*
X147420000Y-80295000D01*
G75*
G02*
X147345000Y-80370000I-75000J0D01*
G01*
X145945000Y-80370000D01*
G75*
G02*
X145870000Y-80295000I0J75000D01*
G01*
G37*
%TD.AperFunction*%
%TO.P,U1,36*%
%TO.N,Net-(U1-Pad36)*%
%TA.AperFunction,SMDPad,CuDef*%
G36*
G01*
X145870000Y-79795000D02*
X145870000Y-79645000D01*
G75*
G02*
X145945000Y-79570000I75000J0D01*
G01*
X147345000Y-79570000D01*
G75*
G02*
X147420000Y-79645000I0J-75000D01*
G01*
X147420000Y-79795000D01*
G75*
G02*
X147345000Y-79870000I-75000J0D01*
G01*
X145945000Y-79870000D01*
G75*
G02*
X145870000Y-79795000I0J75000D01*
G01*
G37*
%TD.AperFunction*%
%TO.P,U1,37*%
%TO.N,Net-(U1-Pad37)*%
%TA.AperFunction,SMDPad,CuDef*%
G36*
G01*
X145870000Y-79295000D02*
X145870000Y-79145000D01*
G75*
G02*
X145945000Y-79070000I75000J0D01*
G01*
X147345000Y-79070000D01*
G75*
G02*
X147420000Y-79145000I0J-75000D01*
G01*
X147420000Y-79295000D01*
G75*
G02*
X147345000Y-79370000I-75000J0D01*
G01*
X145945000Y-79370000D01*
G75*
G02*
X145870000Y-79295000I0J75000D01*
G01*
G37*
%TD.AperFunction*%
%TO.P,U1,38*%
%TO.N,Net-(U1-Pad38)*%
%TA.AperFunction,SMDPad,CuDef*%
G36*
G01*
X145870000Y-78795000D02*
X145870000Y-78645000D01*
G75*
G02*
X145945000Y-78570000I75000J0D01*
G01*
X147345000Y-78570000D01*
G75*
G02*
X147420000Y-78645000I0J-75000D01*
G01*
X147420000Y-78795000D01*
G75*
G02*
X147345000Y-78870000I-75000J0D01*
G01*
X145945000Y-78870000D01*
G75*
G02*
X145870000Y-78795000I0J75000D01*
G01*
G37*
%TD.AperFunction*%
%TO.P,U1,39*%
%TO.N,Net-(U1-Pad39)*%
%TA.AperFunction,SMDPad,CuDef*%
G36*
G01*
X145870000Y-78295000D02*
X145870000Y-78145000D01*
G75*
G02*
X145945000Y-78070000I75000J0D01*
G01*
X147345000Y-78070000D01*
G75*
G02*
X147420000Y-78145000I0J-75000D01*
G01*
X147420000Y-78295000D01*
G75*
G02*
X147345000Y-78370000I-75000J0D01*
G01*
X145945000Y-78370000D01*
G75*
G02*
X145870000Y-78295000I0J75000D01*
G01*
G37*
%TD.AperFunction*%
%TO.P,U1,40*%
%TO.N,Net-(U1-Pad40)*%
%TA.AperFunction,SMDPad,CuDef*%
G36*
G01*
X145870000Y-77795000D02*
X145870000Y-77645000D01*
G75*
G02*
X145945000Y-77570000I75000J0D01*
G01*
X147345000Y-77570000D01*
G75*
G02*
X147420000Y-77645000I0J-75000D01*
G01*
X147420000Y-77795000D01*
G75*
G02*
X147345000Y-77870000I-75000J0D01*
G01*
X145945000Y-77870000D01*
G75*
G02*
X145870000Y-77795000I0J75000D01*
G01*
G37*
%TD.AperFunction*%
%TO.P,U1,41*%
%TO.N,Net-(U1-Pad41)*%
%TA.AperFunction,SMDPad,CuDef*%
G36*
G01*
X145870000Y-77295000D02*
X145870000Y-77145000D01*
G75*
G02*
X145945000Y-77070000I75000J0D01*
G01*
X147345000Y-77070000D01*
G75*
G02*
X147420000Y-77145000I0J-75000D01*
G01*
X147420000Y-77295000D01*
G75*
G02*
X147345000Y-77370000I-75000J0D01*
G01*
X145945000Y-77370000D01*
G75*
G02*
X145870000Y-77295000I0J75000D01*
G01*
G37*
%TD.AperFunction*%
%TO.P,U1,42*%
%TO.N,Net-(U1-Pad42)*%
%TA.AperFunction,SMDPad,CuDef*%
G36*
G01*
X145870000Y-76795000D02*
X145870000Y-76645000D01*
G75*
G02*
X145945000Y-76570000I75000J0D01*
G01*
X147345000Y-76570000D01*
G75*
G02*
X147420000Y-76645000I0J-75000D01*
G01*
X147420000Y-76795000D01*
G75*
G02*
X147345000Y-76870000I-75000J0D01*
G01*
X145945000Y-76870000D01*
G75*
G02*
X145870000Y-76795000I0J75000D01*
G01*
G37*
%TD.AperFunction*%
%TO.P,U1,43*%
%TO.N,Net-(U1-Pad43)*%
%TA.AperFunction,SMDPad,CuDef*%
G36*
G01*
X145870000Y-76295000D02*
X145870000Y-76145000D01*
G75*
G02*
X145945000Y-76070000I75000J0D01*
G01*
X147345000Y-76070000D01*
G75*
G02*
X147420000Y-76145000I0J-75000D01*
G01*
X147420000Y-76295000D01*
G75*
G02*
X147345000Y-76370000I-75000J0D01*
G01*
X145945000Y-76370000D01*
G75*
G02*
X145870000Y-76295000I0J75000D01*
G01*
G37*
%TD.AperFunction*%
%TO.P,U1,44*%
%TO.N,USB_D+*%
%TA.AperFunction,SMDPad,CuDef*%
G36*
G01*
X145870000Y-75795000D02*
X145870000Y-75645000D01*
G75*
G02*
X145945000Y-75570000I75000J0D01*
G01*
X147345000Y-75570000D01*
G75*
G02*
X147420000Y-75645000I0J-75000D01*
G01*
X147420000Y-75795000D01*
G75*
G02*
X147345000Y-75870000I-75000J0D01*
G01*
X145945000Y-75870000D01*
G75*
G02*
X145870000Y-75795000I0J75000D01*
G01*
G37*
%TD.AperFunction*%
%TO.P,U1,45*%
%TO.N,USB_D-*%
%TA.AperFunction,SMDPad,CuDef*%
G36*
G01*
X145870000Y-75295000D02*
X145870000Y-75145000D01*
G75*
G02*
X145945000Y-75070000I75000J0D01*
G01*
X147345000Y-75070000D01*
G75*
G02*
X147420000Y-75145000I0J-75000D01*
G01*
X147420000Y-75295000D01*
G75*
G02*
X147345000Y-75370000I-75000J0D01*
G01*
X145945000Y-75370000D01*
G75*
G02*
X145870000Y-75295000I0J75000D01*
G01*
G37*
%TD.AperFunction*%
%TO.P,U1,46*%
%TO.N,SWDIO*%
%TA.AperFunction,SMDPad,CuDef*%
G36*
G01*
X145870000Y-74795000D02*
X145870000Y-74645000D01*
G75*
G02*
X145945000Y-74570000I75000J0D01*
G01*
X147345000Y-74570000D01*
G75*
G02*
X147420000Y-74645000I0J-75000D01*
G01*
X147420000Y-74795000D01*
G75*
G02*
X147345000Y-74870000I-75000J0D01*
G01*
X145945000Y-74870000D01*
G75*
G02*
X145870000Y-74795000I0J75000D01*
G01*
G37*
%TD.AperFunction*%
%TO.P,U1,47*%
%TO.N,Net-(C8-Pad1)*%
%TA.AperFunction,SMDPad,CuDef*%
G36*
G01*
X145870000Y-74295000D02*
X145870000Y-74145000D01*
G75*
G02*
X145945000Y-74070000I75000J0D01*
G01*
X147345000Y-74070000D01*
G75*
G02*
X147420000Y-74145000I0J-75000D01*
G01*
X147420000Y-74295000D01*
G75*
G02*
X147345000Y-74370000I-75000J0D01*
G01*
X145945000Y-74370000D01*
G75*
G02*
X145870000Y-74295000I0J75000D01*
G01*
G37*
%TD.AperFunction*%
%TO.P,U1,48*%
%TO.N,+3.3VA*%
%TA.AperFunction,SMDPad,CuDef*%
G36*
G01*
X145870000Y-73795000D02*
X145870000Y-73645000D01*
G75*
G02*
X145945000Y-73570000I75000J0D01*
G01*
X147345000Y-73570000D01*
G75*
G02*
X147420000Y-73645000I0J-75000D01*
G01*
X147420000Y-73795000D01*
G75*
G02*
X147345000Y-73870000I-75000J0D01*
G01*
X145945000Y-73870000D01*
G75*
G02*
X145870000Y-73795000I0J75000D01*
G01*
G37*
%TD.AperFunction*%
%TO.P,U1,49*%
%TO.N,SWCLK*%
%TA.AperFunction,SMDPad,CuDef*%
G36*
G01*
X144570000Y-72495000D02*
X144570000Y-71095000D01*
G75*
G02*
X144645000Y-71020000I75000J0D01*
G01*
X144795000Y-71020000D01*
G75*
G02*
X144870000Y-71095000I0J-75000D01*
G01*
X144870000Y-72495000D01*
G75*
G02*
X144795000Y-72570000I-75000J0D01*
G01*
X144645000Y-72570000D01*
G75*
G02*
X144570000Y-72495000I0J75000D01*
G01*
G37*
%TD.AperFunction*%
%TO.P,U1,50*%
%TO.N,Net-(U1-Pad50)*%
%TA.AperFunction,SMDPad,CuDef*%
G36*
G01*
X144070000Y-72495000D02*
X144070000Y-71095000D01*
G75*
G02*
X144145000Y-71020000I75000J0D01*
G01*
X144295000Y-71020000D01*
G75*
G02*
X144370000Y-71095000I0J-75000D01*
G01*
X144370000Y-72495000D01*
G75*
G02*
X144295000Y-72570000I-75000J0D01*
G01*
X144145000Y-72570000D01*
G75*
G02*
X144070000Y-72495000I0J75000D01*
G01*
G37*
%TD.AperFunction*%
%TO.P,U1,51*%
%TO.N,Net-(U1-Pad51)*%
%TA.AperFunction,SMDPad,CuDef*%
G36*
G01*
X143570000Y-72495000D02*
X143570000Y-71095000D01*
G75*
G02*
X143645000Y-71020000I75000J0D01*
G01*
X143795000Y-71020000D01*
G75*
G02*
X143870000Y-71095000I0J-75000D01*
G01*
X143870000Y-72495000D01*
G75*
G02*
X143795000Y-72570000I-75000J0D01*
G01*
X143645000Y-72570000D01*
G75*
G02*
X143570000Y-72495000I0J75000D01*
G01*
G37*
%TD.AperFunction*%
%TO.P,U1,52*%
%TO.N,Net-(U1-Pad52)*%
%TA.AperFunction,SMDPad,CuDef*%
G36*
G01*
X143070000Y-72495000D02*
X143070000Y-71095000D01*
G75*
G02*
X143145000Y-71020000I75000J0D01*
G01*
X143295000Y-71020000D01*
G75*
G02*
X143370000Y-71095000I0J-75000D01*
G01*
X143370000Y-72495000D01*
G75*
G02*
X143295000Y-72570000I-75000J0D01*
G01*
X143145000Y-72570000D01*
G75*
G02*
X143070000Y-72495000I0J75000D01*
G01*
G37*
%TD.AperFunction*%
%TO.P,U1,53*%
%TO.N,Net-(U1-Pad53)*%
%TA.AperFunction,SMDPad,CuDef*%
G36*
G01*
X142570000Y-72495000D02*
X142570000Y-71095000D01*
G75*
G02*
X142645000Y-71020000I75000J0D01*
G01*
X142795000Y-71020000D01*
G75*
G02*
X142870000Y-71095000I0J-75000D01*
G01*
X142870000Y-72495000D01*
G75*
G02*
X142795000Y-72570000I-75000J0D01*
G01*
X142645000Y-72570000D01*
G75*
G02*
X142570000Y-72495000I0J75000D01*
G01*
G37*
%TD.AperFunction*%
%TO.P,U1,54*%
%TO.N,Net-(U1-Pad54)*%
%TA.AperFunction,SMDPad,CuDef*%
G36*
G01*
X142070000Y-72495000D02*
X142070000Y-71095000D01*
G75*
G02*
X142145000Y-71020000I75000J0D01*
G01*
X142295000Y-71020000D01*
G75*
G02*
X142370000Y-71095000I0J-75000D01*
G01*
X142370000Y-72495000D01*
G75*
G02*
X142295000Y-72570000I-75000J0D01*
G01*
X142145000Y-72570000D01*
G75*
G02*
X142070000Y-72495000I0J75000D01*
G01*
G37*
%TD.AperFunction*%
%TO.P,U1,55*%
%TO.N,SWO*%
%TA.AperFunction,SMDPad,CuDef*%
G36*
G01*
X141570000Y-72495000D02*
X141570000Y-71095000D01*
G75*
G02*
X141645000Y-71020000I75000J0D01*
G01*
X141795000Y-71020000D01*
G75*
G02*
X141870000Y-71095000I0J-75000D01*
G01*
X141870000Y-72495000D01*
G75*
G02*
X141795000Y-72570000I-75000J0D01*
G01*
X141645000Y-72570000D01*
G75*
G02*
X141570000Y-72495000I0J75000D01*
G01*
G37*
%TD.AperFunction*%
%TO.P,U1,56*%
%TO.N,Net-(U1-Pad56)*%
%TA.AperFunction,SMDPad,CuDef*%
G36*
G01*
X141070000Y-72495000D02*
X141070000Y-71095000D01*
G75*
G02*
X141145000Y-71020000I75000J0D01*
G01*
X141295000Y-71020000D01*
G75*
G02*
X141370000Y-71095000I0J-75000D01*
G01*
X141370000Y-72495000D01*
G75*
G02*
X141295000Y-72570000I-75000J0D01*
G01*
X141145000Y-72570000D01*
G75*
G02*
X141070000Y-72495000I0J75000D01*
G01*
G37*
%TD.AperFunction*%
%TO.P,U1,57*%
%TO.N,Net-(U1-Pad57)*%
%TA.AperFunction,SMDPad,CuDef*%
G36*
G01*
X140570000Y-72495000D02*
X140570000Y-71095000D01*
G75*
G02*
X140645000Y-71020000I75000J0D01*
G01*
X140795000Y-71020000D01*
G75*
G02*
X140870000Y-71095000I0J-75000D01*
G01*
X140870000Y-72495000D01*
G75*
G02*
X140795000Y-72570000I-75000J0D01*
G01*
X140645000Y-72570000D01*
G75*
G02*
X140570000Y-72495000I0J75000D01*
G01*
G37*
%TD.AperFunction*%
%TO.P,U1,58*%
%TO.N,I2C1_SCL*%
%TA.AperFunction,SMDPad,CuDef*%
G36*
G01*
X140070000Y-72495000D02*
X140070000Y-71095000D01*
G75*
G02*
X140145000Y-71020000I75000J0D01*
G01*
X140295000Y-71020000D01*
G75*
G02*
X140370000Y-71095000I0J-75000D01*
G01*
X140370000Y-72495000D01*
G75*
G02*
X140295000Y-72570000I-75000J0D01*
G01*
X140145000Y-72570000D01*
G75*
G02*
X140070000Y-72495000I0J75000D01*
G01*
G37*
%TD.AperFunction*%
%TO.P,U1,59*%
%TO.N,I2C1_SDA*%
%TA.AperFunction,SMDPad,CuDef*%
G36*
G01*
X139570000Y-72495000D02*
X139570000Y-71095000D01*
G75*
G02*
X139645000Y-71020000I75000J0D01*
G01*
X139795000Y-71020000D01*
G75*
G02*
X139870000Y-71095000I0J-75000D01*
G01*
X139870000Y-72495000D01*
G75*
G02*
X139795000Y-72570000I-75000J0D01*
G01*
X139645000Y-72570000D01*
G75*
G02*
X139570000Y-72495000I0J75000D01*
G01*
G37*
%TD.AperFunction*%
%TO.P,U1,60*%
%TO.N,BOOTO*%
%TA.AperFunction,SMDPad,CuDef*%
G36*
G01*
X139070000Y-72495000D02*
X139070000Y-71095000D01*
G75*
G02*
X139145000Y-71020000I75000J0D01*
G01*
X139295000Y-71020000D01*
G75*
G02*
X139370000Y-71095000I0J-75000D01*
G01*
X139370000Y-72495000D01*
G75*
G02*
X139295000Y-72570000I-75000J0D01*
G01*
X139145000Y-72570000D01*
G75*
G02*
X139070000Y-72495000I0J75000D01*
G01*
G37*
%TD.AperFunction*%
%TO.P,U1,61*%
%TO.N,Net-(U1-Pad61)*%
%TA.AperFunction,SMDPad,CuDef*%
G36*
G01*
X138570000Y-72495000D02*
X138570000Y-71095000D01*
G75*
G02*
X138645000Y-71020000I75000J0D01*
G01*
X138795000Y-71020000D01*
G75*
G02*
X138870000Y-71095000I0J-75000D01*
G01*
X138870000Y-72495000D01*
G75*
G02*
X138795000Y-72570000I-75000J0D01*
G01*
X138645000Y-72570000D01*
G75*
G02*
X138570000Y-72495000I0J75000D01*
G01*
G37*
%TD.AperFunction*%
%TO.P,U1,62*%
%TO.N,Net-(U1-Pad62)*%
%TA.AperFunction,SMDPad,CuDef*%
G36*
G01*
X138070000Y-72495000D02*
X138070000Y-71095000D01*
G75*
G02*
X138145000Y-71020000I75000J0D01*
G01*
X138295000Y-71020000D01*
G75*
G02*
X138370000Y-71095000I0J-75000D01*
G01*
X138370000Y-72495000D01*
G75*
G02*
X138295000Y-72570000I-75000J0D01*
G01*
X138145000Y-72570000D01*
G75*
G02*
X138070000Y-72495000I0J75000D01*
G01*
G37*
%TD.AperFunction*%
%TO.P,U1,63*%
%TO.N,GND*%
%TA.AperFunction,SMDPad,CuDef*%
G36*
G01*
X137570000Y-72495000D02*
X137570000Y-71095000D01*
G75*
G02*
X137645000Y-71020000I75000J0D01*
G01*
X137795000Y-71020000D01*
G75*
G02*
X137870000Y-71095000I0J-75000D01*
G01*
X137870000Y-72495000D01*
G75*
G02*
X137795000Y-72570000I-75000J0D01*
G01*
X137645000Y-72570000D01*
G75*
G02*
X137570000Y-72495000I0J75000D01*
G01*
G37*
%TD.AperFunction*%
%TO.P,U1,64*%
%TO.N,+3.3VA*%
%TA.AperFunction,SMDPad,CuDef*%
G36*
G01*
X137070000Y-72495000D02*
X137070000Y-71095000D01*
G75*
G02*
X137145000Y-71020000I75000J0D01*
G01*
X137295000Y-71020000D01*
G75*
G02*
X137370000Y-71095000I0J-75000D01*
G01*
X137370000Y-72495000D01*
G75*
G02*
X137295000Y-72570000I-75000J0D01*
G01*
X137145000Y-72570000D01*
G75*
G02*
X137070000Y-72495000I0J75000D01*
G01*
G37*
%TD.AperFunction*%
%TD*%
D27*
%TO.P,U2,5*%
%TO.N,BUCK_IN*%
X152230000Y-96520000D03*
%TO.P,U2,6*%
%TO.N,BUCK_SW*%
X152230000Y-95570000D03*
%TO.P,U2,4*%
%TO.N,BUCK_EN*%
X152230000Y-97470000D03*
%TO.P,U2,3*%
%TO.N,BUCK_FB*%
X150030000Y-97470000D03*
%TO.P,U2,2*%
%TO.N,GND*%
X150030000Y-96520000D03*
%TO.P,U2,1*%
%TO.N,BUCK_BST*%
X150030000Y-95570000D03*
%TD*%
%TO.P,U3,1*%
%TO.N,USB_CONN_D-*%
X157775000Y-63815000D03*
%TO.P,U3,2*%
%TO.N,GND*%
X157775000Y-62865000D03*
%TO.P,U3,3*%
%TO.N,USB_CONN_D+*%
X157775000Y-61915000D03*
%TO.P,U3,4*%
%TO.N,USB_D+*%
X155575000Y-61915000D03*
%TO.P,U3,6*%
%TO.N,USB_D-*%
X155575000Y-63815000D03*
%TO.P,U3,5*%
%TO.N,+5V*%
X155575000Y-62865000D03*
%TD*%
D28*
%TO.P,Y1,1*%
%TO.N,HSE_IN*%
X126195000Y-75985000D03*
%TO.P,Y1,2*%
%TO.N,GND*%
X123995000Y-75985000D03*
%TO.P,Y1,3*%
%TO.N,Net-(C3-Pad1)*%
X123995000Y-77685000D03*
%TO.P,Y1,4*%
%TO.N,GND*%
X126195000Y-77685000D03*
%TD*%
D29*
%TO.N,GND*%
X169100000Y-81200000D03*
%TO.N,+3.3VA*%
X162100000Y-103000000D03*
X157500000Y-104600000D03*
X151200000Y-104100000D03*
X153400000Y-105800000D03*
X159000000Y-105800000D03*
X141700000Y-60300000D03*
X125100000Y-83200000D03*
%TO.N,+3V3*%
X117000000Y-72750000D03*
%TO.N,+3.3VA*%
X160500000Y-101750000D03*
%TO.N,GND*%
X122000000Y-86000000D03*
X125000000Y-86000000D03*
X167900000Y-79600000D03*
X162000000Y-97600000D03*
X163500000Y-98900000D03*
X157600000Y-97600000D03*
X159000000Y-98700000D03*
X148800000Y-96600000D03*
X157500000Y-110000000D03*
X159000000Y-108900000D03*
X146700000Y-107300000D03*
X163900000Y-68200000D03*
X162500000Y-68200000D03*
X165300000Y-68200000D03*
X159000000Y-62900000D03*
X140700000Y-60500000D03*
X139700000Y-60500000D03*
X136100000Y-58700000D03*
X123100000Y-61700000D03*
X117100000Y-77300000D03*
X122600000Y-75900000D03*
X126200000Y-79000000D03*
X130200000Y-87000000D03*
X128000000Y-87100000D03*
X137700000Y-81400000D03*
X127000000Y-93900000D03*
X128100000Y-85300000D03*
X137700000Y-81400000D03*
X137000000Y-79200000D03*
X148800000Y-91300000D03*
X159800000Y-88700000D03*
X165700000Y-50700000D03*
X167100000Y-48300000D03*
X167300000Y-52500000D03*
%TO.N,HSE_IN*%
X131500000Y-75470000D03*
X129750000Y-78000000D03*
X128100000Y-76900000D03*
%TO.N,+3.3VA*%
X132010872Y-87481880D03*
X131500000Y-89750000D03*
X122600000Y-85000000D03*
X125100000Y-87000000D03*
X125100000Y-88700000D03*
X127000000Y-90700000D03*
X130200000Y-90700000D03*
X125100000Y-90800000D03*
X134600000Y-92700000D03*
X134000000Y-87800000D03*
X133400000Y-79900000D03*
X133800000Y-73700000D03*
%TO.N,BUCK_IN*%
X154500000Y-91100000D03*
X155000000Y-85700000D03*
%TO.N,BUCK_BST*%
X147300000Y-99600000D03*
X147300000Y-96500000D03*
%TO.N,+5V*%
X156400000Y-83400000D03*
X153700000Y-66100000D03*
X158900000Y-59800000D03*
X156700000Y-59700000D03*
%TO.N,SWCLK*%
X144700000Y-55100000D03*
X144500000Y-51500000D03*
%TO.N,SWO*%
X143500000Y-55400000D03*
X140900000Y-50400000D03*
%TO.N,NRST*%
X132900000Y-77300000D03*
X133000000Y-71100000D03*
%TO.N,I2C1_SCL*%
X139300000Y-66200000D03*
X136000000Y-64300000D03*
%TO.N,I2C1_SDA*%
X139000000Y-69250000D03*
X135500000Y-67500000D03*
%TO.N,USART3_TX*%
X141500000Y-80900000D03*
X139500000Y-88800000D03*
%TO.N,BOOTO*%
X138800000Y-70400000D03*
X123400000Y-73100000D03*
%TO.N,BUCK_EN*%
X153400000Y-97400000D03*
X155600000Y-96800000D03*
%TO.N,USB_D+*%
X152250000Y-73500000D03*
X152250000Y-69750000D03*
%TD*%
D30*
%TO.N,GND*%
X130810000Y-79940000D02*
X130810000Y-81280000D01*
X131625000Y-88125000D02*
X130175000Y-88125000D01*
X132880000Y-89380000D02*
X131625000Y-88125000D01*
X133350000Y-89380000D02*
X132880000Y-89380000D01*
X130175000Y-88125000D02*
X127000000Y-88125000D01*
X127000000Y-88125000D02*
X127000000Y-85280000D01*
X127000000Y-92710000D02*
X124040000Y-92710000D01*
X124040000Y-92710000D02*
X123330000Y-92000000D01*
X123330000Y-90820000D02*
X123345000Y-90805000D01*
X123330000Y-92000000D02*
X123330000Y-90820000D01*
X123345000Y-90805000D02*
X123345000Y-88900000D01*
X123345000Y-88900000D02*
X123345000Y-86995000D01*
X123345000Y-86995000D02*
X122495000Y-86995000D01*
X122495000Y-86995000D02*
X122490000Y-87000000D01*
X122490000Y-87000000D02*
X121250000Y-87000000D01*
X121250000Y-87000000D02*
X120750000Y-86500000D01*
X120750000Y-86500000D02*
X120750000Y-86000000D01*
X120750000Y-86000000D02*
X121000000Y-85750000D01*
X121000000Y-85750000D02*
X121250000Y-85750000D01*
X121250000Y-85750000D02*
X121500000Y-86000000D01*
X121500000Y-86000000D02*
X121750000Y-86000000D01*
X121500000Y-86000000D02*
X122000000Y-86000000D01*
X125000000Y-86000000D02*
X125250000Y-86000000D01*
X125250000Y-86000000D02*
X125750000Y-85500000D01*
X125750000Y-85500000D02*
X125750000Y-85250000D01*
X125590000Y-85090000D02*
X124305000Y-85090000D01*
X125750000Y-85250000D02*
X125590000Y-85090000D01*
X137720000Y-58695000D02*
X137700000Y-58675000D01*
X137720000Y-71795000D02*
X137720000Y-58695000D01*
D31*
X148880000Y-96520000D02*
X148800000Y-96600000D01*
X150030000Y-96520000D02*
X148880000Y-96520000D01*
X146685000Y-107315000D02*
X146700000Y-107300000D01*
X145605000Y-107315000D02*
X146685000Y-107315000D01*
X157480000Y-109980000D02*
X157500000Y-110000000D01*
X157480000Y-108790000D02*
X157480000Y-109980000D01*
X158890000Y-108790000D02*
X159000000Y-108900000D01*
X157480000Y-108790000D02*
X158890000Y-108790000D01*
X158980000Y-98680000D02*
X159000000Y-98700000D01*
X157480000Y-98680000D02*
X158980000Y-98680000D01*
X157480000Y-97720000D02*
X157600000Y-97600000D01*
X157480000Y-98680000D02*
X157480000Y-97720000D01*
X163455000Y-98855000D02*
X163500000Y-98900000D01*
X161925000Y-98855000D02*
X163455000Y-98855000D01*
X161925000Y-97675000D02*
X162000000Y-97600000D01*
X161925000Y-98855000D02*
X161925000Y-97675000D01*
X169020000Y-81280000D02*
X169100000Y-81200000D01*
X167845000Y-81280000D02*
X169020000Y-81280000D01*
X167845000Y-79655000D02*
X167900000Y-79600000D01*
X167845000Y-81280000D02*
X167845000Y-79655000D01*
D32*
X167024990Y-58503862D02*
X167546127Y-59024999D01*
X158965000Y-62865000D02*
X159000000Y-62900000D01*
X157775000Y-62865000D02*
X158965000Y-62865000D01*
X163830000Y-68270000D02*
X163900000Y-68200000D01*
X163830000Y-70795000D02*
X163830000Y-68270000D01*
X163830000Y-69670000D02*
X165300000Y-68200000D01*
X163830000Y-70795000D02*
X163830000Y-69670000D01*
X163830000Y-69530000D02*
X162500000Y-68200000D01*
X163830000Y-70795000D02*
X163830000Y-69530000D01*
X140700000Y-58675000D02*
X140700000Y-60500000D01*
X139700000Y-58675000D02*
X139700000Y-60500000D01*
X136125000Y-58675000D02*
X136100000Y-58700000D01*
X137700000Y-58675000D02*
X136125000Y-58675000D01*
X123250000Y-61550000D02*
X123100000Y-61700000D01*
X123250000Y-59690000D02*
X123250000Y-61550000D01*
D30*
X137720000Y-81420000D02*
X137700000Y-81400000D01*
X137720000Y-83145000D02*
X137720000Y-81420000D01*
D32*
X127000000Y-88100000D02*
X128000000Y-87100000D01*
X127000000Y-88125000D02*
X127000000Y-88100000D01*
X128080000Y-85280000D02*
X128100000Y-85300000D01*
X127000000Y-85280000D02*
X128080000Y-85280000D01*
X130175000Y-87025000D02*
X130200000Y-87000000D01*
X130175000Y-88125000D02*
X130175000Y-87025000D01*
X127000000Y-92710000D02*
X127000000Y-93900000D01*
X126195000Y-78995000D02*
X126200000Y-79000000D01*
X126195000Y-77685000D02*
X126195000Y-78995000D01*
X122685000Y-75985000D02*
X122600000Y-75900000D01*
X123995000Y-75985000D02*
X122685000Y-75985000D01*
D30*
X123345000Y-83185000D02*
X123345000Y-81280000D01*
X123345000Y-84045000D02*
X123345000Y-83185000D01*
X124305000Y-85005000D02*
X123345000Y-84045000D01*
X124305000Y-85090000D02*
X124305000Y-85005000D01*
X136980000Y-79220000D02*
X137000000Y-79200000D01*
X135295000Y-79220000D02*
X136980000Y-79220000D01*
X148875000Y-91225000D02*
X148800000Y-91300000D01*
X148875000Y-89900000D02*
X148875000Y-91225000D01*
D32*
X159700000Y-88800000D02*
X159800000Y-88700000D01*
X159700000Y-89805000D02*
X159700000Y-88800000D01*
D33*
X168965000Y-50165000D02*
X167100000Y-48300000D01*
X169545000Y-50165000D02*
X168965000Y-50165000D01*
X166235000Y-50165000D02*
X165700000Y-50700000D01*
X169545000Y-50165000D02*
X166235000Y-50165000D01*
X169545000Y-50255000D02*
X167300000Y-52500000D01*
X169545000Y-50165000D02*
X169545000Y-50255000D01*
X167300000Y-52300000D02*
X165700000Y-50700000D01*
X167300000Y-52500000D02*
X167300000Y-52300000D01*
X165700000Y-49700000D02*
X167100000Y-48300000D01*
X165700000Y-50700000D02*
X165700000Y-49700000D01*
X167300000Y-48500000D02*
X167100000Y-48300000D01*
X167300000Y-52500000D02*
X167300000Y-48500000D01*
D34*
X135295000Y-79220000D02*
X134220000Y-79220000D01*
X134220000Y-79220000D02*
X134000000Y-79000000D01*
X131750000Y-79000000D02*
X130810000Y-79940000D01*
X134000000Y-79000000D02*
X131750000Y-79000000D01*
D30*
X116980000Y-77180000D02*
X117100000Y-77300000D01*
X115730000Y-77180000D02*
X116980000Y-77180000D01*
%TO.N,HSE_IN*%
X131750000Y-75720000D02*
X131500000Y-75470000D01*
X135295000Y-75720000D02*
X131750000Y-75720000D01*
X129750000Y-81180000D02*
X129850000Y-81280000D01*
X129750000Y-78000000D02*
X129750000Y-81180000D01*
X126195000Y-75985000D02*
X126985000Y-75985000D01*
X127900000Y-76900000D02*
X128100000Y-76900000D01*
X126985000Y-75985000D02*
X127900000Y-76900000D01*
%TO.N,+3.3VA*%
X138220000Y-83145000D02*
X138220000Y-84780000D01*
X137760000Y-85240000D02*
X133350000Y-85240000D01*
X138220000Y-84780000D02*
X137760000Y-85240000D01*
X133540000Y-92710000D02*
X133540000Y-92710000D01*
X133540000Y-91710000D02*
X135000000Y-90250000D01*
X135000000Y-90250000D02*
X135000000Y-88750000D01*
X134670000Y-88420000D02*
X133350000Y-88420000D01*
X135000000Y-88750000D02*
X134670000Y-88420000D01*
X133350000Y-88420000D02*
X133350000Y-86210000D01*
X133350000Y-85240000D02*
X133350000Y-86210000D01*
X133350000Y-88420000D02*
X133170000Y-88420000D01*
X133090000Y-88500000D02*
X133000000Y-88500000D01*
X133170000Y-88420000D02*
X133090000Y-88500000D01*
X132010872Y-87510872D02*
X132010872Y-87481880D01*
X133000000Y-88500000D02*
X132010872Y-87510872D01*
X130250000Y-89750000D02*
X130175000Y-89675000D01*
X131500000Y-89750000D02*
X130250000Y-89750000D01*
X130175000Y-89675000D02*
X128025000Y-89675000D01*
X125080000Y-89675000D02*
X124452500Y-89047500D01*
X127000000Y-89675000D02*
X125080000Y-89675000D01*
X124305000Y-90805000D02*
X124305000Y-90805000D01*
X124305000Y-88900000D02*
X124305000Y-86995000D01*
X124305000Y-86685000D02*
X123620000Y-86000000D01*
X124305000Y-86995000D02*
X124305000Y-86685000D01*
X123620000Y-86000000D02*
X123500000Y-86000000D01*
X123345000Y-85845000D02*
X123345000Y-85090000D01*
X123500000Y-86000000D02*
X123345000Y-85845000D01*
X123345000Y-85090000D02*
X123345000Y-85090000D01*
X124305000Y-86995000D02*
X124305000Y-86995000D01*
X124452500Y-89047500D02*
X124305000Y-88900000D01*
X127000000Y-89675000D02*
X127000000Y-89675000D01*
X128025000Y-89675000D02*
X127000000Y-89675000D01*
X124305000Y-90805000D02*
X124305000Y-88900000D01*
X133540000Y-92710000D02*
X133540000Y-91710000D01*
X133350000Y-88420000D02*
X133350000Y-88420000D01*
D32*
X130175000Y-90675000D02*
X130200000Y-90700000D01*
X130175000Y-89675000D02*
X130175000Y-90675000D01*
X127000000Y-89675000D02*
X127000000Y-90700000D01*
X133380000Y-88420000D02*
X134000000Y-87800000D01*
X133350000Y-88420000D02*
X133380000Y-88420000D01*
X157480000Y-104620000D02*
X157500000Y-104600000D01*
X157480000Y-105840000D02*
X157480000Y-104620000D01*
X158960000Y-105840000D02*
X159000000Y-105800000D01*
X157480000Y-105840000D02*
X158960000Y-105840000D01*
X124900000Y-88900000D02*
X125100000Y-88700000D01*
X124305000Y-88900000D02*
X124900000Y-88900000D01*
X125095000Y-90805000D02*
X125100000Y-90800000D01*
X124305000Y-90805000D02*
X125095000Y-90805000D01*
X125095000Y-86995000D02*
X125100000Y-87000000D01*
X124305000Y-86995000D02*
X125095000Y-86995000D01*
X122690000Y-85090000D02*
X122600000Y-85000000D01*
X123345000Y-85090000D02*
X122690000Y-85090000D01*
X125085000Y-83185000D02*
X125100000Y-83200000D01*
X124305000Y-83185000D02*
X125085000Y-83185000D01*
X134590000Y-92710000D02*
X134600000Y-92700000D01*
X133540000Y-92710000D02*
X134590000Y-92710000D01*
D33*
X161925000Y-102825000D02*
X162100000Y-103000000D01*
X161925000Y-101805000D02*
X161925000Y-102825000D01*
X160555000Y-101805000D02*
X160500000Y-101750000D01*
X161925000Y-101805000D02*
X160555000Y-101805000D01*
X153300000Y-105900000D02*
X153400000Y-105800000D01*
X151130000Y-105900000D02*
X153300000Y-105900000D01*
X151130000Y-104170000D02*
X151200000Y-104100000D01*
X151130000Y-105900000D02*
X151130000Y-104170000D01*
D32*
X141700000Y-58675000D02*
X141700000Y-60300000D01*
D30*
X138450001Y-81760001D02*
X138450001Y-80850001D01*
X138220000Y-81990002D02*
X138450001Y-81760001D01*
X138220000Y-83145000D02*
X138220000Y-81990002D01*
X136220000Y-79720000D02*
X135295000Y-79720000D01*
X136450001Y-79950001D02*
X136220000Y-79720000D01*
X137550001Y-79950001D02*
X136450001Y-79950001D01*
X138450001Y-80850001D02*
X137550001Y-79950001D01*
X145605000Y-100965000D02*
X146665000Y-100965000D01*
X146665000Y-100965000D02*
X147500000Y-101800000D01*
X147500000Y-101800000D02*
X147500000Y-102600000D01*
X149000000Y-104100000D02*
X151200000Y-104100000D01*
X147500000Y-102600000D02*
X149000000Y-104100000D01*
D32*
X127510000Y-60200000D02*
X127000000Y-59690000D01*
X127510000Y-63500000D02*
X127510000Y-60200000D01*
D30*
X146495000Y-73570000D02*
X137370000Y-73570000D01*
X146645000Y-73720000D02*
X146495000Y-73570000D01*
X137370000Y-73570000D02*
X137220000Y-73420000D01*
X136180000Y-73720000D02*
X137220000Y-72680000D01*
X135295000Y-73720000D02*
X136180000Y-73720000D01*
X137220000Y-72680000D02*
X137220000Y-71795000D01*
X136580000Y-73720000D02*
X137220000Y-73080000D01*
X135295000Y-73720000D02*
X136580000Y-73720000D01*
X137220000Y-73080000D02*
X137220000Y-72680000D01*
X137220000Y-73420000D02*
X137220000Y-73080000D01*
X133580000Y-79720000D02*
X133400000Y-79900000D01*
X135295000Y-79720000D02*
X133580000Y-79720000D01*
X133820000Y-73720000D02*
X133800000Y-73700000D01*
X135295000Y-73720000D02*
X133820000Y-73720000D01*
D34*
X139130559Y-80169443D02*
X138450001Y-80850001D01*
X142593003Y-80169443D02*
X139130559Y-80169443D01*
X144720000Y-82296440D02*
X142593003Y-80169443D01*
X144720000Y-83145000D02*
X144720000Y-82296440D01*
D30*
%TO.N,Net-(C3-Pad1)*%
X124305000Y-81280000D02*
X124305000Y-79105000D01*
X123995000Y-78795000D02*
X123995000Y-77685000D01*
X124305000Y-79105000D02*
X123995000Y-78795000D01*
X126490000Y-81280000D02*
X124305000Y-81280000D01*
%TO.N,Net-(C7-Pad1)*%
X144220000Y-83145000D02*
X144220000Y-85030000D01*
X142875000Y-86375000D02*
X142875000Y-88125000D01*
X144220000Y-85030000D02*
X142875000Y-86375000D01*
%TO.N,Net-(C7-Pad2)*%
X146050000Y-89675000D02*
X142875000Y-89675000D01*
D34*
%TO.N,Net-(C8-Pad1)*%
X146975000Y-88125000D02*
X146050000Y-88125000D01*
X147400000Y-87700000D02*
X146975000Y-88125000D01*
X144500000Y-81100000D02*
X147400000Y-84000000D01*
X144500000Y-74500000D02*
X144500000Y-81100000D01*
X147400000Y-84000000D02*
X147400000Y-87700000D01*
X144800000Y-74200000D02*
X144500000Y-74500000D01*
X145776440Y-74200000D02*
X144800000Y-74200000D01*
X145796440Y-74220000D02*
X145776440Y-74200000D01*
X146645000Y-74220000D02*
X145796440Y-74220000D01*
D30*
%TO.N,BUCK_IN*%
X151400000Y-96520000D02*
X151000000Y-96120000D01*
X152230000Y-96520000D02*
X151400000Y-96520000D01*
X151000000Y-96120000D02*
X151000000Y-92000000D01*
X151370000Y-91630000D02*
X153035000Y-91630000D01*
X151000000Y-92000000D02*
X151370000Y-91630000D01*
D32*
X153970000Y-91630000D02*
X154500000Y-91100000D01*
X153035000Y-91630000D02*
X153970000Y-91630000D01*
X155320000Y-81280000D02*
X157687500Y-81280000D01*
X155000000Y-81600000D02*
X155320000Y-81280000D01*
X155000000Y-85700000D02*
X155000000Y-81600000D01*
X157687500Y-81280000D02*
X157687500Y-79812500D01*
X157687500Y-79812500D02*
X158600000Y-78900000D01*
X158600000Y-78900000D02*
X164400000Y-78900000D01*
X164895000Y-79395000D02*
X164895000Y-81280000D01*
X164400000Y-78900000D02*
X164895000Y-79395000D01*
D30*
%TO.N,BUCK_SW*%
X157480000Y-101980000D02*
X155780000Y-101980000D01*
X154765000Y-100965000D02*
X152605000Y-100965000D01*
X155780000Y-101980000D02*
X154765000Y-100965000D01*
X152605000Y-100965000D02*
X152605000Y-99895000D01*
X152605000Y-99895000D02*
X154200000Y-98300000D01*
X154200000Y-98300000D02*
X154200000Y-96000000D01*
X153770000Y-95570000D02*
X152230000Y-95570000D01*
X154200000Y-96000000D02*
X153770000Y-95570000D01*
X152605000Y-100965000D02*
X152605000Y-100995000D01*
D31*
X152605000Y-100965000D02*
X152605000Y-102305000D01*
X152605000Y-102305000D02*
X154900000Y-104600000D01*
X154900000Y-104600000D02*
X154900000Y-109200000D01*
X154100000Y-110000000D02*
X151130000Y-110000000D01*
X154900000Y-109200000D02*
X154100000Y-110000000D01*
D30*
%TO.N,BUCK_BST*%
X148665000Y-100965000D02*
X147300000Y-99600000D01*
X149655000Y-100965000D02*
X148665000Y-100965000D01*
X148230000Y-95570000D02*
X150030000Y-95570000D01*
X147300000Y-96500000D02*
X148230000Y-95570000D01*
%TO.N,LED_STATUS*%
X135295000Y-81220000D02*
X133780000Y-81220000D01*
X133780000Y-81220000D02*
X132000000Y-83000000D01*
X130842500Y-83000000D02*
X130175000Y-83667500D01*
X132000000Y-83000000D02*
X130842500Y-83000000D01*
%TO.N,Net-(D1-Pad1)*%
X130175000Y-85242500D02*
X129242500Y-85242500D01*
X129242500Y-85242500D02*
X128750000Y-84750000D01*
X128750000Y-84750000D02*
X128750000Y-84250000D01*
X128130000Y-83630000D02*
X127000000Y-83630000D01*
X128750000Y-84250000D02*
X128130000Y-83630000D01*
D32*
%TO.N,Net-(D2-Pad1)*%
X157800000Y-89805000D02*
X157800000Y-88600000D01*
X157800000Y-88600000D02*
X159200000Y-87200000D01*
X159200000Y-86925000D02*
X160400000Y-85725000D01*
X159200000Y-87200000D02*
X159200000Y-86925000D01*
X160400000Y-85725000D02*
X160400000Y-83600000D01*
X159812500Y-83012500D02*
X159812500Y-81280000D01*
X160400000Y-83600000D02*
X159812500Y-83012500D01*
%TO.N,+5V*%
X157100000Y-84100000D02*
X156400000Y-83400000D01*
X157100000Y-85725000D02*
X157100000Y-84100000D01*
X154035000Y-62865000D02*
X155575000Y-62865000D01*
X153700000Y-63200000D02*
X154035000Y-62865000D01*
X153700000Y-66100000D02*
X153700000Y-63200000D01*
D30*
X168750000Y-61625000D02*
X169300000Y-62175000D01*
X167775000Y-61625000D02*
X168750000Y-61625000D01*
X169300000Y-62175000D02*
X169300000Y-65000000D01*
X169300000Y-65000000D02*
X168700000Y-65600000D01*
X168700000Y-65600000D02*
X163400000Y-65600000D01*
X163400000Y-65600000D02*
X159600000Y-61800000D01*
X159600000Y-60500000D02*
X158900000Y-59800000D01*
X159600000Y-61800000D02*
X159600000Y-60500000D01*
X156700000Y-59700000D02*
X156700000Y-62700000D01*
X156535000Y-62865000D02*
X155575000Y-62865000D01*
X156700000Y-62700000D02*
X156535000Y-62865000D01*
%TO.N,Net-(D4-Pad2)*%
X131890000Y-92710000D02*
X128575000Y-92710000D01*
D32*
%TO.N,Net-(F1-Pad1)*%
X159650000Y-91805000D02*
X162655000Y-88800000D01*
X158750000Y-91805000D02*
X159650000Y-91805000D01*
X162655000Y-88800000D02*
X164300000Y-88800000D01*
X164970000Y-88130000D02*
X164970000Y-85725000D01*
X164300000Y-88800000D02*
X164970000Y-88130000D01*
D31*
%TO.N,+12V*%
X167770000Y-85725000D02*
X169275000Y-85725000D01*
X170075001Y-84924999D02*
X170075001Y-75575001D01*
X169275000Y-85725000D02*
X170075001Y-84924999D01*
X168795000Y-74295000D02*
X163830000Y-74295000D01*
X170075001Y-75575001D02*
X168795000Y-74295000D01*
D34*
%TO.N,Net-(J2-Pad6)*%
X165100000Y-60325000D02*
X165100000Y-61200000D01*
X166450000Y-62550000D02*
X168100000Y-62550000D01*
X165100000Y-61200000D02*
X166450000Y-62550000D01*
X165100000Y-64062500D02*
X165100000Y-64500000D01*
D31*
X165100000Y-61231394D02*
X165524606Y-61656000D01*
X165100000Y-61231394D02*
X165100000Y-60325000D01*
X166587500Y-64062500D02*
X168100000Y-62550000D01*
X165100000Y-64062500D02*
X166587500Y-64062500D01*
X168100000Y-58100000D02*
X167900000Y-58100000D01*
X167900000Y-58100000D02*
X167850000Y-58050000D01*
D30*
X165100000Y-56150000D02*
X166150000Y-56150000D01*
D32*
X165640432Y-57043750D02*
X165556250Y-57043750D01*
X166172253Y-57575571D02*
X165640432Y-57043750D01*
X166172253Y-58827747D02*
X166172253Y-57575571D01*
X165100000Y-59900000D02*
X166172253Y-58827747D01*
X165100000Y-60325000D02*
X165100000Y-59900000D01*
D30*
X165556250Y-57043750D02*
X165100000Y-56587500D01*
D32*
X166150000Y-56150000D02*
X168100000Y-58100000D01*
D30*
%TO.N,USB_CONN_D+*%
X157775000Y-61915000D02*
X157775000Y-57825000D01*
X157775000Y-57825000D02*
X162000000Y-53600000D01*
X162000000Y-53600000D02*
X168900000Y-53600000D01*
X168900000Y-53600000D02*
X171300000Y-56000000D01*
X171300000Y-56000000D02*
X171300000Y-59400000D01*
X170375000Y-60325000D02*
X167775000Y-60325000D01*
X171300000Y-59400000D02*
X170375000Y-60325000D01*
%TO.N,USB_CONN_D-*%
X157775000Y-63815000D02*
X158815000Y-63815000D01*
X158815000Y-63815000D02*
X161500000Y-66500000D01*
X161500000Y-66500000D02*
X169200000Y-66500000D01*
X169200000Y-66500000D02*
X170600000Y-65100000D01*
X170600000Y-65100000D02*
X170600000Y-61700000D01*
X169875000Y-60975000D02*
X167775000Y-60975000D01*
X170600000Y-61700000D02*
X169875000Y-60975000D01*
D34*
%TO.N,SWDIO*%
X146899434Y-74700566D02*
X147899434Y-74700566D01*
X146880000Y-74720000D02*
X146899434Y-74700566D01*
X146645000Y-74720000D02*
X146880000Y-74720000D01*
X147899434Y-74700566D02*
X149400000Y-73200000D01*
X149400000Y-73200000D02*
X149400000Y-54500000D01*
X149400000Y-54500000D02*
X147500000Y-52600000D01*
X147500000Y-52600000D02*
X142800000Y-52600000D01*
X141700000Y-53700000D02*
X141700000Y-55625000D01*
X142800000Y-52600000D02*
X141700000Y-53700000D01*
%TO.N,SWCLK*%
X144720000Y-55120000D02*
X144700000Y-55100000D01*
X144720000Y-71795000D02*
X144720000Y-55120000D01*
X144400000Y-51400000D02*
X144500000Y-51500000D01*
X141300000Y-51400000D02*
X144400000Y-51400000D01*
X140700000Y-52000000D02*
X141300000Y-51400000D01*
X140700000Y-55625000D02*
X140700000Y-52000000D01*
%TO.N,SWO*%
X141720000Y-71795000D02*
X141720000Y-63480000D01*
X143500000Y-61700000D02*
X143500000Y-55400000D01*
X141720000Y-63480000D02*
X143500000Y-61700000D01*
X140900000Y-50400000D02*
X139600000Y-50400000D01*
X139600000Y-50400000D02*
X139100000Y-50900000D01*
X139100000Y-50900000D02*
X139100000Y-53600000D01*
X139700000Y-54200000D02*
X139700000Y-55625000D01*
X139100000Y-53600000D02*
X139700000Y-54200000D01*
D30*
%TO.N,NRST*%
X135295000Y-76720000D02*
X133580000Y-76720000D01*
X133000000Y-77300000D02*
X132900000Y-77300000D01*
X133580000Y-76720000D02*
X133000000Y-77300000D01*
X137700000Y-53500000D02*
X137700000Y-55625000D01*
X137300000Y-53100000D02*
X137700000Y-53500000D01*
X135200000Y-53900000D02*
X136000000Y-53100000D01*
X135600000Y-68700000D02*
X136750001Y-67549999D01*
X136000000Y-53100000D02*
X137300000Y-53100000D01*
X136750001Y-67549999D02*
X136750001Y-61350001D01*
X135400000Y-68700000D02*
X135600000Y-68700000D01*
X135200000Y-59800000D02*
X135200000Y-53900000D01*
X136750001Y-61350001D02*
X135200000Y-59800000D01*
X133000000Y-71100000D02*
X135400000Y-68700000D01*
D32*
%TO.N,I2C1_SCL*%
X125750000Y-61380000D02*
X125750000Y-59690000D01*
X123950000Y-63180000D02*
X125750000Y-61380000D01*
X123950000Y-63500000D02*
X123950000Y-63180000D01*
D30*
X140220000Y-67120000D02*
X139300000Y-66200000D01*
X140220000Y-71795000D02*
X140220000Y-67120000D01*
X136000000Y-64300000D02*
X134800000Y-64300000D01*
X134800000Y-64300000D02*
X131000000Y-60500000D01*
X131000000Y-60500000D02*
X131000000Y-58900000D01*
X131000000Y-58900000D02*
X129100000Y-57000000D01*
X129100000Y-57000000D02*
X126300000Y-57000000D01*
X125750000Y-57550000D02*
X125750000Y-59690000D01*
X126300000Y-57000000D02*
X125750000Y-57550000D01*
%TO.N,I2C1_SDA*%
X139720000Y-71795000D02*
X139720000Y-69970000D01*
X139720000Y-69970000D02*
X139000000Y-69250000D01*
X135500000Y-67500000D02*
X134500000Y-67500000D01*
X134500000Y-67500000D02*
X133250000Y-66250000D01*
X133250000Y-66250000D02*
X127250000Y-66250000D01*
X126490000Y-65490000D02*
X126490000Y-63500000D01*
X127250000Y-66250000D02*
X126490000Y-65490000D01*
D32*
X126490000Y-63500000D02*
X126490000Y-63810000D01*
X126490000Y-63810000D02*
X125100000Y-65200000D01*
X125100000Y-65200000D02*
X123200000Y-65200000D01*
X123200000Y-65200000D02*
X121500000Y-63500000D01*
X121500000Y-63500000D02*
X121500000Y-58800000D01*
X121500000Y-58800000D02*
X122900000Y-57400000D01*
X122900000Y-57400000D02*
X124000000Y-57400000D01*
X124500000Y-57900000D02*
X124500000Y-59690000D01*
X124000000Y-57400000D02*
X124500000Y-57900000D01*
D30*
%TO.N,USART3_RX*%
X124420000Y-106045000D02*
X124420000Y-105580000D01*
X124420000Y-105580000D02*
X128600000Y-101400000D01*
X129200000Y-101400000D02*
X131400000Y-99200000D01*
X128600000Y-101400000D02*
X129200000Y-101400000D01*
X131400000Y-99200000D02*
X133600000Y-99200000D01*
X133600000Y-99200000D02*
X141300000Y-91500000D01*
X141300000Y-91500000D02*
X141300000Y-87000000D01*
X143500000Y-84800000D02*
X143500000Y-84241058D01*
X141300000Y-87000000D02*
X143500000Y-84800000D01*
X143720000Y-84021058D02*
X143720000Y-83145000D01*
X143500000Y-84241058D02*
X143720000Y-84021058D01*
D34*
%TO.N,USART3_TX*%
X143220000Y-83145000D02*
X143220000Y-81520000D01*
X143220000Y-81520000D02*
X142600000Y-80900000D01*
X142600000Y-80900000D02*
X141500000Y-80900000D01*
X139500000Y-89365685D02*
X126565685Y-102300000D01*
X139500000Y-88800000D02*
X139500000Y-89365685D01*
X126565685Y-102300000D02*
X124400000Y-102300000D01*
X123170000Y-103530000D02*
X123170000Y-106045000D01*
X124400000Y-102300000D02*
X123170000Y-103530000D01*
D30*
%TO.N,BOOTO*%
X139220000Y-70820000D02*
X138800000Y-70400000D01*
X139220000Y-71795000D02*
X139220000Y-70820000D01*
X120130000Y-73100000D02*
X120015000Y-73215000D01*
X123400000Y-73100000D02*
X120130000Y-73100000D01*
%TO.N,Net-(R3-Pad1)*%
X115730000Y-75680000D02*
X116520000Y-75680000D01*
X116520000Y-75680000D02*
X117800000Y-74400000D01*
X117800000Y-74400000D02*
X117800000Y-72300000D01*
X118535000Y-71565000D02*
X120015000Y-71565000D01*
X117800000Y-72300000D02*
X118535000Y-71565000D01*
%TO.N,HSE_OUT*%
X135295000Y-76220000D02*
X130280000Y-76220000D01*
X127510000Y-78990000D02*
X127510000Y-81280000D01*
X130280000Y-76220000D02*
X127510000Y-78990000D01*
%TO.N,BUCK_EN*%
X153330000Y-97470000D02*
X153400000Y-97400000D01*
X152230000Y-97470000D02*
X153330000Y-97470000D01*
X155600000Y-96800000D02*
X155600000Y-90300000D01*
X155280000Y-89980000D02*
X153035000Y-89980000D01*
X155600000Y-90300000D02*
X155280000Y-89980000D01*
X152955000Y-89900000D02*
X153035000Y-89980000D01*
X150525000Y-89900000D02*
X152955000Y-89900000D01*
%TO.N,BUCK_FB*%
X143955000Y-104140000D02*
X143955000Y-100965000D01*
X143955000Y-100965000D02*
X143955000Y-98645000D01*
X145130000Y-97470000D02*
X150030000Y-97470000D01*
X143955000Y-98645000D02*
X145130000Y-97470000D01*
%TO.N,Net-(R10-Pad1)*%
X143955000Y-107315000D02*
X143955000Y-106345000D01*
X143955000Y-106345000D02*
X144700000Y-105600000D01*
X144700000Y-105600000D02*
X145100000Y-105600000D01*
X145605000Y-105095000D02*
X145605000Y-104140000D01*
X145100000Y-105600000D02*
X145605000Y-105095000D01*
%TO.N,+3V3*%
X116930000Y-72680000D02*
X117000000Y-72750000D01*
X115730000Y-72680000D02*
X116930000Y-72680000D01*
D34*
%TO.N,USB_D+*%
X146645000Y-75720000D02*
X146662844Y-75702156D01*
X147568878Y-75681122D02*
X150318878Y-75681122D01*
X147530000Y-75720000D02*
X147568878Y-75681122D01*
X146645000Y-75720000D02*
X147530000Y-75720000D01*
X152250000Y-73750000D02*
X152250000Y-73500000D01*
X150318878Y-75681122D02*
X152250000Y-73750000D01*
X153085000Y-61915000D02*
X155575000Y-61915000D01*
X152250000Y-62750000D02*
X153085000Y-61915000D01*
X152250000Y-69750000D02*
X152250000Y-62750000D01*
%TO.N,USB_D-*%
X146645000Y-75220000D02*
X146662844Y-75237844D01*
X146645000Y-75220000D02*
X148530000Y-75220000D01*
X155575000Y-68175000D02*
X155575000Y-63815000D01*
X148530000Y-75220000D02*
X155575000Y-68175000D01*
%TD*%
M02*
