%TF.GenerationSoftware,KiCad,Pcbnew,(5.1.9)-1*%
%TF.CreationDate,2021-05-06T02:52:03-06:00*%
%TF.ProjectId,stm32 design,73746d33-3220-4646-9573-69676e2e6b69,rev?*%
%TF.SameCoordinates,Original*%
%TF.FileFunction,Soldermask,Bot*%
%TF.FilePolarity,Negative*%
%FSLAX46Y46*%
G04 Gerber Fmt 4.6, Leading zero omitted, Abs format (unit mm)*
G04 Created by KiCad (PCBNEW (5.1.9)-1) date 2021-05-06 02:52:03*
%MOMM*%
%LPD*%
G01*
G04 APERTURE LIST*
%ADD10O,1.250000X1.050000*%
%ADD11O,1.900000X1.000000*%
%ADD12C,0.700000*%
%ADD13C,4.400000*%
%ADD14R,2.400000X2.400000*%
%ADD15C,2.400000*%
%ADD16O,0.800000X1.300000*%
%ADD17C,0.900000*%
G04 APERTURE END LIST*
D10*
%TO.C,J2*%
X168100000Y-58100000D03*
X168100000Y-62550000D03*
D11*
X165100000Y-56150000D03*
X165100000Y-64500000D03*
%TD*%
D12*
%TO.C,H1*%
X112926726Y-106528274D03*
X111760000Y-106045000D03*
X110593274Y-106528274D03*
X110110000Y-107695000D03*
X110593274Y-108861726D03*
X111760000Y-109345000D03*
X112926726Y-108861726D03*
X113410000Y-107695000D03*
D13*
X111760000Y-107695000D03*
%TD*%
%TO.C,H2*%
X169545000Y-50165000D03*
D12*
X171195000Y-50165000D03*
X170711726Y-51331726D03*
X169545000Y-51815000D03*
X168378274Y-51331726D03*
X167895000Y-50165000D03*
X168378274Y-48998274D03*
X169545000Y-48515000D03*
X170711726Y-48998274D03*
%TD*%
%TO.C,H3*%
X114196726Y-48743274D03*
X113030000Y-48260000D03*
X111863274Y-48743274D03*
X111380000Y-49910000D03*
X111863274Y-51076726D03*
X113030000Y-51560000D03*
X114196726Y-51076726D03*
X114680000Y-49910000D03*
D13*
X113030000Y-49910000D03*
%TD*%
%TO.C,H4*%
X170180000Y-107315000D03*
D12*
X171830000Y-107315000D03*
X171346726Y-108481726D03*
X170180000Y-108965000D03*
X169013274Y-108481726D03*
X168530000Y-107315000D03*
X169013274Y-106148274D03*
X170180000Y-105665000D03*
X171346726Y-106148274D03*
%TD*%
D14*
%TO.C,J1*%
X163830000Y-74295000D03*
D15*
X163830000Y-70795000D03*
%TD*%
%TO.C,J4*%
G36*
G01*
X127400000Y-59240000D02*
X127400000Y-60140000D01*
G75*
G02*
X127200000Y-60340000I-200000J0D01*
G01*
X126800000Y-60340000D01*
G75*
G02*
X126600000Y-60140000I0J200000D01*
G01*
X126600000Y-59240000D01*
G75*
G02*
X126800000Y-59040000I200000J0D01*
G01*
X127200000Y-59040000D01*
G75*
G02*
X127400000Y-59240000I0J-200000D01*
G01*
G37*
D16*
X125750000Y-59690000D03*
X124500000Y-59690000D03*
X123250000Y-59690000D03*
%TD*%
%TO.C,J5*%
X125670000Y-106045000D03*
X124420000Y-106045000D03*
X123170000Y-106045000D03*
G36*
G01*
X121520000Y-106495000D02*
X121520000Y-105595000D01*
G75*
G02*
X121720000Y-105395000I200000J0D01*
G01*
X122120000Y-105395000D01*
G75*
G02*
X122320000Y-105595000I0J-200000D01*
G01*
X122320000Y-106495000D01*
G75*
G02*
X122120000Y-106695000I-200000J0D01*
G01*
X121720000Y-106695000D01*
G75*
G02*
X121520000Y-106495000I0J200000D01*
G01*
G37*
%TD*%
D17*
%TO.C,SW1*%
X113970000Y-73430000D03*
X113970000Y-76430000D03*
%TD*%
M02*
