%TF.GenerationSoftware,KiCad,Pcbnew,(5.1.9)-1*%
%TF.CreationDate,2021-05-06T02:52:03-06:00*%
%TF.ProjectId,stm32 design,73746d33-3220-4646-9573-69676e2e6b69,rev?*%
%TF.SameCoordinates,Original*%
%TF.FileFunction,Soldermask,Top*%
%TF.FilePolarity,Negative*%
%FSLAX46Y46*%
G04 Gerber Fmt 4.6, Leading zero omitted, Abs format (unit mm)*
G04 Created by KiCad (PCBNEW (5.1.9)-1) date 2021-05-06 02:52:03*
%MOMM*%
%LPD*%
G01*
G04 APERTURE LIST*
%ADD10O,1.250000X1.050000*%
%ADD11R,1.350000X0.400000*%
%ADD12O,1.900000X1.000000*%
%ADD13R,1.900000X2.900000*%
%ADD14R,1.900000X0.875000*%
%ADD15R,0.900000X1.200000*%
%ADD16R,1.200000X0.900000*%
%ADD17C,0.700000*%
%ADD18C,4.400000*%
%ADD19R,2.400000X2.400000*%
%ADD20C,2.400000*%
%ADD21R,0.500000X1.850000*%
%ADD22O,0.800000X1.300000*%
%ADD23R,2.500000X1.900000*%
%ADD24R,0.800000X0.900000*%
%ADD25C,0.900000*%
%ADD26R,1.500000X0.700000*%
%ADD27R,0.800000X1.000000*%
%ADD28R,1.060000X0.650000*%
%ADD29R,1.400000X1.200000*%
G04 APERTURE END LIST*
D10*
%TO.C,J2*%
X168100000Y-58100000D03*
D11*
X167775000Y-59025000D03*
X167775000Y-59675000D03*
X167775000Y-60325000D03*
X167775000Y-61625000D03*
D10*
X168100000Y-62550000D03*
D12*
X165100000Y-56150000D03*
X165100000Y-64500000D03*
D11*
X167775000Y-60975000D03*
D13*
X165100000Y-60325000D03*
D14*
X165100000Y-64062500D03*
X165100000Y-56587500D03*
%TD*%
%TO.C,C1*%
G36*
G01*
X130530000Y-81450000D02*
X130530000Y-81110000D01*
G75*
G02*
X130670000Y-80970000I140000J0D01*
G01*
X130950000Y-80970000D01*
G75*
G02*
X131090000Y-81110000I0J-140000D01*
G01*
X131090000Y-81450000D01*
G75*
G02*
X130950000Y-81590000I-140000J0D01*
G01*
X130670000Y-81590000D01*
G75*
G02*
X130530000Y-81450000I0J140000D01*
G01*
G37*
G36*
G01*
X129570000Y-81450000D02*
X129570000Y-81110000D01*
G75*
G02*
X129710000Y-80970000I140000J0D01*
G01*
X129990000Y-80970000D01*
G75*
G02*
X130130000Y-81110000I0J-140000D01*
G01*
X130130000Y-81450000D01*
G75*
G02*
X129990000Y-81590000I-140000J0D01*
G01*
X129710000Y-81590000D01*
G75*
G02*
X129570000Y-81450000I0J140000D01*
G01*
G37*
%TD*%
%TO.C,C2*%
G36*
G01*
X127250000Y-88575000D02*
X126750000Y-88575000D01*
G75*
G02*
X126525000Y-88350000I0J225000D01*
G01*
X126525000Y-87900000D01*
G75*
G02*
X126750000Y-87675000I225000J0D01*
G01*
X127250000Y-87675000D01*
G75*
G02*
X127475000Y-87900000I0J-225000D01*
G01*
X127475000Y-88350000D01*
G75*
G02*
X127250000Y-88575000I-225000J0D01*
G01*
G37*
G36*
G01*
X127250000Y-90125000D02*
X126750000Y-90125000D01*
G75*
G02*
X126525000Y-89900000I0J225000D01*
G01*
X126525000Y-89450000D01*
G75*
G02*
X126750000Y-89225000I225000J0D01*
G01*
X127250000Y-89225000D01*
G75*
G02*
X127475000Y-89450000I0J-225000D01*
G01*
X127475000Y-89900000D01*
G75*
G02*
X127250000Y-90125000I-225000J0D01*
G01*
G37*
%TD*%
%TO.C,C3*%
G36*
G01*
X124585000Y-81110000D02*
X124585000Y-81450000D01*
G75*
G02*
X124445000Y-81590000I-140000J0D01*
G01*
X124165000Y-81590000D01*
G75*
G02*
X124025000Y-81450000I0J140000D01*
G01*
X124025000Y-81110000D01*
G75*
G02*
X124165000Y-80970000I140000J0D01*
G01*
X124445000Y-80970000D01*
G75*
G02*
X124585000Y-81110000I0J-140000D01*
G01*
G37*
G36*
G01*
X123625000Y-81110000D02*
X123625000Y-81450000D01*
G75*
G02*
X123485000Y-81590000I-140000J0D01*
G01*
X123205000Y-81590000D01*
G75*
G02*
X123065000Y-81450000I0J140000D01*
G01*
X123065000Y-81110000D01*
G75*
G02*
X123205000Y-80970000I140000J0D01*
G01*
X123485000Y-80970000D01*
G75*
G02*
X123625000Y-81110000I0J-140000D01*
G01*
G37*
%TD*%
%TO.C,C4*%
G36*
G01*
X124025000Y-85260000D02*
X124025000Y-84920000D01*
G75*
G02*
X124165000Y-84780000I140000J0D01*
G01*
X124445000Y-84780000D01*
G75*
G02*
X124585000Y-84920000I0J-140000D01*
G01*
X124585000Y-85260000D01*
G75*
G02*
X124445000Y-85400000I-140000J0D01*
G01*
X124165000Y-85400000D01*
G75*
G02*
X124025000Y-85260000I0J140000D01*
G01*
G37*
G36*
G01*
X123065000Y-85260000D02*
X123065000Y-84920000D01*
G75*
G02*
X123205000Y-84780000I140000J0D01*
G01*
X123485000Y-84780000D01*
G75*
G02*
X123625000Y-84920000I0J-140000D01*
G01*
X123625000Y-85260000D01*
G75*
G02*
X123485000Y-85400000I-140000J0D01*
G01*
X123205000Y-85400000D01*
G75*
G02*
X123065000Y-85260000I0J140000D01*
G01*
G37*
%TD*%
%TO.C,C5*%
G36*
G01*
X124585000Y-83015000D02*
X124585000Y-83355000D01*
G75*
G02*
X124445000Y-83495000I-140000J0D01*
G01*
X124165000Y-83495000D01*
G75*
G02*
X124025000Y-83355000I0J140000D01*
G01*
X124025000Y-83015000D01*
G75*
G02*
X124165000Y-82875000I140000J0D01*
G01*
X124445000Y-82875000D01*
G75*
G02*
X124585000Y-83015000I0J-140000D01*
G01*
G37*
G36*
G01*
X123625000Y-83015000D02*
X123625000Y-83355000D01*
G75*
G02*
X123485000Y-83495000I-140000J0D01*
G01*
X123205000Y-83495000D01*
G75*
G02*
X123065000Y-83355000I0J140000D01*
G01*
X123065000Y-83015000D01*
G75*
G02*
X123205000Y-82875000I140000J0D01*
G01*
X123485000Y-82875000D01*
G75*
G02*
X123625000Y-83015000I0J-140000D01*
G01*
G37*
%TD*%
%TO.C,C6*%
G36*
G01*
X123625000Y-90635000D02*
X123625000Y-90975000D01*
G75*
G02*
X123485000Y-91115000I-140000J0D01*
G01*
X123205000Y-91115000D01*
G75*
G02*
X123065000Y-90975000I0J140000D01*
G01*
X123065000Y-90635000D01*
G75*
G02*
X123205000Y-90495000I140000J0D01*
G01*
X123485000Y-90495000D01*
G75*
G02*
X123625000Y-90635000I0J-140000D01*
G01*
G37*
G36*
G01*
X124585000Y-90635000D02*
X124585000Y-90975000D01*
G75*
G02*
X124445000Y-91115000I-140000J0D01*
G01*
X124165000Y-91115000D01*
G75*
G02*
X124025000Y-90975000I0J140000D01*
G01*
X124025000Y-90635000D01*
G75*
G02*
X124165000Y-90495000I140000J0D01*
G01*
X124445000Y-90495000D01*
G75*
G02*
X124585000Y-90635000I0J-140000D01*
G01*
G37*
%TD*%
%TO.C,C7*%
G36*
G01*
X142625000Y-87675000D02*
X143125000Y-87675000D01*
G75*
G02*
X143350000Y-87900000I0J-225000D01*
G01*
X143350000Y-88350000D01*
G75*
G02*
X143125000Y-88575000I-225000J0D01*
G01*
X142625000Y-88575000D01*
G75*
G02*
X142400000Y-88350000I0J225000D01*
G01*
X142400000Y-87900000D01*
G75*
G02*
X142625000Y-87675000I225000J0D01*
G01*
G37*
G36*
G01*
X142625000Y-89225000D02*
X143125000Y-89225000D01*
G75*
G02*
X143350000Y-89450000I0J-225000D01*
G01*
X143350000Y-89900000D01*
G75*
G02*
X143125000Y-90125000I-225000J0D01*
G01*
X142625000Y-90125000D01*
G75*
G02*
X142400000Y-89900000I0J225000D01*
G01*
X142400000Y-89450000D01*
G75*
G02*
X142625000Y-89225000I225000J0D01*
G01*
G37*
%TD*%
%TO.C,C8*%
G36*
G01*
X145800000Y-89225000D02*
X146300000Y-89225000D01*
G75*
G02*
X146525000Y-89450000I0J-225000D01*
G01*
X146525000Y-89900000D01*
G75*
G02*
X146300000Y-90125000I-225000J0D01*
G01*
X145800000Y-90125000D01*
G75*
G02*
X145575000Y-89900000I0J225000D01*
G01*
X145575000Y-89450000D01*
G75*
G02*
X145800000Y-89225000I225000J0D01*
G01*
G37*
G36*
G01*
X145800000Y-87675000D02*
X146300000Y-87675000D01*
G75*
G02*
X146525000Y-87900000I0J-225000D01*
G01*
X146525000Y-88350000D01*
G75*
G02*
X146300000Y-88575000I-225000J0D01*
G01*
X145800000Y-88575000D01*
G75*
G02*
X145575000Y-88350000I0J225000D01*
G01*
X145575000Y-87900000D01*
G75*
G02*
X145800000Y-87675000I225000J0D01*
G01*
G37*
%TD*%
%TO.C,C9*%
G36*
G01*
X124585000Y-86825000D02*
X124585000Y-87165000D01*
G75*
G02*
X124445000Y-87305000I-140000J0D01*
G01*
X124165000Y-87305000D01*
G75*
G02*
X124025000Y-87165000I0J140000D01*
G01*
X124025000Y-86825000D01*
G75*
G02*
X124165000Y-86685000I140000J0D01*
G01*
X124445000Y-86685000D01*
G75*
G02*
X124585000Y-86825000I0J-140000D01*
G01*
G37*
G36*
G01*
X123625000Y-86825000D02*
X123625000Y-87165000D01*
G75*
G02*
X123485000Y-87305000I-140000J0D01*
G01*
X123205000Y-87305000D01*
G75*
G02*
X123065000Y-87165000I0J140000D01*
G01*
X123065000Y-86825000D01*
G75*
G02*
X123205000Y-86685000I140000J0D01*
G01*
X123485000Y-86685000D01*
G75*
G02*
X123625000Y-86825000I0J-140000D01*
G01*
G37*
%TD*%
%TO.C,C10*%
G36*
G01*
X123625000Y-88730000D02*
X123625000Y-89070000D01*
G75*
G02*
X123485000Y-89210000I-140000J0D01*
G01*
X123205000Y-89210000D01*
G75*
G02*
X123065000Y-89070000I0J140000D01*
G01*
X123065000Y-88730000D01*
G75*
G02*
X123205000Y-88590000I140000J0D01*
G01*
X123485000Y-88590000D01*
G75*
G02*
X123625000Y-88730000I0J-140000D01*
G01*
G37*
G36*
G01*
X124585000Y-88730000D02*
X124585000Y-89070000D01*
G75*
G02*
X124445000Y-89210000I-140000J0D01*
G01*
X124165000Y-89210000D01*
G75*
G02*
X124025000Y-89070000I0J140000D01*
G01*
X124025000Y-88730000D01*
G75*
G02*
X124165000Y-88590000I140000J0D01*
G01*
X124445000Y-88590000D01*
G75*
G02*
X124585000Y-88730000I0J-140000D01*
G01*
G37*
%TD*%
%TO.C,C11*%
G36*
G01*
X133180000Y-88140000D02*
X133520000Y-88140000D01*
G75*
G02*
X133660000Y-88280000I0J-140000D01*
G01*
X133660000Y-88560000D01*
G75*
G02*
X133520000Y-88700000I-140000J0D01*
G01*
X133180000Y-88700000D01*
G75*
G02*
X133040000Y-88560000I0J140000D01*
G01*
X133040000Y-88280000D01*
G75*
G02*
X133180000Y-88140000I140000J0D01*
G01*
G37*
G36*
G01*
X133180000Y-89100000D02*
X133520000Y-89100000D01*
G75*
G02*
X133660000Y-89240000I0J-140000D01*
G01*
X133660000Y-89520000D01*
G75*
G02*
X133520000Y-89660000I-140000J0D01*
G01*
X133180000Y-89660000D01*
G75*
G02*
X133040000Y-89520000I0J140000D01*
G01*
X133040000Y-89240000D01*
G75*
G02*
X133180000Y-89100000I140000J0D01*
G01*
G37*
%TD*%
%TO.C,C12*%
G36*
G01*
X130425000Y-90125000D02*
X129925000Y-90125000D01*
G75*
G02*
X129700000Y-89900000I0J225000D01*
G01*
X129700000Y-89450000D01*
G75*
G02*
X129925000Y-89225000I225000J0D01*
G01*
X130425000Y-89225000D01*
G75*
G02*
X130650000Y-89450000I0J-225000D01*
G01*
X130650000Y-89900000D01*
G75*
G02*
X130425000Y-90125000I-225000J0D01*
G01*
G37*
G36*
G01*
X130425000Y-88575000D02*
X129925000Y-88575000D01*
G75*
G02*
X129700000Y-88350000I0J225000D01*
G01*
X129700000Y-87900000D01*
G75*
G02*
X129925000Y-87675000I225000J0D01*
G01*
X130425000Y-87675000D01*
G75*
G02*
X130650000Y-87900000I0J-225000D01*
G01*
X130650000Y-88350000D01*
G75*
G02*
X130425000Y-88575000I-225000J0D01*
G01*
G37*
%TD*%
%TO.C,C13*%
G36*
G01*
X167270000Y-81930001D02*
X167270000Y-80629999D01*
G75*
G02*
X167519999Y-80380000I249999J0D01*
G01*
X168170001Y-80380000D01*
G75*
G02*
X168420000Y-80629999I0J-249999D01*
G01*
X168420000Y-81930001D01*
G75*
G02*
X168170001Y-82180000I-249999J0D01*
G01*
X167519999Y-82180000D01*
G75*
G02*
X167270000Y-81930001I0J249999D01*
G01*
G37*
G36*
G01*
X164320000Y-81930001D02*
X164320000Y-80629999D01*
G75*
G02*
X164569999Y-80380000I249999J0D01*
G01*
X165220001Y-80380000D01*
G75*
G02*
X165470000Y-80629999I0J-249999D01*
G01*
X165470000Y-81930001D01*
G75*
G02*
X165220001Y-82180000I-249999J0D01*
G01*
X164569999Y-82180000D01*
G75*
G02*
X164320000Y-81930001I0J249999D01*
G01*
G37*
%TD*%
%TO.C,C14*%
G36*
G01*
X153180000Y-100314999D02*
X153180000Y-101615001D01*
G75*
G02*
X152930001Y-101865000I-249999J0D01*
G01*
X152279999Y-101865000D01*
G75*
G02*
X152030000Y-101615001I0J249999D01*
G01*
X152030000Y-100314999D01*
G75*
G02*
X152279999Y-100065000I249999J0D01*
G01*
X152930001Y-100065000D01*
G75*
G02*
X153180000Y-100314999I0J-249999D01*
G01*
G37*
G36*
G01*
X150230000Y-100314999D02*
X150230000Y-101615001D01*
G75*
G02*
X149980001Y-101865000I-249999J0D01*
G01*
X149329999Y-101865000D01*
G75*
G02*
X149080000Y-101615001I0J249999D01*
G01*
X149080000Y-100314999D01*
G75*
G02*
X149329999Y-100065000I249999J0D01*
G01*
X149980001Y-100065000D01*
G75*
G02*
X150230000Y-100314999I0J-249999D01*
G01*
G37*
%TD*%
%TO.C,C15*%
G36*
G01*
X156829999Y-105265000D02*
X158130001Y-105265000D01*
G75*
G02*
X158380000Y-105514999I0J-249999D01*
G01*
X158380000Y-106165001D01*
G75*
G02*
X158130001Y-106415000I-249999J0D01*
G01*
X156829999Y-106415000D01*
G75*
G02*
X156580000Y-106165001I0J249999D01*
G01*
X156580000Y-105514999D01*
G75*
G02*
X156829999Y-105265000I249999J0D01*
G01*
G37*
G36*
G01*
X156829999Y-108215000D02*
X158130001Y-108215000D01*
G75*
G02*
X158380000Y-108464999I0J-249999D01*
G01*
X158380000Y-109115001D01*
G75*
G02*
X158130001Y-109365000I-249999J0D01*
G01*
X156829999Y-109365000D01*
G75*
G02*
X156580000Y-109115001I0J249999D01*
G01*
X156580000Y-108464999D01*
G75*
G02*
X156829999Y-108215000I249999J0D01*
G01*
G37*
%TD*%
%TO.C,C16*%
G36*
G01*
X162575001Y-99430000D02*
X161274999Y-99430000D01*
G75*
G02*
X161025000Y-99180001I0J249999D01*
G01*
X161025000Y-98529999D01*
G75*
G02*
X161274999Y-98280000I249999J0D01*
G01*
X162575001Y-98280000D01*
G75*
G02*
X162825000Y-98529999I0J-249999D01*
G01*
X162825000Y-99180001D01*
G75*
G02*
X162575001Y-99430000I-249999J0D01*
G01*
G37*
G36*
G01*
X162575001Y-102380000D02*
X161274999Y-102380000D01*
G75*
G02*
X161025000Y-102130001I0J249999D01*
G01*
X161025000Y-101479999D01*
G75*
G02*
X161274999Y-101230000I249999J0D01*
G01*
X162575001Y-101230000D01*
G75*
G02*
X162825000Y-101479999I0J-249999D01*
G01*
X162825000Y-102130001D01*
G75*
G02*
X162575001Y-102380000I-249999J0D01*
G01*
G37*
%TD*%
%TO.C,D1*%
G36*
G01*
X130431250Y-84105000D02*
X129918750Y-84105000D01*
G75*
G02*
X129700000Y-83886250I0J218750D01*
G01*
X129700000Y-83448750D01*
G75*
G02*
X129918750Y-83230000I218750J0D01*
G01*
X130431250Y-83230000D01*
G75*
G02*
X130650000Y-83448750I0J-218750D01*
G01*
X130650000Y-83886250D01*
G75*
G02*
X130431250Y-84105000I-218750J0D01*
G01*
G37*
G36*
G01*
X130431250Y-85680000D02*
X129918750Y-85680000D01*
G75*
G02*
X129700000Y-85461250I0J218750D01*
G01*
X129700000Y-85023750D01*
G75*
G02*
X129918750Y-84805000I218750J0D01*
G01*
X130431250Y-84805000D01*
G75*
G02*
X130650000Y-85023750I0J-218750D01*
G01*
X130650000Y-85461250D01*
G75*
G02*
X130431250Y-85680000I-218750J0D01*
G01*
G37*
%TD*%
D15*
%TO.C,D2*%
X160400000Y-85725000D03*
X157100000Y-85725000D03*
%TD*%
D16*
%TO.C,D3*%
X157480000Y-98680000D03*
X157480000Y-101980000D03*
%TD*%
%TO.C,D4*%
G36*
G01*
X126562500Y-92966250D02*
X126562500Y-92453750D01*
G75*
G02*
X126781250Y-92235000I218750J0D01*
G01*
X127218750Y-92235000D01*
G75*
G02*
X127437500Y-92453750I0J-218750D01*
G01*
X127437500Y-92966250D01*
G75*
G02*
X127218750Y-93185000I-218750J0D01*
G01*
X126781250Y-93185000D01*
G75*
G02*
X126562500Y-92966250I0J218750D01*
G01*
G37*
G36*
G01*
X128137500Y-92966250D02*
X128137500Y-92453750D01*
G75*
G02*
X128356250Y-92235000I218750J0D01*
G01*
X128793750Y-92235000D01*
G75*
G02*
X129012500Y-92453750I0J-218750D01*
G01*
X129012500Y-92966250D01*
G75*
G02*
X128793750Y-93185000I-218750J0D01*
G01*
X128356250Y-93185000D01*
G75*
G02*
X128137500Y-92966250I0J218750D01*
G01*
G37*
%TD*%
%TO.C,F1*%
G36*
G01*
X164345000Y-86350000D02*
X164345000Y-85100000D01*
G75*
G02*
X164595000Y-84850000I250000J0D01*
G01*
X165345000Y-84850000D01*
G75*
G02*
X165595000Y-85100000I0J-250000D01*
G01*
X165595000Y-86350000D01*
G75*
G02*
X165345000Y-86600000I-250000J0D01*
G01*
X164595000Y-86600000D01*
G75*
G02*
X164345000Y-86350000I0J250000D01*
G01*
G37*
G36*
G01*
X167145000Y-86350000D02*
X167145000Y-85100000D01*
G75*
G02*
X167395000Y-84850000I250000J0D01*
G01*
X168145000Y-84850000D01*
G75*
G02*
X168395000Y-85100000I0J-250000D01*
G01*
X168395000Y-86350000D01*
G75*
G02*
X168145000Y-86600000I-250000J0D01*
G01*
X167395000Y-86600000D01*
G75*
G02*
X167145000Y-86350000I0J250000D01*
G01*
G37*
%TD*%
%TO.C,FB1*%
G36*
G01*
X160250000Y-80898750D02*
X160250000Y-81661250D01*
G75*
G02*
X160031250Y-81880000I-218750J0D01*
G01*
X159593750Y-81880000D01*
G75*
G02*
X159375000Y-81661250I0J218750D01*
G01*
X159375000Y-80898750D01*
G75*
G02*
X159593750Y-80680000I218750J0D01*
G01*
X160031250Y-80680000D01*
G75*
G02*
X160250000Y-80898750I0J-218750D01*
G01*
G37*
G36*
G01*
X158125000Y-80898750D02*
X158125000Y-81661250D01*
G75*
G02*
X157906250Y-81880000I-218750J0D01*
G01*
X157468750Y-81880000D01*
G75*
G02*
X157250000Y-81661250I0J218750D01*
G01*
X157250000Y-80898750D01*
G75*
G02*
X157468750Y-80680000I218750J0D01*
G01*
X157906250Y-80680000D01*
G75*
G02*
X158125000Y-80898750I0J-218750D01*
G01*
G37*
%TD*%
D17*
%TO.C,H1*%
X112926726Y-106528274D03*
X111760000Y-106045000D03*
X110593274Y-106528274D03*
X110110000Y-107695000D03*
X110593274Y-108861726D03*
X111760000Y-109345000D03*
X112926726Y-108861726D03*
X113410000Y-107695000D03*
D18*
X111760000Y-107695000D03*
%TD*%
%TO.C,H2*%
X169545000Y-50165000D03*
D17*
X171195000Y-50165000D03*
X170711726Y-51331726D03*
X169545000Y-51815000D03*
X168378274Y-51331726D03*
X167895000Y-50165000D03*
X168378274Y-48998274D03*
X169545000Y-48515000D03*
X170711726Y-48998274D03*
%TD*%
%TO.C,H3*%
X114196726Y-48743274D03*
X113030000Y-48260000D03*
X111863274Y-48743274D03*
X111380000Y-49910000D03*
X111863274Y-51076726D03*
X113030000Y-51560000D03*
X114196726Y-51076726D03*
X114680000Y-49910000D03*
D18*
X113030000Y-49910000D03*
%TD*%
%TO.C,H4*%
X170180000Y-107315000D03*
D17*
X171830000Y-107315000D03*
X171346726Y-108481726D03*
X170180000Y-108965000D03*
X169013274Y-108481726D03*
X168530000Y-107315000D03*
X169013274Y-106148274D03*
X170180000Y-105665000D03*
X171346726Y-106148274D03*
%TD*%
D19*
%TO.C,J1*%
X163830000Y-74295000D03*
D20*
X163830000Y-70795000D03*
%TD*%
D21*
%TO.C,J3*%
X141700000Y-58675000D03*
X141700000Y-55625000D03*
X140700000Y-58675000D03*
X140700000Y-55625000D03*
X139700000Y-58675000D03*
X139700000Y-55625000D03*
X138700000Y-58675000D03*
X138700000Y-55625000D03*
X137700000Y-58675000D03*
X137700000Y-55625000D03*
%TD*%
%TO.C,J4*%
G36*
G01*
X127400000Y-59240000D02*
X127400000Y-60140000D01*
G75*
G02*
X127200000Y-60340000I-200000J0D01*
G01*
X126800000Y-60340000D01*
G75*
G02*
X126600000Y-60140000I0J200000D01*
G01*
X126600000Y-59240000D01*
G75*
G02*
X126800000Y-59040000I200000J0D01*
G01*
X127200000Y-59040000D01*
G75*
G02*
X127400000Y-59240000I0J-200000D01*
G01*
G37*
D22*
X125750000Y-59690000D03*
X124500000Y-59690000D03*
X123250000Y-59690000D03*
%TD*%
%TO.C,J5*%
X125670000Y-106045000D03*
X124420000Y-106045000D03*
X123170000Y-106045000D03*
G36*
G01*
X121520000Y-106495000D02*
X121520000Y-105595000D01*
G75*
G02*
X121720000Y-105395000I200000J0D01*
G01*
X122120000Y-105395000D01*
G75*
G02*
X122320000Y-105595000I0J-200000D01*
G01*
X122320000Y-106495000D01*
G75*
G02*
X122120000Y-106695000I-200000J0D01*
G01*
X121720000Y-106695000D01*
G75*
G02*
X121520000Y-106495000I0J200000D01*
G01*
G37*
%TD*%
%TO.C,L1*%
G36*
G01*
X133177500Y-84945000D02*
X133522500Y-84945000D01*
G75*
G02*
X133670000Y-85092500I0J-147500D01*
G01*
X133670000Y-85387500D01*
G75*
G02*
X133522500Y-85535000I-147500J0D01*
G01*
X133177500Y-85535000D01*
G75*
G02*
X133030000Y-85387500I0J147500D01*
G01*
X133030000Y-85092500D01*
G75*
G02*
X133177500Y-84945000I147500J0D01*
G01*
G37*
G36*
G01*
X133177500Y-85915000D02*
X133522500Y-85915000D01*
G75*
G02*
X133670000Y-86062500I0J-147500D01*
G01*
X133670000Y-86357500D01*
G75*
G02*
X133522500Y-86505000I-147500J0D01*
G01*
X133177500Y-86505000D01*
G75*
G02*
X133030000Y-86357500I0J147500D01*
G01*
X133030000Y-86062500D01*
G75*
G02*
X133177500Y-85915000I147500J0D01*
G01*
G37*
%TD*%
D23*
%TO.C,L2*%
X151130000Y-110000000D03*
X151130000Y-105900000D03*
%TD*%
D24*
%TO.C,Q1*%
X159700000Y-89805000D03*
X157800000Y-89805000D03*
X158750000Y-91805000D03*
%TD*%
%TO.C,R1*%
G36*
G01*
X127275000Y-84030000D02*
X126725000Y-84030000D01*
G75*
G02*
X126525000Y-83830000I0J200000D01*
G01*
X126525000Y-83430000D01*
G75*
G02*
X126725000Y-83230000I200000J0D01*
G01*
X127275000Y-83230000D01*
G75*
G02*
X127475000Y-83430000I0J-200000D01*
G01*
X127475000Y-83830000D01*
G75*
G02*
X127275000Y-84030000I-200000J0D01*
G01*
G37*
G36*
G01*
X127275000Y-85680000D02*
X126725000Y-85680000D01*
G75*
G02*
X126525000Y-85480000I0J200000D01*
G01*
X126525000Y-85080000D01*
G75*
G02*
X126725000Y-84880000I200000J0D01*
G01*
X127275000Y-84880000D01*
G75*
G02*
X127475000Y-85080000I0J-200000D01*
G01*
X127475000Y-85480000D01*
G75*
G02*
X127275000Y-85680000I-200000J0D01*
G01*
G37*
%TD*%
%TO.C,R2*%
G36*
G01*
X127240000Y-63685000D02*
X127240000Y-63315000D01*
G75*
G02*
X127375000Y-63180000I135000J0D01*
G01*
X127645000Y-63180000D01*
G75*
G02*
X127780000Y-63315000I0J-135000D01*
G01*
X127780000Y-63685000D01*
G75*
G02*
X127645000Y-63820000I-135000J0D01*
G01*
X127375000Y-63820000D01*
G75*
G02*
X127240000Y-63685000I0J135000D01*
G01*
G37*
G36*
G01*
X126220000Y-63685000D02*
X126220000Y-63315000D01*
G75*
G02*
X126355000Y-63180000I135000J0D01*
G01*
X126625000Y-63180000D01*
G75*
G02*
X126760000Y-63315000I0J-135000D01*
G01*
X126760000Y-63685000D01*
G75*
G02*
X126625000Y-63820000I-135000J0D01*
G01*
X126355000Y-63820000D01*
G75*
G02*
X126220000Y-63685000I0J135000D01*
G01*
G37*
%TD*%
%TO.C,R3*%
G36*
G01*
X119740000Y-72815000D02*
X120290000Y-72815000D01*
G75*
G02*
X120490000Y-73015000I0J-200000D01*
G01*
X120490000Y-73415000D01*
G75*
G02*
X120290000Y-73615000I-200000J0D01*
G01*
X119740000Y-73615000D01*
G75*
G02*
X119540000Y-73415000I0J200000D01*
G01*
X119540000Y-73015000D01*
G75*
G02*
X119740000Y-72815000I200000J0D01*
G01*
G37*
G36*
G01*
X119740000Y-71165000D02*
X120290000Y-71165000D01*
G75*
G02*
X120490000Y-71365000I0J-200000D01*
G01*
X120490000Y-71765000D01*
G75*
G02*
X120290000Y-71965000I-200000J0D01*
G01*
X119740000Y-71965000D01*
G75*
G02*
X119540000Y-71765000I0J200000D01*
G01*
X119540000Y-71365000D01*
G75*
G02*
X119740000Y-71165000I200000J0D01*
G01*
G37*
%TD*%
%TO.C,R4*%
G36*
G01*
X126220000Y-81465000D02*
X126220000Y-81095000D01*
G75*
G02*
X126355000Y-80960000I135000J0D01*
G01*
X126625000Y-80960000D01*
G75*
G02*
X126760000Y-81095000I0J-135000D01*
G01*
X126760000Y-81465000D01*
G75*
G02*
X126625000Y-81600000I-135000J0D01*
G01*
X126355000Y-81600000D01*
G75*
G02*
X126220000Y-81465000I0J135000D01*
G01*
G37*
G36*
G01*
X127240000Y-81465000D02*
X127240000Y-81095000D01*
G75*
G02*
X127375000Y-80960000I135000J0D01*
G01*
X127645000Y-80960000D01*
G75*
G02*
X127780000Y-81095000I0J-135000D01*
G01*
X127780000Y-81465000D01*
G75*
G02*
X127645000Y-81600000I-135000J0D01*
G01*
X127375000Y-81600000D01*
G75*
G02*
X127240000Y-81465000I0J135000D01*
G01*
G37*
%TD*%
%TO.C,R5*%
G36*
G01*
X123680000Y-63685000D02*
X123680000Y-63315000D01*
G75*
G02*
X123815000Y-63180000I135000J0D01*
G01*
X124085000Y-63180000D01*
G75*
G02*
X124220000Y-63315000I0J-135000D01*
G01*
X124220000Y-63685000D01*
G75*
G02*
X124085000Y-63820000I-135000J0D01*
G01*
X123815000Y-63820000D01*
G75*
G02*
X123680000Y-63685000I0J135000D01*
G01*
G37*
G36*
G01*
X124700000Y-63685000D02*
X124700000Y-63315000D01*
G75*
G02*
X124835000Y-63180000I135000J0D01*
G01*
X125105000Y-63180000D01*
G75*
G02*
X125240000Y-63315000I0J-135000D01*
G01*
X125240000Y-63685000D01*
G75*
G02*
X125105000Y-63820000I-135000J0D01*
G01*
X124835000Y-63820000D01*
G75*
G02*
X124700000Y-63685000I0J135000D01*
G01*
G37*
%TD*%
%TO.C,R6*%
G36*
G01*
X153310000Y-92030000D02*
X152760000Y-92030000D01*
G75*
G02*
X152560000Y-91830000I0J200000D01*
G01*
X152560000Y-91430000D01*
G75*
G02*
X152760000Y-91230000I200000J0D01*
G01*
X153310000Y-91230000D01*
G75*
G02*
X153510000Y-91430000I0J-200000D01*
G01*
X153510000Y-91830000D01*
G75*
G02*
X153310000Y-92030000I-200000J0D01*
G01*
G37*
G36*
G01*
X153310000Y-90380000D02*
X152760000Y-90380000D01*
G75*
G02*
X152560000Y-90180000I0J200000D01*
G01*
X152560000Y-89780000D01*
G75*
G02*
X152760000Y-89580000I200000J0D01*
G01*
X153310000Y-89580000D01*
G75*
G02*
X153510000Y-89780000I0J-200000D01*
G01*
X153510000Y-90180000D01*
G75*
G02*
X153310000Y-90380000I-200000J0D01*
G01*
G37*
%TD*%
%TO.C,R7*%
G36*
G01*
X149275000Y-89625000D02*
X149275000Y-90175000D01*
G75*
G02*
X149075000Y-90375000I-200000J0D01*
G01*
X148675000Y-90375000D01*
G75*
G02*
X148475000Y-90175000I0J200000D01*
G01*
X148475000Y-89625000D01*
G75*
G02*
X148675000Y-89425000I200000J0D01*
G01*
X149075000Y-89425000D01*
G75*
G02*
X149275000Y-89625000I0J-200000D01*
G01*
G37*
G36*
G01*
X150925000Y-89625000D02*
X150925000Y-90175000D01*
G75*
G02*
X150725000Y-90375000I-200000J0D01*
G01*
X150325000Y-90375000D01*
G75*
G02*
X150125000Y-90175000I0J200000D01*
G01*
X150125000Y-89625000D01*
G75*
G02*
X150325000Y-89425000I200000J0D01*
G01*
X150725000Y-89425000D01*
G75*
G02*
X150925000Y-89625000I0J-200000D01*
G01*
G37*
%TD*%
%TO.C,R8*%
G36*
G01*
X146005000Y-100690000D02*
X146005000Y-101240000D01*
G75*
G02*
X145805000Y-101440000I-200000J0D01*
G01*
X145405000Y-101440000D01*
G75*
G02*
X145205000Y-101240000I0J200000D01*
G01*
X145205000Y-100690000D01*
G75*
G02*
X145405000Y-100490000I200000J0D01*
G01*
X145805000Y-100490000D01*
G75*
G02*
X146005000Y-100690000I0J-200000D01*
G01*
G37*
G36*
G01*
X144355000Y-100690000D02*
X144355000Y-101240000D01*
G75*
G02*
X144155000Y-101440000I-200000J0D01*
G01*
X143755000Y-101440000D01*
G75*
G02*
X143555000Y-101240000I0J200000D01*
G01*
X143555000Y-100690000D01*
G75*
G02*
X143755000Y-100490000I200000J0D01*
G01*
X144155000Y-100490000D01*
G75*
G02*
X144355000Y-100690000I0J-200000D01*
G01*
G37*
%TD*%
%TO.C,R9*%
G36*
G01*
X145205000Y-104415000D02*
X145205000Y-103865000D01*
G75*
G02*
X145405000Y-103665000I200000J0D01*
G01*
X145805000Y-103665000D01*
G75*
G02*
X146005000Y-103865000I0J-200000D01*
G01*
X146005000Y-104415000D01*
G75*
G02*
X145805000Y-104615000I-200000J0D01*
G01*
X145405000Y-104615000D01*
G75*
G02*
X145205000Y-104415000I0J200000D01*
G01*
G37*
G36*
G01*
X143555000Y-104415000D02*
X143555000Y-103865000D01*
G75*
G02*
X143755000Y-103665000I200000J0D01*
G01*
X144155000Y-103665000D01*
G75*
G02*
X144355000Y-103865000I0J-200000D01*
G01*
X144355000Y-104415000D01*
G75*
G02*
X144155000Y-104615000I-200000J0D01*
G01*
X143755000Y-104615000D01*
G75*
G02*
X143555000Y-104415000I0J200000D01*
G01*
G37*
%TD*%
%TO.C,R10*%
G36*
G01*
X143555000Y-107590000D02*
X143555000Y-107040000D01*
G75*
G02*
X143755000Y-106840000I200000J0D01*
G01*
X144155000Y-106840000D01*
G75*
G02*
X144355000Y-107040000I0J-200000D01*
G01*
X144355000Y-107590000D01*
G75*
G02*
X144155000Y-107790000I-200000J0D01*
G01*
X143755000Y-107790000D01*
G75*
G02*
X143555000Y-107590000I0J200000D01*
G01*
G37*
G36*
G01*
X145205000Y-107590000D02*
X145205000Y-107040000D01*
G75*
G02*
X145405000Y-106840000I200000J0D01*
G01*
X145805000Y-106840000D01*
G75*
G02*
X146005000Y-107040000I0J-200000D01*
G01*
X146005000Y-107590000D01*
G75*
G02*
X145805000Y-107790000I-200000J0D01*
G01*
X145405000Y-107790000D01*
G75*
G02*
X145205000Y-107590000I0J200000D01*
G01*
G37*
%TD*%
%TO.C,R11*%
G36*
G01*
X133940000Y-92435000D02*
X133940000Y-92985000D01*
G75*
G02*
X133740000Y-93185000I-200000J0D01*
G01*
X133340000Y-93185000D01*
G75*
G02*
X133140000Y-92985000I0J200000D01*
G01*
X133140000Y-92435000D01*
G75*
G02*
X133340000Y-92235000I200000J0D01*
G01*
X133740000Y-92235000D01*
G75*
G02*
X133940000Y-92435000I0J-200000D01*
G01*
G37*
G36*
G01*
X132290000Y-92435000D02*
X132290000Y-92985000D01*
G75*
G02*
X132090000Y-93185000I-200000J0D01*
G01*
X131690000Y-93185000D01*
G75*
G02*
X131490000Y-92985000I0J200000D01*
G01*
X131490000Y-92435000D01*
G75*
G02*
X131690000Y-92235000I200000J0D01*
G01*
X132090000Y-92235000D01*
G75*
G02*
X132290000Y-92435000I0J-200000D01*
G01*
G37*
%TD*%
D25*
%TO.C,SW1*%
X113970000Y-73430000D03*
X113970000Y-76430000D03*
D26*
X115730000Y-72680000D03*
X115730000Y-75680000D03*
X115730000Y-77180000D03*
D27*
X112870000Y-71280000D03*
X112870000Y-78580000D03*
X115080000Y-78580000D03*
X115080000Y-71280000D03*
%TD*%
%TO.C,U1*%
G36*
G01*
X134520000Y-73795000D02*
X134520000Y-73645000D01*
G75*
G02*
X134595000Y-73570000I75000J0D01*
G01*
X135995000Y-73570000D01*
G75*
G02*
X136070000Y-73645000I0J-75000D01*
G01*
X136070000Y-73795000D01*
G75*
G02*
X135995000Y-73870000I-75000J0D01*
G01*
X134595000Y-73870000D01*
G75*
G02*
X134520000Y-73795000I0J75000D01*
G01*
G37*
G36*
G01*
X134520000Y-74295000D02*
X134520000Y-74145000D01*
G75*
G02*
X134595000Y-74070000I75000J0D01*
G01*
X135995000Y-74070000D01*
G75*
G02*
X136070000Y-74145000I0J-75000D01*
G01*
X136070000Y-74295000D01*
G75*
G02*
X135995000Y-74370000I-75000J0D01*
G01*
X134595000Y-74370000D01*
G75*
G02*
X134520000Y-74295000I0J75000D01*
G01*
G37*
G36*
G01*
X134520000Y-74795000D02*
X134520000Y-74645000D01*
G75*
G02*
X134595000Y-74570000I75000J0D01*
G01*
X135995000Y-74570000D01*
G75*
G02*
X136070000Y-74645000I0J-75000D01*
G01*
X136070000Y-74795000D01*
G75*
G02*
X135995000Y-74870000I-75000J0D01*
G01*
X134595000Y-74870000D01*
G75*
G02*
X134520000Y-74795000I0J75000D01*
G01*
G37*
G36*
G01*
X134520000Y-75295000D02*
X134520000Y-75145000D01*
G75*
G02*
X134595000Y-75070000I75000J0D01*
G01*
X135995000Y-75070000D01*
G75*
G02*
X136070000Y-75145000I0J-75000D01*
G01*
X136070000Y-75295000D01*
G75*
G02*
X135995000Y-75370000I-75000J0D01*
G01*
X134595000Y-75370000D01*
G75*
G02*
X134520000Y-75295000I0J75000D01*
G01*
G37*
G36*
G01*
X134520000Y-75795000D02*
X134520000Y-75645000D01*
G75*
G02*
X134595000Y-75570000I75000J0D01*
G01*
X135995000Y-75570000D01*
G75*
G02*
X136070000Y-75645000I0J-75000D01*
G01*
X136070000Y-75795000D01*
G75*
G02*
X135995000Y-75870000I-75000J0D01*
G01*
X134595000Y-75870000D01*
G75*
G02*
X134520000Y-75795000I0J75000D01*
G01*
G37*
G36*
G01*
X134520000Y-76295000D02*
X134520000Y-76145000D01*
G75*
G02*
X134595000Y-76070000I75000J0D01*
G01*
X135995000Y-76070000D01*
G75*
G02*
X136070000Y-76145000I0J-75000D01*
G01*
X136070000Y-76295000D01*
G75*
G02*
X135995000Y-76370000I-75000J0D01*
G01*
X134595000Y-76370000D01*
G75*
G02*
X134520000Y-76295000I0J75000D01*
G01*
G37*
G36*
G01*
X134520000Y-76795000D02*
X134520000Y-76645000D01*
G75*
G02*
X134595000Y-76570000I75000J0D01*
G01*
X135995000Y-76570000D01*
G75*
G02*
X136070000Y-76645000I0J-75000D01*
G01*
X136070000Y-76795000D01*
G75*
G02*
X135995000Y-76870000I-75000J0D01*
G01*
X134595000Y-76870000D01*
G75*
G02*
X134520000Y-76795000I0J75000D01*
G01*
G37*
G36*
G01*
X134520000Y-77295000D02*
X134520000Y-77145000D01*
G75*
G02*
X134595000Y-77070000I75000J0D01*
G01*
X135995000Y-77070000D01*
G75*
G02*
X136070000Y-77145000I0J-75000D01*
G01*
X136070000Y-77295000D01*
G75*
G02*
X135995000Y-77370000I-75000J0D01*
G01*
X134595000Y-77370000D01*
G75*
G02*
X134520000Y-77295000I0J75000D01*
G01*
G37*
G36*
G01*
X134520000Y-77795000D02*
X134520000Y-77645000D01*
G75*
G02*
X134595000Y-77570000I75000J0D01*
G01*
X135995000Y-77570000D01*
G75*
G02*
X136070000Y-77645000I0J-75000D01*
G01*
X136070000Y-77795000D01*
G75*
G02*
X135995000Y-77870000I-75000J0D01*
G01*
X134595000Y-77870000D01*
G75*
G02*
X134520000Y-77795000I0J75000D01*
G01*
G37*
G36*
G01*
X134520000Y-78295000D02*
X134520000Y-78145000D01*
G75*
G02*
X134595000Y-78070000I75000J0D01*
G01*
X135995000Y-78070000D01*
G75*
G02*
X136070000Y-78145000I0J-75000D01*
G01*
X136070000Y-78295000D01*
G75*
G02*
X135995000Y-78370000I-75000J0D01*
G01*
X134595000Y-78370000D01*
G75*
G02*
X134520000Y-78295000I0J75000D01*
G01*
G37*
G36*
G01*
X134520000Y-78795000D02*
X134520000Y-78645000D01*
G75*
G02*
X134595000Y-78570000I75000J0D01*
G01*
X135995000Y-78570000D01*
G75*
G02*
X136070000Y-78645000I0J-75000D01*
G01*
X136070000Y-78795000D01*
G75*
G02*
X135995000Y-78870000I-75000J0D01*
G01*
X134595000Y-78870000D01*
G75*
G02*
X134520000Y-78795000I0J75000D01*
G01*
G37*
G36*
G01*
X134520000Y-79295000D02*
X134520000Y-79145000D01*
G75*
G02*
X134595000Y-79070000I75000J0D01*
G01*
X135995000Y-79070000D01*
G75*
G02*
X136070000Y-79145000I0J-75000D01*
G01*
X136070000Y-79295000D01*
G75*
G02*
X135995000Y-79370000I-75000J0D01*
G01*
X134595000Y-79370000D01*
G75*
G02*
X134520000Y-79295000I0J75000D01*
G01*
G37*
G36*
G01*
X134520000Y-79795000D02*
X134520000Y-79645000D01*
G75*
G02*
X134595000Y-79570000I75000J0D01*
G01*
X135995000Y-79570000D01*
G75*
G02*
X136070000Y-79645000I0J-75000D01*
G01*
X136070000Y-79795000D01*
G75*
G02*
X135995000Y-79870000I-75000J0D01*
G01*
X134595000Y-79870000D01*
G75*
G02*
X134520000Y-79795000I0J75000D01*
G01*
G37*
G36*
G01*
X134520000Y-80295000D02*
X134520000Y-80145000D01*
G75*
G02*
X134595000Y-80070000I75000J0D01*
G01*
X135995000Y-80070000D01*
G75*
G02*
X136070000Y-80145000I0J-75000D01*
G01*
X136070000Y-80295000D01*
G75*
G02*
X135995000Y-80370000I-75000J0D01*
G01*
X134595000Y-80370000D01*
G75*
G02*
X134520000Y-80295000I0J75000D01*
G01*
G37*
G36*
G01*
X134520000Y-80795000D02*
X134520000Y-80645000D01*
G75*
G02*
X134595000Y-80570000I75000J0D01*
G01*
X135995000Y-80570000D01*
G75*
G02*
X136070000Y-80645000I0J-75000D01*
G01*
X136070000Y-80795000D01*
G75*
G02*
X135995000Y-80870000I-75000J0D01*
G01*
X134595000Y-80870000D01*
G75*
G02*
X134520000Y-80795000I0J75000D01*
G01*
G37*
G36*
G01*
X134520000Y-81295000D02*
X134520000Y-81145000D01*
G75*
G02*
X134595000Y-81070000I75000J0D01*
G01*
X135995000Y-81070000D01*
G75*
G02*
X136070000Y-81145000I0J-75000D01*
G01*
X136070000Y-81295000D01*
G75*
G02*
X135995000Y-81370000I-75000J0D01*
G01*
X134595000Y-81370000D01*
G75*
G02*
X134520000Y-81295000I0J75000D01*
G01*
G37*
G36*
G01*
X137070000Y-83845000D02*
X137070000Y-82445000D01*
G75*
G02*
X137145000Y-82370000I75000J0D01*
G01*
X137295000Y-82370000D01*
G75*
G02*
X137370000Y-82445000I0J-75000D01*
G01*
X137370000Y-83845000D01*
G75*
G02*
X137295000Y-83920000I-75000J0D01*
G01*
X137145000Y-83920000D01*
G75*
G02*
X137070000Y-83845000I0J75000D01*
G01*
G37*
G36*
G01*
X137570000Y-83845000D02*
X137570000Y-82445000D01*
G75*
G02*
X137645000Y-82370000I75000J0D01*
G01*
X137795000Y-82370000D01*
G75*
G02*
X137870000Y-82445000I0J-75000D01*
G01*
X137870000Y-83845000D01*
G75*
G02*
X137795000Y-83920000I-75000J0D01*
G01*
X137645000Y-83920000D01*
G75*
G02*
X137570000Y-83845000I0J75000D01*
G01*
G37*
G36*
G01*
X138070000Y-83845000D02*
X138070000Y-82445000D01*
G75*
G02*
X138145000Y-82370000I75000J0D01*
G01*
X138295000Y-82370000D01*
G75*
G02*
X138370000Y-82445000I0J-75000D01*
G01*
X138370000Y-83845000D01*
G75*
G02*
X138295000Y-83920000I-75000J0D01*
G01*
X138145000Y-83920000D01*
G75*
G02*
X138070000Y-83845000I0J75000D01*
G01*
G37*
G36*
G01*
X138570000Y-83845000D02*
X138570000Y-82445000D01*
G75*
G02*
X138645000Y-82370000I75000J0D01*
G01*
X138795000Y-82370000D01*
G75*
G02*
X138870000Y-82445000I0J-75000D01*
G01*
X138870000Y-83845000D01*
G75*
G02*
X138795000Y-83920000I-75000J0D01*
G01*
X138645000Y-83920000D01*
G75*
G02*
X138570000Y-83845000I0J75000D01*
G01*
G37*
G36*
G01*
X139070000Y-83845000D02*
X139070000Y-82445000D01*
G75*
G02*
X139145000Y-82370000I75000J0D01*
G01*
X139295000Y-82370000D01*
G75*
G02*
X139370000Y-82445000I0J-75000D01*
G01*
X139370000Y-83845000D01*
G75*
G02*
X139295000Y-83920000I-75000J0D01*
G01*
X139145000Y-83920000D01*
G75*
G02*
X139070000Y-83845000I0J75000D01*
G01*
G37*
G36*
G01*
X139570000Y-83845000D02*
X139570000Y-82445000D01*
G75*
G02*
X139645000Y-82370000I75000J0D01*
G01*
X139795000Y-82370000D01*
G75*
G02*
X139870000Y-82445000I0J-75000D01*
G01*
X139870000Y-83845000D01*
G75*
G02*
X139795000Y-83920000I-75000J0D01*
G01*
X139645000Y-83920000D01*
G75*
G02*
X139570000Y-83845000I0J75000D01*
G01*
G37*
G36*
G01*
X140070000Y-83845000D02*
X140070000Y-82445000D01*
G75*
G02*
X140145000Y-82370000I75000J0D01*
G01*
X140295000Y-82370000D01*
G75*
G02*
X140370000Y-82445000I0J-75000D01*
G01*
X140370000Y-83845000D01*
G75*
G02*
X140295000Y-83920000I-75000J0D01*
G01*
X140145000Y-83920000D01*
G75*
G02*
X140070000Y-83845000I0J75000D01*
G01*
G37*
G36*
G01*
X140570000Y-83845000D02*
X140570000Y-82445000D01*
G75*
G02*
X140645000Y-82370000I75000J0D01*
G01*
X140795000Y-82370000D01*
G75*
G02*
X140870000Y-82445000I0J-75000D01*
G01*
X140870000Y-83845000D01*
G75*
G02*
X140795000Y-83920000I-75000J0D01*
G01*
X140645000Y-83920000D01*
G75*
G02*
X140570000Y-83845000I0J75000D01*
G01*
G37*
G36*
G01*
X141070000Y-83845000D02*
X141070000Y-82445000D01*
G75*
G02*
X141145000Y-82370000I75000J0D01*
G01*
X141295000Y-82370000D01*
G75*
G02*
X141370000Y-82445000I0J-75000D01*
G01*
X141370000Y-83845000D01*
G75*
G02*
X141295000Y-83920000I-75000J0D01*
G01*
X141145000Y-83920000D01*
G75*
G02*
X141070000Y-83845000I0J75000D01*
G01*
G37*
G36*
G01*
X141570000Y-83845000D02*
X141570000Y-82445000D01*
G75*
G02*
X141645000Y-82370000I75000J0D01*
G01*
X141795000Y-82370000D01*
G75*
G02*
X141870000Y-82445000I0J-75000D01*
G01*
X141870000Y-83845000D01*
G75*
G02*
X141795000Y-83920000I-75000J0D01*
G01*
X141645000Y-83920000D01*
G75*
G02*
X141570000Y-83845000I0J75000D01*
G01*
G37*
G36*
G01*
X142070000Y-83845000D02*
X142070000Y-82445000D01*
G75*
G02*
X142145000Y-82370000I75000J0D01*
G01*
X142295000Y-82370000D01*
G75*
G02*
X142370000Y-82445000I0J-75000D01*
G01*
X142370000Y-83845000D01*
G75*
G02*
X142295000Y-83920000I-75000J0D01*
G01*
X142145000Y-83920000D01*
G75*
G02*
X142070000Y-83845000I0J75000D01*
G01*
G37*
G36*
G01*
X142570000Y-83845000D02*
X142570000Y-82445000D01*
G75*
G02*
X142645000Y-82370000I75000J0D01*
G01*
X142795000Y-82370000D01*
G75*
G02*
X142870000Y-82445000I0J-75000D01*
G01*
X142870000Y-83845000D01*
G75*
G02*
X142795000Y-83920000I-75000J0D01*
G01*
X142645000Y-83920000D01*
G75*
G02*
X142570000Y-83845000I0J75000D01*
G01*
G37*
G36*
G01*
X143070000Y-83845000D02*
X143070000Y-82445000D01*
G75*
G02*
X143145000Y-82370000I75000J0D01*
G01*
X143295000Y-82370000D01*
G75*
G02*
X143370000Y-82445000I0J-75000D01*
G01*
X143370000Y-83845000D01*
G75*
G02*
X143295000Y-83920000I-75000J0D01*
G01*
X143145000Y-83920000D01*
G75*
G02*
X143070000Y-83845000I0J75000D01*
G01*
G37*
G36*
G01*
X143570000Y-83845000D02*
X143570000Y-82445000D01*
G75*
G02*
X143645000Y-82370000I75000J0D01*
G01*
X143795000Y-82370000D01*
G75*
G02*
X143870000Y-82445000I0J-75000D01*
G01*
X143870000Y-83845000D01*
G75*
G02*
X143795000Y-83920000I-75000J0D01*
G01*
X143645000Y-83920000D01*
G75*
G02*
X143570000Y-83845000I0J75000D01*
G01*
G37*
G36*
G01*
X144070000Y-83845000D02*
X144070000Y-82445000D01*
G75*
G02*
X144145000Y-82370000I75000J0D01*
G01*
X144295000Y-82370000D01*
G75*
G02*
X144370000Y-82445000I0J-75000D01*
G01*
X144370000Y-83845000D01*
G75*
G02*
X144295000Y-83920000I-75000J0D01*
G01*
X144145000Y-83920000D01*
G75*
G02*
X144070000Y-83845000I0J75000D01*
G01*
G37*
G36*
G01*
X144570000Y-83845000D02*
X144570000Y-82445000D01*
G75*
G02*
X144645000Y-82370000I75000J0D01*
G01*
X144795000Y-82370000D01*
G75*
G02*
X144870000Y-82445000I0J-75000D01*
G01*
X144870000Y-83845000D01*
G75*
G02*
X144795000Y-83920000I-75000J0D01*
G01*
X144645000Y-83920000D01*
G75*
G02*
X144570000Y-83845000I0J75000D01*
G01*
G37*
G36*
G01*
X145870000Y-81295000D02*
X145870000Y-81145000D01*
G75*
G02*
X145945000Y-81070000I75000J0D01*
G01*
X147345000Y-81070000D01*
G75*
G02*
X147420000Y-81145000I0J-75000D01*
G01*
X147420000Y-81295000D01*
G75*
G02*
X147345000Y-81370000I-75000J0D01*
G01*
X145945000Y-81370000D01*
G75*
G02*
X145870000Y-81295000I0J75000D01*
G01*
G37*
G36*
G01*
X145870000Y-80795000D02*
X145870000Y-80645000D01*
G75*
G02*
X145945000Y-80570000I75000J0D01*
G01*
X147345000Y-80570000D01*
G75*
G02*
X147420000Y-80645000I0J-75000D01*
G01*
X147420000Y-80795000D01*
G75*
G02*
X147345000Y-80870000I-75000J0D01*
G01*
X145945000Y-80870000D01*
G75*
G02*
X145870000Y-80795000I0J75000D01*
G01*
G37*
G36*
G01*
X145870000Y-80295000D02*
X145870000Y-80145000D01*
G75*
G02*
X145945000Y-80070000I75000J0D01*
G01*
X147345000Y-80070000D01*
G75*
G02*
X147420000Y-80145000I0J-75000D01*
G01*
X147420000Y-80295000D01*
G75*
G02*
X147345000Y-80370000I-75000J0D01*
G01*
X145945000Y-80370000D01*
G75*
G02*
X145870000Y-80295000I0J75000D01*
G01*
G37*
G36*
G01*
X145870000Y-79795000D02*
X145870000Y-79645000D01*
G75*
G02*
X145945000Y-79570000I75000J0D01*
G01*
X147345000Y-79570000D01*
G75*
G02*
X147420000Y-79645000I0J-75000D01*
G01*
X147420000Y-79795000D01*
G75*
G02*
X147345000Y-79870000I-75000J0D01*
G01*
X145945000Y-79870000D01*
G75*
G02*
X145870000Y-79795000I0J75000D01*
G01*
G37*
G36*
G01*
X145870000Y-79295000D02*
X145870000Y-79145000D01*
G75*
G02*
X145945000Y-79070000I75000J0D01*
G01*
X147345000Y-79070000D01*
G75*
G02*
X147420000Y-79145000I0J-75000D01*
G01*
X147420000Y-79295000D01*
G75*
G02*
X147345000Y-79370000I-75000J0D01*
G01*
X145945000Y-79370000D01*
G75*
G02*
X145870000Y-79295000I0J75000D01*
G01*
G37*
G36*
G01*
X145870000Y-78795000D02*
X145870000Y-78645000D01*
G75*
G02*
X145945000Y-78570000I75000J0D01*
G01*
X147345000Y-78570000D01*
G75*
G02*
X147420000Y-78645000I0J-75000D01*
G01*
X147420000Y-78795000D01*
G75*
G02*
X147345000Y-78870000I-75000J0D01*
G01*
X145945000Y-78870000D01*
G75*
G02*
X145870000Y-78795000I0J75000D01*
G01*
G37*
G36*
G01*
X145870000Y-78295000D02*
X145870000Y-78145000D01*
G75*
G02*
X145945000Y-78070000I75000J0D01*
G01*
X147345000Y-78070000D01*
G75*
G02*
X147420000Y-78145000I0J-75000D01*
G01*
X147420000Y-78295000D01*
G75*
G02*
X147345000Y-78370000I-75000J0D01*
G01*
X145945000Y-78370000D01*
G75*
G02*
X145870000Y-78295000I0J75000D01*
G01*
G37*
G36*
G01*
X145870000Y-77795000D02*
X145870000Y-77645000D01*
G75*
G02*
X145945000Y-77570000I75000J0D01*
G01*
X147345000Y-77570000D01*
G75*
G02*
X147420000Y-77645000I0J-75000D01*
G01*
X147420000Y-77795000D01*
G75*
G02*
X147345000Y-77870000I-75000J0D01*
G01*
X145945000Y-77870000D01*
G75*
G02*
X145870000Y-77795000I0J75000D01*
G01*
G37*
G36*
G01*
X145870000Y-77295000D02*
X145870000Y-77145000D01*
G75*
G02*
X145945000Y-77070000I75000J0D01*
G01*
X147345000Y-77070000D01*
G75*
G02*
X147420000Y-77145000I0J-75000D01*
G01*
X147420000Y-77295000D01*
G75*
G02*
X147345000Y-77370000I-75000J0D01*
G01*
X145945000Y-77370000D01*
G75*
G02*
X145870000Y-77295000I0J75000D01*
G01*
G37*
G36*
G01*
X145870000Y-76795000D02*
X145870000Y-76645000D01*
G75*
G02*
X145945000Y-76570000I75000J0D01*
G01*
X147345000Y-76570000D01*
G75*
G02*
X147420000Y-76645000I0J-75000D01*
G01*
X147420000Y-76795000D01*
G75*
G02*
X147345000Y-76870000I-75000J0D01*
G01*
X145945000Y-76870000D01*
G75*
G02*
X145870000Y-76795000I0J75000D01*
G01*
G37*
G36*
G01*
X145870000Y-76295000D02*
X145870000Y-76145000D01*
G75*
G02*
X145945000Y-76070000I75000J0D01*
G01*
X147345000Y-76070000D01*
G75*
G02*
X147420000Y-76145000I0J-75000D01*
G01*
X147420000Y-76295000D01*
G75*
G02*
X147345000Y-76370000I-75000J0D01*
G01*
X145945000Y-76370000D01*
G75*
G02*
X145870000Y-76295000I0J75000D01*
G01*
G37*
G36*
G01*
X145870000Y-75795000D02*
X145870000Y-75645000D01*
G75*
G02*
X145945000Y-75570000I75000J0D01*
G01*
X147345000Y-75570000D01*
G75*
G02*
X147420000Y-75645000I0J-75000D01*
G01*
X147420000Y-75795000D01*
G75*
G02*
X147345000Y-75870000I-75000J0D01*
G01*
X145945000Y-75870000D01*
G75*
G02*
X145870000Y-75795000I0J75000D01*
G01*
G37*
G36*
G01*
X145870000Y-75295000D02*
X145870000Y-75145000D01*
G75*
G02*
X145945000Y-75070000I75000J0D01*
G01*
X147345000Y-75070000D01*
G75*
G02*
X147420000Y-75145000I0J-75000D01*
G01*
X147420000Y-75295000D01*
G75*
G02*
X147345000Y-75370000I-75000J0D01*
G01*
X145945000Y-75370000D01*
G75*
G02*
X145870000Y-75295000I0J75000D01*
G01*
G37*
G36*
G01*
X145870000Y-74795000D02*
X145870000Y-74645000D01*
G75*
G02*
X145945000Y-74570000I75000J0D01*
G01*
X147345000Y-74570000D01*
G75*
G02*
X147420000Y-74645000I0J-75000D01*
G01*
X147420000Y-74795000D01*
G75*
G02*
X147345000Y-74870000I-75000J0D01*
G01*
X145945000Y-74870000D01*
G75*
G02*
X145870000Y-74795000I0J75000D01*
G01*
G37*
G36*
G01*
X145870000Y-74295000D02*
X145870000Y-74145000D01*
G75*
G02*
X145945000Y-74070000I75000J0D01*
G01*
X147345000Y-74070000D01*
G75*
G02*
X147420000Y-74145000I0J-75000D01*
G01*
X147420000Y-74295000D01*
G75*
G02*
X147345000Y-74370000I-75000J0D01*
G01*
X145945000Y-74370000D01*
G75*
G02*
X145870000Y-74295000I0J75000D01*
G01*
G37*
G36*
G01*
X145870000Y-73795000D02*
X145870000Y-73645000D01*
G75*
G02*
X145945000Y-73570000I75000J0D01*
G01*
X147345000Y-73570000D01*
G75*
G02*
X147420000Y-73645000I0J-75000D01*
G01*
X147420000Y-73795000D01*
G75*
G02*
X147345000Y-73870000I-75000J0D01*
G01*
X145945000Y-73870000D01*
G75*
G02*
X145870000Y-73795000I0J75000D01*
G01*
G37*
G36*
G01*
X144570000Y-72495000D02*
X144570000Y-71095000D01*
G75*
G02*
X144645000Y-71020000I75000J0D01*
G01*
X144795000Y-71020000D01*
G75*
G02*
X144870000Y-71095000I0J-75000D01*
G01*
X144870000Y-72495000D01*
G75*
G02*
X144795000Y-72570000I-75000J0D01*
G01*
X144645000Y-72570000D01*
G75*
G02*
X144570000Y-72495000I0J75000D01*
G01*
G37*
G36*
G01*
X144070000Y-72495000D02*
X144070000Y-71095000D01*
G75*
G02*
X144145000Y-71020000I75000J0D01*
G01*
X144295000Y-71020000D01*
G75*
G02*
X144370000Y-71095000I0J-75000D01*
G01*
X144370000Y-72495000D01*
G75*
G02*
X144295000Y-72570000I-75000J0D01*
G01*
X144145000Y-72570000D01*
G75*
G02*
X144070000Y-72495000I0J75000D01*
G01*
G37*
G36*
G01*
X143570000Y-72495000D02*
X143570000Y-71095000D01*
G75*
G02*
X143645000Y-71020000I75000J0D01*
G01*
X143795000Y-71020000D01*
G75*
G02*
X143870000Y-71095000I0J-75000D01*
G01*
X143870000Y-72495000D01*
G75*
G02*
X143795000Y-72570000I-75000J0D01*
G01*
X143645000Y-72570000D01*
G75*
G02*
X143570000Y-72495000I0J75000D01*
G01*
G37*
G36*
G01*
X143070000Y-72495000D02*
X143070000Y-71095000D01*
G75*
G02*
X143145000Y-71020000I75000J0D01*
G01*
X143295000Y-71020000D01*
G75*
G02*
X143370000Y-71095000I0J-75000D01*
G01*
X143370000Y-72495000D01*
G75*
G02*
X143295000Y-72570000I-75000J0D01*
G01*
X143145000Y-72570000D01*
G75*
G02*
X143070000Y-72495000I0J75000D01*
G01*
G37*
G36*
G01*
X142570000Y-72495000D02*
X142570000Y-71095000D01*
G75*
G02*
X142645000Y-71020000I75000J0D01*
G01*
X142795000Y-71020000D01*
G75*
G02*
X142870000Y-71095000I0J-75000D01*
G01*
X142870000Y-72495000D01*
G75*
G02*
X142795000Y-72570000I-75000J0D01*
G01*
X142645000Y-72570000D01*
G75*
G02*
X142570000Y-72495000I0J75000D01*
G01*
G37*
G36*
G01*
X142070000Y-72495000D02*
X142070000Y-71095000D01*
G75*
G02*
X142145000Y-71020000I75000J0D01*
G01*
X142295000Y-71020000D01*
G75*
G02*
X142370000Y-71095000I0J-75000D01*
G01*
X142370000Y-72495000D01*
G75*
G02*
X142295000Y-72570000I-75000J0D01*
G01*
X142145000Y-72570000D01*
G75*
G02*
X142070000Y-72495000I0J75000D01*
G01*
G37*
G36*
G01*
X141570000Y-72495000D02*
X141570000Y-71095000D01*
G75*
G02*
X141645000Y-71020000I75000J0D01*
G01*
X141795000Y-71020000D01*
G75*
G02*
X141870000Y-71095000I0J-75000D01*
G01*
X141870000Y-72495000D01*
G75*
G02*
X141795000Y-72570000I-75000J0D01*
G01*
X141645000Y-72570000D01*
G75*
G02*
X141570000Y-72495000I0J75000D01*
G01*
G37*
G36*
G01*
X141070000Y-72495000D02*
X141070000Y-71095000D01*
G75*
G02*
X141145000Y-71020000I75000J0D01*
G01*
X141295000Y-71020000D01*
G75*
G02*
X141370000Y-71095000I0J-75000D01*
G01*
X141370000Y-72495000D01*
G75*
G02*
X141295000Y-72570000I-75000J0D01*
G01*
X141145000Y-72570000D01*
G75*
G02*
X141070000Y-72495000I0J75000D01*
G01*
G37*
G36*
G01*
X140570000Y-72495000D02*
X140570000Y-71095000D01*
G75*
G02*
X140645000Y-71020000I75000J0D01*
G01*
X140795000Y-71020000D01*
G75*
G02*
X140870000Y-71095000I0J-75000D01*
G01*
X140870000Y-72495000D01*
G75*
G02*
X140795000Y-72570000I-75000J0D01*
G01*
X140645000Y-72570000D01*
G75*
G02*
X140570000Y-72495000I0J75000D01*
G01*
G37*
G36*
G01*
X140070000Y-72495000D02*
X140070000Y-71095000D01*
G75*
G02*
X140145000Y-71020000I75000J0D01*
G01*
X140295000Y-71020000D01*
G75*
G02*
X140370000Y-71095000I0J-75000D01*
G01*
X140370000Y-72495000D01*
G75*
G02*
X140295000Y-72570000I-75000J0D01*
G01*
X140145000Y-72570000D01*
G75*
G02*
X140070000Y-72495000I0J75000D01*
G01*
G37*
G36*
G01*
X139570000Y-72495000D02*
X139570000Y-71095000D01*
G75*
G02*
X139645000Y-71020000I75000J0D01*
G01*
X139795000Y-71020000D01*
G75*
G02*
X139870000Y-71095000I0J-75000D01*
G01*
X139870000Y-72495000D01*
G75*
G02*
X139795000Y-72570000I-75000J0D01*
G01*
X139645000Y-72570000D01*
G75*
G02*
X139570000Y-72495000I0J75000D01*
G01*
G37*
G36*
G01*
X139070000Y-72495000D02*
X139070000Y-71095000D01*
G75*
G02*
X139145000Y-71020000I75000J0D01*
G01*
X139295000Y-71020000D01*
G75*
G02*
X139370000Y-71095000I0J-75000D01*
G01*
X139370000Y-72495000D01*
G75*
G02*
X139295000Y-72570000I-75000J0D01*
G01*
X139145000Y-72570000D01*
G75*
G02*
X139070000Y-72495000I0J75000D01*
G01*
G37*
G36*
G01*
X138570000Y-72495000D02*
X138570000Y-71095000D01*
G75*
G02*
X138645000Y-71020000I75000J0D01*
G01*
X138795000Y-71020000D01*
G75*
G02*
X138870000Y-71095000I0J-75000D01*
G01*
X138870000Y-72495000D01*
G75*
G02*
X138795000Y-72570000I-75000J0D01*
G01*
X138645000Y-72570000D01*
G75*
G02*
X138570000Y-72495000I0J75000D01*
G01*
G37*
G36*
G01*
X138070000Y-72495000D02*
X138070000Y-71095000D01*
G75*
G02*
X138145000Y-71020000I75000J0D01*
G01*
X138295000Y-71020000D01*
G75*
G02*
X138370000Y-71095000I0J-75000D01*
G01*
X138370000Y-72495000D01*
G75*
G02*
X138295000Y-72570000I-75000J0D01*
G01*
X138145000Y-72570000D01*
G75*
G02*
X138070000Y-72495000I0J75000D01*
G01*
G37*
G36*
G01*
X137570000Y-72495000D02*
X137570000Y-71095000D01*
G75*
G02*
X137645000Y-71020000I75000J0D01*
G01*
X137795000Y-71020000D01*
G75*
G02*
X137870000Y-71095000I0J-75000D01*
G01*
X137870000Y-72495000D01*
G75*
G02*
X137795000Y-72570000I-75000J0D01*
G01*
X137645000Y-72570000D01*
G75*
G02*
X137570000Y-72495000I0J75000D01*
G01*
G37*
G36*
G01*
X137070000Y-72495000D02*
X137070000Y-71095000D01*
G75*
G02*
X137145000Y-71020000I75000J0D01*
G01*
X137295000Y-71020000D01*
G75*
G02*
X137370000Y-71095000I0J-75000D01*
G01*
X137370000Y-72495000D01*
G75*
G02*
X137295000Y-72570000I-75000J0D01*
G01*
X137145000Y-72570000D01*
G75*
G02*
X137070000Y-72495000I0J75000D01*
G01*
G37*
%TD*%
D28*
%TO.C,U2*%
X152230000Y-96520000D03*
X152230000Y-95570000D03*
X152230000Y-97470000D03*
X150030000Y-97470000D03*
X150030000Y-96520000D03*
X150030000Y-95570000D03*
%TD*%
%TO.C,U3*%
X157775000Y-63815000D03*
X157775000Y-62865000D03*
X157775000Y-61915000D03*
X155575000Y-61915000D03*
X155575000Y-63815000D03*
X155575000Y-62865000D03*
%TD*%
D29*
%TO.C,Y1*%
X126195000Y-75985000D03*
X123995000Y-75985000D03*
X123995000Y-77685000D03*
X126195000Y-77685000D03*
%TD*%
M02*
