%TF.GenerationSoftware,KiCad,Pcbnew,(5.1.9)-1*%
%TF.CreationDate,2021-05-06T02:52:02-06:00*%
%TF.ProjectId,stm32 design,73746d33-3220-4646-9573-69676e2e6b69,rev?*%
%TF.SameCoordinates,Original*%
%TF.FileFunction,Copper,L3,Inr*%
%TF.FilePolarity,Positive*%
%FSLAX46Y46*%
G04 Gerber Fmt 4.6, Leading zero omitted, Abs format (unit mm)*
G04 Created by KiCad (PCBNEW (5.1.9)-1) date 2021-05-06 02:52:02*
%MOMM*%
%LPD*%
G01*
G04 APERTURE LIST*
%TA.AperFunction,ComponentPad*%
%ADD10O,1.250000X1.050000*%
%TD*%
%TA.AperFunction,ComponentPad*%
%ADD11O,1.900000X1.000000*%
%TD*%
%TA.AperFunction,ComponentPad*%
%ADD12C,0.700000*%
%TD*%
%TA.AperFunction,ComponentPad*%
%ADD13C,4.400000*%
%TD*%
%TA.AperFunction,ComponentPad*%
%ADD14R,2.400000X2.400000*%
%TD*%
%TA.AperFunction,ComponentPad*%
%ADD15C,2.400000*%
%TD*%
%TA.AperFunction,ComponentPad*%
%ADD16O,0.800000X1.300000*%
%TD*%
%TA.AperFunction,ViaPad*%
%ADD17C,0.800000*%
%TD*%
%TA.AperFunction,Conductor*%
%ADD18C,0.254000*%
%TD*%
%TA.AperFunction,Conductor*%
%ADD19C,0.100000*%
%TD*%
G04 APERTURE END LIST*
D10*
%TO.N,Net-(J2-Pad6)*%
%TO.C,J2*%
X168100000Y-58100000D03*
X168100000Y-62550000D03*
D11*
X165100000Y-56150000D03*
X165100000Y-64500000D03*
%TD*%
D12*
%TO.N,GND*%
%TO.C,H1*%
X112926726Y-106528274D03*
X111760000Y-106045000D03*
X110593274Y-106528274D03*
X110110000Y-107695000D03*
X110593274Y-108861726D03*
X111760000Y-109345000D03*
X112926726Y-108861726D03*
X113410000Y-107695000D03*
D13*
X111760000Y-107695000D03*
%TD*%
%TO.N,GND*%
%TO.C,H2*%
X169545000Y-50165000D03*
D12*
X171195000Y-50165000D03*
X170711726Y-51331726D03*
X169545000Y-51815000D03*
X168378274Y-51331726D03*
X167895000Y-50165000D03*
X168378274Y-48998274D03*
X169545000Y-48515000D03*
X170711726Y-48998274D03*
%TD*%
%TO.N,GND*%
%TO.C,H3*%
X114196726Y-48743274D03*
X113030000Y-48260000D03*
X111863274Y-48743274D03*
X111380000Y-49910000D03*
X111863274Y-51076726D03*
X113030000Y-51560000D03*
X114196726Y-51076726D03*
X114680000Y-49910000D03*
D13*
X113030000Y-49910000D03*
%TD*%
%TO.N,GND*%
%TO.C,H4*%
X170180000Y-107315000D03*
D12*
X171830000Y-107315000D03*
X171346726Y-108481726D03*
X170180000Y-108965000D03*
X169013274Y-108481726D03*
X168530000Y-107315000D03*
X169013274Y-106148274D03*
X170180000Y-105665000D03*
X171346726Y-106148274D03*
%TD*%
D14*
%TO.N,+12V*%
%TO.C,J1*%
X163830000Y-74295000D03*
D15*
%TO.N,GND*%
X163830000Y-70795000D03*
%TD*%
%TO.N,+3.3VA*%
%TO.C,J4*%
%TA.AperFunction,ComponentPad*%
G36*
G01*
X127400000Y-59240000D02*
X127400000Y-60140000D01*
G75*
G02*
X127200000Y-60340000I-200000J0D01*
G01*
X126800000Y-60340000D01*
G75*
G02*
X126600000Y-60140000I0J200000D01*
G01*
X126600000Y-59240000D01*
G75*
G02*
X126800000Y-59040000I200000J0D01*
G01*
X127200000Y-59040000D01*
G75*
G02*
X127400000Y-59240000I0J-200000D01*
G01*
G37*
%TD.AperFunction*%
D16*
%TO.N,I2C1_SCL*%
X125750000Y-59690000D03*
%TO.N,I2C1_SDA*%
X124500000Y-59690000D03*
%TO.N,GND*%
X123250000Y-59690000D03*
%TD*%
%TO.N,GND*%
%TO.C,J5*%
X125670000Y-106045000D03*
%TO.N,USART3_RX*%
X124420000Y-106045000D03*
%TO.N,USART3_TX*%
X123170000Y-106045000D03*
%TO.N,+3.3VA*%
%TA.AperFunction,ComponentPad*%
G36*
G01*
X121520000Y-106495000D02*
X121520000Y-105595000D01*
G75*
G02*
X121720000Y-105395000I200000J0D01*
G01*
X122120000Y-105395000D01*
G75*
G02*
X122320000Y-105595000I0J-200000D01*
G01*
X122320000Y-106495000D01*
G75*
G02*
X122120000Y-106695000I-200000J0D01*
G01*
X121720000Y-106695000D01*
G75*
G02*
X121520000Y-106495000I0J200000D01*
G01*
G37*
%TD.AperFunction*%
%TD*%
D17*
%TO.N,GND*%
X169100000Y-81200000D03*
%TO.N,+3.3VA*%
X162100000Y-103000000D03*
X157500000Y-104600000D03*
X151200000Y-104100000D03*
X153400000Y-105800000D03*
X159000000Y-105800000D03*
X141700000Y-60300000D03*
X125100000Y-83200000D03*
%TO.N,+3V3*%
X117000000Y-72750000D03*
%TO.N,+3.3VA*%
X160500000Y-101750000D03*
%TO.N,GND*%
X122000000Y-86000000D03*
X125000000Y-86000000D03*
X167900000Y-79600000D03*
X162000000Y-97600000D03*
X163500000Y-98900000D03*
X157600000Y-97600000D03*
X159000000Y-98700000D03*
X148800000Y-96600000D03*
X157500000Y-110000000D03*
X159000000Y-108900000D03*
X146700000Y-107300000D03*
X163900000Y-68200000D03*
X162500000Y-68200000D03*
X165300000Y-68200000D03*
X159000000Y-62900000D03*
X140700000Y-60500000D03*
X139700000Y-60500000D03*
X136100000Y-58700000D03*
X123100000Y-61700000D03*
X117100000Y-77300000D03*
X122600000Y-75900000D03*
X126200000Y-79000000D03*
X130200000Y-87000000D03*
X128000000Y-87100000D03*
X137700000Y-81400000D03*
X127000000Y-93900000D03*
X128100000Y-85300000D03*
X137700000Y-81400000D03*
X137000000Y-79200000D03*
X148800000Y-91300000D03*
X159800000Y-88700000D03*
X165700000Y-50700000D03*
X167100000Y-48300000D03*
X167300000Y-52500000D03*
%TO.N,HSE_IN*%
X131500000Y-75470000D03*
X129750000Y-78000000D03*
X128100000Y-76900000D03*
%TO.N,+3.3VA*%
X132010872Y-87481880D03*
X131500000Y-89750000D03*
X122600000Y-85000000D03*
X125100000Y-87000000D03*
X125100000Y-88700000D03*
X127000000Y-90700000D03*
X130200000Y-90700000D03*
X125100000Y-90800000D03*
X134600000Y-92700000D03*
X134000000Y-87800000D03*
X133400000Y-79900000D03*
X133800000Y-73700000D03*
%TO.N,BUCK_IN*%
X154500000Y-91100000D03*
X155000000Y-85700000D03*
%TO.N,BUCK_BST*%
X147300000Y-99600000D03*
X147300000Y-96500000D03*
%TO.N,+5V*%
X156400000Y-83400000D03*
X153700000Y-66100000D03*
X158900000Y-59800000D03*
X156700000Y-59700000D03*
%TO.N,SWCLK*%
X144700000Y-55100000D03*
X144500000Y-51500000D03*
%TO.N,SWO*%
X143500000Y-55400000D03*
X140900000Y-50400000D03*
%TO.N,NRST*%
X132900000Y-77300000D03*
X133000000Y-71100000D03*
%TO.N,I2C1_SCL*%
X139300000Y-66200000D03*
X136000000Y-64300000D03*
%TO.N,I2C1_SDA*%
X139000000Y-69250000D03*
X135500000Y-67500000D03*
%TO.N,USART3_TX*%
X141500000Y-80900000D03*
X139500000Y-88800000D03*
%TO.N,BOOTO*%
X138800000Y-70400000D03*
X123400000Y-73100000D03*
%TO.N,BUCK_EN*%
X153400000Y-97400000D03*
X155600000Y-96800000D03*
%TO.N,USB_D+*%
X152250000Y-73500000D03*
X152250000Y-69750000D03*
%TD*%
D18*
%TO.N,+3.3VA*%
X170952488Y-47695828D02*
X170887876Y-47652656D01*
X170371939Y-47438948D01*
X169824223Y-47330000D01*
X169265777Y-47330000D01*
X168718061Y-47438948D01*
X168202124Y-47652656D01*
X168001717Y-47786564D01*
X167903937Y-47640226D01*
X167759774Y-47496063D01*
X167590256Y-47382795D01*
X167401898Y-47304774D01*
X167201939Y-47265000D01*
X166998061Y-47265000D01*
X166798102Y-47304774D01*
X166609744Y-47382795D01*
X166440226Y-47496063D01*
X166296063Y-47640226D01*
X166182795Y-47809744D01*
X166104774Y-47998102D01*
X166065000Y-48198061D01*
X166065000Y-48401939D01*
X166104774Y-48601898D01*
X166182795Y-48790256D01*
X166296063Y-48959774D01*
X166440226Y-49103937D01*
X166609744Y-49217205D01*
X166798102Y-49295226D01*
X166833753Y-49302317D01*
X166818948Y-49338061D01*
X166710000Y-49885777D01*
X166710000Y-50444223D01*
X166818948Y-50991939D01*
X167028839Y-51498660D01*
X166998102Y-51504774D01*
X166809744Y-51582795D01*
X166640226Y-51696063D01*
X166496063Y-51840226D01*
X166382795Y-52009744D01*
X166304774Y-52198102D01*
X166265000Y-52398061D01*
X166265000Y-52601939D01*
X166304774Y-52801898D01*
X166382795Y-52990256D01*
X166496063Y-53159774D01*
X166640226Y-53303937D01*
X166809744Y-53417205D01*
X166998102Y-53495226D01*
X167198061Y-53535000D01*
X167401939Y-53535000D01*
X167601898Y-53495226D01*
X167790256Y-53417205D01*
X167959774Y-53303937D01*
X168103937Y-53159774D01*
X168217205Y-52990256D01*
X168295226Y-52801898D01*
X168311028Y-52722454D01*
X168718061Y-52891052D01*
X169265777Y-53000000D01*
X169824223Y-53000000D01*
X170371939Y-52891052D01*
X170887876Y-52677344D01*
X171352207Y-52367088D01*
X171747088Y-51972207D01*
X172057344Y-51507876D01*
X172271052Y-50991939D01*
X172380000Y-50444223D01*
X172380000Y-49885777D01*
X172271052Y-49338061D01*
X172164629Y-49081133D01*
X173330001Y-50412987D01*
X173330000Y-107730000D01*
X172764200Y-108484400D01*
X172906052Y-108141939D01*
X173015000Y-107594223D01*
X173015000Y-107035777D01*
X172906052Y-106488061D01*
X172692344Y-105972124D01*
X172382088Y-105507793D01*
X171987207Y-105112912D01*
X171522876Y-104802656D01*
X171006939Y-104588948D01*
X170459223Y-104480000D01*
X169900777Y-104480000D01*
X169353061Y-104588948D01*
X168837124Y-104802656D01*
X168372793Y-105112912D01*
X167977912Y-105507793D01*
X167667656Y-105972124D01*
X167453948Y-106488061D01*
X167345000Y-107035777D01*
X167345000Y-107594223D01*
X167453948Y-108141939D01*
X167667656Y-108657876D01*
X167977912Y-109122207D01*
X168372793Y-109517088D01*
X168837124Y-109827344D01*
X169353061Y-110041052D01*
X169900777Y-110150000D01*
X170459223Y-110150000D01*
X171006939Y-110041052D01*
X171522876Y-109827344D01*
X171987207Y-109517088D01*
X171997116Y-109507179D01*
X169850001Y-112370000D01*
X112113221Y-112370000D01*
X110768472Y-110352877D01*
X110933061Y-110421052D01*
X111480777Y-110530000D01*
X112039223Y-110530000D01*
X112586939Y-110421052D01*
X113102876Y-110207344D01*
X113565750Y-109898061D01*
X156465000Y-109898061D01*
X156465000Y-110101939D01*
X156504774Y-110301898D01*
X156582795Y-110490256D01*
X156696063Y-110659774D01*
X156840226Y-110803937D01*
X157009744Y-110917205D01*
X157198102Y-110995226D01*
X157398061Y-111035000D01*
X157601939Y-111035000D01*
X157801898Y-110995226D01*
X157990256Y-110917205D01*
X158159774Y-110803937D01*
X158303937Y-110659774D01*
X158417205Y-110490256D01*
X158495226Y-110301898D01*
X158535000Y-110101939D01*
X158535000Y-109898061D01*
X158519741Y-109821346D01*
X158698102Y-109895226D01*
X158898061Y-109935000D01*
X159101939Y-109935000D01*
X159301898Y-109895226D01*
X159490256Y-109817205D01*
X159659774Y-109703937D01*
X159803937Y-109559774D01*
X159917205Y-109390256D01*
X159995226Y-109201898D01*
X160035000Y-109001939D01*
X160035000Y-108798061D01*
X159995226Y-108598102D01*
X159917205Y-108409744D01*
X159803937Y-108240226D01*
X159659774Y-108096063D01*
X159490256Y-107982795D01*
X159301898Y-107904774D01*
X159101939Y-107865000D01*
X158898061Y-107865000D01*
X158698102Y-107904774D01*
X158509744Y-107982795D01*
X158340226Y-108096063D01*
X158196063Y-108240226D01*
X158082795Y-108409744D01*
X158004774Y-108598102D01*
X157965000Y-108798061D01*
X157965000Y-109001939D01*
X157980259Y-109078654D01*
X157801898Y-109004774D01*
X157601939Y-108965000D01*
X157398061Y-108965000D01*
X157198102Y-109004774D01*
X157009744Y-109082795D01*
X156840226Y-109196063D01*
X156696063Y-109340226D01*
X156582795Y-109509744D01*
X156504774Y-109698102D01*
X156465000Y-109898061D01*
X113565750Y-109898061D01*
X113567207Y-109897088D01*
X113962088Y-109502207D01*
X114272344Y-109037876D01*
X114486052Y-108521939D01*
X114595000Y-107974223D01*
X114595000Y-107415777D01*
X114486052Y-106868061D01*
X114414368Y-106695000D01*
X120881928Y-106695000D01*
X120894188Y-106819482D01*
X120930498Y-106939180D01*
X120989463Y-107049494D01*
X121068815Y-107146185D01*
X121165506Y-107225537D01*
X121275820Y-107284502D01*
X121395518Y-107320812D01*
X121520000Y-107333072D01*
X121634250Y-107330000D01*
X121793000Y-107171250D01*
X121793000Y-106172000D01*
X121043750Y-106172000D01*
X120885000Y-106330750D01*
X120881928Y-106695000D01*
X114414368Y-106695000D01*
X114272344Y-106352124D01*
X113962088Y-105887793D01*
X113567207Y-105492912D01*
X113420672Y-105395000D01*
X120881928Y-105395000D01*
X120885000Y-105759250D01*
X121043750Y-105918000D01*
X121793000Y-105918000D01*
X121793000Y-104918750D01*
X122047000Y-104918750D01*
X122047000Y-105918000D01*
X122067000Y-105918000D01*
X122067000Y-106172000D01*
X122047000Y-106172000D01*
X122047000Y-107171250D01*
X122205750Y-107330000D01*
X122320000Y-107333072D01*
X122444482Y-107320812D01*
X122564180Y-107284502D01*
X122674494Y-107225537D01*
X122690594Y-107212324D01*
X122772008Y-107255841D01*
X122967106Y-107315024D01*
X123170000Y-107335007D01*
X123372895Y-107315024D01*
X123567993Y-107255841D01*
X123747797Y-107159734D01*
X123795001Y-107120995D01*
X123842204Y-107159734D01*
X124022008Y-107255841D01*
X124217106Y-107315024D01*
X124420000Y-107335007D01*
X124622895Y-107315024D01*
X124817993Y-107255841D01*
X124997797Y-107159734D01*
X125045001Y-107120995D01*
X125092204Y-107159734D01*
X125272008Y-107255841D01*
X125467106Y-107315024D01*
X125670000Y-107335007D01*
X125872895Y-107315024D01*
X126067993Y-107255841D01*
X126176092Y-107198061D01*
X145665000Y-107198061D01*
X145665000Y-107401939D01*
X145704774Y-107601898D01*
X145782795Y-107790256D01*
X145896063Y-107959774D01*
X146040226Y-108103937D01*
X146209744Y-108217205D01*
X146398102Y-108295226D01*
X146598061Y-108335000D01*
X146801939Y-108335000D01*
X147001898Y-108295226D01*
X147190256Y-108217205D01*
X147359774Y-108103937D01*
X147503937Y-107959774D01*
X147617205Y-107790256D01*
X147695226Y-107601898D01*
X147735000Y-107401939D01*
X147735000Y-107198061D01*
X147695226Y-106998102D01*
X147617205Y-106809744D01*
X147503937Y-106640226D01*
X147359774Y-106496063D01*
X147190256Y-106382795D01*
X147001898Y-106304774D01*
X146801939Y-106265000D01*
X146598061Y-106265000D01*
X146398102Y-106304774D01*
X146209744Y-106382795D01*
X146040226Y-106496063D01*
X145896063Y-106640226D01*
X145782795Y-106809744D01*
X145704774Y-106998102D01*
X145665000Y-107198061D01*
X126176092Y-107198061D01*
X126247797Y-107159734D01*
X126405396Y-107030396D01*
X126534734Y-106872797D01*
X126630841Y-106692992D01*
X126690024Y-106497894D01*
X126705000Y-106345837D01*
X126705000Y-105744162D01*
X126690024Y-105592105D01*
X126630841Y-105397007D01*
X126534734Y-105217203D01*
X126405396Y-105059604D01*
X126247797Y-104930266D01*
X126067992Y-104834159D01*
X125872894Y-104774976D01*
X125670000Y-104754993D01*
X125467105Y-104774976D01*
X125272007Y-104834159D01*
X125092203Y-104930266D01*
X125045000Y-104969004D01*
X124997797Y-104930266D01*
X124817992Y-104834159D01*
X124622894Y-104774976D01*
X124420000Y-104754993D01*
X124217105Y-104774976D01*
X124022007Y-104834159D01*
X123842203Y-104930266D01*
X123795000Y-104969004D01*
X123747797Y-104930266D01*
X123567992Y-104834159D01*
X123372894Y-104774976D01*
X123170000Y-104754993D01*
X122967105Y-104774976D01*
X122772007Y-104834159D01*
X122690593Y-104877675D01*
X122674494Y-104864463D01*
X122564180Y-104805498D01*
X122444482Y-104769188D01*
X122320000Y-104756928D01*
X122205750Y-104760000D01*
X122047000Y-104918750D01*
X121793000Y-104918750D01*
X121634250Y-104760000D01*
X121520000Y-104756928D01*
X121395518Y-104769188D01*
X121275820Y-104805498D01*
X121165506Y-104864463D01*
X121068815Y-104943815D01*
X120989463Y-105040506D01*
X120930498Y-105150820D01*
X120894188Y-105270518D01*
X120881928Y-105395000D01*
X113420672Y-105395000D01*
X113102876Y-105182656D01*
X112586939Y-104968948D01*
X112039223Y-104860000D01*
X111480777Y-104860000D01*
X110933061Y-104968948D01*
X110417124Y-105182656D01*
X109952793Y-105492912D01*
X109557912Y-105887793D01*
X109247656Y-106352124D01*
X109033948Y-106868061D01*
X108925000Y-107415777D01*
X108925000Y-107587669D01*
X108610000Y-107115169D01*
X108610000Y-99498061D01*
X146265000Y-99498061D01*
X146265000Y-99701939D01*
X146304774Y-99901898D01*
X146382795Y-100090256D01*
X146496063Y-100259774D01*
X146640226Y-100403937D01*
X146809744Y-100517205D01*
X146998102Y-100595226D01*
X147198061Y-100635000D01*
X147401939Y-100635000D01*
X147601898Y-100595226D01*
X147790256Y-100517205D01*
X147959774Y-100403937D01*
X148103937Y-100259774D01*
X148217205Y-100090256D01*
X148295226Y-99901898D01*
X148335000Y-99701939D01*
X148335000Y-99498061D01*
X148295226Y-99298102D01*
X148217205Y-99109744D01*
X148103937Y-98940226D01*
X147959774Y-98796063D01*
X147790256Y-98682795D01*
X147601898Y-98604774D01*
X147401939Y-98565000D01*
X147198061Y-98565000D01*
X146998102Y-98604774D01*
X146809744Y-98682795D01*
X146640226Y-98796063D01*
X146496063Y-98940226D01*
X146382795Y-99109744D01*
X146304774Y-99298102D01*
X146265000Y-99498061D01*
X108610000Y-99498061D01*
X108610000Y-96398061D01*
X146265000Y-96398061D01*
X146265000Y-96601939D01*
X146304774Y-96801898D01*
X146382795Y-96990256D01*
X146496063Y-97159774D01*
X146640226Y-97303937D01*
X146809744Y-97417205D01*
X146998102Y-97495226D01*
X147198061Y-97535000D01*
X147401939Y-97535000D01*
X147601898Y-97495226D01*
X147790256Y-97417205D01*
X147959774Y-97303937D01*
X148000000Y-97263711D01*
X148140226Y-97403937D01*
X148309744Y-97517205D01*
X148498102Y-97595226D01*
X148698061Y-97635000D01*
X148901939Y-97635000D01*
X149101898Y-97595226D01*
X149290256Y-97517205D01*
X149459774Y-97403937D01*
X149565650Y-97298061D01*
X152365000Y-97298061D01*
X152365000Y-97501939D01*
X152404774Y-97701898D01*
X152482795Y-97890256D01*
X152596063Y-98059774D01*
X152740226Y-98203937D01*
X152909744Y-98317205D01*
X153098102Y-98395226D01*
X153298061Y-98435000D01*
X153501939Y-98435000D01*
X153701898Y-98395226D01*
X153890256Y-98317205D01*
X154059774Y-98203937D01*
X154203937Y-98059774D01*
X154317205Y-97890256D01*
X154395226Y-97701898D01*
X154435000Y-97501939D01*
X154435000Y-97298061D01*
X154395226Y-97098102D01*
X154317205Y-96909744D01*
X154203937Y-96740226D01*
X154161772Y-96698061D01*
X154565000Y-96698061D01*
X154565000Y-96901939D01*
X154604774Y-97101898D01*
X154682795Y-97290256D01*
X154796063Y-97459774D01*
X154940226Y-97603937D01*
X155109744Y-97717205D01*
X155298102Y-97795226D01*
X155498061Y-97835000D01*
X155701939Y-97835000D01*
X155901898Y-97795226D01*
X156090256Y-97717205D01*
X156259774Y-97603937D01*
X156365650Y-97498061D01*
X156565000Y-97498061D01*
X156565000Y-97701939D01*
X156604774Y-97901898D01*
X156682795Y-98090256D01*
X156796063Y-98259774D01*
X156940226Y-98403937D01*
X157109744Y-98517205D01*
X157298102Y-98595226D01*
X157498061Y-98635000D01*
X157701939Y-98635000D01*
X157901898Y-98595226D01*
X157971280Y-98566487D01*
X157965000Y-98598061D01*
X157965000Y-98801939D01*
X158004774Y-99001898D01*
X158082795Y-99190256D01*
X158196063Y-99359774D01*
X158340226Y-99503937D01*
X158509744Y-99617205D01*
X158698102Y-99695226D01*
X158898061Y-99735000D01*
X159101939Y-99735000D01*
X159301898Y-99695226D01*
X159490256Y-99617205D01*
X159659774Y-99503937D01*
X159803937Y-99359774D01*
X159917205Y-99190256D01*
X159995226Y-99001898D01*
X160035000Y-98801939D01*
X160035000Y-98598061D01*
X159995226Y-98398102D01*
X159917205Y-98209744D01*
X159803937Y-98040226D01*
X159659774Y-97896063D01*
X159490256Y-97782795D01*
X159301898Y-97704774D01*
X159101939Y-97665000D01*
X158898061Y-97665000D01*
X158698102Y-97704774D01*
X158628720Y-97733513D01*
X158635000Y-97701939D01*
X158635000Y-97498061D01*
X160965000Y-97498061D01*
X160965000Y-97701939D01*
X161004774Y-97901898D01*
X161082795Y-98090256D01*
X161196063Y-98259774D01*
X161340226Y-98403937D01*
X161509744Y-98517205D01*
X161698102Y-98595226D01*
X161898061Y-98635000D01*
X162101939Y-98635000D01*
X162301898Y-98595226D01*
X162490256Y-98517205D01*
X162556662Y-98472834D01*
X162504774Y-98598102D01*
X162465000Y-98798061D01*
X162465000Y-99001939D01*
X162504774Y-99201898D01*
X162582795Y-99390256D01*
X162696063Y-99559774D01*
X162840226Y-99703937D01*
X163009744Y-99817205D01*
X163198102Y-99895226D01*
X163398061Y-99935000D01*
X163601939Y-99935000D01*
X163801898Y-99895226D01*
X163990256Y-99817205D01*
X164159774Y-99703937D01*
X164303937Y-99559774D01*
X164417205Y-99390256D01*
X164495226Y-99201898D01*
X164535000Y-99001939D01*
X164535000Y-98798061D01*
X164495226Y-98598102D01*
X164417205Y-98409744D01*
X164303937Y-98240226D01*
X164159774Y-98096063D01*
X163990256Y-97982795D01*
X163801898Y-97904774D01*
X163601939Y-97865000D01*
X163398061Y-97865000D01*
X163198102Y-97904774D01*
X163009744Y-97982795D01*
X162943338Y-98027166D01*
X162995226Y-97901898D01*
X163035000Y-97701939D01*
X163035000Y-97498061D01*
X162995226Y-97298102D01*
X162917205Y-97109744D01*
X162803937Y-96940226D01*
X162659774Y-96796063D01*
X162490256Y-96682795D01*
X162301898Y-96604774D01*
X162101939Y-96565000D01*
X161898061Y-96565000D01*
X161698102Y-96604774D01*
X161509744Y-96682795D01*
X161340226Y-96796063D01*
X161196063Y-96940226D01*
X161082795Y-97109744D01*
X161004774Y-97298102D01*
X160965000Y-97498061D01*
X158635000Y-97498061D01*
X158595226Y-97298102D01*
X158517205Y-97109744D01*
X158403937Y-96940226D01*
X158259774Y-96796063D01*
X158090256Y-96682795D01*
X157901898Y-96604774D01*
X157701939Y-96565000D01*
X157498061Y-96565000D01*
X157298102Y-96604774D01*
X157109744Y-96682795D01*
X156940226Y-96796063D01*
X156796063Y-96940226D01*
X156682795Y-97109744D01*
X156604774Y-97298102D01*
X156565000Y-97498061D01*
X156365650Y-97498061D01*
X156403937Y-97459774D01*
X156517205Y-97290256D01*
X156595226Y-97101898D01*
X156635000Y-96901939D01*
X156635000Y-96698061D01*
X156595226Y-96498102D01*
X156517205Y-96309744D01*
X156403937Y-96140226D01*
X156259774Y-95996063D01*
X156090256Y-95882795D01*
X155901898Y-95804774D01*
X155701939Y-95765000D01*
X155498061Y-95765000D01*
X155298102Y-95804774D01*
X155109744Y-95882795D01*
X154940226Y-95996063D01*
X154796063Y-96140226D01*
X154682795Y-96309744D01*
X154604774Y-96498102D01*
X154565000Y-96698061D01*
X154161772Y-96698061D01*
X154059774Y-96596063D01*
X153890256Y-96482795D01*
X153701898Y-96404774D01*
X153501939Y-96365000D01*
X153298061Y-96365000D01*
X153098102Y-96404774D01*
X152909744Y-96482795D01*
X152740226Y-96596063D01*
X152596063Y-96740226D01*
X152482795Y-96909744D01*
X152404774Y-97098102D01*
X152365000Y-97298061D01*
X149565650Y-97298061D01*
X149603937Y-97259774D01*
X149717205Y-97090256D01*
X149795226Y-96901898D01*
X149835000Y-96701939D01*
X149835000Y-96498061D01*
X149795226Y-96298102D01*
X149717205Y-96109744D01*
X149603937Y-95940226D01*
X149459774Y-95796063D01*
X149290256Y-95682795D01*
X149101898Y-95604774D01*
X148901939Y-95565000D01*
X148698061Y-95565000D01*
X148498102Y-95604774D01*
X148309744Y-95682795D01*
X148140226Y-95796063D01*
X148100000Y-95836289D01*
X147959774Y-95696063D01*
X147790256Y-95582795D01*
X147601898Y-95504774D01*
X147401939Y-95465000D01*
X147198061Y-95465000D01*
X146998102Y-95504774D01*
X146809744Y-95582795D01*
X146640226Y-95696063D01*
X146496063Y-95840226D01*
X146382795Y-96009744D01*
X146304774Y-96198102D01*
X146265000Y-96398061D01*
X108610000Y-96398061D01*
X108610000Y-93798061D01*
X125965000Y-93798061D01*
X125965000Y-94001939D01*
X126004774Y-94201898D01*
X126082795Y-94390256D01*
X126196063Y-94559774D01*
X126340226Y-94703937D01*
X126509744Y-94817205D01*
X126698102Y-94895226D01*
X126898061Y-94935000D01*
X127101939Y-94935000D01*
X127301898Y-94895226D01*
X127490256Y-94817205D01*
X127659774Y-94703937D01*
X127803937Y-94559774D01*
X127917205Y-94390256D01*
X127995226Y-94201898D01*
X128035000Y-94001939D01*
X128035000Y-93798061D01*
X127995226Y-93598102D01*
X127917205Y-93409744D01*
X127803937Y-93240226D01*
X127659774Y-93096063D01*
X127490256Y-92982795D01*
X127301898Y-92904774D01*
X127101939Y-92865000D01*
X126898061Y-92865000D01*
X126698102Y-92904774D01*
X126509744Y-92982795D01*
X126340226Y-93096063D01*
X126196063Y-93240226D01*
X126082795Y-93409744D01*
X126004774Y-93598102D01*
X125965000Y-93798061D01*
X108610000Y-93798061D01*
X108610000Y-91198061D01*
X147765000Y-91198061D01*
X147765000Y-91401939D01*
X147804774Y-91601898D01*
X147882795Y-91790256D01*
X147996063Y-91959774D01*
X148140226Y-92103937D01*
X148309744Y-92217205D01*
X148498102Y-92295226D01*
X148698061Y-92335000D01*
X148901939Y-92335000D01*
X149101898Y-92295226D01*
X149290256Y-92217205D01*
X149459774Y-92103937D01*
X149603937Y-91959774D01*
X149717205Y-91790256D01*
X149795226Y-91601898D01*
X149835000Y-91401939D01*
X149835000Y-91198061D01*
X149795226Y-90998102D01*
X149795210Y-90998061D01*
X153465000Y-90998061D01*
X153465000Y-91201939D01*
X153504774Y-91401898D01*
X153582795Y-91590256D01*
X153696063Y-91759774D01*
X153840226Y-91903937D01*
X154009744Y-92017205D01*
X154198102Y-92095226D01*
X154398061Y-92135000D01*
X154601939Y-92135000D01*
X154801898Y-92095226D01*
X154990256Y-92017205D01*
X155159774Y-91903937D01*
X155303937Y-91759774D01*
X155417205Y-91590256D01*
X155495226Y-91401898D01*
X155535000Y-91201939D01*
X155535000Y-90998061D01*
X155495226Y-90798102D01*
X155417205Y-90609744D01*
X155303937Y-90440226D01*
X155159774Y-90296063D01*
X154990256Y-90182795D01*
X154801898Y-90104774D01*
X154601939Y-90065000D01*
X154398061Y-90065000D01*
X154198102Y-90104774D01*
X154009744Y-90182795D01*
X153840226Y-90296063D01*
X153696063Y-90440226D01*
X153582795Y-90609744D01*
X153504774Y-90798102D01*
X153465000Y-90998061D01*
X149795210Y-90998061D01*
X149717205Y-90809744D01*
X149603937Y-90640226D01*
X149459774Y-90496063D01*
X149290256Y-90382795D01*
X149101898Y-90304774D01*
X148901939Y-90265000D01*
X148698061Y-90265000D01*
X148498102Y-90304774D01*
X148309744Y-90382795D01*
X148140226Y-90496063D01*
X147996063Y-90640226D01*
X147882795Y-90809744D01*
X147804774Y-90998102D01*
X147765000Y-91198061D01*
X108610000Y-91198061D01*
X108610000Y-88698061D01*
X138465000Y-88698061D01*
X138465000Y-88901939D01*
X138504774Y-89101898D01*
X138582795Y-89290256D01*
X138696063Y-89459774D01*
X138840226Y-89603937D01*
X139009744Y-89717205D01*
X139198102Y-89795226D01*
X139398061Y-89835000D01*
X139601939Y-89835000D01*
X139801898Y-89795226D01*
X139990256Y-89717205D01*
X140159774Y-89603937D01*
X140303937Y-89459774D01*
X140417205Y-89290256D01*
X140495226Y-89101898D01*
X140535000Y-88901939D01*
X140535000Y-88698061D01*
X140515109Y-88598061D01*
X158765000Y-88598061D01*
X158765000Y-88801939D01*
X158804774Y-89001898D01*
X158882795Y-89190256D01*
X158996063Y-89359774D01*
X159140226Y-89503937D01*
X159309744Y-89617205D01*
X159498102Y-89695226D01*
X159698061Y-89735000D01*
X159901939Y-89735000D01*
X160101898Y-89695226D01*
X160290256Y-89617205D01*
X160459774Y-89503937D01*
X160603937Y-89359774D01*
X160717205Y-89190256D01*
X160795226Y-89001898D01*
X160835000Y-88801939D01*
X160835000Y-88598061D01*
X160795226Y-88398102D01*
X160717205Y-88209744D01*
X160603937Y-88040226D01*
X160459774Y-87896063D01*
X160290256Y-87782795D01*
X160101898Y-87704774D01*
X159901939Y-87665000D01*
X159698061Y-87665000D01*
X159498102Y-87704774D01*
X159309744Y-87782795D01*
X159140226Y-87896063D01*
X158996063Y-88040226D01*
X158882795Y-88209744D01*
X158804774Y-88398102D01*
X158765000Y-88598061D01*
X140515109Y-88598061D01*
X140495226Y-88498102D01*
X140417205Y-88309744D01*
X140303937Y-88140226D01*
X140159774Y-87996063D01*
X139990256Y-87882795D01*
X139801898Y-87804774D01*
X139601939Y-87765000D01*
X139398061Y-87765000D01*
X139198102Y-87804774D01*
X139009744Y-87882795D01*
X138840226Y-87996063D01*
X138696063Y-88140226D01*
X138582795Y-88309744D01*
X138504774Y-88498102D01*
X138465000Y-88698061D01*
X108610000Y-88698061D01*
X108610000Y-85898061D01*
X120965000Y-85898061D01*
X120965000Y-86101939D01*
X121004774Y-86301898D01*
X121082795Y-86490256D01*
X121196063Y-86659774D01*
X121340226Y-86803937D01*
X121509744Y-86917205D01*
X121698102Y-86995226D01*
X121898061Y-87035000D01*
X122101939Y-87035000D01*
X122301898Y-86995226D01*
X122490256Y-86917205D01*
X122659774Y-86803937D01*
X122803937Y-86659774D01*
X122917205Y-86490256D01*
X122995226Y-86301898D01*
X123035000Y-86101939D01*
X123035000Y-85898061D01*
X123965000Y-85898061D01*
X123965000Y-86101939D01*
X124004774Y-86301898D01*
X124082795Y-86490256D01*
X124196063Y-86659774D01*
X124340226Y-86803937D01*
X124509744Y-86917205D01*
X124698102Y-86995226D01*
X124898061Y-87035000D01*
X125101939Y-87035000D01*
X125287645Y-86998061D01*
X126965000Y-86998061D01*
X126965000Y-87201939D01*
X127004774Y-87401898D01*
X127082795Y-87590256D01*
X127196063Y-87759774D01*
X127340226Y-87903937D01*
X127509744Y-88017205D01*
X127698102Y-88095226D01*
X127898061Y-88135000D01*
X128101939Y-88135000D01*
X128301898Y-88095226D01*
X128490256Y-88017205D01*
X128659774Y-87903937D01*
X128803937Y-87759774D01*
X128917205Y-87590256D01*
X128995226Y-87401898D01*
X129035000Y-87201939D01*
X129035000Y-86998061D01*
X129015109Y-86898061D01*
X129165000Y-86898061D01*
X129165000Y-87101939D01*
X129204774Y-87301898D01*
X129282795Y-87490256D01*
X129396063Y-87659774D01*
X129540226Y-87803937D01*
X129709744Y-87917205D01*
X129898102Y-87995226D01*
X130098061Y-88035000D01*
X130301939Y-88035000D01*
X130501898Y-87995226D01*
X130690256Y-87917205D01*
X130859774Y-87803937D01*
X131003937Y-87659774D01*
X131117205Y-87490256D01*
X131195226Y-87301898D01*
X131235000Y-87101939D01*
X131235000Y-86898061D01*
X131195226Y-86698102D01*
X131117205Y-86509744D01*
X131003937Y-86340226D01*
X130859774Y-86196063D01*
X130690256Y-86082795D01*
X130501898Y-86004774D01*
X130301939Y-85965000D01*
X130098061Y-85965000D01*
X129898102Y-86004774D01*
X129709744Y-86082795D01*
X129540226Y-86196063D01*
X129396063Y-86340226D01*
X129282795Y-86509744D01*
X129204774Y-86698102D01*
X129165000Y-86898061D01*
X129015109Y-86898061D01*
X128995226Y-86798102D01*
X128917205Y-86609744D01*
X128803937Y-86440226D01*
X128659774Y-86296063D01*
X128560315Y-86229607D01*
X128590256Y-86217205D01*
X128759774Y-86103937D01*
X128903937Y-85959774D01*
X129017205Y-85790256D01*
X129095226Y-85601898D01*
X129095989Y-85598061D01*
X153965000Y-85598061D01*
X153965000Y-85801939D01*
X154004774Y-86001898D01*
X154082795Y-86190256D01*
X154196063Y-86359774D01*
X154340226Y-86503937D01*
X154509744Y-86617205D01*
X154698102Y-86695226D01*
X154898061Y-86735000D01*
X155101939Y-86735000D01*
X155301898Y-86695226D01*
X155490256Y-86617205D01*
X155659774Y-86503937D01*
X155803937Y-86359774D01*
X155917205Y-86190256D01*
X155995226Y-86001898D01*
X156035000Y-85801939D01*
X156035000Y-85598061D01*
X155995226Y-85398102D01*
X155917205Y-85209744D01*
X155803937Y-85040226D01*
X155659774Y-84896063D01*
X155490256Y-84782795D01*
X155301898Y-84704774D01*
X155101939Y-84665000D01*
X154898061Y-84665000D01*
X154698102Y-84704774D01*
X154509744Y-84782795D01*
X154340226Y-84896063D01*
X154196063Y-85040226D01*
X154082795Y-85209744D01*
X154004774Y-85398102D01*
X153965000Y-85598061D01*
X129095989Y-85598061D01*
X129135000Y-85401939D01*
X129135000Y-85198061D01*
X129095226Y-84998102D01*
X129017205Y-84809744D01*
X128903937Y-84640226D01*
X128759774Y-84496063D01*
X128590256Y-84382795D01*
X128401898Y-84304774D01*
X128201939Y-84265000D01*
X127998061Y-84265000D01*
X127798102Y-84304774D01*
X127609744Y-84382795D01*
X127440226Y-84496063D01*
X127296063Y-84640226D01*
X127182795Y-84809744D01*
X127104774Y-84998102D01*
X127065000Y-85198061D01*
X127065000Y-85401939D01*
X127104774Y-85601898D01*
X127182795Y-85790256D01*
X127296063Y-85959774D01*
X127440226Y-86103937D01*
X127539685Y-86170393D01*
X127509744Y-86182795D01*
X127340226Y-86296063D01*
X127196063Y-86440226D01*
X127082795Y-86609744D01*
X127004774Y-86798102D01*
X126965000Y-86998061D01*
X125287645Y-86998061D01*
X125301898Y-86995226D01*
X125490256Y-86917205D01*
X125659774Y-86803937D01*
X125803937Y-86659774D01*
X125917205Y-86490256D01*
X125995226Y-86301898D01*
X126035000Y-86101939D01*
X126035000Y-85898061D01*
X125995226Y-85698102D01*
X125917205Y-85509744D01*
X125803937Y-85340226D01*
X125659774Y-85196063D01*
X125490256Y-85082795D01*
X125301898Y-85004774D01*
X125101939Y-84965000D01*
X124898061Y-84965000D01*
X124698102Y-85004774D01*
X124509744Y-85082795D01*
X124340226Y-85196063D01*
X124196063Y-85340226D01*
X124082795Y-85509744D01*
X124004774Y-85698102D01*
X123965000Y-85898061D01*
X123035000Y-85898061D01*
X122995226Y-85698102D01*
X122917205Y-85509744D01*
X122803937Y-85340226D01*
X122659774Y-85196063D01*
X122490256Y-85082795D01*
X122301898Y-85004774D01*
X122101939Y-84965000D01*
X121898061Y-84965000D01*
X121698102Y-85004774D01*
X121509744Y-85082795D01*
X121340226Y-85196063D01*
X121196063Y-85340226D01*
X121082795Y-85509744D01*
X121004774Y-85698102D01*
X120965000Y-85898061D01*
X108610000Y-85898061D01*
X108610000Y-83298061D01*
X155365000Y-83298061D01*
X155365000Y-83501939D01*
X155404774Y-83701898D01*
X155482795Y-83890256D01*
X155596063Y-84059774D01*
X155740226Y-84203937D01*
X155909744Y-84317205D01*
X156098102Y-84395226D01*
X156298061Y-84435000D01*
X156501939Y-84435000D01*
X156701898Y-84395226D01*
X156890256Y-84317205D01*
X157059774Y-84203937D01*
X157203937Y-84059774D01*
X157317205Y-83890256D01*
X157395226Y-83701898D01*
X157435000Y-83501939D01*
X157435000Y-83298061D01*
X157395226Y-83098102D01*
X157317205Y-82909744D01*
X157203937Y-82740226D01*
X157059774Y-82596063D01*
X156890256Y-82482795D01*
X156701898Y-82404774D01*
X156501939Y-82365000D01*
X156298061Y-82365000D01*
X156098102Y-82404774D01*
X155909744Y-82482795D01*
X155740226Y-82596063D01*
X155596063Y-82740226D01*
X155482795Y-82909744D01*
X155404774Y-83098102D01*
X155365000Y-83298061D01*
X108610000Y-83298061D01*
X108610000Y-81298061D01*
X136665000Y-81298061D01*
X136665000Y-81501939D01*
X136704774Y-81701898D01*
X136782795Y-81890256D01*
X136896063Y-82059774D01*
X137040226Y-82203937D01*
X137209744Y-82317205D01*
X137398102Y-82395226D01*
X137598061Y-82435000D01*
X137801939Y-82435000D01*
X138001898Y-82395226D01*
X138190256Y-82317205D01*
X138359774Y-82203937D01*
X138503937Y-82059774D01*
X138617205Y-81890256D01*
X138695226Y-81701898D01*
X138735000Y-81501939D01*
X138735000Y-81298061D01*
X138695226Y-81098102D01*
X138617205Y-80909744D01*
X138542582Y-80798061D01*
X140465000Y-80798061D01*
X140465000Y-81001939D01*
X140504774Y-81201898D01*
X140582795Y-81390256D01*
X140696063Y-81559774D01*
X140840226Y-81703937D01*
X141009744Y-81817205D01*
X141198102Y-81895226D01*
X141398061Y-81935000D01*
X141601939Y-81935000D01*
X141801898Y-81895226D01*
X141990256Y-81817205D01*
X142159774Y-81703937D01*
X142303937Y-81559774D01*
X142417205Y-81390256D01*
X142495226Y-81201898D01*
X142535000Y-81001939D01*
X142535000Y-80798061D01*
X142495226Y-80598102D01*
X142417205Y-80409744D01*
X142303937Y-80240226D01*
X142159774Y-80096063D01*
X141990256Y-79982795D01*
X141801898Y-79904774D01*
X141601939Y-79865000D01*
X141398061Y-79865000D01*
X141198102Y-79904774D01*
X141009744Y-79982795D01*
X140840226Y-80096063D01*
X140696063Y-80240226D01*
X140582795Y-80409744D01*
X140504774Y-80598102D01*
X140465000Y-80798061D01*
X138542582Y-80798061D01*
X138503937Y-80740226D01*
X138359774Y-80596063D01*
X138190256Y-80482795D01*
X138001898Y-80404774D01*
X137801939Y-80365000D01*
X137598061Y-80365000D01*
X137398102Y-80404774D01*
X137209744Y-80482795D01*
X137040226Y-80596063D01*
X136896063Y-80740226D01*
X136782795Y-80909744D01*
X136704774Y-81098102D01*
X136665000Y-81298061D01*
X108610000Y-81298061D01*
X108610000Y-78898061D01*
X125165000Y-78898061D01*
X125165000Y-79101939D01*
X125204774Y-79301898D01*
X125282795Y-79490256D01*
X125396063Y-79659774D01*
X125540226Y-79803937D01*
X125709744Y-79917205D01*
X125898102Y-79995226D01*
X126098061Y-80035000D01*
X126301939Y-80035000D01*
X126501898Y-79995226D01*
X126690256Y-79917205D01*
X126859774Y-79803937D01*
X127003937Y-79659774D01*
X127117205Y-79490256D01*
X127195226Y-79301898D01*
X127235000Y-79101939D01*
X127235000Y-79098061D01*
X135965000Y-79098061D01*
X135965000Y-79301939D01*
X136004774Y-79501898D01*
X136082795Y-79690256D01*
X136196063Y-79859774D01*
X136340226Y-80003937D01*
X136509744Y-80117205D01*
X136698102Y-80195226D01*
X136898061Y-80235000D01*
X137101939Y-80235000D01*
X137301898Y-80195226D01*
X137490256Y-80117205D01*
X137659774Y-80003937D01*
X137803937Y-79859774D01*
X137917205Y-79690256D01*
X137995226Y-79501898D01*
X137995989Y-79498061D01*
X166865000Y-79498061D01*
X166865000Y-79701939D01*
X166904774Y-79901898D01*
X166982795Y-80090256D01*
X167096063Y-80259774D01*
X167240226Y-80403937D01*
X167409744Y-80517205D01*
X167598102Y-80595226D01*
X167798061Y-80635000D01*
X168001939Y-80635000D01*
X168201898Y-80595226D01*
X168281285Y-80562342D01*
X168182795Y-80709744D01*
X168104774Y-80898102D01*
X168065000Y-81098061D01*
X168065000Y-81301939D01*
X168104774Y-81501898D01*
X168182795Y-81690256D01*
X168296063Y-81859774D01*
X168440226Y-82003937D01*
X168609744Y-82117205D01*
X168798102Y-82195226D01*
X168998061Y-82235000D01*
X169201939Y-82235000D01*
X169401898Y-82195226D01*
X169590256Y-82117205D01*
X169759774Y-82003937D01*
X169903937Y-81859774D01*
X170017205Y-81690256D01*
X170095226Y-81501898D01*
X170135000Y-81301939D01*
X170135000Y-81098061D01*
X170095226Y-80898102D01*
X170017205Y-80709744D01*
X169903937Y-80540226D01*
X169759774Y-80396063D01*
X169590256Y-80282795D01*
X169401898Y-80204774D01*
X169201939Y-80165000D01*
X168998061Y-80165000D01*
X168798102Y-80204774D01*
X168718715Y-80237658D01*
X168817205Y-80090256D01*
X168895226Y-79901898D01*
X168935000Y-79701939D01*
X168935000Y-79498061D01*
X168895226Y-79298102D01*
X168817205Y-79109744D01*
X168703937Y-78940226D01*
X168559774Y-78796063D01*
X168390256Y-78682795D01*
X168201898Y-78604774D01*
X168001939Y-78565000D01*
X167798061Y-78565000D01*
X167598102Y-78604774D01*
X167409744Y-78682795D01*
X167240226Y-78796063D01*
X167096063Y-78940226D01*
X166982795Y-79109744D01*
X166904774Y-79298102D01*
X166865000Y-79498061D01*
X137995989Y-79498061D01*
X138035000Y-79301939D01*
X138035000Y-79098061D01*
X137995226Y-78898102D01*
X137917205Y-78709744D01*
X137803937Y-78540226D01*
X137659774Y-78396063D01*
X137490256Y-78282795D01*
X137301898Y-78204774D01*
X137101939Y-78165000D01*
X136898061Y-78165000D01*
X136698102Y-78204774D01*
X136509744Y-78282795D01*
X136340226Y-78396063D01*
X136196063Y-78540226D01*
X136082795Y-78709744D01*
X136004774Y-78898102D01*
X135965000Y-79098061D01*
X127235000Y-79098061D01*
X127235000Y-78898061D01*
X127195226Y-78698102D01*
X127117205Y-78509744D01*
X127003937Y-78340226D01*
X126859774Y-78196063D01*
X126690256Y-78082795D01*
X126501898Y-78004774D01*
X126301939Y-77965000D01*
X126098061Y-77965000D01*
X125898102Y-78004774D01*
X125709744Y-78082795D01*
X125540226Y-78196063D01*
X125396063Y-78340226D01*
X125282795Y-78509744D01*
X125204774Y-78698102D01*
X125165000Y-78898061D01*
X108610000Y-78898061D01*
X108610000Y-76323137D01*
X112885000Y-76323137D01*
X112885000Y-76536863D01*
X112926696Y-76746483D01*
X113008485Y-76943940D01*
X113127225Y-77121647D01*
X113278353Y-77272775D01*
X113456060Y-77391515D01*
X113653517Y-77473304D01*
X113863137Y-77515000D01*
X114076863Y-77515000D01*
X114286483Y-77473304D01*
X114483940Y-77391515D01*
X114661647Y-77272775D01*
X114736361Y-77198061D01*
X116065000Y-77198061D01*
X116065000Y-77401939D01*
X116104774Y-77601898D01*
X116182795Y-77790256D01*
X116296063Y-77959774D01*
X116440226Y-78103937D01*
X116609744Y-78217205D01*
X116798102Y-78295226D01*
X116998061Y-78335000D01*
X117201939Y-78335000D01*
X117401898Y-78295226D01*
X117590256Y-78217205D01*
X117759774Y-78103937D01*
X117903937Y-77959774D01*
X118017205Y-77790256D01*
X118095226Y-77601898D01*
X118135000Y-77401939D01*
X118135000Y-77198061D01*
X118095226Y-76998102D01*
X118017205Y-76809744D01*
X117903937Y-76640226D01*
X117759774Y-76496063D01*
X117590256Y-76382795D01*
X117401898Y-76304774D01*
X117201939Y-76265000D01*
X116998061Y-76265000D01*
X116798102Y-76304774D01*
X116609744Y-76382795D01*
X116440226Y-76496063D01*
X116296063Y-76640226D01*
X116182795Y-76809744D01*
X116104774Y-76998102D01*
X116065000Y-77198061D01*
X114736361Y-77198061D01*
X114812775Y-77121647D01*
X114931515Y-76943940D01*
X115013304Y-76746483D01*
X115055000Y-76536863D01*
X115055000Y-76323137D01*
X115013304Y-76113517D01*
X114931515Y-75916060D01*
X114852671Y-75798061D01*
X121565000Y-75798061D01*
X121565000Y-76001939D01*
X121604774Y-76201898D01*
X121682795Y-76390256D01*
X121796063Y-76559774D01*
X121940226Y-76703937D01*
X122109744Y-76817205D01*
X122298102Y-76895226D01*
X122498061Y-76935000D01*
X122701939Y-76935000D01*
X122901898Y-76895226D01*
X123090256Y-76817205D01*
X123118907Y-76798061D01*
X127065000Y-76798061D01*
X127065000Y-77001939D01*
X127104774Y-77201898D01*
X127182795Y-77390256D01*
X127296063Y-77559774D01*
X127440226Y-77703937D01*
X127609744Y-77817205D01*
X127798102Y-77895226D01*
X127998061Y-77935000D01*
X128201939Y-77935000D01*
X128401898Y-77895226D01*
X128590256Y-77817205D01*
X128752669Y-77708684D01*
X128715000Y-77898061D01*
X128715000Y-78101939D01*
X128754774Y-78301898D01*
X128832795Y-78490256D01*
X128946063Y-78659774D01*
X129090226Y-78803937D01*
X129259744Y-78917205D01*
X129448102Y-78995226D01*
X129648061Y-79035000D01*
X129851939Y-79035000D01*
X130051898Y-78995226D01*
X130240256Y-78917205D01*
X130409774Y-78803937D01*
X130553937Y-78659774D01*
X130667205Y-78490256D01*
X130745226Y-78301898D01*
X130785000Y-78101939D01*
X130785000Y-77898061D01*
X130745226Y-77698102D01*
X130667205Y-77509744D01*
X130553937Y-77340226D01*
X130411772Y-77198061D01*
X131865000Y-77198061D01*
X131865000Y-77401939D01*
X131904774Y-77601898D01*
X131982795Y-77790256D01*
X132096063Y-77959774D01*
X132240226Y-78103937D01*
X132409744Y-78217205D01*
X132598102Y-78295226D01*
X132798061Y-78335000D01*
X133001939Y-78335000D01*
X133201898Y-78295226D01*
X133390256Y-78217205D01*
X133559774Y-78103937D01*
X133703937Y-77959774D01*
X133817205Y-77790256D01*
X133895226Y-77601898D01*
X133935000Y-77401939D01*
X133935000Y-77198061D01*
X133895226Y-76998102D01*
X133817205Y-76809744D01*
X133703937Y-76640226D01*
X133559774Y-76496063D01*
X133390256Y-76382795D01*
X133201898Y-76304774D01*
X133001939Y-76265000D01*
X132798061Y-76265000D01*
X132598102Y-76304774D01*
X132409744Y-76382795D01*
X132240226Y-76496063D01*
X132096063Y-76640226D01*
X131982795Y-76809744D01*
X131904774Y-76998102D01*
X131865000Y-77198061D01*
X130411772Y-77198061D01*
X130409774Y-77196063D01*
X130240256Y-77082795D01*
X130051898Y-77004774D01*
X129851939Y-76965000D01*
X129648061Y-76965000D01*
X129448102Y-77004774D01*
X129259744Y-77082795D01*
X129097331Y-77191316D01*
X129135000Y-77001939D01*
X129135000Y-76798061D01*
X129095226Y-76598102D01*
X129017205Y-76409744D01*
X128903937Y-76240226D01*
X128759774Y-76096063D01*
X128590256Y-75982795D01*
X128401898Y-75904774D01*
X128201939Y-75865000D01*
X127998061Y-75865000D01*
X127798102Y-75904774D01*
X127609744Y-75982795D01*
X127440226Y-76096063D01*
X127296063Y-76240226D01*
X127182795Y-76409744D01*
X127104774Y-76598102D01*
X127065000Y-76798061D01*
X123118907Y-76798061D01*
X123259774Y-76703937D01*
X123403937Y-76559774D01*
X123517205Y-76390256D01*
X123595226Y-76201898D01*
X123635000Y-76001939D01*
X123635000Y-75798061D01*
X123595226Y-75598102D01*
X123517205Y-75409744D01*
X123489354Y-75368061D01*
X130465000Y-75368061D01*
X130465000Y-75571939D01*
X130504774Y-75771898D01*
X130582795Y-75960256D01*
X130696063Y-76129774D01*
X130840226Y-76273937D01*
X131009744Y-76387205D01*
X131198102Y-76465226D01*
X131398061Y-76505000D01*
X131601939Y-76505000D01*
X131801898Y-76465226D01*
X131990256Y-76387205D01*
X132159774Y-76273937D01*
X132303937Y-76129774D01*
X132417205Y-75960256D01*
X132495226Y-75771898D01*
X132535000Y-75571939D01*
X132535000Y-75368061D01*
X132495226Y-75168102D01*
X132417205Y-74979744D01*
X132303937Y-74810226D01*
X132159774Y-74666063D01*
X131990256Y-74552795D01*
X131801898Y-74474774D01*
X131601939Y-74435000D01*
X131398061Y-74435000D01*
X131198102Y-74474774D01*
X131009744Y-74552795D01*
X130840226Y-74666063D01*
X130696063Y-74810226D01*
X130582795Y-74979744D01*
X130504774Y-75168102D01*
X130465000Y-75368061D01*
X123489354Y-75368061D01*
X123403937Y-75240226D01*
X123259774Y-75096063D01*
X123090256Y-74982795D01*
X122901898Y-74904774D01*
X122701939Y-74865000D01*
X122498061Y-74865000D01*
X122298102Y-74904774D01*
X122109744Y-74982795D01*
X121940226Y-75096063D01*
X121796063Y-75240226D01*
X121682795Y-75409744D01*
X121604774Y-75598102D01*
X121565000Y-75798061D01*
X114852671Y-75798061D01*
X114812775Y-75738353D01*
X114661647Y-75587225D01*
X114483940Y-75468485D01*
X114286483Y-75386696D01*
X114076863Y-75345000D01*
X113863137Y-75345000D01*
X113653517Y-75386696D01*
X113456060Y-75468485D01*
X113278353Y-75587225D01*
X113127225Y-75738353D01*
X113008485Y-75916060D01*
X112926696Y-76113517D01*
X112885000Y-76323137D01*
X108610000Y-76323137D01*
X108610000Y-73323137D01*
X112885000Y-73323137D01*
X112885000Y-73536863D01*
X112926696Y-73746483D01*
X113008485Y-73943940D01*
X113127225Y-74121647D01*
X113278353Y-74272775D01*
X113456060Y-74391515D01*
X113653517Y-74473304D01*
X113863137Y-74515000D01*
X114076863Y-74515000D01*
X114286483Y-74473304D01*
X114483940Y-74391515D01*
X114661647Y-74272775D01*
X114812775Y-74121647D01*
X114931515Y-73943940D01*
X115013304Y-73746483D01*
X115055000Y-73536863D01*
X115055000Y-73323137D01*
X115013304Y-73113517D01*
X114931515Y-72916060D01*
X114812775Y-72738353D01*
X114722483Y-72648061D01*
X115965000Y-72648061D01*
X115965000Y-72851939D01*
X116004774Y-73051898D01*
X116082795Y-73240256D01*
X116196063Y-73409774D01*
X116340226Y-73553937D01*
X116509744Y-73667205D01*
X116698102Y-73745226D01*
X116898061Y-73785000D01*
X117101939Y-73785000D01*
X117301898Y-73745226D01*
X117490256Y-73667205D01*
X117659774Y-73553937D01*
X117803937Y-73409774D01*
X117917205Y-73240256D01*
X117995226Y-73051898D01*
X118005934Y-72998061D01*
X122365000Y-72998061D01*
X122365000Y-73201939D01*
X122404774Y-73401898D01*
X122482795Y-73590256D01*
X122596063Y-73759774D01*
X122740226Y-73903937D01*
X122909744Y-74017205D01*
X123098102Y-74095226D01*
X123298061Y-74135000D01*
X123501939Y-74135000D01*
X123701898Y-74095226D01*
X123890256Y-74017205D01*
X124059774Y-73903937D01*
X124203937Y-73759774D01*
X124317205Y-73590256D01*
X124395226Y-73401898D01*
X124395989Y-73398061D01*
X151215000Y-73398061D01*
X151215000Y-73601939D01*
X151254774Y-73801898D01*
X151332795Y-73990256D01*
X151446063Y-74159774D01*
X151590226Y-74303937D01*
X151759744Y-74417205D01*
X151948102Y-74495226D01*
X152148061Y-74535000D01*
X152351939Y-74535000D01*
X152551898Y-74495226D01*
X152740256Y-74417205D01*
X152909774Y-74303937D01*
X153053937Y-74159774D01*
X153167205Y-73990256D01*
X153245226Y-73801898D01*
X153285000Y-73601939D01*
X153285000Y-73398061D01*
X153245226Y-73198102D01*
X153167205Y-73009744D01*
X153053937Y-72840226D01*
X152909774Y-72696063D01*
X152740256Y-72582795D01*
X152551898Y-72504774D01*
X152351939Y-72465000D01*
X152148061Y-72465000D01*
X151948102Y-72504774D01*
X151759744Y-72582795D01*
X151590226Y-72696063D01*
X151446063Y-72840226D01*
X151332795Y-73009744D01*
X151254774Y-73198102D01*
X151215000Y-73398061D01*
X124395989Y-73398061D01*
X124435000Y-73201939D01*
X124435000Y-72998061D01*
X124395226Y-72798102D01*
X124317205Y-72609744D01*
X124203937Y-72440226D01*
X124059774Y-72296063D01*
X123890256Y-72182795D01*
X123701898Y-72104774D01*
X123501939Y-72065000D01*
X123298061Y-72065000D01*
X123098102Y-72104774D01*
X122909744Y-72182795D01*
X122740226Y-72296063D01*
X122596063Y-72440226D01*
X122482795Y-72609744D01*
X122404774Y-72798102D01*
X122365000Y-72998061D01*
X118005934Y-72998061D01*
X118035000Y-72851939D01*
X118035000Y-72648061D01*
X117995226Y-72448102D01*
X117917205Y-72259744D01*
X117803937Y-72090226D01*
X117659774Y-71946063D01*
X117490256Y-71832795D01*
X117301898Y-71754774D01*
X117101939Y-71715000D01*
X116898061Y-71715000D01*
X116698102Y-71754774D01*
X116509744Y-71832795D01*
X116340226Y-71946063D01*
X116196063Y-72090226D01*
X116082795Y-72259744D01*
X116004774Y-72448102D01*
X115965000Y-72648061D01*
X114722483Y-72648061D01*
X114661647Y-72587225D01*
X114483940Y-72468485D01*
X114286483Y-72386696D01*
X114076863Y-72345000D01*
X113863137Y-72345000D01*
X113653517Y-72386696D01*
X113456060Y-72468485D01*
X113278353Y-72587225D01*
X113127225Y-72738353D01*
X113008485Y-72916060D01*
X112926696Y-73113517D01*
X112885000Y-73323137D01*
X108610000Y-73323137D01*
X108610000Y-70998061D01*
X131965000Y-70998061D01*
X131965000Y-71201939D01*
X132004774Y-71401898D01*
X132082795Y-71590256D01*
X132196063Y-71759774D01*
X132340226Y-71903937D01*
X132509744Y-72017205D01*
X132698102Y-72095226D01*
X132898061Y-72135000D01*
X133101939Y-72135000D01*
X133301898Y-72095226D01*
X133490256Y-72017205D01*
X133659774Y-71903937D01*
X133803937Y-71759774D01*
X133917205Y-71590256D01*
X133995226Y-71401898D01*
X134035000Y-71201939D01*
X134035000Y-70998061D01*
X133995226Y-70798102D01*
X133917205Y-70609744D01*
X133803937Y-70440226D01*
X133661772Y-70298061D01*
X137765000Y-70298061D01*
X137765000Y-70501939D01*
X137804774Y-70701898D01*
X137882795Y-70890256D01*
X137996063Y-71059774D01*
X138140226Y-71203937D01*
X138309744Y-71317205D01*
X138498102Y-71395226D01*
X138698061Y-71435000D01*
X138901939Y-71435000D01*
X139101898Y-71395226D01*
X139290256Y-71317205D01*
X139459774Y-71203937D01*
X139603937Y-71059774D01*
X139717205Y-70890256D01*
X139795226Y-70701898D01*
X139835000Y-70501939D01*
X139835000Y-70298061D01*
X139795226Y-70098102D01*
X139742617Y-69971094D01*
X139803937Y-69909774D01*
X139917205Y-69740256D01*
X139955393Y-69648061D01*
X151215000Y-69648061D01*
X151215000Y-69851939D01*
X151254774Y-70051898D01*
X151332795Y-70240256D01*
X151446063Y-70409774D01*
X151590226Y-70553937D01*
X151759744Y-70667205D01*
X151948102Y-70745226D01*
X152148061Y-70785000D01*
X152351939Y-70785000D01*
X152551898Y-70745226D01*
X152740256Y-70667205D01*
X152909774Y-70553937D01*
X153053937Y-70409774D01*
X153167205Y-70240256D01*
X153245226Y-70051898D01*
X153285000Y-69851939D01*
X153285000Y-69648061D01*
X153245226Y-69448102D01*
X153167205Y-69259744D01*
X153053937Y-69090226D01*
X152909774Y-68946063D01*
X152740256Y-68832795D01*
X152551898Y-68754774D01*
X152351939Y-68715000D01*
X152148061Y-68715000D01*
X151948102Y-68754774D01*
X151759744Y-68832795D01*
X151590226Y-68946063D01*
X151446063Y-69090226D01*
X151332795Y-69259744D01*
X151254774Y-69448102D01*
X151215000Y-69648061D01*
X139955393Y-69648061D01*
X139995226Y-69551898D01*
X140035000Y-69351939D01*
X140035000Y-69148061D01*
X139995226Y-68948102D01*
X139917205Y-68759744D01*
X139803937Y-68590226D01*
X139659774Y-68446063D01*
X139490256Y-68332795D01*
X139301898Y-68254774D01*
X139101939Y-68215000D01*
X138898061Y-68215000D01*
X138698102Y-68254774D01*
X138509744Y-68332795D01*
X138340226Y-68446063D01*
X138196063Y-68590226D01*
X138082795Y-68759744D01*
X138004774Y-68948102D01*
X137965000Y-69148061D01*
X137965000Y-69351939D01*
X138004774Y-69551898D01*
X138057383Y-69678906D01*
X137996063Y-69740226D01*
X137882795Y-69909744D01*
X137804774Y-70098102D01*
X137765000Y-70298061D01*
X133661772Y-70298061D01*
X133659774Y-70296063D01*
X133490256Y-70182795D01*
X133301898Y-70104774D01*
X133101939Y-70065000D01*
X132898061Y-70065000D01*
X132698102Y-70104774D01*
X132509744Y-70182795D01*
X132340226Y-70296063D01*
X132196063Y-70440226D01*
X132082795Y-70609744D01*
X132004774Y-70798102D01*
X131965000Y-70998061D01*
X108610000Y-70998061D01*
X108610000Y-67398061D01*
X134465000Y-67398061D01*
X134465000Y-67601939D01*
X134504774Y-67801898D01*
X134582795Y-67990256D01*
X134696063Y-68159774D01*
X134840226Y-68303937D01*
X135009744Y-68417205D01*
X135198102Y-68495226D01*
X135398061Y-68535000D01*
X135601939Y-68535000D01*
X135801898Y-68495226D01*
X135990256Y-68417205D01*
X136159774Y-68303937D01*
X136303937Y-68159774D01*
X136345172Y-68098061D01*
X161465000Y-68098061D01*
X161465000Y-68301939D01*
X161504774Y-68501898D01*
X161582795Y-68690256D01*
X161696063Y-68859774D01*
X161840226Y-69003937D01*
X162009744Y-69117205D01*
X162198102Y-69195226D01*
X162398061Y-69235000D01*
X162601939Y-69235000D01*
X162801898Y-69195226D01*
X162990256Y-69117205D01*
X163159774Y-69003937D01*
X163200000Y-68963711D01*
X163240226Y-69003937D01*
X163285649Y-69034288D01*
X162960801Y-69168844D01*
X162660256Y-69369662D01*
X162404662Y-69625256D01*
X162203844Y-69925801D01*
X162065518Y-70259750D01*
X161995000Y-70614268D01*
X161995000Y-70975732D01*
X162065518Y-71330250D01*
X162203844Y-71664199D01*
X162404662Y-71964744D01*
X162660256Y-72220338D01*
X162960801Y-72421156D01*
X163047162Y-72456928D01*
X162630000Y-72456928D01*
X162505518Y-72469188D01*
X162385820Y-72505498D01*
X162275506Y-72564463D01*
X162178815Y-72643815D01*
X162099463Y-72740506D01*
X162040498Y-72850820D01*
X162004188Y-72970518D01*
X161991928Y-73095000D01*
X161991928Y-75495000D01*
X162004188Y-75619482D01*
X162040498Y-75739180D01*
X162099463Y-75849494D01*
X162178815Y-75946185D01*
X162275506Y-76025537D01*
X162385820Y-76084502D01*
X162505518Y-76120812D01*
X162630000Y-76133072D01*
X165030000Y-76133072D01*
X165154482Y-76120812D01*
X165274180Y-76084502D01*
X165384494Y-76025537D01*
X165481185Y-75946185D01*
X165560537Y-75849494D01*
X165619502Y-75739180D01*
X165655812Y-75619482D01*
X165668072Y-75495000D01*
X165668072Y-73095000D01*
X165655812Y-72970518D01*
X165619502Y-72850820D01*
X165560537Y-72740506D01*
X165481185Y-72643815D01*
X165384494Y-72564463D01*
X165274180Y-72505498D01*
X165154482Y-72469188D01*
X165030000Y-72456928D01*
X164612838Y-72456928D01*
X164699199Y-72421156D01*
X164999744Y-72220338D01*
X165255338Y-71964744D01*
X165456156Y-71664199D01*
X165594482Y-71330250D01*
X165665000Y-70975732D01*
X165665000Y-70614268D01*
X165594482Y-70259750D01*
X165456156Y-69925801D01*
X165255338Y-69625256D01*
X164999744Y-69369662D01*
X164699199Y-69168844D01*
X164460775Y-69070086D01*
X164559774Y-69003937D01*
X164600000Y-68963711D01*
X164640226Y-69003937D01*
X164809744Y-69117205D01*
X164998102Y-69195226D01*
X165198061Y-69235000D01*
X165401939Y-69235000D01*
X165601898Y-69195226D01*
X165790256Y-69117205D01*
X165959774Y-69003937D01*
X166103937Y-68859774D01*
X166217205Y-68690256D01*
X166295226Y-68501898D01*
X166335000Y-68301939D01*
X166335000Y-68098061D01*
X166295226Y-67898102D01*
X166217205Y-67709744D01*
X166103937Y-67540226D01*
X165959774Y-67396063D01*
X165790256Y-67282795D01*
X165601898Y-67204774D01*
X165401939Y-67165000D01*
X165198061Y-67165000D01*
X164998102Y-67204774D01*
X164809744Y-67282795D01*
X164640226Y-67396063D01*
X164600000Y-67436289D01*
X164559774Y-67396063D01*
X164390256Y-67282795D01*
X164201898Y-67204774D01*
X164001939Y-67165000D01*
X163798061Y-67165000D01*
X163598102Y-67204774D01*
X163409744Y-67282795D01*
X163240226Y-67396063D01*
X163200000Y-67436289D01*
X163159774Y-67396063D01*
X162990256Y-67282795D01*
X162801898Y-67204774D01*
X162601939Y-67165000D01*
X162398061Y-67165000D01*
X162198102Y-67204774D01*
X162009744Y-67282795D01*
X161840226Y-67396063D01*
X161696063Y-67540226D01*
X161582795Y-67709744D01*
X161504774Y-67898102D01*
X161465000Y-68098061D01*
X136345172Y-68098061D01*
X136417205Y-67990256D01*
X136495226Y-67801898D01*
X136535000Y-67601939D01*
X136535000Y-67398061D01*
X136495226Y-67198102D01*
X136417205Y-67009744D01*
X136303937Y-66840226D01*
X136159774Y-66696063D01*
X135990256Y-66582795D01*
X135801898Y-66504774D01*
X135601939Y-66465000D01*
X135398061Y-66465000D01*
X135198102Y-66504774D01*
X135009744Y-66582795D01*
X134840226Y-66696063D01*
X134696063Y-66840226D01*
X134582795Y-67009744D01*
X134504774Y-67198102D01*
X134465000Y-67398061D01*
X108610000Y-67398061D01*
X108610000Y-66098061D01*
X138265000Y-66098061D01*
X138265000Y-66301939D01*
X138304774Y-66501898D01*
X138382795Y-66690256D01*
X138496063Y-66859774D01*
X138640226Y-67003937D01*
X138809744Y-67117205D01*
X138998102Y-67195226D01*
X139198061Y-67235000D01*
X139401939Y-67235000D01*
X139601898Y-67195226D01*
X139790256Y-67117205D01*
X139959774Y-67003937D01*
X140103937Y-66859774D01*
X140217205Y-66690256D01*
X140295226Y-66501898D01*
X140335000Y-66301939D01*
X140335000Y-66098061D01*
X140315109Y-65998061D01*
X152665000Y-65998061D01*
X152665000Y-66201939D01*
X152704774Y-66401898D01*
X152782795Y-66590256D01*
X152896063Y-66759774D01*
X153040226Y-66903937D01*
X153209744Y-67017205D01*
X153398102Y-67095226D01*
X153598061Y-67135000D01*
X153801939Y-67135000D01*
X154001898Y-67095226D01*
X154190256Y-67017205D01*
X154359774Y-66903937D01*
X154503937Y-66759774D01*
X154617205Y-66590256D01*
X154695226Y-66401898D01*
X154735000Y-66201939D01*
X154735000Y-65998061D01*
X154695226Y-65798102D01*
X154617205Y-65609744D01*
X154503937Y-65440226D01*
X154359774Y-65296063D01*
X154190256Y-65182795D01*
X154001898Y-65104774D01*
X153801939Y-65065000D01*
X153598061Y-65065000D01*
X153398102Y-65104774D01*
X153209744Y-65182795D01*
X153040226Y-65296063D01*
X152896063Y-65440226D01*
X152782795Y-65609744D01*
X152704774Y-65798102D01*
X152665000Y-65998061D01*
X140315109Y-65998061D01*
X140295226Y-65898102D01*
X140217205Y-65709744D01*
X140103937Y-65540226D01*
X139959774Y-65396063D01*
X139790256Y-65282795D01*
X139601898Y-65204774D01*
X139401939Y-65165000D01*
X139198061Y-65165000D01*
X138998102Y-65204774D01*
X138809744Y-65282795D01*
X138640226Y-65396063D01*
X138496063Y-65540226D01*
X138382795Y-65709744D01*
X138304774Y-65898102D01*
X138265000Y-66098061D01*
X108610000Y-66098061D01*
X108610000Y-64198061D01*
X134965000Y-64198061D01*
X134965000Y-64401939D01*
X135004774Y-64601898D01*
X135082795Y-64790256D01*
X135196063Y-64959774D01*
X135340226Y-65103937D01*
X135509744Y-65217205D01*
X135698102Y-65295226D01*
X135898061Y-65335000D01*
X136101939Y-65335000D01*
X136301898Y-65295226D01*
X136490256Y-65217205D01*
X136659774Y-65103937D01*
X136803937Y-64959774D01*
X136917205Y-64790256D01*
X136995226Y-64601898D01*
X137035000Y-64401939D01*
X137035000Y-64198061D01*
X136995226Y-63998102D01*
X136917205Y-63809744D01*
X136803937Y-63640226D01*
X136659774Y-63496063D01*
X136490256Y-63382795D01*
X136301898Y-63304774D01*
X136101939Y-63265000D01*
X135898061Y-63265000D01*
X135698102Y-63304774D01*
X135509744Y-63382795D01*
X135340226Y-63496063D01*
X135196063Y-63640226D01*
X135082795Y-63809744D01*
X135004774Y-63998102D01*
X134965000Y-64198061D01*
X108610000Y-64198061D01*
X108610000Y-62798061D01*
X157965000Y-62798061D01*
X157965000Y-63001939D01*
X158004774Y-63201898D01*
X158082795Y-63390256D01*
X158196063Y-63559774D01*
X158340226Y-63703937D01*
X158509744Y-63817205D01*
X158698102Y-63895226D01*
X158898061Y-63935000D01*
X159101939Y-63935000D01*
X159301898Y-63895226D01*
X159490256Y-63817205D01*
X159659774Y-63703937D01*
X159803937Y-63559774D01*
X159917205Y-63390256D01*
X159995226Y-63201898D01*
X160035000Y-63001939D01*
X160035000Y-62798061D01*
X159995226Y-62598102D01*
X159917205Y-62409744D01*
X159803937Y-62240226D01*
X159659774Y-62096063D01*
X159490256Y-61982795D01*
X159301898Y-61904774D01*
X159101939Y-61865000D01*
X158898061Y-61865000D01*
X158698102Y-61904774D01*
X158509744Y-61982795D01*
X158340226Y-62096063D01*
X158196063Y-62240226D01*
X158082795Y-62409744D01*
X158004774Y-62598102D01*
X157965000Y-62798061D01*
X108610000Y-62798061D01*
X108610000Y-61598061D01*
X122065000Y-61598061D01*
X122065000Y-61801939D01*
X122104774Y-62001898D01*
X122182795Y-62190256D01*
X122296063Y-62359774D01*
X122440226Y-62503937D01*
X122609744Y-62617205D01*
X122798102Y-62695226D01*
X122998061Y-62735000D01*
X123201939Y-62735000D01*
X123401898Y-62695226D01*
X123590256Y-62617205D01*
X123759774Y-62503937D01*
X123903937Y-62359774D01*
X124017205Y-62190256D01*
X124095226Y-62001898D01*
X124135000Y-61801939D01*
X124135000Y-61598061D01*
X124095226Y-61398102D01*
X124017205Y-61209744D01*
X123903937Y-61040226D01*
X123759774Y-60896063D01*
X123714068Y-60865523D01*
X123827797Y-60804734D01*
X123875000Y-60765996D01*
X123922203Y-60804734D01*
X124102007Y-60900841D01*
X124297105Y-60960024D01*
X124500000Y-60980007D01*
X124702894Y-60960024D01*
X124897992Y-60900841D01*
X125077797Y-60804734D01*
X125125000Y-60765996D01*
X125172203Y-60804734D01*
X125352007Y-60900841D01*
X125547105Y-60960024D01*
X125750000Y-60980007D01*
X125952894Y-60960024D01*
X126147992Y-60900841D01*
X126229406Y-60857324D01*
X126245506Y-60870537D01*
X126355820Y-60929502D01*
X126475518Y-60965812D01*
X126600000Y-60978072D01*
X126714250Y-60975000D01*
X126873000Y-60816250D01*
X126873000Y-59817000D01*
X127127000Y-59817000D01*
X127127000Y-60816250D01*
X127285750Y-60975000D01*
X127400000Y-60978072D01*
X127524482Y-60965812D01*
X127644180Y-60929502D01*
X127754494Y-60870537D01*
X127851185Y-60791185D01*
X127930537Y-60694494D01*
X127989502Y-60584180D01*
X128025812Y-60464482D01*
X128032353Y-60398061D01*
X138665000Y-60398061D01*
X138665000Y-60601939D01*
X138704774Y-60801898D01*
X138782795Y-60990256D01*
X138896063Y-61159774D01*
X139040226Y-61303937D01*
X139209744Y-61417205D01*
X139398102Y-61495226D01*
X139598061Y-61535000D01*
X139801939Y-61535000D01*
X140001898Y-61495226D01*
X140190256Y-61417205D01*
X140200000Y-61410694D01*
X140209744Y-61417205D01*
X140398102Y-61495226D01*
X140598061Y-61535000D01*
X140801939Y-61535000D01*
X141001898Y-61495226D01*
X141190256Y-61417205D01*
X141359774Y-61303937D01*
X141503937Y-61159774D01*
X141617205Y-60990256D01*
X141695226Y-60801898D01*
X141735000Y-60601939D01*
X141735000Y-60398061D01*
X141695226Y-60198102D01*
X141617205Y-60009744D01*
X141503937Y-59840226D01*
X141359774Y-59696063D01*
X141213104Y-59598061D01*
X155665000Y-59598061D01*
X155665000Y-59801939D01*
X155704774Y-60001898D01*
X155782795Y-60190256D01*
X155896063Y-60359774D01*
X156040226Y-60503937D01*
X156209744Y-60617205D01*
X156398102Y-60695226D01*
X156598061Y-60735000D01*
X156801939Y-60735000D01*
X157001898Y-60695226D01*
X157190256Y-60617205D01*
X157359774Y-60503937D01*
X157503937Y-60359774D01*
X157617205Y-60190256D01*
X157695226Y-60001898D01*
X157735000Y-59801939D01*
X157735000Y-59698061D01*
X157865000Y-59698061D01*
X157865000Y-59901939D01*
X157904774Y-60101898D01*
X157982795Y-60290256D01*
X158096063Y-60459774D01*
X158240226Y-60603937D01*
X158409744Y-60717205D01*
X158598102Y-60795226D01*
X158798061Y-60835000D01*
X159001939Y-60835000D01*
X159201898Y-60795226D01*
X159390256Y-60717205D01*
X159559774Y-60603937D01*
X159703937Y-60459774D01*
X159817205Y-60290256D01*
X159895226Y-60101898D01*
X159935000Y-59901939D01*
X159935000Y-59698061D01*
X159895226Y-59498102D01*
X159817205Y-59309744D01*
X159703937Y-59140226D01*
X159559774Y-58996063D01*
X159390256Y-58882795D01*
X159201898Y-58804774D01*
X159001939Y-58765000D01*
X158798061Y-58765000D01*
X158598102Y-58804774D01*
X158409744Y-58882795D01*
X158240226Y-58996063D01*
X158096063Y-59140226D01*
X157982795Y-59309744D01*
X157904774Y-59498102D01*
X157865000Y-59698061D01*
X157735000Y-59698061D01*
X157735000Y-59598061D01*
X157695226Y-59398102D01*
X157617205Y-59209744D01*
X157503937Y-59040226D01*
X157359774Y-58896063D01*
X157190256Y-58782795D01*
X157001898Y-58704774D01*
X156801939Y-58665000D01*
X156598061Y-58665000D01*
X156398102Y-58704774D01*
X156209744Y-58782795D01*
X156040226Y-58896063D01*
X155896063Y-59040226D01*
X155782795Y-59209744D01*
X155704774Y-59398102D01*
X155665000Y-59598061D01*
X141213104Y-59598061D01*
X141190256Y-59582795D01*
X141001898Y-59504774D01*
X140801939Y-59465000D01*
X140598061Y-59465000D01*
X140398102Y-59504774D01*
X140209744Y-59582795D01*
X140200000Y-59589306D01*
X140190256Y-59582795D01*
X140001898Y-59504774D01*
X139801939Y-59465000D01*
X139598061Y-59465000D01*
X139398102Y-59504774D01*
X139209744Y-59582795D01*
X139040226Y-59696063D01*
X138896063Y-59840226D01*
X138782795Y-60009744D01*
X138704774Y-60198102D01*
X138665000Y-60398061D01*
X128032353Y-60398061D01*
X128038072Y-60340000D01*
X128035000Y-59975750D01*
X127876250Y-59817000D01*
X127127000Y-59817000D01*
X126873000Y-59817000D01*
X126853000Y-59817000D01*
X126853000Y-59563000D01*
X126873000Y-59563000D01*
X126873000Y-58563750D01*
X127127000Y-58563750D01*
X127127000Y-59563000D01*
X127876250Y-59563000D01*
X128035000Y-59404250D01*
X128038072Y-59040000D01*
X128025812Y-58915518D01*
X127989502Y-58795820D01*
X127930537Y-58685506D01*
X127858773Y-58598061D01*
X135065000Y-58598061D01*
X135065000Y-58801939D01*
X135104774Y-59001898D01*
X135182795Y-59190256D01*
X135296063Y-59359774D01*
X135440226Y-59503937D01*
X135609744Y-59617205D01*
X135798102Y-59695226D01*
X135998061Y-59735000D01*
X136201939Y-59735000D01*
X136401898Y-59695226D01*
X136590256Y-59617205D01*
X136759774Y-59503937D01*
X136903937Y-59359774D01*
X137017205Y-59190256D01*
X137095226Y-59001898D01*
X137135000Y-58801939D01*
X137135000Y-58598061D01*
X137095226Y-58398102D01*
X137017205Y-58209744D01*
X136903937Y-58040226D01*
X136759774Y-57896063D01*
X136590256Y-57782795D01*
X136401898Y-57704774D01*
X136201939Y-57665000D01*
X135998061Y-57665000D01*
X135798102Y-57704774D01*
X135609744Y-57782795D01*
X135440226Y-57896063D01*
X135296063Y-58040226D01*
X135182795Y-58209744D01*
X135104774Y-58398102D01*
X135065000Y-58598061D01*
X127858773Y-58598061D01*
X127851185Y-58588815D01*
X127754494Y-58509463D01*
X127644180Y-58450498D01*
X127524482Y-58414188D01*
X127400000Y-58401928D01*
X127285750Y-58405000D01*
X127127000Y-58563750D01*
X126873000Y-58563750D01*
X126714250Y-58405000D01*
X126600000Y-58401928D01*
X126475518Y-58414188D01*
X126355820Y-58450498D01*
X126245506Y-58509463D01*
X126229407Y-58522675D01*
X126147993Y-58479159D01*
X125952895Y-58419976D01*
X125750000Y-58399993D01*
X125547106Y-58419976D01*
X125352008Y-58479159D01*
X125172204Y-58575266D01*
X125125000Y-58614005D01*
X125077797Y-58575266D01*
X124897993Y-58479159D01*
X124702895Y-58419976D01*
X124500000Y-58399993D01*
X124297106Y-58419976D01*
X124102008Y-58479159D01*
X123922204Y-58575266D01*
X123875000Y-58614005D01*
X123827797Y-58575266D01*
X123647993Y-58479159D01*
X123452895Y-58419976D01*
X123250000Y-58399993D01*
X123047106Y-58419976D01*
X122852008Y-58479159D01*
X122672204Y-58575266D01*
X122514605Y-58704604D01*
X122385267Y-58862203D01*
X122289159Y-59042007D01*
X122229976Y-59237105D01*
X122215000Y-59389162D01*
X122215000Y-59990837D01*
X122229976Y-60142894D01*
X122289159Y-60337992D01*
X122385266Y-60517797D01*
X122514604Y-60675396D01*
X122633487Y-60772960D01*
X122609744Y-60782795D01*
X122440226Y-60896063D01*
X122296063Y-61040226D01*
X122182795Y-61209744D01*
X122104774Y-61398102D01*
X122065000Y-61598061D01*
X108610000Y-61598061D01*
X108610000Y-57525000D01*
X162961686Y-57525000D01*
X162974912Y-57659283D01*
X163014081Y-57788406D01*
X163077688Y-57907407D01*
X163112644Y-57950000D01*
X163077688Y-57992593D01*
X163014081Y-58111594D01*
X162974912Y-58240717D01*
X162961686Y-58375000D01*
X162965000Y-58408647D01*
X162965001Y-62241343D01*
X162961686Y-62275000D01*
X162974912Y-62409283D01*
X163014081Y-62538406D01*
X163077688Y-62657407D01*
X163112644Y-62700000D01*
X163077688Y-62742593D01*
X163014081Y-62861594D01*
X162974912Y-62990717D01*
X162961686Y-63125000D01*
X162965000Y-63158648D01*
X162965001Y-64108647D01*
X162974913Y-64209283D01*
X163014082Y-64338406D01*
X163077689Y-64457407D01*
X163163290Y-64561711D01*
X163267594Y-64647312D01*
X163386595Y-64710919D01*
X163515718Y-64750088D01*
X163540534Y-64752532D01*
X163596324Y-64936447D01*
X163701716Y-65133623D01*
X163843551Y-65306449D01*
X164016377Y-65448284D01*
X164213553Y-65553676D01*
X164427501Y-65618577D01*
X164594248Y-65635000D01*
X165605752Y-65635000D01*
X165772499Y-65618577D01*
X165986447Y-65553676D01*
X166183623Y-65448284D01*
X166356449Y-65306449D01*
X166498284Y-65133623D01*
X166603676Y-64936447D01*
X166668577Y-64722499D01*
X166690491Y-64500000D01*
X166668577Y-64277501D01*
X166603676Y-64063553D01*
X166498284Y-63866377D01*
X166356449Y-63693551D01*
X166183623Y-63551716D01*
X166023884Y-63466334D01*
X166056454Y-63433991D01*
X166062499Y-63426579D01*
X166114473Y-63361936D01*
X166148485Y-63309960D01*
X166183184Y-63258516D01*
X166187674Y-63250072D01*
X166226103Y-63176566D01*
X166249360Y-63119001D01*
X166273419Y-63061768D01*
X166276183Y-63052612D01*
X166299602Y-62973040D01*
X166311236Y-62912051D01*
X166323719Y-62851243D01*
X166324652Y-62841724D01*
X166324653Y-62841719D01*
X166324653Y-62841713D01*
X166332170Y-62759120D01*
X166331737Y-62697031D01*
X166332170Y-62634942D01*
X166331237Y-62625424D01*
X166323309Y-62550000D01*
X166834388Y-62550000D01*
X166856785Y-62777400D01*
X166923115Y-62996060D01*
X167030829Y-63197579D01*
X167175788Y-63374212D01*
X167352421Y-63519171D01*
X167553940Y-63626885D01*
X167772600Y-63693215D01*
X167943021Y-63710000D01*
X168256979Y-63710000D01*
X168427400Y-63693215D01*
X168646060Y-63626885D01*
X168847579Y-63519171D01*
X169024212Y-63374212D01*
X169169171Y-63197579D01*
X169276885Y-62996060D01*
X169343215Y-62777400D01*
X169365612Y-62550000D01*
X169343215Y-62322600D01*
X169276885Y-62103940D01*
X169169171Y-61902421D01*
X169024212Y-61725788D01*
X168847579Y-61580829D01*
X168646060Y-61473115D01*
X168427400Y-61406785D01*
X168256979Y-61390000D01*
X167943021Y-61390000D01*
X167772600Y-61406785D01*
X167553940Y-61473115D01*
X167352421Y-61580829D01*
X167175788Y-61725788D01*
X167030829Y-61902421D01*
X166923115Y-62103940D01*
X166856785Y-62322600D01*
X166834388Y-62550000D01*
X166323309Y-62550000D01*
X166322566Y-62542933D01*
X166310078Y-62482102D01*
X166298450Y-62421143D01*
X166295686Y-62411987D01*
X166271159Y-62332751D01*
X166247096Y-62275507D01*
X166223841Y-62217948D01*
X166219351Y-62209503D01*
X166179900Y-62136540D01*
X166145185Y-62085073D01*
X166111191Y-62033124D01*
X166105146Y-62025712D01*
X166052275Y-61961800D01*
X166008214Y-61918045D01*
X165964776Y-61873689D01*
X165957407Y-61867592D01*
X165893128Y-61815168D01*
X165841417Y-61780812D01*
X165790191Y-61745737D01*
X165781777Y-61741188D01*
X165708541Y-61702248D01*
X165651162Y-61678599D01*
X165594080Y-61654133D01*
X165584943Y-61651305D01*
X165505538Y-61627331D01*
X165444677Y-61615280D01*
X165383905Y-61602363D01*
X165374394Y-61601363D01*
X165291843Y-61593269D01*
X165291837Y-61593269D01*
X165258647Y-61590000D01*
X164335000Y-61590000D01*
X164335000Y-59060000D01*
X165258647Y-59060000D01*
X165292263Y-59056689D01*
X165297780Y-59056689D01*
X165307292Y-59055690D01*
X165342477Y-59051743D01*
X165359283Y-59050088D01*
X165360485Y-59049723D01*
X165389720Y-59046444D01*
X165450473Y-59033530D01*
X165511347Y-59021477D01*
X165520483Y-59018649D01*
X165520482Y-59018649D01*
X165520488Y-59018648D01*
X165520493Y-59018646D01*
X165599547Y-58993569D01*
X165656632Y-58969102D01*
X165714016Y-58945450D01*
X165722422Y-58940905D01*
X165722425Y-58940904D01*
X165722427Y-58940903D01*
X165722430Y-58940901D01*
X165795116Y-58900941D01*
X165846385Y-58865836D01*
X165898049Y-58831511D01*
X165905419Y-58825415D01*
X165968958Y-58772099D01*
X166012378Y-58727760D01*
X166056454Y-58683991D01*
X166062499Y-58676579D01*
X166114473Y-58611936D01*
X166148485Y-58559960D01*
X166183184Y-58508516D01*
X166187674Y-58500072D01*
X166226103Y-58426566D01*
X166249360Y-58369001D01*
X166273419Y-58311768D01*
X166276183Y-58302612D01*
X166299602Y-58223040D01*
X166311236Y-58162051D01*
X166323719Y-58101243D01*
X166323840Y-58100000D01*
X166834388Y-58100000D01*
X166856785Y-58327400D01*
X166923115Y-58546060D01*
X167030829Y-58747579D01*
X167175788Y-58924212D01*
X167352421Y-59069171D01*
X167553940Y-59176885D01*
X167772600Y-59243215D01*
X167943021Y-59260000D01*
X168256979Y-59260000D01*
X168427400Y-59243215D01*
X168646060Y-59176885D01*
X168847579Y-59069171D01*
X169024212Y-58924212D01*
X169169171Y-58747579D01*
X169276885Y-58546060D01*
X169343215Y-58327400D01*
X169365612Y-58100000D01*
X169343215Y-57872600D01*
X169276885Y-57653940D01*
X169169171Y-57452421D01*
X169024212Y-57275788D01*
X168847579Y-57130829D01*
X168646060Y-57023115D01*
X168427400Y-56956785D01*
X168256979Y-56940000D01*
X167943021Y-56940000D01*
X167772600Y-56956785D01*
X167553940Y-57023115D01*
X167352421Y-57130829D01*
X167175788Y-57275788D01*
X167030829Y-57452421D01*
X166923115Y-57653940D01*
X166856785Y-57872600D01*
X166834388Y-58100000D01*
X166323840Y-58100000D01*
X166324652Y-58091724D01*
X166324653Y-58091719D01*
X166324653Y-58091713D01*
X166332170Y-58009120D01*
X166331737Y-57947031D01*
X166332170Y-57884942D01*
X166331237Y-57875424D01*
X166322566Y-57792933D01*
X166310078Y-57732102D01*
X166298450Y-57671143D01*
X166295686Y-57661987D01*
X166271159Y-57582751D01*
X166247096Y-57525507D01*
X166223841Y-57467948D01*
X166219351Y-57459503D01*
X166179900Y-57386540D01*
X166145185Y-57335073D01*
X166111191Y-57283124D01*
X166105146Y-57275712D01*
X166052275Y-57211800D01*
X166023923Y-57183645D01*
X166183623Y-57098284D01*
X166356449Y-56956449D01*
X166498284Y-56783623D01*
X166603676Y-56586447D01*
X166668577Y-56372499D01*
X166690491Y-56150000D01*
X166668577Y-55927501D01*
X166603676Y-55713553D01*
X166498284Y-55516377D01*
X166356449Y-55343551D01*
X166183623Y-55201716D01*
X165986447Y-55096324D01*
X165772499Y-55031423D01*
X165605752Y-55015000D01*
X164594248Y-55015000D01*
X164427501Y-55031423D01*
X164213553Y-55096324D01*
X164016377Y-55201716D01*
X163843551Y-55343551D01*
X163701716Y-55516377D01*
X163596324Y-55713553D01*
X163540534Y-55897468D01*
X163515717Y-55899912D01*
X163386594Y-55939081D01*
X163267593Y-56002688D01*
X163163289Y-56088290D01*
X163077688Y-56192594D01*
X163014081Y-56311595D01*
X162974912Y-56440718D01*
X162965000Y-56541354D01*
X162965001Y-57491344D01*
X162961686Y-57525000D01*
X108610000Y-57525000D01*
X108610000Y-55298061D01*
X142465000Y-55298061D01*
X142465000Y-55501939D01*
X142504774Y-55701898D01*
X142582795Y-55890256D01*
X142696063Y-56059774D01*
X142840226Y-56203937D01*
X143009744Y-56317205D01*
X143198102Y-56395226D01*
X143398061Y-56435000D01*
X143601939Y-56435000D01*
X143801898Y-56395226D01*
X143990256Y-56317205D01*
X144159774Y-56203937D01*
X144303937Y-56059774D01*
X144305796Y-56056991D01*
X144398102Y-56095226D01*
X144598061Y-56135000D01*
X144801939Y-56135000D01*
X145001898Y-56095226D01*
X145190256Y-56017205D01*
X145359774Y-55903937D01*
X145503937Y-55759774D01*
X145617205Y-55590256D01*
X145695226Y-55401898D01*
X145735000Y-55201939D01*
X145735000Y-54998061D01*
X145695226Y-54798102D01*
X145617205Y-54609744D01*
X145503937Y-54440226D01*
X145359774Y-54296063D01*
X145190256Y-54182795D01*
X145001898Y-54104774D01*
X144801939Y-54065000D01*
X144598061Y-54065000D01*
X144398102Y-54104774D01*
X144209744Y-54182795D01*
X144040226Y-54296063D01*
X143896063Y-54440226D01*
X143894204Y-54443009D01*
X143801898Y-54404774D01*
X143601939Y-54365000D01*
X143398061Y-54365000D01*
X143198102Y-54404774D01*
X143009744Y-54482795D01*
X142840226Y-54596063D01*
X142696063Y-54740226D01*
X142582795Y-54909744D01*
X142504774Y-55098102D01*
X142465000Y-55298061D01*
X108610000Y-55298061D01*
X108610000Y-50412984D01*
X109294431Y-49630777D01*
X110195000Y-49630777D01*
X110195000Y-50189223D01*
X110303948Y-50736939D01*
X110517656Y-51252876D01*
X110827912Y-51717207D01*
X111222793Y-52112088D01*
X111687124Y-52422344D01*
X112203061Y-52636052D01*
X112750777Y-52745000D01*
X113309223Y-52745000D01*
X113856939Y-52636052D01*
X114372876Y-52422344D01*
X114837207Y-52112088D01*
X115232088Y-51717207D01*
X115542344Y-51252876D01*
X115756052Y-50736939D01*
X115843350Y-50298061D01*
X139865000Y-50298061D01*
X139865000Y-50501939D01*
X139904774Y-50701898D01*
X139982795Y-50890256D01*
X140096063Y-51059774D01*
X140240226Y-51203937D01*
X140409744Y-51317205D01*
X140598102Y-51395226D01*
X140798061Y-51435000D01*
X141001939Y-51435000D01*
X141187645Y-51398061D01*
X143465000Y-51398061D01*
X143465000Y-51601939D01*
X143504774Y-51801898D01*
X143582795Y-51990256D01*
X143696063Y-52159774D01*
X143840226Y-52303937D01*
X144009744Y-52417205D01*
X144198102Y-52495226D01*
X144398061Y-52535000D01*
X144601939Y-52535000D01*
X144801898Y-52495226D01*
X144990256Y-52417205D01*
X145159774Y-52303937D01*
X145303937Y-52159774D01*
X145417205Y-51990256D01*
X145495226Y-51801898D01*
X145535000Y-51601939D01*
X145535000Y-51398061D01*
X145495226Y-51198102D01*
X145417205Y-51009744D01*
X145303937Y-50840226D01*
X145159774Y-50696063D01*
X145013104Y-50598061D01*
X164665000Y-50598061D01*
X164665000Y-50801939D01*
X164704774Y-51001898D01*
X164782795Y-51190256D01*
X164896063Y-51359774D01*
X165040226Y-51503937D01*
X165209744Y-51617205D01*
X165398102Y-51695226D01*
X165598061Y-51735000D01*
X165801939Y-51735000D01*
X166001898Y-51695226D01*
X166190256Y-51617205D01*
X166359774Y-51503937D01*
X166503937Y-51359774D01*
X166617205Y-51190256D01*
X166695226Y-51001898D01*
X166735000Y-50801939D01*
X166735000Y-50598061D01*
X166695226Y-50398102D01*
X166617205Y-50209744D01*
X166503937Y-50040226D01*
X166359774Y-49896063D01*
X166190256Y-49782795D01*
X166001898Y-49704774D01*
X165801939Y-49665000D01*
X165598061Y-49665000D01*
X165398102Y-49704774D01*
X165209744Y-49782795D01*
X165040226Y-49896063D01*
X164896063Y-50040226D01*
X164782795Y-50209744D01*
X164704774Y-50398102D01*
X164665000Y-50598061D01*
X145013104Y-50598061D01*
X144990256Y-50582795D01*
X144801898Y-50504774D01*
X144601939Y-50465000D01*
X144398061Y-50465000D01*
X144198102Y-50504774D01*
X144009744Y-50582795D01*
X143840226Y-50696063D01*
X143696063Y-50840226D01*
X143582795Y-51009744D01*
X143504774Y-51198102D01*
X143465000Y-51398061D01*
X141187645Y-51398061D01*
X141201898Y-51395226D01*
X141390256Y-51317205D01*
X141559774Y-51203937D01*
X141703937Y-51059774D01*
X141817205Y-50890256D01*
X141895226Y-50701898D01*
X141935000Y-50501939D01*
X141935000Y-50298061D01*
X141895226Y-50098102D01*
X141817205Y-49909744D01*
X141703937Y-49740226D01*
X141559774Y-49596063D01*
X141390256Y-49482795D01*
X141201898Y-49404774D01*
X141001939Y-49365000D01*
X140798061Y-49365000D01*
X140598102Y-49404774D01*
X140409744Y-49482795D01*
X140240226Y-49596063D01*
X140096063Y-49740226D01*
X139982795Y-49909744D01*
X139904774Y-50098102D01*
X139865000Y-50298061D01*
X115843350Y-50298061D01*
X115865000Y-50189223D01*
X115865000Y-49630777D01*
X115756052Y-49083061D01*
X115542344Y-48567124D01*
X115232088Y-48102793D01*
X114837207Y-47707912D01*
X114372876Y-47397656D01*
X113856939Y-47183948D01*
X113309223Y-47075000D01*
X112750777Y-47075000D01*
X112203061Y-47183948D01*
X111687124Y-47397656D01*
X111222793Y-47707912D01*
X110827912Y-48102793D01*
X110517656Y-48567124D01*
X110303948Y-49083061D01*
X110195000Y-49630777D01*
X109294431Y-49630777D01*
X112694486Y-45745000D01*
X169245514Y-45745000D01*
X170952488Y-47695828D01*
%TA.AperFunction,Conductor*%
D19*
G36*
X170952488Y-47695828D02*
G01*
X170887876Y-47652656D01*
X170371939Y-47438948D01*
X169824223Y-47330000D01*
X169265777Y-47330000D01*
X168718061Y-47438948D01*
X168202124Y-47652656D01*
X168001717Y-47786564D01*
X167903937Y-47640226D01*
X167759774Y-47496063D01*
X167590256Y-47382795D01*
X167401898Y-47304774D01*
X167201939Y-47265000D01*
X166998061Y-47265000D01*
X166798102Y-47304774D01*
X166609744Y-47382795D01*
X166440226Y-47496063D01*
X166296063Y-47640226D01*
X166182795Y-47809744D01*
X166104774Y-47998102D01*
X166065000Y-48198061D01*
X166065000Y-48401939D01*
X166104774Y-48601898D01*
X166182795Y-48790256D01*
X166296063Y-48959774D01*
X166440226Y-49103937D01*
X166609744Y-49217205D01*
X166798102Y-49295226D01*
X166833753Y-49302317D01*
X166818948Y-49338061D01*
X166710000Y-49885777D01*
X166710000Y-50444223D01*
X166818948Y-50991939D01*
X167028839Y-51498660D01*
X166998102Y-51504774D01*
X166809744Y-51582795D01*
X166640226Y-51696063D01*
X166496063Y-51840226D01*
X166382795Y-52009744D01*
X166304774Y-52198102D01*
X166265000Y-52398061D01*
X166265000Y-52601939D01*
X166304774Y-52801898D01*
X166382795Y-52990256D01*
X166496063Y-53159774D01*
X166640226Y-53303937D01*
X166809744Y-53417205D01*
X166998102Y-53495226D01*
X167198061Y-53535000D01*
X167401939Y-53535000D01*
X167601898Y-53495226D01*
X167790256Y-53417205D01*
X167959774Y-53303937D01*
X168103937Y-53159774D01*
X168217205Y-52990256D01*
X168295226Y-52801898D01*
X168311028Y-52722454D01*
X168718061Y-52891052D01*
X169265777Y-53000000D01*
X169824223Y-53000000D01*
X170371939Y-52891052D01*
X170887876Y-52677344D01*
X171352207Y-52367088D01*
X171747088Y-51972207D01*
X172057344Y-51507876D01*
X172271052Y-50991939D01*
X172380000Y-50444223D01*
X172380000Y-49885777D01*
X172271052Y-49338061D01*
X172164629Y-49081133D01*
X173330001Y-50412987D01*
X173330000Y-107730000D01*
X172764200Y-108484400D01*
X172906052Y-108141939D01*
X173015000Y-107594223D01*
X173015000Y-107035777D01*
X172906052Y-106488061D01*
X172692344Y-105972124D01*
X172382088Y-105507793D01*
X171987207Y-105112912D01*
X171522876Y-104802656D01*
X171006939Y-104588948D01*
X170459223Y-104480000D01*
X169900777Y-104480000D01*
X169353061Y-104588948D01*
X168837124Y-104802656D01*
X168372793Y-105112912D01*
X167977912Y-105507793D01*
X167667656Y-105972124D01*
X167453948Y-106488061D01*
X167345000Y-107035777D01*
X167345000Y-107594223D01*
X167453948Y-108141939D01*
X167667656Y-108657876D01*
X167977912Y-109122207D01*
X168372793Y-109517088D01*
X168837124Y-109827344D01*
X169353061Y-110041052D01*
X169900777Y-110150000D01*
X170459223Y-110150000D01*
X171006939Y-110041052D01*
X171522876Y-109827344D01*
X171987207Y-109517088D01*
X171997116Y-109507179D01*
X169850001Y-112370000D01*
X112113221Y-112370000D01*
X110768472Y-110352877D01*
X110933061Y-110421052D01*
X111480777Y-110530000D01*
X112039223Y-110530000D01*
X112586939Y-110421052D01*
X113102876Y-110207344D01*
X113565750Y-109898061D01*
X156465000Y-109898061D01*
X156465000Y-110101939D01*
X156504774Y-110301898D01*
X156582795Y-110490256D01*
X156696063Y-110659774D01*
X156840226Y-110803937D01*
X157009744Y-110917205D01*
X157198102Y-110995226D01*
X157398061Y-111035000D01*
X157601939Y-111035000D01*
X157801898Y-110995226D01*
X157990256Y-110917205D01*
X158159774Y-110803937D01*
X158303937Y-110659774D01*
X158417205Y-110490256D01*
X158495226Y-110301898D01*
X158535000Y-110101939D01*
X158535000Y-109898061D01*
X158519741Y-109821346D01*
X158698102Y-109895226D01*
X158898061Y-109935000D01*
X159101939Y-109935000D01*
X159301898Y-109895226D01*
X159490256Y-109817205D01*
X159659774Y-109703937D01*
X159803937Y-109559774D01*
X159917205Y-109390256D01*
X159995226Y-109201898D01*
X160035000Y-109001939D01*
X160035000Y-108798061D01*
X159995226Y-108598102D01*
X159917205Y-108409744D01*
X159803937Y-108240226D01*
X159659774Y-108096063D01*
X159490256Y-107982795D01*
X159301898Y-107904774D01*
X159101939Y-107865000D01*
X158898061Y-107865000D01*
X158698102Y-107904774D01*
X158509744Y-107982795D01*
X158340226Y-108096063D01*
X158196063Y-108240226D01*
X158082795Y-108409744D01*
X158004774Y-108598102D01*
X157965000Y-108798061D01*
X157965000Y-109001939D01*
X157980259Y-109078654D01*
X157801898Y-109004774D01*
X157601939Y-108965000D01*
X157398061Y-108965000D01*
X157198102Y-109004774D01*
X157009744Y-109082795D01*
X156840226Y-109196063D01*
X156696063Y-109340226D01*
X156582795Y-109509744D01*
X156504774Y-109698102D01*
X156465000Y-109898061D01*
X113565750Y-109898061D01*
X113567207Y-109897088D01*
X113962088Y-109502207D01*
X114272344Y-109037876D01*
X114486052Y-108521939D01*
X114595000Y-107974223D01*
X114595000Y-107415777D01*
X114486052Y-106868061D01*
X114414368Y-106695000D01*
X120881928Y-106695000D01*
X120894188Y-106819482D01*
X120930498Y-106939180D01*
X120989463Y-107049494D01*
X121068815Y-107146185D01*
X121165506Y-107225537D01*
X121275820Y-107284502D01*
X121395518Y-107320812D01*
X121520000Y-107333072D01*
X121634250Y-107330000D01*
X121793000Y-107171250D01*
X121793000Y-106172000D01*
X121043750Y-106172000D01*
X120885000Y-106330750D01*
X120881928Y-106695000D01*
X114414368Y-106695000D01*
X114272344Y-106352124D01*
X113962088Y-105887793D01*
X113567207Y-105492912D01*
X113420672Y-105395000D01*
X120881928Y-105395000D01*
X120885000Y-105759250D01*
X121043750Y-105918000D01*
X121793000Y-105918000D01*
X121793000Y-104918750D01*
X122047000Y-104918750D01*
X122047000Y-105918000D01*
X122067000Y-105918000D01*
X122067000Y-106172000D01*
X122047000Y-106172000D01*
X122047000Y-107171250D01*
X122205750Y-107330000D01*
X122320000Y-107333072D01*
X122444482Y-107320812D01*
X122564180Y-107284502D01*
X122674494Y-107225537D01*
X122690594Y-107212324D01*
X122772008Y-107255841D01*
X122967106Y-107315024D01*
X123170000Y-107335007D01*
X123372895Y-107315024D01*
X123567993Y-107255841D01*
X123747797Y-107159734D01*
X123795001Y-107120995D01*
X123842204Y-107159734D01*
X124022008Y-107255841D01*
X124217106Y-107315024D01*
X124420000Y-107335007D01*
X124622895Y-107315024D01*
X124817993Y-107255841D01*
X124997797Y-107159734D01*
X125045001Y-107120995D01*
X125092204Y-107159734D01*
X125272008Y-107255841D01*
X125467106Y-107315024D01*
X125670000Y-107335007D01*
X125872895Y-107315024D01*
X126067993Y-107255841D01*
X126176092Y-107198061D01*
X145665000Y-107198061D01*
X145665000Y-107401939D01*
X145704774Y-107601898D01*
X145782795Y-107790256D01*
X145896063Y-107959774D01*
X146040226Y-108103937D01*
X146209744Y-108217205D01*
X146398102Y-108295226D01*
X146598061Y-108335000D01*
X146801939Y-108335000D01*
X147001898Y-108295226D01*
X147190256Y-108217205D01*
X147359774Y-108103937D01*
X147503937Y-107959774D01*
X147617205Y-107790256D01*
X147695226Y-107601898D01*
X147735000Y-107401939D01*
X147735000Y-107198061D01*
X147695226Y-106998102D01*
X147617205Y-106809744D01*
X147503937Y-106640226D01*
X147359774Y-106496063D01*
X147190256Y-106382795D01*
X147001898Y-106304774D01*
X146801939Y-106265000D01*
X146598061Y-106265000D01*
X146398102Y-106304774D01*
X146209744Y-106382795D01*
X146040226Y-106496063D01*
X145896063Y-106640226D01*
X145782795Y-106809744D01*
X145704774Y-106998102D01*
X145665000Y-107198061D01*
X126176092Y-107198061D01*
X126247797Y-107159734D01*
X126405396Y-107030396D01*
X126534734Y-106872797D01*
X126630841Y-106692992D01*
X126690024Y-106497894D01*
X126705000Y-106345837D01*
X126705000Y-105744162D01*
X126690024Y-105592105D01*
X126630841Y-105397007D01*
X126534734Y-105217203D01*
X126405396Y-105059604D01*
X126247797Y-104930266D01*
X126067992Y-104834159D01*
X125872894Y-104774976D01*
X125670000Y-104754993D01*
X125467105Y-104774976D01*
X125272007Y-104834159D01*
X125092203Y-104930266D01*
X125045000Y-104969004D01*
X124997797Y-104930266D01*
X124817992Y-104834159D01*
X124622894Y-104774976D01*
X124420000Y-104754993D01*
X124217105Y-104774976D01*
X124022007Y-104834159D01*
X123842203Y-104930266D01*
X123795000Y-104969004D01*
X123747797Y-104930266D01*
X123567992Y-104834159D01*
X123372894Y-104774976D01*
X123170000Y-104754993D01*
X122967105Y-104774976D01*
X122772007Y-104834159D01*
X122690593Y-104877675D01*
X122674494Y-104864463D01*
X122564180Y-104805498D01*
X122444482Y-104769188D01*
X122320000Y-104756928D01*
X122205750Y-104760000D01*
X122047000Y-104918750D01*
X121793000Y-104918750D01*
X121634250Y-104760000D01*
X121520000Y-104756928D01*
X121395518Y-104769188D01*
X121275820Y-104805498D01*
X121165506Y-104864463D01*
X121068815Y-104943815D01*
X120989463Y-105040506D01*
X120930498Y-105150820D01*
X120894188Y-105270518D01*
X120881928Y-105395000D01*
X113420672Y-105395000D01*
X113102876Y-105182656D01*
X112586939Y-104968948D01*
X112039223Y-104860000D01*
X111480777Y-104860000D01*
X110933061Y-104968948D01*
X110417124Y-105182656D01*
X109952793Y-105492912D01*
X109557912Y-105887793D01*
X109247656Y-106352124D01*
X109033948Y-106868061D01*
X108925000Y-107415777D01*
X108925000Y-107587669D01*
X108610000Y-107115169D01*
X108610000Y-99498061D01*
X146265000Y-99498061D01*
X146265000Y-99701939D01*
X146304774Y-99901898D01*
X146382795Y-100090256D01*
X146496063Y-100259774D01*
X146640226Y-100403937D01*
X146809744Y-100517205D01*
X146998102Y-100595226D01*
X147198061Y-100635000D01*
X147401939Y-100635000D01*
X147601898Y-100595226D01*
X147790256Y-100517205D01*
X147959774Y-100403937D01*
X148103937Y-100259774D01*
X148217205Y-100090256D01*
X148295226Y-99901898D01*
X148335000Y-99701939D01*
X148335000Y-99498061D01*
X148295226Y-99298102D01*
X148217205Y-99109744D01*
X148103937Y-98940226D01*
X147959774Y-98796063D01*
X147790256Y-98682795D01*
X147601898Y-98604774D01*
X147401939Y-98565000D01*
X147198061Y-98565000D01*
X146998102Y-98604774D01*
X146809744Y-98682795D01*
X146640226Y-98796063D01*
X146496063Y-98940226D01*
X146382795Y-99109744D01*
X146304774Y-99298102D01*
X146265000Y-99498061D01*
X108610000Y-99498061D01*
X108610000Y-96398061D01*
X146265000Y-96398061D01*
X146265000Y-96601939D01*
X146304774Y-96801898D01*
X146382795Y-96990256D01*
X146496063Y-97159774D01*
X146640226Y-97303937D01*
X146809744Y-97417205D01*
X146998102Y-97495226D01*
X147198061Y-97535000D01*
X147401939Y-97535000D01*
X147601898Y-97495226D01*
X147790256Y-97417205D01*
X147959774Y-97303937D01*
X148000000Y-97263711D01*
X148140226Y-97403937D01*
X148309744Y-97517205D01*
X148498102Y-97595226D01*
X148698061Y-97635000D01*
X148901939Y-97635000D01*
X149101898Y-97595226D01*
X149290256Y-97517205D01*
X149459774Y-97403937D01*
X149565650Y-97298061D01*
X152365000Y-97298061D01*
X152365000Y-97501939D01*
X152404774Y-97701898D01*
X152482795Y-97890256D01*
X152596063Y-98059774D01*
X152740226Y-98203937D01*
X152909744Y-98317205D01*
X153098102Y-98395226D01*
X153298061Y-98435000D01*
X153501939Y-98435000D01*
X153701898Y-98395226D01*
X153890256Y-98317205D01*
X154059774Y-98203937D01*
X154203937Y-98059774D01*
X154317205Y-97890256D01*
X154395226Y-97701898D01*
X154435000Y-97501939D01*
X154435000Y-97298061D01*
X154395226Y-97098102D01*
X154317205Y-96909744D01*
X154203937Y-96740226D01*
X154161772Y-96698061D01*
X154565000Y-96698061D01*
X154565000Y-96901939D01*
X154604774Y-97101898D01*
X154682795Y-97290256D01*
X154796063Y-97459774D01*
X154940226Y-97603937D01*
X155109744Y-97717205D01*
X155298102Y-97795226D01*
X155498061Y-97835000D01*
X155701939Y-97835000D01*
X155901898Y-97795226D01*
X156090256Y-97717205D01*
X156259774Y-97603937D01*
X156365650Y-97498061D01*
X156565000Y-97498061D01*
X156565000Y-97701939D01*
X156604774Y-97901898D01*
X156682795Y-98090256D01*
X156796063Y-98259774D01*
X156940226Y-98403937D01*
X157109744Y-98517205D01*
X157298102Y-98595226D01*
X157498061Y-98635000D01*
X157701939Y-98635000D01*
X157901898Y-98595226D01*
X157971280Y-98566487D01*
X157965000Y-98598061D01*
X157965000Y-98801939D01*
X158004774Y-99001898D01*
X158082795Y-99190256D01*
X158196063Y-99359774D01*
X158340226Y-99503937D01*
X158509744Y-99617205D01*
X158698102Y-99695226D01*
X158898061Y-99735000D01*
X159101939Y-99735000D01*
X159301898Y-99695226D01*
X159490256Y-99617205D01*
X159659774Y-99503937D01*
X159803937Y-99359774D01*
X159917205Y-99190256D01*
X159995226Y-99001898D01*
X160035000Y-98801939D01*
X160035000Y-98598061D01*
X159995226Y-98398102D01*
X159917205Y-98209744D01*
X159803937Y-98040226D01*
X159659774Y-97896063D01*
X159490256Y-97782795D01*
X159301898Y-97704774D01*
X159101939Y-97665000D01*
X158898061Y-97665000D01*
X158698102Y-97704774D01*
X158628720Y-97733513D01*
X158635000Y-97701939D01*
X158635000Y-97498061D01*
X160965000Y-97498061D01*
X160965000Y-97701939D01*
X161004774Y-97901898D01*
X161082795Y-98090256D01*
X161196063Y-98259774D01*
X161340226Y-98403937D01*
X161509744Y-98517205D01*
X161698102Y-98595226D01*
X161898061Y-98635000D01*
X162101939Y-98635000D01*
X162301898Y-98595226D01*
X162490256Y-98517205D01*
X162556662Y-98472834D01*
X162504774Y-98598102D01*
X162465000Y-98798061D01*
X162465000Y-99001939D01*
X162504774Y-99201898D01*
X162582795Y-99390256D01*
X162696063Y-99559774D01*
X162840226Y-99703937D01*
X163009744Y-99817205D01*
X163198102Y-99895226D01*
X163398061Y-99935000D01*
X163601939Y-99935000D01*
X163801898Y-99895226D01*
X163990256Y-99817205D01*
X164159774Y-99703937D01*
X164303937Y-99559774D01*
X164417205Y-99390256D01*
X164495226Y-99201898D01*
X164535000Y-99001939D01*
X164535000Y-98798061D01*
X164495226Y-98598102D01*
X164417205Y-98409744D01*
X164303937Y-98240226D01*
X164159774Y-98096063D01*
X163990256Y-97982795D01*
X163801898Y-97904774D01*
X163601939Y-97865000D01*
X163398061Y-97865000D01*
X163198102Y-97904774D01*
X163009744Y-97982795D01*
X162943338Y-98027166D01*
X162995226Y-97901898D01*
X163035000Y-97701939D01*
X163035000Y-97498061D01*
X162995226Y-97298102D01*
X162917205Y-97109744D01*
X162803937Y-96940226D01*
X162659774Y-96796063D01*
X162490256Y-96682795D01*
X162301898Y-96604774D01*
X162101939Y-96565000D01*
X161898061Y-96565000D01*
X161698102Y-96604774D01*
X161509744Y-96682795D01*
X161340226Y-96796063D01*
X161196063Y-96940226D01*
X161082795Y-97109744D01*
X161004774Y-97298102D01*
X160965000Y-97498061D01*
X158635000Y-97498061D01*
X158595226Y-97298102D01*
X158517205Y-97109744D01*
X158403937Y-96940226D01*
X158259774Y-96796063D01*
X158090256Y-96682795D01*
X157901898Y-96604774D01*
X157701939Y-96565000D01*
X157498061Y-96565000D01*
X157298102Y-96604774D01*
X157109744Y-96682795D01*
X156940226Y-96796063D01*
X156796063Y-96940226D01*
X156682795Y-97109744D01*
X156604774Y-97298102D01*
X156565000Y-97498061D01*
X156365650Y-97498061D01*
X156403937Y-97459774D01*
X156517205Y-97290256D01*
X156595226Y-97101898D01*
X156635000Y-96901939D01*
X156635000Y-96698061D01*
X156595226Y-96498102D01*
X156517205Y-96309744D01*
X156403937Y-96140226D01*
X156259774Y-95996063D01*
X156090256Y-95882795D01*
X155901898Y-95804774D01*
X155701939Y-95765000D01*
X155498061Y-95765000D01*
X155298102Y-95804774D01*
X155109744Y-95882795D01*
X154940226Y-95996063D01*
X154796063Y-96140226D01*
X154682795Y-96309744D01*
X154604774Y-96498102D01*
X154565000Y-96698061D01*
X154161772Y-96698061D01*
X154059774Y-96596063D01*
X153890256Y-96482795D01*
X153701898Y-96404774D01*
X153501939Y-96365000D01*
X153298061Y-96365000D01*
X153098102Y-96404774D01*
X152909744Y-96482795D01*
X152740226Y-96596063D01*
X152596063Y-96740226D01*
X152482795Y-96909744D01*
X152404774Y-97098102D01*
X152365000Y-97298061D01*
X149565650Y-97298061D01*
X149603937Y-97259774D01*
X149717205Y-97090256D01*
X149795226Y-96901898D01*
X149835000Y-96701939D01*
X149835000Y-96498061D01*
X149795226Y-96298102D01*
X149717205Y-96109744D01*
X149603937Y-95940226D01*
X149459774Y-95796063D01*
X149290256Y-95682795D01*
X149101898Y-95604774D01*
X148901939Y-95565000D01*
X148698061Y-95565000D01*
X148498102Y-95604774D01*
X148309744Y-95682795D01*
X148140226Y-95796063D01*
X148100000Y-95836289D01*
X147959774Y-95696063D01*
X147790256Y-95582795D01*
X147601898Y-95504774D01*
X147401939Y-95465000D01*
X147198061Y-95465000D01*
X146998102Y-95504774D01*
X146809744Y-95582795D01*
X146640226Y-95696063D01*
X146496063Y-95840226D01*
X146382795Y-96009744D01*
X146304774Y-96198102D01*
X146265000Y-96398061D01*
X108610000Y-96398061D01*
X108610000Y-93798061D01*
X125965000Y-93798061D01*
X125965000Y-94001939D01*
X126004774Y-94201898D01*
X126082795Y-94390256D01*
X126196063Y-94559774D01*
X126340226Y-94703937D01*
X126509744Y-94817205D01*
X126698102Y-94895226D01*
X126898061Y-94935000D01*
X127101939Y-94935000D01*
X127301898Y-94895226D01*
X127490256Y-94817205D01*
X127659774Y-94703937D01*
X127803937Y-94559774D01*
X127917205Y-94390256D01*
X127995226Y-94201898D01*
X128035000Y-94001939D01*
X128035000Y-93798061D01*
X127995226Y-93598102D01*
X127917205Y-93409744D01*
X127803937Y-93240226D01*
X127659774Y-93096063D01*
X127490256Y-92982795D01*
X127301898Y-92904774D01*
X127101939Y-92865000D01*
X126898061Y-92865000D01*
X126698102Y-92904774D01*
X126509744Y-92982795D01*
X126340226Y-93096063D01*
X126196063Y-93240226D01*
X126082795Y-93409744D01*
X126004774Y-93598102D01*
X125965000Y-93798061D01*
X108610000Y-93798061D01*
X108610000Y-91198061D01*
X147765000Y-91198061D01*
X147765000Y-91401939D01*
X147804774Y-91601898D01*
X147882795Y-91790256D01*
X147996063Y-91959774D01*
X148140226Y-92103937D01*
X148309744Y-92217205D01*
X148498102Y-92295226D01*
X148698061Y-92335000D01*
X148901939Y-92335000D01*
X149101898Y-92295226D01*
X149290256Y-92217205D01*
X149459774Y-92103937D01*
X149603937Y-91959774D01*
X149717205Y-91790256D01*
X149795226Y-91601898D01*
X149835000Y-91401939D01*
X149835000Y-91198061D01*
X149795226Y-90998102D01*
X149795210Y-90998061D01*
X153465000Y-90998061D01*
X153465000Y-91201939D01*
X153504774Y-91401898D01*
X153582795Y-91590256D01*
X153696063Y-91759774D01*
X153840226Y-91903937D01*
X154009744Y-92017205D01*
X154198102Y-92095226D01*
X154398061Y-92135000D01*
X154601939Y-92135000D01*
X154801898Y-92095226D01*
X154990256Y-92017205D01*
X155159774Y-91903937D01*
X155303937Y-91759774D01*
X155417205Y-91590256D01*
X155495226Y-91401898D01*
X155535000Y-91201939D01*
X155535000Y-90998061D01*
X155495226Y-90798102D01*
X155417205Y-90609744D01*
X155303937Y-90440226D01*
X155159774Y-90296063D01*
X154990256Y-90182795D01*
X154801898Y-90104774D01*
X154601939Y-90065000D01*
X154398061Y-90065000D01*
X154198102Y-90104774D01*
X154009744Y-90182795D01*
X153840226Y-90296063D01*
X153696063Y-90440226D01*
X153582795Y-90609744D01*
X153504774Y-90798102D01*
X153465000Y-90998061D01*
X149795210Y-90998061D01*
X149717205Y-90809744D01*
X149603937Y-90640226D01*
X149459774Y-90496063D01*
X149290256Y-90382795D01*
X149101898Y-90304774D01*
X148901939Y-90265000D01*
X148698061Y-90265000D01*
X148498102Y-90304774D01*
X148309744Y-90382795D01*
X148140226Y-90496063D01*
X147996063Y-90640226D01*
X147882795Y-90809744D01*
X147804774Y-90998102D01*
X147765000Y-91198061D01*
X108610000Y-91198061D01*
X108610000Y-88698061D01*
X138465000Y-88698061D01*
X138465000Y-88901939D01*
X138504774Y-89101898D01*
X138582795Y-89290256D01*
X138696063Y-89459774D01*
X138840226Y-89603937D01*
X139009744Y-89717205D01*
X139198102Y-89795226D01*
X139398061Y-89835000D01*
X139601939Y-89835000D01*
X139801898Y-89795226D01*
X139990256Y-89717205D01*
X140159774Y-89603937D01*
X140303937Y-89459774D01*
X140417205Y-89290256D01*
X140495226Y-89101898D01*
X140535000Y-88901939D01*
X140535000Y-88698061D01*
X140515109Y-88598061D01*
X158765000Y-88598061D01*
X158765000Y-88801939D01*
X158804774Y-89001898D01*
X158882795Y-89190256D01*
X158996063Y-89359774D01*
X159140226Y-89503937D01*
X159309744Y-89617205D01*
X159498102Y-89695226D01*
X159698061Y-89735000D01*
X159901939Y-89735000D01*
X160101898Y-89695226D01*
X160290256Y-89617205D01*
X160459774Y-89503937D01*
X160603937Y-89359774D01*
X160717205Y-89190256D01*
X160795226Y-89001898D01*
X160835000Y-88801939D01*
X160835000Y-88598061D01*
X160795226Y-88398102D01*
X160717205Y-88209744D01*
X160603937Y-88040226D01*
X160459774Y-87896063D01*
X160290256Y-87782795D01*
X160101898Y-87704774D01*
X159901939Y-87665000D01*
X159698061Y-87665000D01*
X159498102Y-87704774D01*
X159309744Y-87782795D01*
X159140226Y-87896063D01*
X158996063Y-88040226D01*
X158882795Y-88209744D01*
X158804774Y-88398102D01*
X158765000Y-88598061D01*
X140515109Y-88598061D01*
X140495226Y-88498102D01*
X140417205Y-88309744D01*
X140303937Y-88140226D01*
X140159774Y-87996063D01*
X139990256Y-87882795D01*
X139801898Y-87804774D01*
X139601939Y-87765000D01*
X139398061Y-87765000D01*
X139198102Y-87804774D01*
X139009744Y-87882795D01*
X138840226Y-87996063D01*
X138696063Y-88140226D01*
X138582795Y-88309744D01*
X138504774Y-88498102D01*
X138465000Y-88698061D01*
X108610000Y-88698061D01*
X108610000Y-85898061D01*
X120965000Y-85898061D01*
X120965000Y-86101939D01*
X121004774Y-86301898D01*
X121082795Y-86490256D01*
X121196063Y-86659774D01*
X121340226Y-86803937D01*
X121509744Y-86917205D01*
X121698102Y-86995226D01*
X121898061Y-87035000D01*
X122101939Y-87035000D01*
X122301898Y-86995226D01*
X122490256Y-86917205D01*
X122659774Y-86803937D01*
X122803937Y-86659774D01*
X122917205Y-86490256D01*
X122995226Y-86301898D01*
X123035000Y-86101939D01*
X123035000Y-85898061D01*
X123965000Y-85898061D01*
X123965000Y-86101939D01*
X124004774Y-86301898D01*
X124082795Y-86490256D01*
X124196063Y-86659774D01*
X124340226Y-86803937D01*
X124509744Y-86917205D01*
X124698102Y-86995226D01*
X124898061Y-87035000D01*
X125101939Y-87035000D01*
X125287645Y-86998061D01*
X126965000Y-86998061D01*
X126965000Y-87201939D01*
X127004774Y-87401898D01*
X127082795Y-87590256D01*
X127196063Y-87759774D01*
X127340226Y-87903937D01*
X127509744Y-88017205D01*
X127698102Y-88095226D01*
X127898061Y-88135000D01*
X128101939Y-88135000D01*
X128301898Y-88095226D01*
X128490256Y-88017205D01*
X128659774Y-87903937D01*
X128803937Y-87759774D01*
X128917205Y-87590256D01*
X128995226Y-87401898D01*
X129035000Y-87201939D01*
X129035000Y-86998061D01*
X129015109Y-86898061D01*
X129165000Y-86898061D01*
X129165000Y-87101939D01*
X129204774Y-87301898D01*
X129282795Y-87490256D01*
X129396063Y-87659774D01*
X129540226Y-87803937D01*
X129709744Y-87917205D01*
X129898102Y-87995226D01*
X130098061Y-88035000D01*
X130301939Y-88035000D01*
X130501898Y-87995226D01*
X130690256Y-87917205D01*
X130859774Y-87803937D01*
X131003937Y-87659774D01*
X131117205Y-87490256D01*
X131195226Y-87301898D01*
X131235000Y-87101939D01*
X131235000Y-86898061D01*
X131195226Y-86698102D01*
X131117205Y-86509744D01*
X131003937Y-86340226D01*
X130859774Y-86196063D01*
X130690256Y-86082795D01*
X130501898Y-86004774D01*
X130301939Y-85965000D01*
X130098061Y-85965000D01*
X129898102Y-86004774D01*
X129709744Y-86082795D01*
X129540226Y-86196063D01*
X129396063Y-86340226D01*
X129282795Y-86509744D01*
X129204774Y-86698102D01*
X129165000Y-86898061D01*
X129015109Y-86898061D01*
X128995226Y-86798102D01*
X128917205Y-86609744D01*
X128803937Y-86440226D01*
X128659774Y-86296063D01*
X128560315Y-86229607D01*
X128590256Y-86217205D01*
X128759774Y-86103937D01*
X128903937Y-85959774D01*
X129017205Y-85790256D01*
X129095226Y-85601898D01*
X129095989Y-85598061D01*
X153965000Y-85598061D01*
X153965000Y-85801939D01*
X154004774Y-86001898D01*
X154082795Y-86190256D01*
X154196063Y-86359774D01*
X154340226Y-86503937D01*
X154509744Y-86617205D01*
X154698102Y-86695226D01*
X154898061Y-86735000D01*
X155101939Y-86735000D01*
X155301898Y-86695226D01*
X155490256Y-86617205D01*
X155659774Y-86503937D01*
X155803937Y-86359774D01*
X155917205Y-86190256D01*
X155995226Y-86001898D01*
X156035000Y-85801939D01*
X156035000Y-85598061D01*
X155995226Y-85398102D01*
X155917205Y-85209744D01*
X155803937Y-85040226D01*
X155659774Y-84896063D01*
X155490256Y-84782795D01*
X155301898Y-84704774D01*
X155101939Y-84665000D01*
X154898061Y-84665000D01*
X154698102Y-84704774D01*
X154509744Y-84782795D01*
X154340226Y-84896063D01*
X154196063Y-85040226D01*
X154082795Y-85209744D01*
X154004774Y-85398102D01*
X153965000Y-85598061D01*
X129095989Y-85598061D01*
X129135000Y-85401939D01*
X129135000Y-85198061D01*
X129095226Y-84998102D01*
X129017205Y-84809744D01*
X128903937Y-84640226D01*
X128759774Y-84496063D01*
X128590256Y-84382795D01*
X128401898Y-84304774D01*
X128201939Y-84265000D01*
X127998061Y-84265000D01*
X127798102Y-84304774D01*
X127609744Y-84382795D01*
X127440226Y-84496063D01*
X127296063Y-84640226D01*
X127182795Y-84809744D01*
X127104774Y-84998102D01*
X127065000Y-85198061D01*
X127065000Y-85401939D01*
X127104774Y-85601898D01*
X127182795Y-85790256D01*
X127296063Y-85959774D01*
X127440226Y-86103937D01*
X127539685Y-86170393D01*
X127509744Y-86182795D01*
X127340226Y-86296063D01*
X127196063Y-86440226D01*
X127082795Y-86609744D01*
X127004774Y-86798102D01*
X126965000Y-86998061D01*
X125287645Y-86998061D01*
X125301898Y-86995226D01*
X125490256Y-86917205D01*
X125659774Y-86803937D01*
X125803937Y-86659774D01*
X125917205Y-86490256D01*
X125995226Y-86301898D01*
X126035000Y-86101939D01*
X126035000Y-85898061D01*
X125995226Y-85698102D01*
X125917205Y-85509744D01*
X125803937Y-85340226D01*
X125659774Y-85196063D01*
X125490256Y-85082795D01*
X125301898Y-85004774D01*
X125101939Y-84965000D01*
X124898061Y-84965000D01*
X124698102Y-85004774D01*
X124509744Y-85082795D01*
X124340226Y-85196063D01*
X124196063Y-85340226D01*
X124082795Y-85509744D01*
X124004774Y-85698102D01*
X123965000Y-85898061D01*
X123035000Y-85898061D01*
X122995226Y-85698102D01*
X122917205Y-85509744D01*
X122803937Y-85340226D01*
X122659774Y-85196063D01*
X122490256Y-85082795D01*
X122301898Y-85004774D01*
X122101939Y-84965000D01*
X121898061Y-84965000D01*
X121698102Y-85004774D01*
X121509744Y-85082795D01*
X121340226Y-85196063D01*
X121196063Y-85340226D01*
X121082795Y-85509744D01*
X121004774Y-85698102D01*
X120965000Y-85898061D01*
X108610000Y-85898061D01*
X108610000Y-83298061D01*
X155365000Y-83298061D01*
X155365000Y-83501939D01*
X155404774Y-83701898D01*
X155482795Y-83890256D01*
X155596063Y-84059774D01*
X155740226Y-84203937D01*
X155909744Y-84317205D01*
X156098102Y-84395226D01*
X156298061Y-84435000D01*
X156501939Y-84435000D01*
X156701898Y-84395226D01*
X156890256Y-84317205D01*
X157059774Y-84203937D01*
X157203937Y-84059774D01*
X157317205Y-83890256D01*
X157395226Y-83701898D01*
X157435000Y-83501939D01*
X157435000Y-83298061D01*
X157395226Y-83098102D01*
X157317205Y-82909744D01*
X157203937Y-82740226D01*
X157059774Y-82596063D01*
X156890256Y-82482795D01*
X156701898Y-82404774D01*
X156501939Y-82365000D01*
X156298061Y-82365000D01*
X156098102Y-82404774D01*
X155909744Y-82482795D01*
X155740226Y-82596063D01*
X155596063Y-82740226D01*
X155482795Y-82909744D01*
X155404774Y-83098102D01*
X155365000Y-83298061D01*
X108610000Y-83298061D01*
X108610000Y-81298061D01*
X136665000Y-81298061D01*
X136665000Y-81501939D01*
X136704774Y-81701898D01*
X136782795Y-81890256D01*
X136896063Y-82059774D01*
X137040226Y-82203937D01*
X137209744Y-82317205D01*
X137398102Y-82395226D01*
X137598061Y-82435000D01*
X137801939Y-82435000D01*
X138001898Y-82395226D01*
X138190256Y-82317205D01*
X138359774Y-82203937D01*
X138503937Y-82059774D01*
X138617205Y-81890256D01*
X138695226Y-81701898D01*
X138735000Y-81501939D01*
X138735000Y-81298061D01*
X138695226Y-81098102D01*
X138617205Y-80909744D01*
X138542582Y-80798061D01*
X140465000Y-80798061D01*
X140465000Y-81001939D01*
X140504774Y-81201898D01*
X140582795Y-81390256D01*
X140696063Y-81559774D01*
X140840226Y-81703937D01*
X141009744Y-81817205D01*
X141198102Y-81895226D01*
X141398061Y-81935000D01*
X141601939Y-81935000D01*
X141801898Y-81895226D01*
X141990256Y-81817205D01*
X142159774Y-81703937D01*
X142303937Y-81559774D01*
X142417205Y-81390256D01*
X142495226Y-81201898D01*
X142535000Y-81001939D01*
X142535000Y-80798061D01*
X142495226Y-80598102D01*
X142417205Y-80409744D01*
X142303937Y-80240226D01*
X142159774Y-80096063D01*
X141990256Y-79982795D01*
X141801898Y-79904774D01*
X141601939Y-79865000D01*
X141398061Y-79865000D01*
X141198102Y-79904774D01*
X141009744Y-79982795D01*
X140840226Y-80096063D01*
X140696063Y-80240226D01*
X140582795Y-80409744D01*
X140504774Y-80598102D01*
X140465000Y-80798061D01*
X138542582Y-80798061D01*
X138503937Y-80740226D01*
X138359774Y-80596063D01*
X138190256Y-80482795D01*
X138001898Y-80404774D01*
X137801939Y-80365000D01*
X137598061Y-80365000D01*
X137398102Y-80404774D01*
X137209744Y-80482795D01*
X137040226Y-80596063D01*
X136896063Y-80740226D01*
X136782795Y-80909744D01*
X136704774Y-81098102D01*
X136665000Y-81298061D01*
X108610000Y-81298061D01*
X108610000Y-78898061D01*
X125165000Y-78898061D01*
X125165000Y-79101939D01*
X125204774Y-79301898D01*
X125282795Y-79490256D01*
X125396063Y-79659774D01*
X125540226Y-79803937D01*
X125709744Y-79917205D01*
X125898102Y-79995226D01*
X126098061Y-80035000D01*
X126301939Y-80035000D01*
X126501898Y-79995226D01*
X126690256Y-79917205D01*
X126859774Y-79803937D01*
X127003937Y-79659774D01*
X127117205Y-79490256D01*
X127195226Y-79301898D01*
X127235000Y-79101939D01*
X127235000Y-79098061D01*
X135965000Y-79098061D01*
X135965000Y-79301939D01*
X136004774Y-79501898D01*
X136082795Y-79690256D01*
X136196063Y-79859774D01*
X136340226Y-80003937D01*
X136509744Y-80117205D01*
X136698102Y-80195226D01*
X136898061Y-80235000D01*
X137101939Y-80235000D01*
X137301898Y-80195226D01*
X137490256Y-80117205D01*
X137659774Y-80003937D01*
X137803937Y-79859774D01*
X137917205Y-79690256D01*
X137995226Y-79501898D01*
X137995989Y-79498061D01*
X166865000Y-79498061D01*
X166865000Y-79701939D01*
X166904774Y-79901898D01*
X166982795Y-80090256D01*
X167096063Y-80259774D01*
X167240226Y-80403937D01*
X167409744Y-80517205D01*
X167598102Y-80595226D01*
X167798061Y-80635000D01*
X168001939Y-80635000D01*
X168201898Y-80595226D01*
X168281285Y-80562342D01*
X168182795Y-80709744D01*
X168104774Y-80898102D01*
X168065000Y-81098061D01*
X168065000Y-81301939D01*
X168104774Y-81501898D01*
X168182795Y-81690256D01*
X168296063Y-81859774D01*
X168440226Y-82003937D01*
X168609744Y-82117205D01*
X168798102Y-82195226D01*
X168998061Y-82235000D01*
X169201939Y-82235000D01*
X169401898Y-82195226D01*
X169590256Y-82117205D01*
X169759774Y-82003937D01*
X169903937Y-81859774D01*
X170017205Y-81690256D01*
X170095226Y-81501898D01*
X170135000Y-81301939D01*
X170135000Y-81098061D01*
X170095226Y-80898102D01*
X170017205Y-80709744D01*
X169903937Y-80540226D01*
X169759774Y-80396063D01*
X169590256Y-80282795D01*
X169401898Y-80204774D01*
X169201939Y-80165000D01*
X168998061Y-80165000D01*
X168798102Y-80204774D01*
X168718715Y-80237658D01*
X168817205Y-80090256D01*
X168895226Y-79901898D01*
X168935000Y-79701939D01*
X168935000Y-79498061D01*
X168895226Y-79298102D01*
X168817205Y-79109744D01*
X168703937Y-78940226D01*
X168559774Y-78796063D01*
X168390256Y-78682795D01*
X168201898Y-78604774D01*
X168001939Y-78565000D01*
X167798061Y-78565000D01*
X167598102Y-78604774D01*
X167409744Y-78682795D01*
X167240226Y-78796063D01*
X167096063Y-78940226D01*
X166982795Y-79109744D01*
X166904774Y-79298102D01*
X166865000Y-79498061D01*
X137995989Y-79498061D01*
X138035000Y-79301939D01*
X138035000Y-79098061D01*
X137995226Y-78898102D01*
X137917205Y-78709744D01*
X137803937Y-78540226D01*
X137659774Y-78396063D01*
X137490256Y-78282795D01*
X137301898Y-78204774D01*
X137101939Y-78165000D01*
X136898061Y-78165000D01*
X136698102Y-78204774D01*
X136509744Y-78282795D01*
X136340226Y-78396063D01*
X136196063Y-78540226D01*
X136082795Y-78709744D01*
X136004774Y-78898102D01*
X135965000Y-79098061D01*
X127235000Y-79098061D01*
X127235000Y-78898061D01*
X127195226Y-78698102D01*
X127117205Y-78509744D01*
X127003937Y-78340226D01*
X126859774Y-78196063D01*
X126690256Y-78082795D01*
X126501898Y-78004774D01*
X126301939Y-77965000D01*
X126098061Y-77965000D01*
X125898102Y-78004774D01*
X125709744Y-78082795D01*
X125540226Y-78196063D01*
X125396063Y-78340226D01*
X125282795Y-78509744D01*
X125204774Y-78698102D01*
X125165000Y-78898061D01*
X108610000Y-78898061D01*
X108610000Y-76323137D01*
X112885000Y-76323137D01*
X112885000Y-76536863D01*
X112926696Y-76746483D01*
X113008485Y-76943940D01*
X113127225Y-77121647D01*
X113278353Y-77272775D01*
X113456060Y-77391515D01*
X113653517Y-77473304D01*
X113863137Y-77515000D01*
X114076863Y-77515000D01*
X114286483Y-77473304D01*
X114483940Y-77391515D01*
X114661647Y-77272775D01*
X114736361Y-77198061D01*
X116065000Y-77198061D01*
X116065000Y-77401939D01*
X116104774Y-77601898D01*
X116182795Y-77790256D01*
X116296063Y-77959774D01*
X116440226Y-78103937D01*
X116609744Y-78217205D01*
X116798102Y-78295226D01*
X116998061Y-78335000D01*
X117201939Y-78335000D01*
X117401898Y-78295226D01*
X117590256Y-78217205D01*
X117759774Y-78103937D01*
X117903937Y-77959774D01*
X118017205Y-77790256D01*
X118095226Y-77601898D01*
X118135000Y-77401939D01*
X118135000Y-77198061D01*
X118095226Y-76998102D01*
X118017205Y-76809744D01*
X117903937Y-76640226D01*
X117759774Y-76496063D01*
X117590256Y-76382795D01*
X117401898Y-76304774D01*
X117201939Y-76265000D01*
X116998061Y-76265000D01*
X116798102Y-76304774D01*
X116609744Y-76382795D01*
X116440226Y-76496063D01*
X116296063Y-76640226D01*
X116182795Y-76809744D01*
X116104774Y-76998102D01*
X116065000Y-77198061D01*
X114736361Y-77198061D01*
X114812775Y-77121647D01*
X114931515Y-76943940D01*
X115013304Y-76746483D01*
X115055000Y-76536863D01*
X115055000Y-76323137D01*
X115013304Y-76113517D01*
X114931515Y-75916060D01*
X114852671Y-75798061D01*
X121565000Y-75798061D01*
X121565000Y-76001939D01*
X121604774Y-76201898D01*
X121682795Y-76390256D01*
X121796063Y-76559774D01*
X121940226Y-76703937D01*
X122109744Y-76817205D01*
X122298102Y-76895226D01*
X122498061Y-76935000D01*
X122701939Y-76935000D01*
X122901898Y-76895226D01*
X123090256Y-76817205D01*
X123118907Y-76798061D01*
X127065000Y-76798061D01*
X127065000Y-77001939D01*
X127104774Y-77201898D01*
X127182795Y-77390256D01*
X127296063Y-77559774D01*
X127440226Y-77703937D01*
X127609744Y-77817205D01*
X127798102Y-77895226D01*
X127998061Y-77935000D01*
X128201939Y-77935000D01*
X128401898Y-77895226D01*
X128590256Y-77817205D01*
X128752669Y-77708684D01*
X128715000Y-77898061D01*
X128715000Y-78101939D01*
X128754774Y-78301898D01*
X128832795Y-78490256D01*
X128946063Y-78659774D01*
X129090226Y-78803937D01*
X129259744Y-78917205D01*
X129448102Y-78995226D01*
X129648061Y-79035000D01*
X129851939Y-79035000D01*
X130051898Y-78995226D01*
X130240256Y-78917205D01*
X130409774Y-78803937D01*
X130553937Y-78659774D01*
X130667205Y-78490256D01*
X130745226Y-78301898D01*
X130785000Y-78101939D01*
X130785000Y-77898061D01*
X130745226Y-77698102D01*
X130667205Y-77509744D01*
X130553937Y-77340226D01*
X130411772Y-77198061D01*
X131865000Y-77198061D01*
X131865000Y-77401939D01*
X131904774Y-77601898D01*
X131982795Y-77790256D01*
X132096063Y-77959774D01*
X132240226Y-78103937D01*
X132409744Y-78217205D01*
X132598102Y-78295226D01*
X132798061Y-78335000D01*
X133001939Y-78335000D01*
X133201898Y-78295226D01*
X133390256Y-78217205D01*
X133559774Y-78103937D01*
X133703937Y-77959774D01*
X133817205Y-77790256D01*
X133895226Y-77601898D01*
X133935000Y-77401939D01*
X133935000Y-77198061D01*
X133895226Y-76998102D01*
X133817205Y-76809744D01*
X133703937Y-76640226D01*
X133559774Y-76496063D01*
X133390256Y-76382795D01*
X133201898Y-76304774D01*
X133001939Y-76265000D01*
X132798061Y-76265000D01*
X132598102Y-76304774D01*
X132409744Y-76382795D01*
X132240226Y-76496063D01*
X132096063Y-76640226D01*
X131982795Y-76809744D01*
X131904774Y-76998102D01*
X131865000Y-77198061D01*
X130411772Y-77198061D01*
X130409774Y-77196063D01*
X130240256Y-77082795D01*
X130051898Y-77004774D01*
X129851939Y-76965000D01*
X129648061Y-76965000D01*
X129448102Y-77004774D01*
X129259744Y-77082795D01*
X129097331Y-77191316D01*
X129135000Y-77001939D01*
X129135000Y-76798061D01*
X129095226Y-76598102D01*
X129017205Y-76409744D01*
X128903937Y-76240226D01*
X128759774Y-76096063D01*
X128590256Y-75982795D01*
X128401898Y-75904774D01*
X128201939Y-75865000D01*
X127998061Y-75865000D01*
X127798102Y-75904774D01*
X127609744Y-75982795D01*
X127440226Y-76096063D01*
X127296063Y-76240226D01*
X127182795Y-76409744D01*
X127104774Y-76598102D01*
X127065000Y-76798061D01*
X123118907Y-76798061D01*
X123259774Y-76703937D01*
X123403937Y-76559774D01*
X123517205Y-76390256D01*
X123595226Y-76201898D01*
X123635000Y-76001939D01*
X123635000Y-75798061D01*
X123595226Y-75598102D01*
X123517205Y-75409744D01*
X123489354Y-75368061D01*
X130465000Y-75368061D01*
X130465000Y-75571939D01*
X130504774Y-75771898D01*
X130582795Y-75960256D01*
X130696063Y-76129774D01*
X130840226Y-76273937D01*
X131009744Y-76387205D01*
X131198102Y-76465226D01*
X131398061Y-76505000D01*
X131601939Y-76505000D01*
X131801898Y-76465226D01*
X131990256Y-76387205D01*
X132159774Y-76273937D01*
X132303937Y-76129774D01*
X132417205Y-75960256D01*
X132495226Y-75771898D01*
X132535000Y-75571939D01*
X132535000Y-75368061D01*
X132495226Y-75168102D01*
X132417205Y-74979744D01*
X132303937Y-74810226D01*
X132159774Y-74666063D01*
X131990256Y-74552795D01*
X131801898Y-74474774D01*
X131601939Y-74435000D01*
X131398061Y-74435000D01*
X131198102Y-74474774D01*
X131009744Y-74552795D01*
X130840226Y-74666063D01*
X130696063Y-74810226D01*
X130582795Y-74979744D01*
X130504774Y-75168102D01*
X130465000Y-75368061D01*
X123489354Y-75368061D01*
X123403937Y-75240226D01*
X123259774Y-75096063D01*
X123090256Y-74982795D01*
X122901898Y-74904774D01*
X122701939Y-74865000D01*
X122498061Y-74865000D01*
X122298102Y-74904774D01*
X122109744Y-74982795D01*
X121940226Y-75096063D01*
X121796063Y-75240226D01*
X121682795Y-75409744D01*
X121604774Y-75598102D01*
X121565000Y-75798061D01*
X114852671Y-75798061D01*
X114812775Y-75738353D01*
X114661647Y-75587225D01*
X114483940Y-75468485D01*
X114286483Y-75386696D01*
X114076863Y-75345000D01*
X113863137Y-75345000D01*
X113653517Y-75386696D01*
X113456060Y-75468485D01*
X113278353Y-75587225D01*
X113127225Y-75738353D01*
X113008485Y-75916060D01*
X112926696Y-76113517D01*
X112885000Y-76323137D01*
X108610000Y-76323137D01*
X108610000Y-73323137D01*
X112885000Y-73323137D01*
X112885000Y-73536863D01*
X112926696Y-73746483D01*
X113008485Y-73943940D01*
X113127225Y-74121647D01*
X113278353Y-74272775D01*
X113456060Y-74391515D01*
X113653517Y-74473304D01*
X113863137Y-74515000D01*
X114076863Y-74515000D01*
X114286483Y-74473304D01*
X114483940Y-74391515D01*
X114661647Y-74272775D01*
X114812775Y-74121647D01*
X114931515Y-73943940D01*
X115013304Y-73746483D01*
X115055000Y-73536863D01*
X115055000Y-73323137D01*
X115013304Y-73113517D01*
X114931515Y-72916060D01*
X114812775Y-72738353D01*
X114722483Y-72648061D01*
X115965000Y-72648061D01*
X115965000Y-72851939D01*
X116004774Y-73051898D01*
X116082795Y-73240256D01*
X116196063Y-73409774D01*
X116340226Y-73553937D01*
X116509744Y-73667205D01*
X116698102Y-73745226D01*
X116898061Y-73785000D01*
X117101939Y-73785000D01*
X117301898Y-73745226D01*
X117490256Y-73667205D01*
X117659774Y-73553937D01*
X117803937Y-73409774D01*
X117917205Y-73240256D01*
X117995226Y-73051898D01*
X118005934Y-72998061D01*
X122365000Y-72998061D01*
X122365000Y-73201939D01*
X122404774Y-73401898D01*
X122482795Y-73590256D01*
X122596063Y-73759774D01*
X122740226Y-73903937D01*
X122909744Y-74017205D01*
X123098102Y-74095226D01*
X123298061Y-74135000D01*
X123501939Y-74135000D01*
X123701898Y-74095226D01*
X123890256Y-74017205D01*
X124059774Y-73903937D01*
X124203937Y-73759774D01*
X124317205Y-73590256D01*
X124395226Y-73401898D01*
X124395989Y-73398061D01*
X151215000Y-73398061D01*
X151215000Y-73601939D01*
X151254774Y-73801898D01*
X151332795Y-73990256D01*
X151446063Y-74159774D01*
X151590226Y-74303937D01*
X151759744Y-74417205D01*
X151948102Y-74495226D01*
X152148061Y-74535000D01*
X152351939Y-74535000D01*
X152551898Y-74495226D01*
X152740256Y-74417205D01*
X152909774Y-74303937D01*
X153053937Y-74159774D01*
X153167205Y-73990256D01*
X153245226Y-73801898D01*
X153285000Y-73601939D01*
X153285000Y-73398061D01*
X153245226Y-73198102D01*
X153167205Y-73009744D01*
X153053937Y-72840226D01*
X152909774Y-72696063D01*
X152740256Y-72582795D01*
X152551898Y-72504774D01*
X152351939Y-72465000D01*
X152148061Y-72465000D01*
X151948102Y-72504774D01*
X151759744Y-72582795D01*
X151590226Y-72696063D01*
X151446063Y-72840226D01*
X151332795Y-73009744D01*
X151254774Y-73198102D01*
X151215000Y-73398061D01*
X124395989Y-73398061D01*
X124435000Y-73201939D01*
X124435000Y-72998061D01*
X124395226Y-72798102D01*
X124317205Y-72609744D01*
X124203937Y-72440226D01*
X124059774Y-72296063D01*
X123890256Y-72182795D01*
X123701898Y-72104774D01*
X123501939Y-72065000D01*
X123298061Y-72065000D01*
X123098102Y-72104774D01*
X122909744Y-72182795D01*
X122740226Y-72296063D01*
X122596063Y-72440226D01*
X122482795Y-72609744D01*
X122404774Y-72798102D01*
X122365000Y-72998061D01*
X118005934Y-72998061D01*
X118035000Y-72851939D01*
X118035000Y-72648061D01*
X117995226Y-72448102D01*
X117917205Y-72259744D01*
X117803937Y-72090226D01*
X117659774Y-71946063D01*
X117490256Y-71832795D01*
X117301898Y-71754774D01*
X117101939Y-71715000D01*
X116898061Y-71715000D01*
X116698102Y-71754774D01*
X116509744Y-71832795D01*
X116340226Y-71946063D01*
X116196063Y-72090226D01*
X116082795Y-72259744D01*
X116004774Y-72448102D01*
X115965000Y-72648061D01*
X114722483Y-72648061D01*
X114661647Y-72587225D01*
X114483940Y-72468485D01*
X114286483Y-72386696D01*
X114076863Y-72345000D01*
X113863137Y-72345000D01*
X113653517Y-72386696D01*
X113456060Y-72468485D01*
X113278353Y-72587225D01*
X113127225Y-72738353D01*
X113008485Y-72916060D01*
X112926696Y-73113517D01*
X112885000Y-73323137D01*
X108610000Y-73323137D01*
X108610000Y-70998061D01*
X131965000Y-70998061D01*
X131965000Y-71201939D01*
X132004774Y-71401898D01*
X132082795Y-71590256D01*
X132196063Y-71759774D01*
X132340226Y-71903937D01*
X132509744Y-72017205D01*
X132698102Y-72095226D01*
X132898061Y-72135000D01*
X133101939Y-72135000D01*
X133301898Y-72095226D01*
X133490256Y-72017205D01*
X133659774Y-71903937D01*
X133803937Y-71759774D01*
X133917205Y-71590256D01*
X133995226Y-71401898D01*
X134035000Y-71201939D01*
X134035000Y-70998061D01*
X133995226Y-70798102D01*
X133917205Y-70609744D01*
X133803937Y-70440226D01*
X133661772Y-70298061D01*
X137765000Y-70298061D01*
X137765000Y-70501939D01*
X137804774Y-70701898D01*
X137882795Y-70890256D01*
X137996063Y-71059774D01*
X138140226Y-71203937D01*
X138309744Y-71317205D01*
X138498102Y-71395226D01*
X138698061Y-71435000D01*
X138901939Y-71435000D01*
X139101898Y-71395226D01*
X139290256Y-71317205D01*
X139459774Y-71203937D01*
X139603937Y-71059774D01*
X139717205Y-70890256D01*
X139795226Y-70701898D01*
X139835000Y-70501939D01*
X139835000Y-70298061D01*
X139795226Y-70098102D01*
X139742617Y-69971094D01*
X139803937Y-69909774D01*
X139917205Y-69740256D01*
X139955393Y-69648061D01*
X151215000Y-69648061D01*
X151215000Y-69851939D01*
X151254774Y-70051898D01*
X151332795Y-70240256D01*
X151446063Y-70409774D01*
X151590226Y-70553937D01*
X151759744Y-70667205D01*
X151948102Y-70745226D01*
X152148061Y-70785000D01*
X152351939Y-70785000D01*
X152551898Y-70745226D01*
X152740256Y-70667205D01*
X152909774Y-70553937D01*
X153053937Y-70409774D01*
X153167205Y-70240256D01*
X153245226Y-70051898D01*
X153285000Y-69851939D01*
X153285000Y-69648061D01*
X153245226Y-69448102D01*
X153167205Y-69259744D01*
X153053937Y-69090226D01*
X152909774Y-68946063D01*
X152740256Y-68832795D01*
X152551898Y-68754774D01*
X152351939Y-68715000D01*
X152148061Y-68715000D01*
X151948102Y-68754774D01*
X151759744Y-68832795D01*
X151590226Y-68946063D01*
X151446063Y-69090226D01*
X151332795Y-69259744D01*
X151254774Y-69448102D01*
X151215000Y-69648061D01*
X139955393Y-69648061D01*
X139995226Y-69551898D01*
X140035000Y-69351939D01*
X140035000Y-69148061D01*
X139995226Y-68948102D01*
X139917205Y-68759744D01*
X139803937Y-68590226D01*
X139659774Y-68446063D01*
X139490256Y-68332795D01*
X139301898Y-68254774D01*
X139101939Y-68215000D01*
X138898061Y-68215000D01*
X138698102Y-68254774D01*
X138509744Y-68332795D01*
X138340226Y-68446063D01*
X138196063Y-68590226D01*
X138082795Y-68759744D01*
X138004774Y-68948102D01*
X137965000Y-69148061D01*
X137965000Y-69351939D01*
X138004774Y-69551898D01*
X138057383Y-69678906D01*
X137996063Y-69740226D01*
X137882795Y-69909744D01*
X137804774Y-70098102D01*
X137765000Y-70298061D01*
X133661772Y-70298061D01*
X133659774Y-70296063D01*
X133490256Y-70182795D01*
X133301898Y-70104774D01*
X133101939Y-70065000D01*
X132898061Y-70065000D01*
X132698102Y-70104774D01*
X132509744Y-70182795D01*
X132340226Y-70296063D01*
X132196063Y-70440226D01*
X132082795Y-70609744D01*
X132004774Y-70798102D01*
X131965000Y-70998061D01*
X108610000Y-70998061D01*
X108610000Y-67398061D01*
X134465000Y-67398061D01*
X134465000Y-67601939D01*
X134504774Y-67801898D01*
X134582795Y-67990256D01*
X134696063Y-68159774D01*
X134840226Y-68303937D01*
X135009744Y-68417205D01*
X135198102Y-68495226D01*
X135398061Y-68535000D01*
X135601939Y-68535000D01*
X135801898Y-68495226D01*
X135990256Y-68417205D01*
X136159774Y-68303937D01*
X136303937Y-68159774D01*
X136345172Y-68098061D01*
X161465000Y-68098061D01*
X161465000Y-68301939D01*
X161504774Y-68501898D01*
X161582795Y-68690256D01*
X161696063Y-68859774D01*
X161840226Y-69003937D01*
X162009744Y-69117205D01*
X162198102Y-69195226D01*
X162398061Y-69235000D01*
X162601939Y-69235000D01*
X162801898Y-69195226D01*
X162990256Y-69117205D01*
X163159774Y-69003937D01*
X163200000Y-68963711D01*
X163240226Y-69003937D01*
X163285649Y-69034288D01*
X162960801Y-69168844D01*
X162660256Y-69369662D01*
X162404662Y-69625256D01*
X162203844Y-69925801D01*
X162065518Y-70259750D01*
X161995000Y-70614268D01*
X161995000Y-70975732D01*
X162065518Y-71330250D01*
X162203844Y-71664199D01*
X162404662Y-71964744D01*
X162660256Y-72220338D01*
X162960801Y-72421156D01*
X163047162Y-72456928D01*
X162630000Y-72456928D01*
X162505518Y-72469188D01*
X162385820Y-72505498D01*
X162275506Y-72564463D01*
X162178815Y-72643815D01*
X162099463Y-72740506D01*
X162040498Y-72850820D01*
X162004188Y-72970518D01*
X161991928Y-73095000D01*
X161991928Y-75495000D01*
X162004188Y-75619482D01*
X162040498Y-75739180D01*
X162099463Y-75849494D01*
X162178815Y-75946185D01*
X162275506Y-76025537D01*
X162385820Y-76084502D01*
X162505518Y-76120812D01*
X162630000Y-76133072D01*
X165030000Y-76133072D01*
X165154482Y-76120812D01*
X165274180Y-76084502D01*
X165384494Y-76025537D01*
X165481185Y-75946185D01*
X165560537Y-75849494D01*
X165619502Y-75739180D01*
X165655812Y-75619482D01*
X165668072Y-75495000D01*
X165668072Y-73095000D01*
X165655812Y-72970518D01*
X165619502Y-72850820D01*
X165560537Y-72740506D01*
X165481185Y-72643815D01*
X165384494Y-72564463D01*
X165274180Y-72505498D01*
X165154482Y-72469188D01*
X165030000Y-72456928D01*
X164612838Y-72456928D01*
X164699199Y-72421156D01*
X164999744Y-72220338D01*
X165255338Y-71964744D01*
X165456156Y-71664199D01*
X165594482Y-71330250D01*
X165665000Y-70975732D01*
X165665000Y-70614268D01*
X165594482Y-70259750D01*
X165456156Y-69925801D01*
X165255338Y-69625256D01*
X164999744Y-69369662D01*
X164699199Y-69168844D01*
X164460775Y-69070086D01*
X164559774Y-69003937D01*
X164600000Y-68963711D01*
X164640226Y-69003937D01*
X164809744Y-69117205D01*
X164998102Y-69195226D01*
X165198061Y-69235000D01*
X165401939Y-69235000D01*
X165601898Y-69195226D01*
X165790256Y-69117205D01*
X165959774Y-69003937D01*
X166103937Y-68859774D01*
X166217205Y-68690256D01*
X166295226Y-68501898D01*
X166335000Y-68301939D01*
X166335000Y-68098061D01*
X166295226Y-67898102D01*
X166217205Y-67709744D01*
X166103937Y-67540226D01*
X165959774Y-67396063D01*
X165790256Y-67282795D01*
X165601898Y-67204774D01*
X165401939Y-67165000D01*
X165198061Y-67165000D01*
X164998102Y-67204774D01*
X164809744Y-67282795D01*
X164640226Y-67396063D01*
X164600000Y-67436289D01*
X164559774Y-67396063D01*
X164390256Y-67282795D01*
X164201898Y-67204774D01*
X164001939Y-67165000D01*
X163798061Y-67165000D01*
X163598102Y-67204774D01*
X163409744Y-67282795D01*
X163240226Y-67396063D01*
X163200000Y-67436289D01*
X163159774Y-67396063D01*
X162990256Y-67282795D01*
X162801898Y-67204774D01*
X162601939Y-67165000D01*
X162398061Y-67165000D01*
X162198102Y-67204774D01*
X162009744Y-67282795D01*
X161840226Y-67396063D01*
X161696063Y-67540226D01*
X161582795Y-67709744D01*
X161504774Y-67898102D01*
X161465000Y-68098061D01*
X136345172Y-68098061D01*
X136417205Y-67990256D01*
X136495226Y-67801898D01*
X136535000Y-67601939D01*
X136535000Y-67398061D01*
X136495226Y-67198102D01*
X136417205Y-67009744D01*
X136303937Y-66840226D01*
X136159774Y-66696063D01*
X135990256Y-66582795D01*
X135801898Y-66504774D01*
X135601939Y-66465000D01*
X135398061Y-66465000D01*
X135198102Y-66504774D01*
X135009744Y-66582795D01*
X134840226Y-66696063D01*
X134696063Y-66840226D01*
X134582795Y-67009744D01*
X134504774Y-67198102D01*
X134465000Y-67398061D01*
X108610000Y-67398061D01*
X108610000Y-66098061D01*
X138265000Y-66098061D01*
X138265000Y-66301939D01*
X138304774Y-66501898D01*
X138382795Y-66690256D01*
X138496063Y-66859774D01*
X138640226Y-67003937D01*
X138809744Y-67117205D01*
X138998102Y-67195226D01*
X139198061Y-67235000D01*
X139401939Y-67235000D01*
X139601898Y-67195226D01*
X139790256Y-67117205D01*
X139959774Y-67003937D01*
X140103937Y-66859774D01*
X140217205Y-66690256D01*
X140295226Y-66501898D01*
X140335000Y-66301939D01*
X140335000Y-66098061D01*
X140315109Y-65998061D01*
X152665000Y-65998061D01*
X152665000Y-66201939D01*
X152704774Y-66401898D01*
X152782795Y-66590256D01*
X152896063Y-66759774D01*
X153040226Y-66903937D01*
X153209744Y-67017205D01*
X153398102Y-67095226D01*
X153598061Y-67135000D01*
X153801939Y-67135000D01*
X154001898Y-67095226D01*
X154190256Y-67017205D01*
X154359774Y-66903937D01*
X154503937Y-66759774D01*
X154617205Y-66590256D01*
X154695226Y-66401898D01*
X154735000Y-66201939D01*
X154735000Y-65998061D01*
X154695226Y-65798102D01*
X154617205Y-65609744D01*
X154503937Y-65440226D01*
X154359774Y-65296063D01*
X154190256Y-65182795D01*
X154001898Y-65104774D01*
X153801939Y-65065000D01*
X153598061Y-65065000D01*
X153398102Y-65104774D01*
X153209744Y-65182795D01*
X153040226Y-65296063D01*
X152896063Y-65440226D01*
X152782795Y-65609744D01*
X152704774Y-65798102D01*
X152665000Y-65998061D01*
X140315109Y-65998061D01*
X140295226Y-65898102D01*
X140217205Y-65709744D01*
X140103937Y-65540226D01*
X139959774Y-65396063D01*
X139790256Y-65282795D01*
X139601898Y-65204774D01*
X139401939Y-65165000D01*
X139198061Y-65165000D01*
X138998102Y-65204774D01*
X138809744Y-65282795D01*
X138640226Y-65396063D01*
X138496063Y-65540226D01*
X138382795Y-65709744D01*
X138304774Y-65898102D01*
X138265000Y-66098061D01*
X108610000Y-66098061D01*
X108610000Y-64198061D01*
X134965000Y-64198061D01*
X134965000Y-64401939D01*
X135004774Y-64601898D01*
X135082795Y-64790256D01*
X135196063Y-64959774D01*
X135340226Y-65103937D01*
X135509744Y-65217205D01*
X135698102Y-65295226D01*
X135898061Y-65335000D01*
X136101939Y-65335000D01*
X136301898Y-65295226D01*
X136490256Y-65217205D01*
X136659774Y-65103937D01*
X136803937Y-64959774D01*
X136917205Y-64790256D01*
X136995226Y-64601898D01*
X137035000Y-64401939D01*
X137035000Y-64198061D01*
X136995226Y-63998102D01*
X136917205Y-63809744D01*
X136803937Y-63640226D01*
X136659774Y-63496063D01*
X136490256Y-63382795D01*
X136301898Y-63304774D01*
X136101939Y-63265000D01*
X135898061Y-63265000D01*
X135698102Y-63304774D01*
X135509744Y-63382795D01*
X135340226Y-63496063D01*
X135196063Y-63640226D01*
X135082795Y-63809744D01*
X135004774Y-63998102D01*
X134965000Y-64198061D01*
X108610000Y-64198061D01*
X108610000Y-62798061D01*
X157965000Y-62798061D01*
X157965000Y-63001939D01*
X158004774Y-63201898D01*
X158082795Y-63390256D01*
X158196063Y-63559774D01*
X158340226Y-63703937D01*
X158509744Y-63817205D01*
X158698102Y-63895226D01*
X158898061Y-63935000D01*
X159101939Y-63935000D01*
X159301898Y-63895226D01*
X159490256Y-63817205D01*
X159659774Y-63703937D01*
X159803937Y-63559774D01*
X159917205Y-63390256D01*
X159995226Y-63201898D01*
X160035000Y-63001939D01*
X160035000Y-62798061D01*
X159995226Y-62598102D01*
X159917205Y-62409744D01*
X159803937Y-62240226D01*
X159659774Y-62096063D01*
X159490256Y-61982795D01*
X159301898Y-61904774D01*
X159101939Y-61865000D01*
X158898061Y-61865000D01*
X158698102Y-61904774D01*
X158509744Y-61982795D01*
X158340226Y-62096063D01*
X158196063Y-62240226D01*
X158082795Y-62409744D01*
X158004774Y-62598102D01*
X157965000Y-62798061D01*
X108610000Y-62798061D01*
X108610000Y-61598061D01*
X122065000Y-61598061D01*
X122065000Y-61801939D01*
X122104774Y-62001898D01*
X122182795Y-62190256D01*
X122296063Y-62359774D01*
X122440226Y-62503937D01*
X122609744Y-62617205D01*
X122798102Y-62695226D01*
X122998061Y-62735000D01*
X123201939Y-62735000D01*
X123401898Y-62695226D01*
X123590256Y-62617205D01*
X123759774Y-62503937D01*
X123903937Y-62359774D01*
X124017205Y-62190256D01*
X124095226Y-62001898D01*
X124135000Y-61801939D01*
X124135000Y-61598061D01*
X124095226Y-61398102D01*
X124017205Y-61209744D01*
X123903937Y-61040226D01*
X123759774Y-60896063D01*
X123714068Y-60865523D01*
X123827797Y-60804734D01*
X123875000Y-60765996D01*
X123922203Y-60804734D01*
X124102007Y-60900841D01*
X124297105Y-60960024D01*
X124500000Y-60980007D01*
X124702894Y-60960024D01*
X124897992Y-60900841D01*
X125077797Y-60804734D01*
X125125000Y-60765996D01*
X125172203Y-60804734D01*
X125352007Y-60900841D01*
X125547105Y-60960024D01*
X125750000Y-60980007D01*
X125952894Y-60960024D01*
X126147992Y-60900841D01*
X126229406Y-60857324D01*
X126245506Y-60870537D01*
X126355820Y-60929502D01*
X126475518Y-60965812D01*
X126600000Y-60978072D01*
X126714250Y-60975000D01*
X126873000Y-60816250D01*
X126873000Y-59817000D01*
X127127000Y-59817000D01*
X127127000Y-60816250D01*
X127285750Y-60975000D01*
X127400000Y-60978072D01*
X127524482Y-60965812D01*
X127644180Y-60929502D01*
X127754494Y-60870537D01*
X127851185Y-60791185D01*
X127930537Y-60694494D01*
X127989502Y-60584180D01*
X128025812Y-60464482D01*
X128032353Y-60398061D01*
X138665000Y-60398061D01*
X138665000Y-60601939D01*
X138704774Y-60801898D01*
X138782795Y-60990256D01*
X138896063Y-61159774D01*
X139040226Y-61303937D01*
X139209744Y-61417205D01*
X139398102Y-61495226D01*
X139598061Y-61535000D01*
X139801939Y-61535000D01*
X140001898Y-61495226D01*
X140190256Y-61417205D01*
X140200000Y-61410694D01*
X140209744Y-61417205D01*
X140398102Y-61495226D01*
X140598061Y-61535000D01*
X140801939Y-61535000D01*
X141001898Y-61495226D01*
X141190256Y-61417205D01*
X141359774Y-61303937D01*
X141503937Y-61159774D01*
X141617205Y-60990256D01*
X141695226Y-60801898D01*
X141735000Y-60601939D01*
X141735000Y-60398061D01*
X141695226Y-60198102D01*
X141617205Y-60009744D01*
X141503937Y-59840226D01*
X141359774Y-59696063D01*
X141213104Y-59598061D01*
X155665000Y-59598061D01*
X155665000Y-59801939D01*
X155704774Y-60001898D01*
X155782795Y-60190256D01*
X155896063Y-60359774D01*
X156040226Y-60503937D01*
X156209744Y-60617205D01*
X156398102Y-60695226D01*
X156598061Y-60735000D01*
X156801939Y-60735000D01*
X157001898Y-60695226D01*
X157190256Y-60617205D01*
X157359774Y-60503937D01*
X157503937Y-60359774D01*
X157617205Y-60190256D01*
X157695226Y-60001898D01*
X157735000Y-59801939D01*
X157735000Y-59698061D01*
X157865000Y-59698061D01*
X157865000Y-59901939D01*
X157904774Y-60101898D01*
X157982795Y-60290256D01*
X158096063Y-60459774D01*
X158240226Y-60603937D01*
X158409744Y-60717205D01*
X158598102Y-60795226D01*
X158798061Y-60835000D01*
X159001939Y-60835000D01*
X159201898Y-60795226D01*
X159390256Y-60717205D01*
X159559774Y-60603937D01*
X159703937Y-60459774D01*
X159817205Y-60290256D01*
X159895226Y-60101898D01*
X159935000Y-59901939D01*
X159935000Y-59698061D01*
X159895226Y-59498102D01*
X159817205Y-59309744D01*
X159703937Y-59140226D01*
X159559774Y-58996063D01*
X159390256Y-58882795D01*
X159201898Y-58804774D01*
X159001939Y-58765000D01*
X158798061Y-58765000D01*
X158598102Y-58804774D01*
X158409744Y-58882795D01*
X158240226Y-58996063D01*
X158096063Y-59140226D01*
X157982795Y-59309744D01*
X157904774Y-59498102D01*
X157865000Y-59698061D01*
X157735000Y-59698061D01*
X157735000Y-59598061D01*
X157695226Y-59398102D01*
X157617205Y-59209744D01*
X157503937Y-59040226D01*
X157359774Y-58896063D01*
X157190256Y-58782795D01*
X157001898Y-58704774D01*
X156801939Y-58665000D01*
X156598061Y-58665000D01*
X156398102Y-58704774D01*
X156209744Y-58782795D01*
X156040226Y-58896063D01*
X155896063Y-59040226D01*
X155782795Y-59209744D01*
X155704774Y-59398102D01*
X155665000Y-59598061D01*
X141213104Y-59598061D01*
X141190256Y-59582795D01*
X141001898Y-59504774D01*
X140801939Y-59465000D01*
X140598061Y-59465000D01*
X140398102Y-59504774D01*
X140209744Y-59582795D01*
X140200000Y-59589306D01*
X140190256Y-59582795D01*
X140001898Y-59504774D01*
X139801939Y-59465000D01*
X139598061Y-59465000D01*
X139398102Y-59504774D01*
X139209744Y-59582795D01*
X139040226Y-59696063D01*
X138896063Y-59840226D01*
X138782795Y-60009744D01*
X138704774Y-60198102D01*
X138665000Y-60398061D01*
X128032353Y-60398061D01*
X128038072Y-60340000D01*
X128035000Y-59975750D01*
X127876250Y-59817000D01*
X127127000Y-59817000D01*
X126873000Y-59817000D01*
X126853000Y-59817000D01*
X126853000Y-59563000D01*
X126873000Y-59563000D01*
X126873000Y-58563750D01*
X127127000Y-58563750D01*
X127127000Y-59563000D01*
X127876250Y-59563000D01*
X128035000Y-59404250D01*
X128038072Y-59040000D01*
X128025812Y-58915518D01*
X127989502Y-58795820D01*
X127930537Y-58685506D01*
X127858773Y-58598061D01*
X135065000Y-58598061D01*
X135065000Y-58801939D01*
X135104774Y-59001898D01*
X135182795Y-59190256D01*
X135296063Y-59359774D01*
X135440226Y-59503937D01*
X135609744Y-59617205D01*
X135798102Y-59695226D01*
X135998061Y-59735000D01*
X136201939Y-59735000D01*
X136401898Y-59695226D01*
X136590256Y-59617205D01*
X136759774Y-59503937D01*
X136903937Y-59359774D01*
X137017205Y-59190256D01*
X137095226Y-59001898D01*
X137135000Y-58801939D01*
X137135000Y-58598061D01*
X137095226Y-58398102D01*
X137017205Y-58209744D01*
X136903937Y-58040226D01*
X136759774Y-57896063D01*
X136590256Y-57782795D01*
X136401898Y-57704774D01*
X136201939Y-57665000D01*
X135998061Y-57665000D01*
X135798102Y-57704774D01*
X135609744Y-57782795D01*
X135440226Y-57896063D01*
X135296063Y-58040226D01*
X135182795Y-58209744D01*
X135104774Y-58398102D01*
X135065000Y-58598061D01*
X127858773Y-58598061D01*
X127851185Y-58588815D01*
X127754494Y-58509463D01*
X127644180Y-58450498D01*
X127524482Y-58414188D01*
X127400000Y-58401928D01*
X127285750Y-58405000D01*
X127127000Y-58563750D01*
X126873000Y-58563750D01*
X126714250Y-58405000D01*
X126600000Y-58401928D01*
X126475518Y-58414188D01*
X126355820Y-58450498D01*
X126245506Y-58509463D01*
X126229407Y-58522675D01*
X126147993Y-58479159D01*
X125952895Y-58419976D01*
X125750000Y-58399993D01*
X125547106Y-58419976D01*
X125352008Y-58479159D01*
X125172204Y-58575266D01*
X125125000Y-58614005D01*
X125077797Y-58575266D01*
X124897993Y-58479159D01*
X124702895Y-58419976D01*
X124500000Y-58399993D01*
X124297106Y-58419976D01*
X124102008Y-58479159D01*
X123922204Y-58575266D01*
X123875000Y-58614005D01*
X123827797Y-58575266D01*
X123647993Y-58479159D01*
X123452895Y-58419976D01*
X123250000Y-58399993D01*
X123047106Y-58419976D01*
X122852008Y-58479159D01*
X122672204Y-58575266D01*
X122514605Y-58704604D01*
X122385267Y-58862203D01*
X122289159Y-59042007D01*
X122229976Y-59237105D01*
X122215000Y-59389162D01*
X122215000Y-59990837D01*
X122229976Y-60142894D01*
X122289159Y-60337992D01*
X122385266Y-60517797D01*
X122514604Y-60675396D01*
X122633487Y-60772960D01*
X122609744Y-60782795D01*
X122440226Y-60896063D01*
X122296063Y-61040226D01*
X122182795Y-61209744D01*
X122104774Y-61398102D01*
X122065000Y-61598061D01*
X108610000Y-61598061D01*
X108610000Y-57525000D01*
X162961686Y-57525000D01*
X162974912Y-57659283D01*
X163014081Y-57788406D01*
X163077688Y-57907407D01*
X163112644Y-57950000D01*
X163077688Y-57992593D01*
X163014081Y-58111594D01*
X162974912Y-58240717D01*
X162961686Y-58375000D01*
X162965000Y-58408647D01*
X162965001Y-62241343D01*
X162961686Y-62275000D01*
X162974912Y-62409283D01*
X163014081Y-62538406D01*
X163077688Y-62657407D01*
X163112644Y-62700000D01*
X163077688Y-62742593D01*
X163014081Y-62861594D01*
X162974912Y-62990717D01*
X162961686Y-63125000D01*
X162965000Y-63158648D01*
X162965001Y-64108647D01*
X162974913Y-64209283D01*
X163014082Y-64338406D01*
X163077689Y-64457407D01*
X163163290Y-64561711D01*
X163267594Y-64647312D01*
X163386595Y-64710919D01*
X163515718Y-64750088D01*
X163540534Y-64752532D01*
X163596324Y-64936447D01*
X163701716Y-65133623D01*
X163843551Y-65306449D01*
X164016377Y-65448284D01*
X164213553Y-65553676D01*
X164427501Y-65618577D01*
X164594248Y-65635000D01*
X165605752Y-65635000D01*
X165772499Y-65618577D01*
X165986447Y-65553676D01*
X166183623Y-65448284D01*
X166356449Y-65306449D01*
X166498284Y-65133623D01*
X166603676Y-64936447D01*
X166668577Y-64722499D01*
X166690491Y-64500000D01*
X166668577Y-64277501D01*
X166603676Y-64063553D01*
X166498284Y-63866377D01*
X166356449Y-63693551D01*
X166183623Y-63551716D01*
X166023884Y-63466334D01*
X166056454Y-63433991D01*
X166062499Y-63426579D01*
X166114473Y-63361936D01*
X166148485Y-63309960D01*
X166183184Y-63258516D01*
X166187674Y-63250072D01*
X166226103Y-63176566D01*
X166249360Y-63119001D01*
X166273419Y-63061768D01*
X166276183Y-63052612D01*
X166299602Y-62973040D01*
X166311236Y-62912051D01*
X166323719Y-62851243D01*
X166324652Y-62841724D01*
X166324653Y-62841719D01*
X166324653Y-62841713D01*
X166332170Y-62759120D01*
X166331737Y-62697031D01*
X166332170Y-62634942D01*
X166331237Y-62625424D01*
X166323309Y-62550000D01*
X166834388Y-62550000D01*
X166856785Y-62777400D01*
X166923115Y-62996060D01*
X167030829Y-63197579D01*
X167175788Y-63374212D01*
X167352421Y-63519171D01*
X167553940Y-63626885D01*
X167772600Y-63693215D01*
X167943021Y-63710000D01*
X168256979Y-63710000D01*
X168427400Y-63693215D01*
X168646060Y-63626885D01*
X168847579Y-63519171D01*
X169024212Y-63374212D01*
X169169171Y-63197579D01*
X169276885Y-62996060D01*
X169343215Y-62777400D01*
X169365612Y-62550000D01*
X169343215Y-62322600D01*
X169276885Y-62103940D01*
X169169171Y-61902421D01*
X169024212Y-61725788D01*
X168847579Y-61580829D01*
X168646060Y-61473115D01*
X168427400Y-61406785D01*
X168256979Y-61390000D01*
X167943021Y-61390000D01*
X167772600Y-61406785D01*
X167553940Y-61473115D01*
X167352421Y-61580829D01*
X167175788Y-61725788D01*
X167030829Y-61902421D01*
X166923115Y-62103940D01*
X166856785Y-62322600D01*
X166834388Y-62550000D01*
X166323309Y-62550000D01*
X166322566Y-62542933D01*
X166310078Y-62482102D01*
X166298450Y-62421143D01*
X166295686Y-62411987D01*
X166271159Y-62332751D01*
X166247096Y-62275507D01*
X166223841Y-62217948D01*
X166219351Y-62209503D01*
X166179900Y-62136540D01*
X166145185Y-62085073D01*
X166111191Y-62033124D01*
X166105146Y-62025712D01*
X166052275Y-61961800D01*
X166008214Y-61918045D01*
X165964776Y-61873689D01*
X165957407Y-61867592D01*
X165893128Y-61815168D01*
X165841417Y-61780812D01*
X165790191Y-61745737D01*
X165781777Y-61741188D01*
X165708541Y-61702248D01*
X165651162Y-61678599D01*
X165594080Y-61654133D01*
X165584943Y-61651305D01*
X165505538Y-61627331D01*
X165444677Y-61615280D01*
X165383905Y-61602363D01*
X165374394Y-61601363D01*
X165291843Y-61593269D01*
X165291837Y-61593269D01*
X165258647Y-61590000D01*
X164335000Y-61590000D01*
X164335000Y-59060000D01*
X165258647Y-59060000D01*
X165292263Y-59056689D01*
X165297780Y-59056689D01*
X165307292Y-59055690D01*
X165342477Y-59051743D01*
X165359283Y-59050088D01*
X165360485Y-59049723D01*
X165389720Y-59046444D01*
X165450473Y-59033530D01*
X165511347Y-59021477D01*
X165520483Y-59018649D01*
X165520482Y-59018649D01*
X165520488Y-59018648D01*
X165520493Y-59018646D01*
X165599547Y-58993569D01*
X165656632Y-58969102D01*
X165714016Y-58945450D01*
X165722422Y-58940905D01*
X165722425Y-58940904D01*
X165722427Y-58940903D01*
X165722430Y-58940901D01*
X165795116Y-58900941D01*
X165846385Y-58865836D01*
X165898049Y-58831511D01*
X165905419Y-58825415D01*
X165968958Y-58772099D01*
X166012378Y-58727760D01*
X166056454Y-58683991D01*
X166062499Y-58676579D01*
X166114473Y-58611936D01*
X166148485Y-58559960D01*
X166183184Y-58508516D01*
X166187674Y-58500072D01*
X166226103Y-58426566D01*
X166249360Y-58369001D01*
X166273419Y-58311768D01*
X166276183Y-58302612D01*
X166299602Y-58223040D01*
X166311236Y-58162051D01*
X166323719Y-58101243D01*
X166323840Y-58100000D01*
X166834388Y-58100000D01*
X166856785Y-58327400D01*
X166923115Y-58546060D01*
X167030829Y-58747579D01*
X167175788Y-58924212D01*
X167352421Y-59069171D01*
X167553940Y-59176885D01*
X167772600Y-59243215D01*
X167943021Y-59260000D01*
X168256979Y-59260000D01*
X168427400Y-59243215D01*
X168646060Y-59176885D01*
X168847579Y-59069171D01*
X169024212Y-58924212D01*
X169169171Y-58747579D01*
X169276885Y-58546060D01*
X169343215Y-58327400D01*
X169365612Y-58100000D01*
X169343215Y-57872600D01*
X169276885Y-57653940D01*
X169169171Y-57452421D01*
X169024212Y-57275788D01*
X168847579Y-57130829D01*
X168646060Y-57023115D01*
X168427400Y-56956785D01*
X168256979Y-56940000D01*
X167943021Y-56940000D01*
X167772600Y-56956785D01*
X167553940Y-57023115D01*
X167352421Y-57130829D01*
X167175788Y-57275788D01*
X167030829Y-57452421D01*
X166923115Y-57653940D01*
X166856785Y-57872600D01*
X166834388Y-58100000D01*
X166323840Y-58100000D01*
X166324652Y-58091724D01*
X166324653Y-58091719D01*
X166324653Y-58091713D01*
X166332170Y-58009120D01*
X166331737Y-57947031D01*
X166332170Y-57884942D01*
X166331237Y-57875424D01*
X166322566Y-57792933D01*
X166310078Y-57732102D01*
X166298450Y-57671143D01*
X166295686Y-57661987D01*
X166271159Y-57582751D01*
X166247096Y-57525507D01*
X166223841Y-57467948D01*
X166219351Y-57459503D01*
X166179900Y-57386540D01*
X166145185Y-57335073D01*
X166111191Y-57283124D01*
X166105146Y-57275712D01*
X166052275Y-57211800D01*
X166023923Y-57183645D01*
X166183623Y-57098284D01*
X166356449Y-56956449D01*
X166498284Y-56783623D01*
X166603676Y-56586447D01*
X166668577Y-56372499D01*
X166690491Y-56150000D01*
X166668577Y-55927501D01*
X166603676Y-55713553D01*
X166498284Y-55516377D01*
X166356449Y-55343551D01*
X166183623Y-55201716D01*
X165986447Y-55096324D01*
X165772499Y-55031423D01*
X165605752Y-55015000D01*
X164594248Y-55015000D01*
X164427501Y-55031423D01*
X164213553Y-55096324D01*
X164016377Y-55201716D01*
X163843551Y-55343551D01*
X163701716Y-55516377D01*
X163596324Y-55713553D01*
X163540534Y-55897468D01*
X163515717Y-55899912D01*
X163386594Y-55939081D01*
X163267593Y-56002688D01*
X163163289Y-56088290D01*
X163077688Y-56192594D01*
X163014081Y-56311595D01*
X162974912Y-56440718D01*
X162965000Y-56541354D01*
X162965001Y-57491344D01*
X162961686Y-57525000D01*
X108610000Y-57525000D01*
X108610000Y-55298061D01*
X142465000Y-55298061D01*
X142465000Y-55501939D01*
X142504774Y-55701898D01*
X142582795Y-55890256D01*
X142696063Y-56059774D01*
X142840226Y-56203937D01*
X143009744Y-56317205D01*
X143198102Y-56395226D01*
X143398061Y-56435000D01*
X143601939Y-56435000D01*
X143801898Y-56395226D01*
X143990256Y-56317205D01*
X144159774Y-56203937D01*
X144303937Y-56059774D01*
X144305796Y-56056991D01*
X144398102Y-56095226D01*
X144598061Y-56135000D01*
X144801939Y-56135000D01*
X145001898Y-56095226D01*
X145190256Y-56017205D01*
X145359774Y-55903937D01*
X145503937Y-55759774D01*
X145617205Y-55590256D01*
X145695226Y-55401898D01*
X145735000Y-55201939D01*
X145735000Y-54998061D01*
X145695226Y-54798102D01*
X145617205Y-54609744D01*
X145503937Y-54440226D01*
X145359774Y-54296063D01*
X145190256Y-54182795D01*
X145001898Y-54104774D01*
X144801939Y-54065000D01*
X144598061Y-54065000D01*
X144398102Y-54104774D01*
X144209744Y-54182795D01*
X144040226Y-54296063D01*
X143896063Y-54440226D01*
X143894204Y-54443009D01*
X143801898Y-54404774D01*
X143601939Y-54365000D01*
X143398061Y-54365000D01*
X143198102Y-54404774D01*
X143009744Y-54482795D01*
X142840226Y-54596063D01*
X142696063Y-54740226D01*
X142582795Y-54909744D01*
X142504774Y-55098102D01*
X142465000Y-55298061D01*
X108610000Y-55298061D01*
X108610000Y-50412984D01*
X109294431Y-49630777D01*
X110195000Y-49630777D01*
X110195000Y-50189223D01*
X110303948Y-50736939D01*
X110517656Y-51252876D01*
X110827912Y-51717207D01*
X111222793Y-52112088D01*
X111687124Y-52422344D01*
X112203061Y-52636052D01*
X112750777Y-52745000D01*
X113309223Y-52745000D01*
X113856939Y-52636052D01*
X114372876Y-52422344D01*
X114837207Y-52112088D01*
X115232088Y-51717207D01*
X115542344Y-51252876D01*
X115756052Y-50736939D01*
X115843350Y-50298061D01*
X139865000Y-50298061D01*
X139865000Y-50501939D01*
X139904774Y-50701898D01*
X139982795Y-50890256D01*
X140096063Y-51059774D01*
X140240226Y-51203937D01*
X140409744Y-51317205D01*
X140598102Y-51395226D01*
X140798061Y-51435000D01*
X141001939Y-51435000D01*
X141187645Y-51398061D01*
X143465000Y-51398061D01*
X143465000Y-51601939D01*
X143504774Y-51801898D01*
X143582795Y-51990256D01*
X143696063Y-52159774D01*
X143840226Y-52303937D01*
X144009744Y-52417205D01*
X144198102Y-52495226D01*
X144398061Y-52535000D01*
X144601939Y-52535000D01*
X144801898Y-52495226D01*
X144990256Y-52417205D01*
X145159774Y-52303937D01*
X145303937Y-52159774D01*
X145417205Y-51990256D01*
X145495226Y-51801898D01*
X145535000Y-51601939D01*
X145535000Y-51398061D01*
X145495226Y-51198102D01*
X145417205Y-51009744D01*
X145303937Y-50840226D01*
X145159774Y-50696063D01*
X145013104Y-50598061D01*
X164665000Y-50598061D01*
X164665000Y-50801939D01*
X164704774Y-51001898D01*
X164782795Y-51190256D01*
X164896063Y-51359774D01*
X165040226Y-51503937D01*
X165209744Y-51617205D01*
X165398102Y-51695226D01*
X165598061Y-51735000D01*
X165801939Y-51735000D01*
X166001898Y-51695226D01*
X166190256Y-51617205D01*
X166359774Y-51503937D01*
X166503937Y-51359774D01*
X166617205Y-51190256D01*
X166695226Y-51001898D01*
X166735000Y-50801939D01*
X166735000Y-50598061D01*
X166695226Y-50398102D01*
X166617205Y-50209744D01*
X166503937Y-50040226D01*
X166359774Y-49896063D01*
X166190256Y-49782795D01*
X166001898Y-49704774D01*
X165801939Y-49665000D01*
X165598061Y-49665000D01*
X165398102Y-49704774D01*
X165209744Y-49782795D01*
X165040226Y-49896063D01*
X164896063Y-50040226D01*
X164782795Y-50209744D01*
X164704774Y-50398102D01*
X164665000Y-50598061D01*
X145013104Y-50598061D01*
X144990256Y-50582795D01*
X144801898Y-50504774D01*
X144601939Y-50465000D01*
X144398061Y-50465000D01*
X144198102Y-50504774D01*
X144009744Y-50582795D01*
X143840226Y-50696063D01*
X143696063Y-50840226D01*
X143582795Y-51009744D01*
X143504774Y-51198102D01*
X143465000Y-51398061D01*
X141187645Y-51398061D01*
X141201898Y-51395226D01*
X141390256Y-51317205D01*
X141559774Y-51203937D01*
X141703937Y-51059774D01*
X141817205Y-50890256D01*
X141895226Y-50701898D01*
X141935000Y-50501939D01*
X141935000Y-50298061D01*
X141895226Y-50098102D01*
X141817205Y-49909744D01*
X141703937Y-49740226D01*
X141559774Y-49596063D01*
X141390256Y-49482795D01*
X141201898Y-49404774D01*
X141001939Y-49365000D01*
X140798061Y-49365000D01*
X140598102Y-49404774D01*
X140409744Y-49482795D01*
X140240226Y-49596063D01*
X140096063Y-49740226D01*
X139982795Y-49909744D01*
X139904774Y-50098102D01*
X139865000Y-50298061D01*
X115843350Y-50298061D01*
X115865000Y-50189223D01*
X115865000Y-49630777D01*
X115756052Y-49083061D01*
X115542344Y-48567124D01*
X115232088Y-48102793D01*
X114837207Y-47707912D01*
X114372876Y-47397656D01*
X113856939Y-47183948D01*
X113309223Y-47075000D01*
X112750777Y-47075000D01*
X112203061Y-47183948D01*
X111687124Y-47397656D01*
X111222793Y-47707912D01*
X110827912Y-48102793D01*
X110517656Y-48567124D01*
X110303948Y-49083061D01*
X110195000Y-49630777D01*
X109294431Y-49630777D01*
X112694486Y-45745000D01*
X169245514Y-45745000D01*
X170952488Y-47695828D01*
G37*
%TD.AperFunction*%
%TD*%
M02*
