%TF.GenerationSoftware,KiCad,Pcbnew,(5.1.9)-1*%
%TF.CreationDate,2021-05-06T02:52:03-06:00*%
%TF.ProjectId,stm32 design,73746d33-3220-4646-9573-69676e2e6b69,rev?*%
%TF.SameCoordinates,Original*%
%TF.FileFunction,Copper,L4,Bot*%
%TF.FilePolarity,Positive*%
%FSLAX46Y46*%
G04 Gerber Fmt 4.6, Leading zero omitted, Abs format (unit mm)*
G04 Created by KiCad (PCBNEW (5.1.9)-1) date 2021-05-06 02:52:03*
%MOMM*%
%LPD*%
G01*
G04 APERTURE LIST*
%TA.AperFunction,ComponentPad*%
%ADD10O,1.250000X1.050000*%
%TD*%
%TA.AperFunction,ComponentPad*%
%ADD11O,1.900000X1.000000*%
%TD*%
%TA.AperFunction,ComponentPad*%
%ADD12C,0.700000*%
%TD*%
%TA.AperFunction,ComponentPad*%
%ADD13C,4.400000*%
%TD*%
%TA.AperFunction,ComponentPad*%
%ADD14R,2.400000X2.400000*%
%TD*%
%TA.AperFunction,ComponentPad*%
%ADD15C,2.400000*%
%TD*%
%TA.AperFunction,ComponentPad*%
%ADD16O,0.800000X1.300000*%
%TD*%
%TA.AperFunction,ViaPad*%
%ADD17C,0.800000*%
%TD*%
%TA.AperFunction,Conductor*%
%ADD18C,0.300000*%
%TD*%
%TA.AperFunction,Conductor*%
%ADD19C,0.500000*%
%TD*%
%TA.AperFunction,Conductor*%
%ADD20C,0.261112*%
%TD*%
G04 APERTURE END LIST*
D10*
%TO.P,J2,6*%
%TO.N,Net-(J2-Pad6)*%
X168100000Y-58100000D03*
X168100000Y-62550000D03*
D11*
X165100000Y-56150000D03*
X165100000Y-64500000D03*
%TD*%
D12*
%TO.P,H1,1*%
%TO.N,GND*%
X112926726Y-106528274D03*
X111760000Y-106045000D03*
X110593274Y-106528274D03*
X110110000Y-107695000D03*
X110593274Y-108861726D03*
X111760000Y-109345000D03*
X112926726Y-108861726D03*
X113410000Y-107695000D03*
D13*
X111760000Y-107695000D03*
%TD*%
%TO.P,H2,1*%
%TO.N,GND*%
X169545000Y-50165000D03*
D12*
X171195000Y-50165000D03*
X170711726Y-51331726D03*
X169545000Y-51815000D03*
X168378274Y-51331726D03*
X167895000Y-50165000D03*
X168378274Y-48998274D03*
X169545000Y-48515000D03*
X170711726Y-48998274D03*
%TD*%
%TO.P,H3,1*%
%TO.N,GND*%
X114196726Y-48743274D03*
X113030000Y-48260000D03*
X111863274Y-48743274D03*
X111380000Y-49910000D03*
X111863274Y-51076726D03*
X113030000Y-51560000D03*
X114196726Y-51076726D03*
X114680000Y-49910000D03*
D13*
X113030000Y-49910000D03*
%TD*%
%TO.P,H4,1*%
%TO.N,GND*%
X170180000Y-107315000D03*
D12*
X171830000Y-107315000D03*
X171346726Y-108481726D03*
X170180000Y-108965000D03*
X169013274Y-108481726D03*
X168530000Y-107315000D03*
X169013274Y-106148274D03*
X170180000Y-105665000D03*
X171346726Y-106148274D03*
%TD*%
D14*
%TO.P,J1,1*%
%TO.N,+12V*%
X163830000Y-74295000D03*
D15*
%TO.P,J1,2*%
%TO.N,GND*%
X163830000Y-70795000D03*
%TD*%
%TO.P,J4,1*%
%TO.N,+3.3VA*%
%TA.AperFunction,ComponentPad*%
G36*
G01*
X127400000Y-59240000D02*
X127400000Y-60140000D01*
G75*
G02*
X127200000Y-60340000I-200000J0D01*
G01*
X126800000Y-60340000D01*
G75*
G02*
X126600000Y-60140000I0J200000D01*
G01*
X126600000Y-59240000D01*
G75*
G02*
X126800000Y-59040000I200000J0D01*
G01*
X127200000Y-59040000D01*
G75*
G02*
X127400000Y-59240000I0J-200000D01*
G01*
G37*
%TD.AperFunction*%
D16*
%TO.P,J4,2*%
%TO.N,I2C1_SCL*%
X125750000Y-59690000D03*
%TO.P,J4,3*%
%TO.N,I2C1_SDA*%
X124500000Y-59690000D03*
%TO.P,J4,4*%
%TO.N,GND*%
X123250000Y-59690000D03*
%TD*%
%TO.P,J5,4*%
%TO.N,GND*%
X125670000Y-106045000D03*
%TO.P,J5,3*%
%TO.N,USART3_RX*%
X124420000Y-106045000D03*
%TO.P,J5,2*%
%TO.N,USART3_TX*%
X123170000Y-106045000D03*
%TO.P,J5,1*%
%TO.N,+3.3VA*%
%TA.AperFunction,ComponentPad*%
G36*
G01*
X121520000Y-106495000D02*
X121520000Y-105595000D01*
G75*
G02*
X121720000Y-105395000I200000J0D01*
G01*
X122120000Y-105395000D01*
G75*
G02*
X122320000Y-105595000I0J-200000D01*
G01*
X122320000Y-106495000D01*
G75*
G02*
X122120000Y-106695000I-200000J0D01*
G01*
X121720000Y-106695000D01*
G75*
G02*
X121520000Y-106495000I0J200000D01*
G01*
G37*
%TD.AperFunction*%
%TD*%
D17*
%TO.N,GND*%
X169100000Y-81200000D03*
%TO.N,+3.3VA*%
X162100000Y-103000000D03*
X157500000Y-104600000D03*
X151200000Y-104100000D03*
X153400000Y-105800000D03*
X159000000Y-105800000D03*
X141700000Y-60300000D03*
X125100000Y-83200000D03*
%TO.N,+3V3*%
X117000000Y-72750000D03*
%TO.N,+3.3VA*%
X160500000Y-101750000D03*
%TO.N,GND*%
X122000000Y-86000000D03*
X125000000Y-86000000D03*
X167900000Y-79600000D03*
X162000000Y-97600000D03*
X163500000Y-98900000D03*
X157600000Y-97600000D03*
X159000000Y-98700000D03*
X148800000Y-96600000D03*
X157500000Y-110000000D03*
X159000000Y-108900000D03*
X146700000Y-107300000D03*
X163900000Y-68200000D03*
X162500000Y-68200000D03*
X165300000Y-68200000D03*
X159000000Y-62900000D03*
X140700000Y-60500000D03*
X139700000Y-60500000D03*
X136100000Y-58700000D03*
X123100000Y-61700000D03*
X117100000Y-77300000D03*
X122600000Y-75900000D03*
X126200000Y-79000000D03*
X130200000Y-87000000D03*
X128000000Y-87100000D03*
X137700000Y-81400000D03*
X127000000Y-93900000D03*
X128100000Y-85300000D03*
X137700000Y-81400000D03*
X137000000Y-79200000D03*
X148800000Y-91300000D03*
X159800000Y-88700000D03*
X165700000Y-50700000D03*
X167100000Y-48300000D03*
X167300000Y-52500000D03*
%TO.N,HSE_IN*%
X131500000Y-75470000D03*
X129750000Y-78000000D03*
X128100000Y-76900000D03*
%TO.N,+3.3VA*%
X132010872Y-87481880D03*
X131500000Y-89750000D03*
X122600000Y-85000000D03*
X125100000Y-87000000D03*
X125100000Y-88700000D03*
X127000000Y-90700000D03*
X130200000Y-90700000D03*
X125100000Y-90800000D03*
X134600000Y-92700000D03*
X134000000Y-87800000D03*
X133400000Y-79900000D03*
X133800000Y-73700000D03*
%TO.N,BUCK_IN*%
X154500000Y-91100000D03*
X155000000Y-85700000D03*
%TO.N,BUCK_BST*%
X147300000Y-99600000D03*
X147300000Y-96500000D03*
%TO.N,+5V*%
X156400000Y-83400000D03*
X153700000Y-66100000D03*
X158900000Y-59800000D03*
X156700000Y-59700000D03*
%TO.N,SWCLK*%
X144700000Y-55100000D03*
X144500000Y-51500000D03*
%TO.N,SWO*%
X143500000Y-55400000D03*
X140900000Y-50400000D03*
%TO.N,NRST*%
X132900000Y-77300000D03*
X133000000Y-71100000D03*
%TO.N,I2C1_SCL*%
X139300000Y-66200000D03*
X136000000Y-64300000D03*
%TO.N,I2C1_SDA*%
X139000000Y-69250000D03*
X135500000Y-67500000D03*
%TO.N,USART3_TX*%
X141500000Y-80900000D03*
X139500000Y-88800000D03*
%TO.N,BOOTO*%
X138800000Y-70400000D03*
X123400000Y-73100000D03*
%TO.N,BUCK_EN*%
X153400000Y-97400000D03*
X155600000Y-96800000D03*
%TO.N,USB_D+*%
X152250000Y-73500000D03*
X152250000Y-69750000D03*
%TD*%
D18*
%TO.N,GND*%
X122000000Y-86000000D02*
X125000000Y-86000000D01*
X137700000Y-81400000D02*
X137700000Y-81400000D01*
X137700000Y-81400000D02*
X137700000Y-81300000D01*
%TO.N,HSE_IN*%
X129750000Y-77220000D02*
X129750000Y-78000000D01*
X131500000Y-75470000D02*
X129750000Y-77220000D01*
X128650000Y-76900000D02*
X129750000Y-78000000D01*
X128100000Y-76900000D02*
X128650000Y-76900000D01*
%TO.N,+3.3VA*%
X132010872Y-89239128D02*
X132010872Y-87481880D01*
X131500000Y-89750000D02*
X132010872Y-89239128D01*
D19*
%TO.N,BUCK_IN*%
X154500000Y-91100000D02*
X155000000Y-90600000D01*
X155000000Y-90600000D02*
X155000000Y-85700000D01*
D18*
%TO.N,BUCK_BST*%
X147300000Y-99600000D02*
X147300000Y-96500000D01*
D19*
%TO.N,+5V*%
X153700000Y-80700000D02*
X153700000Y-66100000D01*
X156400000Y-83400000D02*
X153700000Y-80700000D01*
D18*
X156800000Y-59800000D02*
X156700000Y-59700000D01*
X158900000Y-59800000D02*
X156800000Y-59800000D01*
D20*
%TO.N,SWCLK*%
X144700000Y-51700000D02*
X144500000Y-51500000D01*
X144700000Y-55100000D02*
X144700000Y-51700000D01*
%TO.N,SWO*%
X143500000Y-55400000D02*
X143500000Y-50800000D01*
X143100000Y-50400000D02*
X140900000Y-50400000D01*
X143500000Y-50800000D02*
X143100000Y-50400000D01*
D18*
%TO.N,NRST*%
X132900000Y-77300000D02*
X131900000Y-77300000D01*
X131900000Y-77300000D02*
X131800000Y-77200000D01*
X131800000Y-77200000D02*
X131800000Y-76800000D01*
X133000000Y-75600000D02*
X133000000Y-71100000D01*
X131800000Y-76800000D02*
X133000000Y-75600000D01*
%TO.N,I2C1_SCL*%
X139300000Y-66200000D02*
X137400000Y-64300000D01*
X137400000Y-64300000D02*
X136000000Y-64300000D01*
%TO.N,I2C1_SDA*%
X139000000Y-69250000D02*
X138250000Y-68500000D01*
X138250000Y-68500000D02*
X136500000Y-68500000D01*
X136500000Y-68500000D02*
X135500000Y-67500000D01*
D20*
%TO.N,USART3_TX*%
X141500000Y-80900000D02*
X140300000Y-80900000D01*
X140300000Y-80900000D02*
X139700000Y-81500000D01*
X139700000Y-88600000D02*
X139500000Y-88800000D01*
X139700000Y-81500000D02*
X139700000Y-88600000D01*
D18*
%TO.N,BOOTO*%
X138800000Y-70400000D02*
X138200000Y-69800000D01*
X138200000Y-69800000D02*
X126700000Y-69800000D01*
X126700000Y-69800000D02*
X123400000Y-73100000D01*
%TO.N,BUCK_EN*%
X155000000Y-97400000D02*
X155600000Y-96800000D01*
X153400000Y-97400000D02*
X155000000Y-97400000D01*
D20*
%TO.N,USB_D+*%
X152250000Y-73500000D02*
X152250000Y-69750000D01*
%TD*%
M02*
